<?xml version="1.0" encoding="UTF-8"?><svg id="b" xmlns="http://www.w3.org/2000/svg" viewBox="0 0 1000 600"><defs><style>.d{stroke-width:0px;}.e{fill:none;stroke:#000;stroke-miterlimit:10;stroke-width:2px;}</style></defs><path class="d" d="M302.24,95.89l2.85,10.44,1.96-14.33h3.31l-3.21,19.37h-3.31l-3.13-11.7-3.13,11.7h-3.31l-3.21-19.37h3.35l1.92,14.33,2.85-10.44h3.06Z"/><path class="d" d="M320.29,108.15v13.55h3.16v1.66h-8.91v-1.66h3.84v-10.24h-3.84v-1.32c2.51-.06,3.74-.34,4.51-1.99h1.25Z"/><path class="d" d="M333.71,108.15v13.55h3.16v1.66h-8.91v-1.66h3.84v-10.24h-3.84v-1.32c2.51-.06,3.74-.34,4.51-1.99h1.25Z"/><path class="d" d="M302.24,143.89l2.85,10.44,1.96-14.33h3.31l-3.21,19.37h-3.31l-3.13-11.7-3.13,11.7h-3.31l-3.21-19.37h3.35l1.92,14.33,2.85-10.44h3.06Z"/><path class="d" d="M323.8,159.97c0,3.52-3.36,6.63-7.21,9.73h7.48v1.66h-10.16v-1.66c5.05-3.97,7.85-6.82,7.85-9.48,0-1.57-.89-2.71-2.6-2.71-1.56,0-2.99.96-3.03,3.46h-1.95c-.04-2.9,1.95-5.1,5-5.1,2.64,0,4.61,1.51,4.61,4.09Z"/><path class="d" d="M333.71,156.15v13.55h3.16v1.66h-8.91v-1.66h3.84v-10.24h-3.84v-1.32c2.51-.06,3.74-.34,4.51-1.99h1.25Z"/><path class="d" d="M302.24,191.89l2.85,10.44,1.96-14.33h3.31l-3.21,19.37h-3.31l-3.13-11.7-3.13,11.7h-3.31l-3.21-19.37h3.35l1.92,14.33,2.85-10.44h3.06Z"/><path class="d" d="M322.12,215.1c0-2.14-1.81-2.92-4.11-2.92h-.29v-1.7h.23c2.47,0,3.8-.82,3.8-2.58,0-1.53-1.25-2.39-2.78-2.39-1.91,0-2.95,1.24-3.09,2.94h-1.95c.21-2.69,2.16-4.57,5.11-4.57,2.43,0,4.75,1.07,4.75,3.84,0,1.55-.83,2.9-2.35,3.52,2.12.73,2.72,2.29,2.72,3.84,0,3.02-2.62,4.55-5.27,4.55-3.34,0-4.98-2.33-5.17-4.8h1.93c.21,1.85,1.25,3.15,3.26,3.15,1.91,0,3.22-1.07,3.22-2.87Z"/><path class="d" d="M333.71,204.15v13.55h3.16v1.66h-8.91v-1.66h3.84v-10.24h-3.84v-1.32c2.51-.06,3.74-.34,4.51-1.99h1.25Z"/><path class="d" d="M302.24,239.89l2.85,10.44,1.96-14.33h3.31l-3.21,19.37h-3.31l-3.13-11.7-3.13,11.7h-3.31l-3.21-19.37h3.35l1.92,14.33,2.85-10.44h3.06Z"/><path class="d" d="M324.67,263.6h-2.51v3.76h-1.91v-3.76h-7.1v-1.8l7.08-9.65h1.93v9.65h2.51v1.8ZM315.14,261.8h5.11v-7.05l-5.11,7.05Z"/><path class="d" d="M333.71,252.15v13.55h3.16v1.66h-8.91v-1.66h3.84v-10.24h-3.84v-1.32c2.51-.06,3.74-.34,4.51-1.99h1.25Z"/><path class="d" d="M298.68,303.37v-4.14h4.1v4.14h-4.1Z"/><path class="d" d="M314.57,303.37v-4.14h4.1v4.14h-4.1Z"/><path class="d" d="M330.45,303.37v-4.14h4.1v4.14h-4.1Z"/><path class="d" d="M302.24,335.89l2.85,10.44,1.96-14.33h3.31l-3.21,19.37h-3.31l-3.13-11.7-3.13,11.7h-3.31l-3.21-19.37h3.35l1.92,14.33,2.85-10.44h3.06Z"/><path class="d" d="M321.74,351.88c1.16,0,2.31.54,2.31,3.52v7.95h-1.91v-6.97c0-1.64,0-2.9-.96-2.9s-1.25,1.13-1.25,3.46v6.4h-1.91v-6.97c0-1.64,0-2.9-.93-2.9s-1.27,1.15-1.27,3.5v6.36h-1.91v-11.29h1.83v1.2c.37-.73.98-1.38,2.04-1.38s1.5.67,1.74,1.43c.48-.88,1.2-1.43,2.22-1.43Z"/><path class="d" d="M333.71,348.15v13.55h3.16v1.66h-8.91v-1.66h3.84v-10.24h-3.84v-1.32c2.51-.06,3.74-.34,4.51-1.99h1.25Z"/><path class="d" d="M802.24,95.89l2.85,10.44,1.96-14.33h3.31l-3.21,19.37h-3.31l-3.13-11.7-3.13,11.7h-3.31l-3.21-19.37h3.35l1.92,14.33,2.85-10.44h3.06Z"/><path class="d" d="M820.29,108.15v13.55h3.16v1.66h-8.91v-1.66h3.84v-10.24h-3.84v-1.32c2.51-.06,3.74-.34,4.51-1.99h1.25Z"/><path class="d" d="M829.95,113.66c.56-.96,1.52-1.78,3.28-1.78,2.7,0,3.51,1.8,3.51,4.3v7.18h-1.91v-6.5c0-1.83-.15-3.34-2.22-3.34-1.72,0-2.66,1.3-2.66,3.71v6.13h-1.91v-11.29h1.91v1.59Z"/><path class="d" d="M802.24,143.89l2.85,10.44,1.96-14.33h3.31l-3.21,19.37h-3.31l-3.13-11.7-3.13,11.7h-3.31l-3.21-19.37h3.35l1.92,14.33,2.85-10.44h3.06Z"/><path class="d" d="M823.8,159.97c0,3.52-3.36,6.63-7.21,9.73h7.48v1.66h-10.16v-1.66c5.05-3.97,7.85-6.82,7.85-9.48,0-1.57-.89-2.71-2.6-2.71-1.56,0-2.99.96-3.03,3.46h-1.95c-.04-2.9,1.95-5.1,5-5.1,2.64,0,4.61,1.51,4.61,4.09Z"/><path class="d" d="M829.95,161.66c.56-.96,1.52-1.78,3.28-1.78,2.7,0,3.51,1.8,3.51,4.3v7.18h-1.91v-6.5c0-1.83-.15-3.34-2.22-3.34-1.72,0-2.66,1.3-2.66,3.71v6.13h-1.91v-11.29h1.91v1.59Z"/><path class="d" d="M802.24,191.89l2.85,10.44,1.96-14.33h3.31l-3.21,19.37h-3.31l-3.13-11.7-3.13,11.7h-3.31l-3.21-19.37h3.35l1.92,14.33,2.85-10.44h3.06Z"/><path class="d" d="M822.12,215.1c0-2.14-1.81-2.92-4.11-2.92h-.29v-1.7h.23c2.47,0,3.8-.82,3.8-2.58,0-1.53-1.25-2.39-2.78-2.39-1.91,0-2.95,1.24-3.09,2.94h-1.95c.21-2.69,2.16-4.57,5.11-4.57,2.43,0,4.75,1.07,4.75,3.84,0,1.55-.83,2.9-2.35,3.52,2.12.73,2.72,2.29,2.72,3.84,0,3.02-2.62,4.55-5.27,4.55-3.34,0-4.98-2.33-5.17-4.8h1.93c.21,1.85,1.25,3.15,3.26,3.15,1.91,0,3.22-1.07,3.22-2.87Z"/><path class="d" d="M829.95,209.66c.56-.96,1.52-1.78,3.28-1.78,2.7,0,3.51,1.8,3.51,4.3v7.18h-1.91v-6.5c0-1.83-.15-3.34-2.22-3.34-1.72,0-2.66,1.3-2.66,3.71v6.13h-1.91v-11.29h1.91v1.59Z"/><path class="d" d="M802.24,239.89l2.85,10.44,1.96-14.33h3.31l-3.21,19.37h-3.31l-3.13-11.7-3.13,11.7h-3.31l-3.21-19.37h3.35l1.92,14.33,2.85-10.44h3.06Z"/><path class="d" d="M824.67,263.6h-2.51v3.76h-1.91v-3.76h-7.1v-1.8l7.08-9.65h1.93v9.65h2.51v1.8ZM815.14,261.8h5.11v-7.05l-5.11,7.05Z"/><path class="d" d="M829.95,257.66c.56-.96,1.52-1.78,3.28-1.78,2.7,0,3.51,1.8,3.51,4.3v7.18h-1.91v-6.5c0-1.83-.15-3.34-2.22-3.34-1.72,0-2.66,1.3-2.66,3.71v6.13h-1.91v-11.29h1.91v1.59Z"/><path class="d" d="M798.68,303.37v-4.14h4.1v4.14h-4.1Z"/><path class="d" d="M814.57,303.37v-4.14h4.1v4.14h-4.1Z"/><path class="d" d="M830.45,303.37v-4.14h4.1v4.14h-4.1Z"/><path class="d" d="M802.24,335.89l2.85,10.44,1.96-14.33h3.31l-3.21,19.37h-3.31l-3.13-11.7-3.13,11.7h-3.31l-3.21-19.37h3.35l1.92,14.33,2.85-10.44h3.06Z"/><path class="d" d="M821.74,351.88c1.16,0,2.31.54,2.31,3.52v7.95h-1.91v-6.97c0-1.64,0-2.9-.96-2.9s-1.25,1.13-1.25,3.46v6.4h-1.91v-6.97c0-1.64,0-2.9-.93-2.9s-1.27,1.15-1.27,3.5v6.36h-1.91v-11.29h1.83v1.2c.37-.73.98-1.38,2.04-1.38s1.5.67,1.74,1.43c.48-.88,1.2-1.43,2.22-1.43Z"/><path class="d" d="M829.95,353.67c.56-.96,1.52-1.78,3.28-1.78,2.7,0,3.51,1.8,3.51,4.3v7.18h-1.91v-6.5c0-1.83-.15-3.34-2.22-3.34-1.72,0-2.66,1.3-2.66,3.71v6.13h-1.91v-11.29h1.91v1.59Z"/><path class="d" d="M402.24,95.89l2.85,10.44,1.96-14.33h3.31l-3.21,19.37h-3.31l-3.13-11.7-3.13,11.7h-3.31l-3.21-19.37h3.35l1.92,14.33,2.85-10.44h3.06Z"/><path class="d" d="M420.29,108.15v13.55h3.16v1.66h-8.91v-1.66h3.84v-10.24h-3.84v-1.32c2.51-.06,3.74-.34,4.51-1.99h1.25Z"/><path class="d" d="M437.22,111.97c0,3.52-3.36,6.63-7.21,9.73h7.48v1.66h-10.16v-1.66c5.05-3.97,7.85-6.82,7.85-9.48,0-1.57-.89-2.71-2.6-2.71-1.56,0-2.99.96-3.03,3.46h-1.95c-.04-2.9,1.95-5.1,5-5.1,2.64,0,4.61,1.51,4.61,4.09Z"/><path class="d" d="M402.24,143.89l2.85,10.44,1.96-14.33h3.31l-3.21,19.37h-3.31l-3.13-11.7-3.13,11.7h-3.31l-3.21-19.37h3.35l1.92,14.33,2.85-10.44h3.06Z"/><path class="d" d="M423.8,159.97c0,3.52-3.36,6.63-7.21,9.73h7.48v1.66h-10.16v-1.66c5.05-3.97,7.85-6.82,7.85-9.48,0-1.57-.89-2.71-2.6-2.71-1.56,0-2.99.96-3.03,3.46h-1.95c-.04-2.9,1.95-5.1,5-5.1,2.64,0,4.61,1.51,4.61,4.09Z"/><path class="d" d="M437.22,159.97c0,3.52-3.36,6.63-7.21,9.73h7.48v1.66h-10.16v-1.66c5.05-3.97,7.85-6.82,7.85-9.48,0-1.57-.89-2.71-2.6-2.71-1.56,0-2.99.96-3.03,3.46h-1.95c-.04-2.9,1.95-5.1,5-5.1,2.64,0,4.61,1.51,4.61,4.09Z"/><path class="d" d="M402.24,191.89l2.85,10.44,1.96-14.33h3.31l-3.21,19.37h-3.31l-3.13-11.7-3.13,11.7h-3.31l-3.21-19.37h3.35l1.92,14.33,2.85-10.44h3.06Z"/><path class="d" d="M422.12,215.1c0-2.14-1.81-2.92-4.11-2.92h-.29v-1.7h.23c2.47,0,3.8-.82,3.8-2.58,0-1.53-1.25-2.39-2.78-2.39-1.91,0-2.95,1.24-3.09,2.94h-1.95c.21-2.69,2.16-4.57,5.11-4.57,2.43,0,4.75,1.07,4.75,3.84,0,1.55-.83,2.9-2.35,3.52,2.12.73,2.72,2.29,2.72,3.84,0,3.02-2.62,4.55-5.27,4.55-3.34,0-4.98-2.33-5.17-4.8h1.93c.21,1.85,1.25,3.15,3.26,3.15,1.91,0,3.22-1.07,3.22-2.87Z"/><path class="d" d="M437.22,207.97c0,3.52-3.36,6.63-7.21,9.73h7.48v1.66h-10.16v-1.66c5.05-3.97,7.85-6.82,7.85-9.48,0-1.57-.89-2.71-2.6-2.71-1.56,0-2.99.96-3.03,3.46h-1.95c-.04-2.9,1.95-5.1,5-5.1,2.64,0,4.61,1.51,4.61,4.09Z"/><path class="d" d="M402.24,239.89l2.85,10.44,1.96-14.33h3.31l-3.21,19.37h-3.31l-3.13-11.7-3.13,11.7h-3.31l-3.21-19.37h3.35l1.92,14.33,2.85-10.44h3.06Z"/><path class="d" d="M424.67,263.6h-2.51v3.76h-1.91v-3.76h-7.1v-1.8l7.08-9.65h1.93v9.65h2.51v1.8ZM415.14,261.8h5.11v-7.05l-5.11,7.05Z"/><path class="d" d="M437.22,255.97c0,3.52-3.36,6.63-7.21,9.73h7.48v1.66h-10.16v-1.66c5.05-3.97,7.85-6.82,7.85-9.48,0-1.57-.89-2.71-2.6-2.71-1.56,0-2.99.96-3.03,3.46h-1.95c-.04-2.9,1.95-5.1,5-5.1,2.64,0,4.61,1.51,4.61,4.09Z"/><path class="d" d="M398.68,303.37v-4.14h4.1v4.14h-4.1Z"/><path class="d" d="M414.57,303.37v-4.14h4.1v4.14h-4.1Z"/><path class="d" d="M430.45,303.37v-4.14h4.1v4.14h-4.1Z"/><path class="d" d="M402.24,335.89l2.85,10.44,1.96-14.33h3.31l-3.21,19.37h-3.31l-3.13-11.7-3.13,11.7h-3.31l-3.21-19.37h3.35l1.92,14.33,2.85-10.44h3.06Z"/><path class="d" d="M421.74,351.88c1.16,0,2.31.54,2.31,3.52v7.95h-1.91v-6.97c0-1.64,0-2.9-.96-2.9s-1.25,1.13-1.25,3.46v6.4h-1.91v-6.97c0-1.64,0-2.9-.93-2.9s-1.27,1.15-1.27,3.5v6.36h-1.91v-11.29h1.83v1.2c.37-.73.98-1.38,2.04-1.38s1.5.67,1.74,1.43c.48-.88,1.2-1.43,2.22-1.43Z"/><path class="d" d="M437.22,351.97c0,3.52-3.36,6.63-7.21,9.74h7.48v1.66h-10.16v-1.66c5.05-3.97,7.85-6.82,7.85-9.48,0-1.57-.89-2.71-2.6-2.71-1.56,0-2.99.96-3.03,3.46h-1.95c-.04-2.9,1.95-5.1,5-5.1,2.64,0,4.61,1.51,4.61,4.09Z"/><path class="d" d="M502.24,95.89l2.85,10.44,1.96-14.33h3.31l-3.21,19.37h-3.31l-3.13-11.7-3.13,11.7h-3.31l-3.21-19.37h3.35l1.92,14.33,2.85-10.44h3.06Z"/><path class="d" d="M520.29,108.15v13.55h3.16v1.66h-8.91v-1.66h3.84v-10.24h-3.84v-1.32c2.51-.06,3.74-.34,4.51-1.99h1.25Z"/><path class="d" d="M535.53,119.1c0-2.14-1.81-2.92-4.11-2.92h-.29v-1.7h.23c2.47,0,3.8-.82,3.8-2.58,0-1.53-1.25-2.39-2.78-2.39-1.91,0-2.95,1.24-3.09,2.94h-1.95c.21-2.69,2.16-4.57,5.11-4.57,2.43,0,4.75,1.07,4.75,3.84,0,1.55-.83,2.9-2.35,3.52,2.12.73,2.72,2.29,2.72,3.84,0,3.02-2.62,4.55-5.27,4.55-3.34,0-4.98-2.33-5.17-4.8h1.93c.21,1.85,1.25,3.15,3.26,3.15,1.91,0,3.22-1.07,3.22-2.87Z"/><path class="d" d="M502.24,143.89l2.85,10.44,1.96-14.33h3.31l-3.21,19.37h-3.31l-3.13-11.7-3.13,11.7h-3.31l-3.21-19.37h3.35l1.92,14.33,2.85-10.44h3.06Z"/><path class="d" d="M523.8,159.97c0,3.52-3.36,6.63-7.21,9.73h7.48v1.66h-10.16v-1.66c5.05-3.97,7.85-6.82,7.85-9.48,0-1.57-.89-2.71-2.6-2.71-1.56,0-2.99.96-3.03,3.46h-1.95c-.04-2.9,1.95-5.1,5-5.1,2.64,0,4.61,1.51,4.61,4.09Z"/><path class="d" d="M535.53,167.1c0-2.14-1.81-2.92-4.11-2.92h-.29v-1.7h.23c2.47,0,3.8-.82,3.8-2.58,0-1.53-1.25-2.39-2.78-2.39-1.91,0-2.95,1.24-3.09,2.94h-1.95c.21-2.69,2.16-4.57,5.11-4.57,2.43,0,4.75,1.07,4.75,3.84,0,1.55-.83,2.9-2.35,3.52,2.12.73,2.72,2.29,2.72,3.84,0,3.02-2.62,4.55-5.27,4.55-3.34,0-4.98-2.33-5.17-4.8h1.93c.21,1.85,1.25,3.15,3.26,3.15,1.91,0,3.22-1.07,3.22-2.87Z"/><path class="d" d="M502.24,191.89l2.85,10.44,1.96-14.33h3.31l-3.21,19.37h-3.31l-3.13-11.7-3.13,11.7h-3.31l-3.21-19.37h3.35l1.92,14.33,2.85-10.44h3.06Z"/><path class="d" d="M522.12,215.1c0-2.14-1.81-2.92-4.11-2.92h-.29v-1.7h.23c2.47,0,3.8-.82,3.8-2.58,0-1.53-1.25-2.39-2.78-2.39-1.91,0-2.95,1.24-3.09,2.94h-1.95c.21-2.69,2.16-4.57,5.11-4.57,2.43,0,4.75,1.07,4.75,3.84,0,1.55-.83,2.9-2.35,3.52,2.12.73,2.72,2.29,2.72,3.84,0,3.02-2.62,4.55-5.27,4.55-3.34,0-4.98-2.33-5.17-4.8h1.93c.21,1.85,1.25,3.15,3.26,3.15,1.91,0,3.22-1.07,3.22-2.87Z"/><path class="d" d="M535.53,215.1c0-2.14-1.81-2.92-4.11-2.92h-.29v-1.7h.23c2.47,0,3.8-.82,3.8-2.58,0-1.53-1.25-2.39-2.78-2.39-1.91,0-2.95,1.24-3.09,2.94h-1.95c.21-2.69,2.16-4.57,5.11-4.57,2.43,0,4.75,1.07,4.75,3.84,0,1.55-.83,2.9-2.35,3.52,2.12.73,2.72,2.29,2.72,3.84,0,3.02-2.62,4.55-5.27,4.55-3.34,0-4.98-2.33-5.17-4.8h1.93c.21,1.85,1.25,3.15,3.26,3.15,1.91,0,3.22-1.07,3.22-2.87Z"/><path class="d" d="M502.24,239.89l2.85,10.44,1.96-14.33h3.31l-3.21,19.37h-3.31l-3.13-11.7-3.13,11.7h-3.31l-3.21-19.37h3.35l1.92,14.33,2.85-10.44h3.06Z"/><path class="d" d="M524.67,263.6h-2.51v3.76h-1.91v-3.76h-7.1v-1.8l7.08-9.65h1.93v9.65h2.51v1.8ZM515.14,261.8h5.11v-7.05l-5.11,7.05Z"/><path class="d" d="M535.53,263.1c0-2.14-1.81-2.92-4.11-2.92h-.29v-1.7h.23c2.47,0,3.8-.82,3.8-2.58,0-1.53-1.25-2.39-2.78-2.39-1.91,0-2.95,1.24-3.09,2.94h-1.95c.21-2.69,2.16-4.57,5.11-4.57,2.43,0,4.75,1.07,4.75,3.84,0,1.55-.83,2.9-2.35,3.52,2.12.73,2.72,2.29,2.72,3.84,0,3.02-2.62,4.55-5.27,4.55-3.34,0-4.98-2.33-5.17-4.8h1.93c.21,1.85,1.25,3.15,3.26,3.15,1.91,0,3.22-1.07,3.22-2.87Z"/><path class="d" d="M498.68,303.37v-4.14h4.1v4.14h-4.1Z"/><path class="d" d="M514.57,303.37v-4.14h4.1v4.14h-4.1Z"/><path class="d" d="M530.45,303.37v-4.14h4.1v4.14h-4.1Z"/><path class="d" d="M502.24,335.89l2.85,10.44,1.96-14.33h3.31l-3.21,19.37h-3.31l-3.13-11.7-3.13,11.7h-3.31l-3.21-19.37h3.35l1.92,14.33,2.85-10.44h3.06Z"/><path class="d" d="M521.74,351.88c1.16,0,2.31.54,2.31,3.52v7.95h-1.91v-6.97c0-1.64,0-2.9-.96-2.9s-1.25,1.13-1.25,3.46v6.4h-1.91v-6.97c0-1.64,0-2.9-.93-2.9s-1.27,1.15-1.27,3.5v6.36h-1.91v-11.29h1.83v1.2c.37-.73.98-1.38,2.04-1.38s1.5.67,1.74,1.43c.48-.88,1.2-1.43,2.22-1.43Z"/><path class="d" d="M535.53,359.1c0-2.14-1.81-2.92-4.11-2.92h-.29v-1.7h.23c2.47,0,3.8-.82,3.8-2.58,0-1.53-1.25-2.39-2.78-2.39-1.91,0-2.95,1.24-3.09,2.94h-1.95c.21-2.69,2.16-4.57,5.11-4.57,2.43,0,4.75,1.07,4.75,3.84,0,1.55-.83,2.9-2.35,3.52,2.12.74,2.72,2.29,2.72,3.84,0,3.02-2.62,4.55-5.27,4.55-3.34,0-4.98-2.33-5.17-4.8h1.93c.21,1.85,1.25,3.15,3.26,3.15,1.91,0,3.22-1.07,3.22-2.87Z"/><path class="d" d="M602.24,95.89l2.85,10.44,1.96-14.33h3.31l-3.21,19.37h-3.31l-3.13-11.7-3.13,11.7h-3.31l-3.21-19.37h3.35l1.92,14.33,2.85-10.44h3.06Z"/><path class="d" d="M620.29,108.15v13.55h3.16v1.66h-8.91v-1.66h3.84v-10.24h-3.84v-1.32c2.51-.06,3.74-.34,4.51-1.99h1.25Z"/><path class="d" d="M638.09,119.6h-2.51v3.76h-1.91v-3.76h-7.1v-1.8l7.08-9.65h1.93v9.65h2.51v1.8ZM628.56,117.8h5.11v-7.05l-5.11,7.05Z"/><path class="d" d="M602.24,143.89l2.85,10.44,1.96-14.33h3.31l-3.21,19.37h-3.31l-3.13-11.7-3.13,11.7h-3.31l-3.21-19.37h3.35l1.92,14.33,2.85-10.44h3.06Z"/><path class="d" d="M623.8,159.97c0,3.52-3.36,6.63-7.21,9.73h7.48v1.66h-10.16v-1.66c5.05-3.97,7.85-6.82,7.85-9.48,0-1.57-.89-2.71-2.6-2.71-1.56,0-2.99.96-3.03,3.46h-1.95c-.04-2.9,1.95-5.1,5-5.1,2.64,0,4.61,1.51,4.61,4.09Z"/><path class="d" d="M638.09,167.6h-2.51v3.76h-1.91v-3.76h-7.1v-1.8l7.08-9.65h1.93v9.65h2.51v1.8ZM628.56,165.8h5.11v-7.05l-5.11,7.05Z"/><path class="d" d="M602.24,191.89l2.85,10.44,1.96-14.33h3.31l-3.21,19.37h-3.31l-3.13-11.7-3.13,11.7h-3.31l-3.21-19.37h3.35l1.92,14.33,2.85-10.44h3.06Z"/><path class="d" d="M622.12,215.1c0-2.14-1.81-2.92-4.11-2.92h-.29v-1.7h.23c2.47,0,3.8-.82,3.8-2.58,0-1.53-1.25-2.39-2.78-2.39-1.91,0-2.95,1.24-3.09,2.94h-1.95c.21-2.69,2.16-4.57,5.11-4.57,2.43,0,4.75,1.07,4.75,3.84,0,1.55-.83,2.9-2.35,3.52,2.12.73,2.72,2.29,2.72,3.84,0,3.02-2.62,4.55-5.27,4.55-3.34,0-4.98-2.33-5.17-4.8h1.93c.21,1.85,1.25,3.15,3.26,3.15,1.91,0,3.22-1.07,3.22-2.87Z"/><path class="d" d="M638.09,215.6h-2.51v3.76h-1.91v-3.76h-7.1v-1.8l7.08-9.65h1.93v9.65h2.51v1.8ZM628.56,213.8h5.11v-7.05l-5.11,7.05Z"/><path class="d" d="M602.24,239.89l2.85,10.44,1.96-14.33h3.31l-3.21,19.37h-3.31l-3.13-11.7-3.13,11.7h-3.31l-3.21-19.37h3.35l1.92,14.33,2.85-10.44h3.06Z"/><path class="d" d="M624.67,263.6h-2.51v3.76h-1.91v-3.76h-7.1v-1.8l7.08-9.65h1.93v9.65h2.51v1.8ZM615.14,261.8h5.11v-7.05l-5.11,7.05Z"/><path class="d" d="M638.09,263.6h-2.51v3.76h-1.91v-3.76h-7.1v-1.8l7.08-9.65h1.93v9.65h2.51v1.8ZM628.56,261.8h5.11v-7.05l-5.11,7.05Z"/><path class="d" d="M598.68,303.37v-4.14h4.1v4.14h-4.1Z"/><path class="d" d="M614.57,303.37v-4.14h4.1v4.14h-4.1Z"/><path class="d" d="M630.45,303.37v-4.14h4.1v4.14h-4.1Z"/><path class="d" d="M602.24,335.89l2.85,10.44,1.96-14.33h3.31l-3.21,19.37h-3.31l-3.13-11.7-3.13,11.7h-3.31l-3.21-19.37h3.35l1.92,14.33,2.85-10.44h3.06Z"/><path class="d" d="M621.74,351.88c1.16,0,2.31.54,2.31,3.52v7.95h-1.91v-6.97c0-1.64,0-2.9-.96-2.9s-1.25,1.13-1.25,3.46v6.4h-1.91v-6.97c0-1.64,0-2.9-.93-2.9s-1.27,1.15-1.27,3.5v6.36h-1.91v-11.29h1.83v1.2c.37-.73.98-1.38,2.04-1.38s1.5.67,1.74,1.43c.48-.88,1.2-1.43,2.22-1.43Z"/><path class="d" d="M638.09,359.6h-2.51v3.76h-1.91v-3.76h-7.1v-1.8l7.08-9.65h1.93v9.65h2.51v1.8ZM628.56,357.8h5.11v-7.05l-5.11,7.05Z"/><path class="d" d="M698.68,111.37v-4.14h4.1v4.14h-4.1Z"/><path class="d" d="M714.57,111.37v-4.14h4.1v4.14h-4.1Z"/><path class="d" d="M730.45,111.37v-4.14h4.1v4.14h-4.1Z"/><path class="d" d="M698.68,159.37v-4.14h4.1v4.14h-4.1Z"/><path class="d" d="M714.57,159.37v-4.14h4.1v4.14h-4.1Z"/><path class="d" d="M730.45,159.37v-4.14h4.1v4.14h-4.1Z"/><path class="d" d="M698.68,207.37v-4.14h4.1v4.14h-4.1Z"/><path class="d" d="M714.57,207.37v-4.14h4.1v4.14h-4.1Z"/><path class="d" d="M730.45,207.37v-4.14h4.1v4.14h-4.1Z"/><path class="d" d="M698.68,255.37v-4.14h4.1v4.14h-4.1Z"/><path class="d" d="M714.57,255.37v-4.14h4.1v4.14h-4.1Z"/><path class="d" d="M730.45,255.37v-4.14h4.1v4.14h-4.1Z"/><path class="d" d="M698.68,303.37v-4.14h4.1v4.14h-4.1Z"/><path class="d" d="M714.57,303.37v-4.14h4.1v4.14h-4.1Z"/><path class="d" d="M730.45,303.37v-4.14h4.1v4.14h-4.1Z"/><path class="d" d="M698.68,351.37v-4.14h4.1v4.14h-4.1Z"/><path class="d" d="M714.57,351.37v-4.14h4.1v4.14h-4.1Z"/><path class="d" d="M730.45,351.37v-4.14h4.1v4.14h-4.1Z"/><path class="d" d="M132.18,534.95c-1.21-.62-2.22-1.48-3.02-2.56-.8-1.08-1.34-2.27-1.6-3.56l3.78-2.38c.38,1.54.99,2.77,1.82,3.71.83.94,1.89,1.4,3.19,1.4.98,0,1.78-.25,2.38-.74.6-.49.9-1.24.9-2.25,0-.62-.2-1.18-.61-1.66s-.92-.9-1.53-1.26c-.61-.36-1.48-.82-2.61-1.37l-1.04-.5c-1.44-.72-2.59-1.63-3.46-2.72-.86-1.09-1.3-2.49-1.3-4.19,0-1.27.29-2.42.88-3.46s1.42-1.84,2.48-2.43c1.07-.59,2.29-.88,3.65-.88,3.48,0,5.86,1.52,7.13,4.57l-3.78,2.41c-.62-1.78-1.74-2.66-3.35-2.66-.7,0-1.3.22-1.8.67s-.76.99-.76,1.64.22,1.22.67,1.71c.44.49.98.91,1.62,1.26.64.35,1.55.8,2.75,1.35,1.18.55,2.17,1.12,2.97,1.69.8.58,1.46,1.33,1.98,2.25.52.92.77,2.05.77,3.37,0,1.51-.34,2.84-1.03,3.98-.68,1.14-1.64,2.02-2.86,2.63s-2.62.92-4.18.92-2.84-.31-4.05-.94Z"/><path class="d" d="M148.21,514.29c-.55-.55-.83-1.24-.83-2.05s.28-1.5.83-2.05,1.24-.83,2.05-.83,1.5.28,2.05.83c.55.55.83,1.24.83,2.05s-.28,1.5-.83,2.05c-.55.55-1.24.83-2.05.83s-1.5-.28-2.05-.83ZM148.03,517.45h4.46v18.14h-4.46v-18.14Z"/><path class="d" d="M156.1,533.87l7.85-12.6h-7.27v-3.82h12.82v1.73l-7.78,12.6h8.28v3.82h-13.9v-1.73Z"/><path class="d" d="M189.36,527.96h-12.53c.19,1.34.67,2.36,1.42,3.06.76.7,1.72,1.04,2.9,1.04,1.01,0,1.85-.23,2.54-.68.68-.46,1.3-1.16,1.85-2.12l3.6,1.33c-.74,1.7-1.78,3.01-3.11,3.92-1.33.91-3.04,1.37-5.13,1.37-1.97,0-3.61-.46-4.91-1.39-1.31-.92-2.27-2.1-2.88-3.53-.61-1.43-.92-2.91-.92-4.45s.31-3.02.92-4.45c.61-1.43,1.57-2.6,2.88-3.53,1.31-.92,2.95-1.39,4.91-1.39s3.48.45,4.75,1.35c1.27.9,2.21,2.03,2.81,3.4.6,1.37.9,2.77.9,4.21v1.84ZM184.79,524.44c-.22-1.01-.64-1.84-1.28-2.48-.64-.65-1.51-.97-2.61-.97-.96,0-1.79.29-2.48.88-.7.59-1.19,1.45-1.48,2.57h7.85Z"/><path class="d" d="M205.6,534.66c-1.39-.82-2.45-1.93-3.19-3.35-.73-1.42-1.1-3.01-1.1-4.79s.37-3.37,1.1-4.79c.73-1.42,1.79-2.53,3.19-3.35,1.39-.82,3.04-1.22,4.93-1.22s3.54.41,4.93,1.22c1.39.82,2.45,1.93,3.19,3.35.73,1.42,1.1,3.01,1.1,4.79s-.37,3.37-1.1,4.79c-.73,1.42-1.79,2.53-3.19,3.35-1.39.82-3.04,1.22-4.93,1.22s-3.54-.41-4.93-1.22ZM213.84,530.47c.82-1.07,1.22-2.38,1.22-3.94s-.41-2.87-1.22-3.94c-.82-1.07-1.92-1.6-3.31-1.6s-2.5.53-3.31,1.6c-.82,1.07-1.22,2.38-1.22,3.94s.41,2.88,1.22,3.94c.82,1.07,1.92,1.6,3.31,1.6s2.5-.53,3.31-1.6Z"/><path class="d" d="M221.58,521.27v-3.82h2.3v-.94c0-2.14.56-3.74,1.67-4.81s2.65-1.6,4.59-1.6c1.37,0,2.5.24,3.38.72l-.97,3.6c-.79-.34-1.51-.5-2.16-.5-1.37,0-2.05.76-2.05,2.27v1.26h3.82v3.82h-3.82v14.33h-4.46v-14.33h-2.3Z"/><path class="d" d="M245.41,510.4h5.26l5.94,15.73,5.94-15.73h5.26v25.2h-4.68v-15.55l-4.82,13.25h-3.38l-4.82-13.25v15.55h-4.68v-25.2Z"/><path class="d" d="M276.48,534.66c-1.39-.82-2.45-1.93-3.19-3.35-.73-1.42-1.1-3.01-1.1-4.79s.37-3.37,1.1-4.79c.73-1.42,1.79-2.53,3.19-3.35,1.39-.82,3.04-1.22,4.93-1.22s3.54.41,4.93,1.22c1.39.82,2.45,1.93,3.19,3.35.73,1.42,1.1,3.01,1.1,4.79s-.37,3.37-1.1,4.79c-.73,1.42-1.79,2.53-3.19,3.35-1.39.82-3.04,1.22-4.93,1.22s-3.54-.41-4.93-1.22ZM284.72,530.47c.82-1.07,1.22-2.38,1.22-3.94s-.41-2.87-1.22-3.94c-.82-1.07-1.92-1.6-3.31-1.6s-2.5.53-3.31,1.6c-.82,1.07-1.22,2.38-1.22,3.94s.41,2.88,1.22,3.94c.82,1.07,1.92,1.6,3.31,1.6s2.5-.53,3.31-1.6Z"/><path class="d" d="M295.72,533.35c-1.38-1.69-2.07-3.97-2.07-6.82s.69-5.13,2.07-6.82c1.38-1.69,3.33-2.54,5.85-2.54,1.03,0,1.97.19,2.83.56s1.49.83,1.93,1.39v-9h4.46v25.49h-4.46v-1.87c-.29.55-.86,1.05-1.71,1.49-.85.44-1.87.67-3.04.67-2.52,0-4.47-.85-5.85-2.54ZM305.55,530.61c.78-.97,1.17-2.33,1.17-4.09s-.39-3.11-1.17-4.09c-.78-.97-1.78-1.46-3.01-1.46s-2.23.49-3.02,1.46c-.79.97-1.19,2.33-1.19,4.09s.4,3.08,1.19,4.07,1.8,1.48,3.02,1.48,2.23-.49,3.01-1.46Z"/><path class="d" d="M331.99,527.96h-12.53c.19,1.34.67,2.36,1.42,3.06.76.7,1.72,1.04,2.9,1.04,1.01,0,1.85-.23,2.54-.68.68-.46,1.3-1.16,1.85-2.12l3.6,1.33c-.74,1.7-1.78,3.01-3.11,3.92-1.33.91-3.04,1.37-5.13,1.37-1.97,0-3.61-.46-4.91-1.39-1.31-.92-2.27-2.1-2.88-3.53-.61-1.43-.92-2.91-.92-4.45s.31-3.02.92-4.45c.61-1.43,1.57-2.6,2.88-3.53,1.31-.92,2.95-1.39,4.91-1.39s3.48.45,4.75,1.35c1.27.9,2.21,2.03,2.81,3.4.6,1.37.9,2.77.9,4.21v1.84ZM327.42,524.44c-.22-1.01-.64-1.84-1.28-2.48-.64-.65-1.51-.97-2.61-.97-.96,0-1.79.29-2.48.88-.7.59-1.19,1.45-1.48,2.57h7.85Z"/><path class="d" d="M336.02,510.11h4.46v25.49h-4.46v-25.49Z"/><path class="d" d="M354.27,519.25h15.73v3.89h-15.73v-3.89ZM354.27,525.73h15.73v3.89h-15.73v-3.89Z"/><path class="d" d="M384.15,510.4h4.93l9.25,16.63v-16.63h4.68v25.2h-4.93l-9.25-16.63v16.63h-4.68v-25.2Z"/><path class="d" d="M411.69,534.66c-1.39-.82-2.45-1.93-3.19-3.35-.73-1.42-1.1-3.01-1.1-4.79s.37-3.37,1.1-4.79c.73-1.42,1.79-2.53,3.19-3.35,1.39-.82,3.04-1.22,4.93-1.22s3.54.41,4.93,1.22c1.39.82,2.45,1.93,3.19,3.35.73,1.42,1.1,3.01,1.1,4.79s-.37,3.37-1.1,4.79c-.73,1.42-1.79,2.53-3.19,3.35-1.39.82-3.04,1.22-4.93,1.22s-3.54-.41-4.93-1.22ZM419.94,530.47c.82-1.07,1.22-2.38,1.22-3.94s-.41-2.87-1.22-3.94c-.82-1.07-1.92-1.6-3.31-1.6s-2.5.53-3.31,1.6c-.82,1.07-1.22,2.38-1.22,3.94s.41,2.88,1.22,3.94c.82,1.07,1.92,1.6,3.31,1.6s2.5-.53,3.31-1.6Z"/><path class="d" d="M429.8,534.95c-.58-.58-.86-1.3-.86-2.16s.29-1.58.86-2.16c.58-.58,1.3-.86,2.16-.86s1.58.29,2.16.86.86,1.3.86,2.16-.29,1.58-.86,2.16c-.58.58-1.3.86-2.16.86s-1.58-.29-2.16-.86Z"/><path class="d" d="M451.65,534.66c-1.39-.82-2.45-1.93-3.19-3.35-.73-1.42-1.1-3.01-1.1-4.79s.37-3.37,1.1-4.79c.73-1.42,1.79-2.53,3.19-3.35,1.39-.82,3.04-1.22,4.93-1.22s3.54.41,4.93,1.22c1.39.82,2.45,1.93,3.19,3.35.73,1.42,1.1,3.01,1.1,4.79s-.37,3.37-1.1,4.79c-.73,1.42-1.79,2.53-3.19,3.35-1.39.82-3.04,1.22-4.93,1.22s-3.54-.41-4.93-1.22ZM459.9,530.47c.82-1.07,1.22-2.38,1.22-3.94s-.41-2.87-1.22-3.94c-.82-1.07-1.92-1.6-3.31-1.6s-2.5.53-3.31,1.6c-.82,1.07-1.22,2.38-1.22,3.94s.41,2.88,1.22,3.94c.82,1.07,1.92,1.6,3.31,1.6s2.5-.53,3.31-1.6Z"/><path class="d" d="M467.64,521.27v-3.82h2.3v-.94c0-2.14.56-3.74,1.67-4.81s2.65-1.6,4.59-1.6c1.37,0,2.5.24,3.38.72l-.97,3.6c-.79-.34-1.51-.5-2.16-.5-1.37,0-2.05.76-2.05,2.27v1.26h3.82v3.82h-3.82v14.33h-4.46v-14.33h-2.3Z"/><path class="d" d="M491.47,510.4h5.26l5.94,15.73,5.94-15.73h5.26v25.2h-4.68v-15.55l-4.82,13.25h-3.38l-4.82-13.25v15.55h-4.68v-25.2Z"/><path class="d" d="M522.53,534.66c-1.39-.82-2.45-1.93-3.19-3.35-.73-1.42-1.1-3.01-1.1-4.79s.37-3.37,1.1-4.79c.73-1.42,1.79-2.53,3.19-3.35,1.39-.82,3.04-1.22,4.93-1.22s3.54.41,4.93,1.22c1.39.82,2.45,1.93,3.19,3.35.73,1.42,1.1,3.01,1.1,4.79s-.37,3.37-1.1,4.79c-.73,1.42-1.79,2.53-3.19,3.35-1.39.82-3.04,1.22-4.93,1.22s-3.54-.41-4.93-1.22ZM530.78,530.47c.82-1.07,1.22-2.38,1.22-3.94s-.41-2.87-1.22-3.94c-.82-1.07-1.92-1.6-3.31-1.6s-2.5.53-3.31,1.6c-.82,1.07-1.22,2.38-1.22,3.94s.41,2.88,1.22,3.94c.82,1.07,1.92,1.6,3.31,1.6s2.5-.53,3.31-1.6Z"/><path class="d" d="M541.78,533.35c-1.38-1.69-2.07-3.97-2.07-6.82s.69-5.13,2.07-6.82c1.38-1.69,3.33-2.54,5.85-2.54,1.03,0,1.97.19,2.83.56s1.49.83,1.93,1.39v-9h4.46v25.49h-4.46v-1.87c-.29.55-.86,1.05-1.71,1.49-.85.44-1.87.67-3.04.67-2.52,0-4.47-.85-5.85-2.54ZM551.6,530.61c.78-.97,1.17-2.33,1.17-4.09s-.39-3.11-1.17-4.09c-.78-.97-1.78-1.46-3.01-1.46s-2.23.49-3.02,1.46c-.79.97-1.19,2.33-1.19,4.09s.4,3.08,1.19,4.07,1.8,1.48,3.02,1.48,2.23-.49,3.01-1.46Z"/><path class="d" d="M578.05,527.96h-12.53c.19,1.34.67,2.36,1.42,3.06.76.7,1.72,1.04,2.9,1.04,1.01,0,1.85-.23,2.54-.68.68-.46,1.3-1.16,1.85-2.12l3.6,1.33c-.74,1.7-1.78,3.01-3.11,3.92-1.33.91-3.04,1.37-5.13,1.37-1.97,0-3.61-.46-4.91-1.39-1.31-.92-2.27-2.1-2.88-3.53-.61-1.43-.92-2.91-.92-4.45s.31-3.02.92-4.45c.61-1.43,1.57-2.6,2.88-3.53,1.31-.92,2.95-1.39,4.91-1.39s3.48.45,4.75,1.35c1.27.9,2.21,2.03,2.81,3.4.6,1.37.9,2.77.9,4.21v1.84ZM573.47,524.44c-.22-1.01-.64-1.84-1.28-2.48-.64-.65-1.51-.97-2.61-.97-.96,0-1.79.29-2.48.88-.7.59-1.19,1.45-1.48,2.57h7.85Z"/><path class="d" d="M582.08,510.11h4.46v25.49h-4.46v-25.49Z"/><path class="d" d="M610.37,510.4c2.57,0,4.52.7,5.87,2.11,1.34,1.4,2.02,3.26,2.02,5.56s-.67,4.16-2.02,5.56c-1.34,1.4-3.3,2.11-5.87,2.11h-4.82v9.86h-4.68v-25.2h9.5ZM612.64,520.58c.58-.55.86-1.39.86-2.52s-.29-1.97-.86-2.52c-.58-.55-1.39-.83-2.45-.83h-4.64v6.7h4.64c1.06,0,1.87-.28,2.45-.83Z"/><path class="d" d="M621.64,534.44c-1.03-.96-1.55-2.32-1.55-4.07s.68-3.24,2.05-4.32,3.22-1.62,5.54-1.62h3.17v-.79c0-.89-.3-1.55-.9-2-.6-.44-1.36-.67-2.27-.67-1.56,0-2.6.7-3.13,2.09l-3.78-.86c.29-1.51,1.06-2.73,2.32-3.65s2.79-1.39,4.59-1.39c2.42,0,4.3.64,5.63,1.93s2,3.17,2,5.67v10.84h-3.67l-.47-2.3c-1.42,1.73-3.28,2.59-5.58,2.59-1.61,0-2.93-.48-3.96-1.44ZM629.63,531.04c.82-.68,1.22-1.59,1.22-2.72v-.36h-2.99c-.98,0-1.75.19-2.29.58s-.81.97-.81,1.76c0,.53.19.95.56,1.28.37.32.86.49,1.46.49,1.08,0,2.03-.34,2.84-1.03Z"/><path class="d" d="M644.32,517.45v2.95c.65-1.03,1.44-1.83,2.38-2.39.94-.56,1.93-.85,2.99-.85.67,0,1.4.12,2.2.36l-.83,4.14c-.55-.34-1.18-.5-1.87-.5-1.42,0-2.58.64-3.49,1.93s-1.37,3.31-1.37,6.07v6.44h-4.46v-18.14h4.46Z"/><path class="d" d="M654.51,534.44c-1.03-.96-1.55-2.32-1.55-4.07s.68-3.24,2.05-4.32,3.22-1.62,5.54-1.62h3.17v-.79c0-.89-.3-1.55-.9-2-.6-.44-1.36-.67-2.27-.67-1.56,0-2.6.7-3.13,2.09l-3.78-.86c.29-1.51,1.06-2.73,2.32-3.65s2.79-1.39,4.59-1.39c2.42,0,4.3.64,5.63,1.93s2,3.17,2,5.67v10.84h-3.67l-.47-2.3c-1.42,1.73-3.28,2.59-5.58,2.59-1.61,0-2.93-.48-3.96-1.44ZM662.5,531.04c.82-.68,1.22-1.59,1.22-2.72v-.36h-2.99c-.98,0-1.75.19-2.29.58s-.81.97-.81,1.76c0,.53.19.95.56,1.28.37.32.86.49,1.46.49,1.08,0,2.03-.34,2.84-1.03Z"/><path class="d" d="M677.19,517.45v2.92c.7-1.06,1.46-1.85,2.29-2.39.83-.54,1.81-.81,2.93-.81s2.22.31,3.13.94,1.56,1.56,1.94,2.81c.65-1.17,1.46-2.09,2.43-2.75.97-.66,2.01-.99,3.11-.99,1.68,0,3,.49,3.96,1.48.96.98,1.44,2.35,1.44,4.1v12.85h-4.46v-12.1c0-1.68-.74-2.52-2.23-2.52-1.15,0-2.09.65-2.83,1.94-.73,1.3-1.1,3.17-1.1,5.62v7.06h-4.46v-12.1c0-1.68-.74-2.52-2.23-2.52-1.15,0-2.09.68-2.83,2.03-.73,1.36-1.1,3.33-1.1,5.92v6.66h-4.46v-18.14h4.46Z"/><path class="d" d="M719.63,527.96h-12.53c.19,1.34.67,2.36,1.42,3.06.76.7,1.72,1.04,2.9,1.04,1.01,0,1.85-.23,2.54-.68.68-.46,1.3-1.16,1.85-2.12l3.6,1.33c-.74,1.7-1.78,3.01-3.11,3.92-1.33.91-3.04,1.37-5.13,1.37-1.97,0-3.61-.46-4.91-1.39-1.31-.92-2.27-2.1-2.88-3.53-.61-1.43-.92-2.91-.92-4.45s.31-3.02.92-4.45c.61-1.43,1.57-2.6,2.88-3.53,1.31-.92,2.95-1.39,4.91-1.39s3.48.45,4.75,1.35c1.27.9,2.21,2.03,2.81,3.4.6,1.37.9,2.77.9,4.21v1.84ZM715.06,524.44c-.22-1.01-.64-1.84-1.28-2.48-.64-.65-1.51-.97-2.61-.97-.96,0-1.79.29-2.48.88-.7.59-1.19,1.45-1.48,2.57h7.85Z"/><path class="d" d="M726.04,534.19c-1.18-1.13-1.76-2.79-1.76-5v-7.92h-2.81v-3.82h2.81v-4.54l4.46-2.81v7.34h4.79v3.82h-4.79v7.85c0,1.08.2,1.84.59,2.29.4.44.99.67,1.78.67.6,0,1.18-.14,1.73-.43l1.04,3.6c-.94.43-1.92.65-2.95.65-2.09,0-3.72-.56-4.9-1.69Z"/><path class="d" d="M752.28,527.96h-12.53c.19,1.34.67,2.36,1.42,3.06.76.7,1.72,1.04,2.9,1.04,1.01,0,1.85-.23,2.54-.68.68-.46,1.3-1.16,1.85-2.12l3.6,1.33c-.74,1.7-1.78,3.01-3.11,3.92-1.33.91-3.04,1.37-5.13,1.37-1.97,0-3.61-.46-4.91-1.39-1.31-.92-2.27-2.1-2.88-3.53-.61-1.43-.92-2.91-.92-4.45s.31-3.02.92-4.45c.61-1.43,1.57-2.6,2.88-3.53,1.31-.92,2.95-1.39,4.91-1.39s3.48.45,4.75,1.35c1.27.9,2.21,2.03,2.81,3.4.6,1.37.9,2.77.9,4.21v1.84ZM747.71,524.44c-.22-1.01-.64-1.84-1.28-2.48-.64-.65-1.51-.97-2.61-.97-.96,0-1.79.29-2.48.88-.7.59-1.19,1.45-1.48,2.57h7.85Z"/><path class="d" d="M760.78,517.45v2.95c.65-1.03,1.44-1.83,2.38-2.39.94-.56,1.93-.85,2.99-.85.67,0,1.4.12,2.2.36l-.83,4.14c-.55-.34-1.18-.5-1.87-.5-1.42,0-2.58.64-3.49,1.93s-1.37,3.31-1.37,6.07v6.44h-4.46v-18.14h4.46Z"/><path class="d" d="M771.85,534.44c-1.26-.96-2.09-2.11-2.5-3.46l3.56-1.91c.34.94.81,1.67,1.42,2.2.61.53,1.34.79,2.18.79.58,0,1.07-.15,1.48-.45.41-.3.61-.74.61-1.31s-.31-1.03-.94-1.42c-.62-.4-1.56-.83-2.81-1.31-1.37-.55-2.43-1.25-3.19-2.09-.76-.84-1.13-1.92-1.13-3.24,0-.94.25-1.79.74-2.56.49-.77,1.17-1.38,2.03-1.84.86-.46,1.85-.68,2.95-.68,1.22,0,2.34.26,3.35.77,1.01.52,1.79,1.24,2.34,2.18l-2.66,2.45c-.72-1.06-1.69-1.58-2.92-1.58-.48,0-.89.13-1.24.38s-.52.58-.52.99c0,.43.25.83.76,1.21s1.49.82,2.95,1.35c1.42.5,2.51,1.17,3.28,1.98.77.82,1.15,1.86,1.15,3.13,0,1.78-.58,3.2-1.73,4.27-1.15,1.07-2.64,1.6-4.46,1.6s-3.44-.48-4.7-1.44Z"/><path class="d" d="M795.3,519.25h15.73v3.89h-15.73v-3.89ZM795.3,525.73h15.73v3.89h-15.73v-3.89Z"/><path class="d" d="M829.29,517.45v2.92c.7-1.06,1.46-1.85,2.29-2.39.83-.54,1.81-.81,2.93-.81s2.22.31,3.13.94,1.56,1.56,1.94,2.81c.65-1.17,1.46-2.09,2.43-2.75.97-.66,2.01-.99,3.11-.99,1.68,0,3,.49,3.96,1.48.96.98,1.44,2.35,1.44,4.1v12.85h-4.46v-12.1c0-1.68-.74-2.52-2.23-2.52-1.15,0-2.09.65-2.83,1.94-.73,1.3-1.1,3.17-1.1,5.62v7.06h-4.46v-12.1c0-1.68-.74-2.52-2.23-2.52-1.15,0-2.09.68-2.83,2.03-.73,1.36-1.1,3.33-1.1,5.92v6.66h-4.46v-18.14h4.46Z"/><path class="d" d="M859.88,517.45v2.92c.7-.98,1.52-1.76,2.48-2.34.96-.58,2-.86,3.13-.86,1.68,0,3.03.47,4.05,1.4,1.02.94,1.53,2.29,1.53,4.07v12.96h-4.46v-11.63c0-1.03-.23-1.79-.7-2.27-.47-.48-1.1-.72-1.89-.72-.74,0-1.43.29-2.05.86-.62.58-1.13,1.42-1.51,2.54s-.58,2.44-.58,3.98v7.24h-4.46v-18.14h4.46Z"/><path class="d" d="M131.75,212.66h6.62l5.62,24.72,6.29-21.17h5.38l6.29,21.17,5.62-24.72h6.62l-8.78,33.6h-6.34l-6.1-19.78-6.1,19.78h-6.34l-8.78-33.6Z"/><path class="d" d="M177.78,224.47h20.98v5.18h-20.98v-5.18ZM177.78,233.11h20.98v5.18h-20.98v-5.18Z"/><polyline class="e" points="298.79 62.12 258.79 62.12 258.79 395.12 298.79 395.12"/><polyline class="e" points="828.73 395.12 868.73 395.12 868.73 62.12 828.73 62.12"/></svg>