<?xml version="1.0" encoding="UTF-8"?><svg id="b" xmlns="http://www.w3.org/2000/svg" viewBox="0 0 1000 750"><defs><style>.d{stroke:#1ba34a;}.d,.e,.f,.g,.h,.i{fill:none;stroke-miterlimit:10;}.d,.e,.g{stroke-width:2px;}.j{fill:#1ba34a;}.j,.k,.l,.m,.n{stroke-width:0px;}.l{fill:#1c75bc;}.e{stroke:#e85530;}.f,.h,.i{stroke:#000;stroke-linecap:round;stroke-width:.5px;}.g{stroke:#1c75bc;}.m{fill:#e85530;}.h{stroke-dasharray:0 0 5.96 5.96;}.i{stroke-dasharray:0 0 6.06 6.06;}.n{fill:#167dc0;}</style></defs><path class="m" d="M108.27,547.37h4.97l4.21,18.54,4.72-15.88h4.03l4.72,15.88,4.21-18.54h4.97l-6.59,25.2h-4.75l-4.57-14.83-4.57,14.83h-4.75l-6.59-25.2Z"/><path class="m" d="M147.85,552.23v-2.22h1.34v-.55c0-1.25.33-2.18.98-2.8.65-.62,1.54-.93,2.68-.93.8,0,1.46.14,1.97.42l-.57,2.1c-.46-.2-.88-.29-1.26-.29-.8,0-1.2.44-1.2,1.32v.73h2.22v2.22h-2.22v8.35h-2.6v-8.35h-1.34Z"/><path class="m" d="M158.07,559.77c-.69-.66-1.03-1.63-1.03-2.92v-4.62h-1.64v-2.22h1.64v-2.64l2.6-1.64v4.28h2.79v2.22h-2.79v4.58c0,.63.12,1.07.35,1.33.23.26.58.39,1.04.39.35,0,.69-.08,1.01-.25l.61,2.1c-.55.25-1.12.38-1.72.38-1.22,0-2.17-.33-2.85-.99Z"/><path class="k" d="M181.45,556.23h15.73v3.89h-15.73v-3.89ZM181.45,562.71h15.73v3.89h-15.73v-3.89Z"/><path class="l" d="M223.21,547.37h4.97l4.21,18.54,4.72-15.88h4.03l4.72,15.88,4.21-18.54h4.97l-6.59,25.2h-4.75l-4.57-14.83-4.57,14.83h-4.75l-6.59-25.2Z"/><path class="k" d="M287.68,563.11h-6.62v-3.89h6.62v-6.62h3.89v6.62h6.62v3.89h-6.62v6.62h-3.89v-6.62Z"/><path class="j" d="M324.22,571.42l8.93-24.05h3.67l8.93,24.05v1.15h-21.53v-1.15ZM340.49,568.69l-5.51-15.84-5.51,15.84h11.02Z"/><path class="j" d="M353.67,547.37h4.97l4.21,18.54,4.72-15.88h4.03l4.72,15.88,4.21-18.54h4.97l-6.59,25.2h-4.75l-4.57-14.83-4.57,14.83h-4.75l-6.59-25.2Z"/><path class="m" d="M77.59,491.26v-2.23h1.34v-.13c0-1.37.44-2.41,1.32-3.11.88-.7,2.08-1.05,3.59-1.05.63,0,1.24.06,1.82.18s1.05.26,1.4.43l-.78,2.14c-.73-.35-1.49-.52-2.29-.52s-1.37.17-1.81.5c-.43.34-.65.82-.65,1.45v.11h6.17v10.58h-2.6v-8.36h-3.57v8.36h-2.6v-8.36h-1.34Z"/><path class="m" d="M93.17,489.03v1.7c.41-.57.89-1.03,1.45-1.37.56-.34,1.17-.5,1.83-.5.98,0,1.77.27,2.36.82.59.55.89,1.34.89,2.37v7.56h-2.6v-6.78c0-.6-.14-1.04-.41-1.32-.27-.28-.64-.42-1.1-.42-.43,0-.83.17-1.2.5-.36.34-.66.83-.88,1.48-.22.65-.34,1.42-.34,2.32v4.22h-2.6v-10.58h2.6Z"/><path class="m" d="M112.07,495.16h-7.31c.11.78.39,1.38.83,1.79.44.41,1,.61,1.69.61.59,0,1.08-.13,1.48-.4.4-.27.76-.68,1.08-1.24l2.1.78c-.43.99-1.04,1.76-1.82,2.29-.78.53-1.77.8-2.99.8-1.15,0-2.1-.27-2.87-.81-.76-.54-1.32-1.22-1.68-2.06-.36-.83-.54-1.7-.54-2.59s.18-1.76.54-2.59c.36-.83.92-1.52,1.68-2.06.76-.54,1.72-.81,2.87-.81s2.03.26,2.77.79c.74.53,1.29,1.19,1.64,1.98.35.8.53,1.62.53,2.46v1.07ZM109.4,493.11c-.13-.59-.38-1.07-.75-1.45s-.88-.57-1.52-.57c-.56,0-1.04.17-1.45.51-.41.34-.69.84-.86,1.5h4.58Z"/><path class="m" d="M115.81,498.8c-.69-.66-1.03-1.63-1.03-2.92v-4.62h-1.64v-2.23h1.64v-2.65l2.6-1.64v4.28h2.79v2.23h-2.79v4.58c0,.63.12,1.08.35,1.33.23.26.58.39,1.04.39.35,0,.69-.08,1.01-.25l.61,2.1c-.55.25-1.12.38-1.72.38-1.22,0-2.17-.33-2.86-.99Z"/><path class="m" d="M122.66,498.96c-.59-.55-.89-1.34-.89-2.37v-7.56h2.6v6.78c0,.6.14,1.04.41,1.32.27.28.64.42,1.1.42.43,0,.83-.17,1.2-.5.36-.34.66-.83.88-1.48.22-.65.34-1.42.34-2.32v-4.22h2.6v10.58h-2.6v-1.7c-.41.57-.89,1.03-1.45,1.37s-1.17.5-1.83.5c-.98,0-1.77-.27-2.36-.82Z"/><path class="m" d="M136.45,489.03v1.7c.41-.57.89-1.03,1.45-1.37.56-.34,1.17-.5,1.83-.5.98,0,1.77.27,2.36.82.59.55.89,1.34.89,2.37v7.56h-2.6v-6.78c0-.6-.14-1.04-.41-1.32-.27-.28-.64-.42-1.1-.42-.43,0-.83.17-1.2.5-.36.34-.66.83-.88,1.48-.22.65-.34,1.42-.34,2.32v4.22h-2.6v-10.58h2.6Z"/><path class="m" d="M155.35,495.16h-7.31c.11.78.39,1.38.83,1.79.44.41,1,.61,1.69.61.59,0,1.08-.13,1.48-.4.4-.27.76-.68,1.08-1.24l2.1.78c-.43.99-1.04,1.76-1.82,2.29-.78.53-1.77.8-2.99.8-1.15,0-2.1-.27-2.87-.81-.76-.54-1.32-1.22-1.68-2.06-.36-.83-.54-1.7-.54-2.59s.18-1.76.54-2.59c.36-.83.92-1.52,1.68-2.06.76-.54,1.72-.81,2.87-.81s2.03.26,2.77.79c.74.53,1.29,1.19,1.64,1.98.35.8.53,1.62.53,2.46v1.07ZM152.68,493.11c-.13-.59-.38-1.07-.75-1.45s-.88-.57-1.52-.57c-.56,0-1.04.17-1.45.51-.41.34-.69.84-.86,1.5h4.58Z"/><path class="m" d="M158.32,498.3c-.81-.99-1.21-2.31-1.21-3.98s.4-2.99,1.21-3.98c.8-.99,1.94-1.48,3.41-1.48.6,0,1.15.11,1.65.33.5.22.87.49,1.12.81v-5.25h2.6v14.87h-2.6v-1.09c-.17.32-.5.61-1,.87s-1.09.39-1.77.39c-1.47,0-2.61-.49-3.41-1.48ZM164.05,496.71c.46-.57.68-1.36.68-2.38s-.23-1.82-.68-2.38c-.46-.57-1.04-.85-1.75-.85s-1.3.28-1.76.85c-.46.57-.69,1.36-.69,2.38s.23,1.8.69,2.37,1.05.86,1.76.86,1.3-.28,1.75-.85Z"/><path class="m" d="M87.09,514.23h2.62l1.89,7.27,1.79-7.27h2.44l1.79,7.27,1.89-7.27h2.62l-3.38,10.58h-2.31l-1.83-6.85-1.83,6.85h-2.31l-3.38-10.58Z"/><path class="m" d="M113.11,520.36h-7.31c.11.78.39,1.38.83,1.79.44.41,1,.61,1.69.61.59,0,1.08-.13,1.48-.4.4-.27.76-.68,1.08-1.24l2.1.78c-.43.99-1.04,1.76-1.82,2.29-.78.53-1.77.8-2.99.8-1.15,0-2.1-.27-2.87-.81-.76-.54-1.32-1.22-1.68-2.06-.36-.83-.54-1.7-.54-2.59s.18-1.76.54-2.59c.36-.83.92-1.52,1.68-2.06.76-.54,1.72-.81,2.87-.81s2.03.26,2.77.79c.74.53,1.29,1.19,1.64,1.98.35.8.53,1.62.53,2.46v1.07ZM110.44,518.31c-.13-.59-.38-1.07-.75-1.45s-.88-.57-1.52-.57c-.56,0-1.04.17-1.45.51-.41.34-.69.84-.86,1.5h4.58Z"/><path class="m" d="M115.56,512.38c-.32-.32-.48-.72-.48-1.2s.16-.88.48-1.2.72-.48,1.2-.48.87.16,1.2.48c.32.32.48.72.48,1.2s-.16.88-.48,1.2-.72.48-1.2.48-.88-.16-1.2-.48ZM115.46,514.23h2.6v10.58h-2.6v-10.58Z"/><path class="m" d="M121.52,528.36c-.89-.6-1.33-1.46-1.33-2.58,0-.87.29-1.57.86-2.1-.36-.43-.55-.98-.55-1.64,0-.49.12-.92.35-1.3s.55-.69.96-.92c-.49-.6-.73-1.33-.73-2.18,0-.71.17-1.34.51-1.88.34-.54.81-.96,1.41-1.25.6-.29,1.25-.44,1.96-.44s1.34.15,1.95.46l2-1.05,1.03,1.72-1.51.76c.28.49.42,1.05.42,1.68,0,.71-.17,1.34-.51,1.88-.34.54-.81.95-1.41,1.23-.6.28-1.25.42-1.96.42-.53,0-1.04-.08-1.53-.23-.34.2-.5.46-.5.8,0,.25.08.44.25.58.17.13.41.2.74.2h2.16c1.13,0,2.04.27,2.71.81.67.54,1.01,1.31,1.01,2.3,0,.83-.23,1.51-.68,2.06-.46.55-1.05.95-1.77,1.21-.73.26-1.51.39-2.35.39-1.42,0-2.57-.3-3.46-.9ZM126.58,526.77c.4-.21.6-.54.6-.99,0-.41-.15-.69-.44-.85-.29-.16-.71-.24-1.26-.24h-1.43c-.48,0-.88-.03-1.22-.08-.15.24-.23.56-.23.97,0,.49.22.86.65,1.12.43.26,1.01.39,1.72.39.67,0,1.21-.1,1.61-.31ZM125.99,518.66c.27-.27.41-.61.41-1.03s-.14-.79-.41-1.06c-.27-.27-.62-.41-1.04-.41s-.77.14-1.04.41c-.27.27-.41.63-.41,1.06s.14.76.41,1.03c.27.27.62.4,1.04.4s.77-.13,1.04-.4Z"/><path class="m" d="M134.3,509.95v5.99c.35-.56.82-1.01,1.4-1.35s1.24-.51,1.96-.51c1.02,0,1.83.27,2.42.81s.88,1.33.88,2.38v7.56h-2.6v-6.64c0-.64-.13-1.12-.39-1.43-.26-.31-.65-.46-1.19-.46-.42,0-.82.15-1.2.44-.38.29-.69.74-.92,1.34-.24.6-.36,1.36-.36,2.27v4.47h-2.6v-14.87h2.6Z"/><path class="m" d="M145.09,524c-.69-.66-1.03-1.63-1.03-2.92v-4.62h-1.64v-2.23h1.64v-2.65l2.6-1.64v4.28h2.79v2.23h-2.79v4.58c0,.63.12,1.08.35,1.33.23.26.58.39,1.04.39.35,0,.69-.08,1.01-.25l.61,2.1c-.55.25-1.12.38-1.72.38-1.22,0-2.17-.33-2.86-.99Z"/><path class="m" d="M152.01,524.14c-.74-.56-1.22-1.23-1.46-2.02l2.08-1.11c.2.55.47.97.83,1.28.36.31.78.46,1.27.46.34,0,.62-.09.86-.26s.36-.43.36-.77-.18-.6-.55-.83c-.36-.23-.91-.49-1.64-.77-.8-.32-1.42-.73-1.86-1.22-.44-.49-.66-1.12-.66-1.89,0-.55.14-1.04.43-1.49.29-.45.68-.8,1.19-1.07.5-.27,1.08-.4,1.72-.4.71,0,1.37.15,1.95.45.59.3,1.04.72,1.37,1.27l-1.55,1.43c-.42-.62-.99-.92-1.7-.92-.28,0-.52.07-.72.22-.2.15-.3.34-.3.58,0,.25.15.49.44.7s.87.48,1.72.79c.83.29,1.46.68,1.91,1.16.45.48.67,1.08.67,1.83,0,1.04-.34,1.87-1.01,2.49-.67.62-1.54.93-2.6.93s-2.01-.28-2.74-.84Z"/><path class="n" d="M206.76,602.26v1.09c.17-.31.49-.59.96-.86.47-.27,1-.4,1.61-.4,1.55,0,2.75.49,3.58,1.48.83.99,1.25,2.31,1.25,3.98s-.42,2.99-1.25,3.98c-.83.99-2.03,1.48-3.58,1.48-.52,0-1.01-.11-1.49-.34-.48-.22-.83-.49-1.07-.8v5.25h-2.6v-14.87h2.6ZM210.73,609.93c.46-.57.69-1.37.69-2.37s-.23-1.82-.69-2.38c-.46-.57-1.05-.85-1.76-.85s-1.3.28-1.75.85c-.46.57-.68,1.36-.68,2.38s.23,1.82.68,2.38c.46.57,1.04.85,1.75.85s1.3-.29,1.76-.86Z"/><path class="n" d="M219.11,602.26v1.72c.38-.6.84-1.07,1.39-1.4.55-.33,1.13-.49,1.74-.49.39,0,.82.07,1.28.21l-.48,2.42c-.32-.2-.69-.29-1.09-.29-.83,0-1.5.38-2.04,1.12-.53.75-.8,1.93-.8,3.54v3.76h-2.6v-10.58h2.6Z"/><path class="n" d="M234.21,608.4h-7.31c.11.78.39,1.38.83,1.79.44.41,1,.61,1.69.61.59,0,1.08-.13,1.48-.4.4-.27.76-.68,1.08-1.24l2.1.78c-.43.99-1.04,1.76-1.82,2.29-.78.53-1.77.8-2.99.8-1.15,0-2.1-.27-2.87-.81-.76-.54-1.32-1.22-1.68-2.06-.36-.83-.54-1.7-.54-2.59s.18-1.76.54-2.59c.36-.83.92-1.52,1.68-2.06.76-.54,1.72-.81,2.87-.81s2.03.26,2.77.79c.74.53,1.29,1.19,1.64,1.98.35.8.53,1.62.53,2.46v1.07ZM231.54,606.34c-.13-.59-.38-1.07-.75-1.45s-.88-.57-1.52-.57c-.56,0-1.04.17-1.45.51-.41.34-.69.84-.86,1.5h4.58Z"/><path class="n" d="M237.95,612.03c-.69-.66-1.03-1.63-1.03-2.92v-4.62h-1.64v-2.23h1.64v-2.65l2.6-1.64v4.28h2.79v2.23h-2.79v4.58c0,.63.12,1.08.35,1.33.23.26.58.39,1.04.39.35,0,.69-.08,1.01-.25l.61,2.1c-.55.25-1.12.38-1.72.38-1.22,0-2.17-.33-2.86-.99Z"/><path class="n" d="M246.77,602.26v1.72c.38-.6.84-1.07,1.39-1.4.55-.33,1.13-.49,1.74-.49.39,0,.82.07,1.28.21l-.48,2.42c-.32-.2-.69-.29-1.09-.29-.83,0-1.5.38-2.04,1.12-.53.75-.8,1.93-.8,3.54v3.76h-2.6v-10.58h2.6Z"/><path class="n" d="M252.71,612.18c-.6-.56-.9-1.35-.9-2.37s.4-1.89,1.2-2.52c.8-.63,1.88-.94,3.23-.94h1.85v-.46c0-.52-.18-.91-.53-1.17-.35-.26-.79-.39-1.32-.39-.91,0-1.52.41-1.83,1.22l-2.21-.5c.17-.88.62-1.59,1.35-2.13.73-.54,1.63-.81,2.68-.81,1.41,0,2.51.38,3.29,1.12.78.75,1.17,1.85,1.17,3.31v6.32h-2.14l-.27-1.34c-.83,1.01-1.91,1.51-3.25,1.51-.94,0-1.71-.28-2.31-.84ZM257.37,610.19c.48-.4.71-.93.71-1.59v-.21h-1.74c-.57,0-1.02.11-1.33.34-.32.22-.47.57-.47,1.03,0,.31.11.56.33.75.22.19.5.28.85.28.63,0,1.18-.2,1.66-.6Z"/><path class="n" d="M263.52,600.42c-.32-.32-.48-.72-.48-1.2s.16-.88.48-1.2.72-.48,1.2-.48.87.16,1.2.48c.32.32.48.72.48,1.2s-.16.88-.48,1.2-.72.48-1.2.48-.88-.16-1.2-.48ZM263.42,602.26h2.6v10.58h-2.6v-10.58Z"/><path class="n" d="M271.48,602.26v1.7c.41-.57.89-1.03,1.45-1.37.56-.34,1.17-.5,1.83-.5.98,0,1.77.27,2.36.82.59.55.89,1.34.89,2.37v7.56h-2.6v-6.78c0-.6-.14-1.04-.41-1.32-.27-.28-.64-.42-1.1-.42-.43,0-.83.17-1.2.5-.36.34-.66.83-.88,1.48-.22.65-.34,1.42-.34,2.32v4.22h-2.6v-10.58h2.6Z"/><path class="n" d="M290.38,608.4h-7.31c.11.78.39,1.38.83,1.79.44.41,1,.61,1.69.61.59,0,1.08-.13,1.48-.4.4-.27.76-.68,1.08-1.24l2.1.78c-.43.99-1.04,1.76-1.82,2.29-.78.53-1.77.8-2.99.8-1.15,0-2.1-.27-2.87-.81-.76-.54-1.32-1.22-1.68-2.06-.36-.83-.54-1.7-.54-2.59s.18-1.76.54-2.59c.36-.83.92-1.52,1.68-2.06.76-.54,1.72-.81,2.87-.81s2.03.26,2.77.79c.74.53,1.29,1.19,1.64,1.98.35.8.53,1.62.53,2.46v1.07ZM287.71,606.34c-.13-.59-.38-1.07-.75-1.45s-.88-.57-1.52-.57c-.56,0-1.04.17-1.45.51-.41.34-.69.84-.86,1.5h4.58Z"/><path class="n" d="M293.35,611.54c-.81-.99-1.21-2.31-1.21-3.98s.4-2.99,1.21-3.98c.8-.99,1.94-1.48,3.41-1.48.6,0,1.15.11,1.65.33.5.22.87.49,1.12.81v-5.25h2.6v14.87h-2.6v-1.09c-.17.32-.5.61-1,.87s-1.09.39-1.77.39c-1.47,0-2.61-.49-3.41-1.48ZM299.09,609.94c.46-.57.68-1.36.68-2.38s-.23-1.82-.68-2.38c-.46-.57-1.04-.85-1.75-.85s-1.3.28-1.76.85c-.46.57-.69,1.36-.69,2.38s.23,1.8.69,2.37,1.05.86,1.76.86,1.3-.28,1.75-.85Z"/><path class="n" d="M217.25,627.46h2.62l1.89,7.27,1.79-7.27h2.44l1.79,7.27,1.89-7.27h2.62l-3.38,10.58h-2.31l-1.83-6.85-1.83,6.85h-2.31l-3.38-10.58Z"/><path class="n" d="M243.27,633.6h-7.31c.11.78.39,1.38.83,1.79.44.41,1,.61,1.69.61.59,0,1.08-.13,1.48-.4.4-.27.76-.68,1.08-1.24l2.1.78c-.43.99-1.04,1.76-1.82,2.29-.78.53-1.77.8-2.99.8-1.15,0-2.1-.27-2.87-.81-.76-.54-1.32-1.22-1.68-2.06-.36-.83-.54-1.7-.54-2.59s.18-1.76.54-2.59c.36-.83.92-1.52,1.68-2.06.76-.54,1.72-.81,2.87-.81s2.03.26,2.77.79c.74.53,1.29,1.19,1.64,1.98.35.8.53,1.62.53,2.46v1.07ZM240.6,631.54c-.13-.59-.38-1.07-.75-1.45s-.88-.57-1.52-.57c-.56,0-1.04.17-1.45.51-.41.34-.69.84-.86,1.5h4.58Z"/><path class="n" d="M245.73,625.62c-.32-.32-.48-.72-.48-1.2s.16-.88.48-1.2.72-.48,1.2-.48.87.16,1.2.48c.32.32.48.72.48,1.2s-.16.88-.48,1.2-.72.48-1.2.48-.88-.16-1.2-.48ZM245.62,627.46h2.6v10.58h-2.6v-10.58Z"/><path class="n" d="M251.68,641.6c-.89-.6-1.33-1.46-1.33-2.58,0-.87.29-1.57.86-2.1-.36-.43-.55-.98-.55-1.64,0-.49.12-.92.35-1.3s.55-.69.96-.92c-.49-.6-.73-1.33-.73-2.18,0-.71.17-1.34.51-1.88.34-.54.81-.96,1.41-1.25.6-.29,1.25-.44,1.96-.44s1.34.15,1.95.46l2-1.05,1.03,1.72-1.51.76c.28.49.42,1.05.42,1.68,0,.71-.17,1.34-.51,1.88-.34.54-.81.95-1.41,1.23-.6.28-1.25.42-1.96.42-.53,0-1.04-.08-1.53-.23-.34.2-.5.46-.5.8,0,.25.08.44.25.58.17.13.41.2.74.2h2.16c1.13,0,2.04.27,2.71.81.67.54,1.01,1.31,1.01,2.3,0,.83-.23,1.51-.68,2.06-.46.55-1.05.95-1.77,1.21-.73.26-1.51.39-2.35.39-1.42,0-2.57-.3-3.46-.9ZM256.74,640c.4-.21.6-.54.6-.99,0-.41-.15-.69-.44-.85-.29-.16-.71-.24-1.26-.24h-1.43c-.48,0-.88-.03-1.22-.08-.15.24-.23.56-.23.97,0,.49.22.86.65,1.12.43.26,1.01.39,1.72.39.67,0,1.21-.1,1.61-.31ZM256.15,631.89c.27-.27.41-.61.41-1.03s-.14-.79-.41-1.06c-.27-.27-.62-.41-1.04-.41s-.77.14-1.04.41c-.27.27-.41.63-.41,1.06s.14.76.41,1.03c.27.27.62.4,1.04.4s.77-.13,1.04-.4Z"/><path class="n" d="M264.46,623.18v5.99c.35-.56.82-1.01,1.4-1.35s1.24-.51,1.96-.51c1.02,0,1.83.27,2.42.81s.88,1.33.88,2.38v7.56h-2.6v-6.64c0-.64-.13-1.12-.39-1.43-.26-.31-.65-.46-1.19-.46-.42,0-.82.15-1.2.44-.38.29-.69.74-.92,1.34-.24.6-.36,1.36-.36,2.27v4.47h-2.6v-14.87h2.6Z"/><path class="n" d="M275.25,637.23c-.69-.66-1.03-1.63-1.03-2.92v-4.62h-1.64v-2.23h1.64v-2.65l2.6-1.64v4.28h2.79v2.23h-2.79v4.58c0,.63.12,1.08.35,1.33.23.26.58.39,1.04.39.35,0,.69-.08,1.01-.25l.61,2.1c-.55.25-1.12.38-1.72.38-1.22,0-2.17-.33-2.86-.99Z"/><path class="n" d="M282.17,637.38c-.74-.56-1.22-1.23-1.46-2.02l2.08-1.11c.2.55.47.97.83,1.28.36.31.78.46,1.27.46.34,0,.62-.09.86-.26s.36-.43.36-.77-.18-.6-.55-.83c-.36-.23-.91-.49-1.64-.77-.8-.32-1.42-.73-1.86-1.22-.44-.49-.66-1.12-.66-1.89,0-.55.14-1.04.43-1.49.29-.45.68-.8,1.19-1.07.5-.27,1.08-.4,1.72-.4.71,0,1.37.15,1.95.45.59.3,1.04.72,1.37,1.27l-1.55,1.43c-.42-.62-.99-.92-1.7-.92-.28,0-.52.07-.72.22-.2.15-.3.34-.3.58,0,.25.15.49.44.7s.87.48,1.72.79c.83.29,1.46.68,1.91,1.16.45.48.67,1.08.67,1.83,0,1.04-.34,1.87-1.01,2.49-.67.62-1.54.93-2.6.93s-2.01-.28-2.74-.84Z"/><path class="j" d="M343.51,602.26h2.62l1.89,7.27,1.79-7.27h2.44l1.79,7.27,1.89-7.27h2.62l-3.38,10.58h-2.31l-1.83-6.85-1.83,6.85h-2.31l-3.38-10.58Z"/><path class="j" d="M369.53,608.4h-7.31c.11.78.39,1.38.83,1.79.44.41,1,.61,1.69.61.59,0,1.08-.13,1.48-.4.4-.27.76-.68,1.08-1.24l2.1.78c-.43.99-1.04,1.76-1.82,2.29-.78.53-1.77.8-2.99.8-1.15,0-2.1-.27-2.87-.81-.76-.54-1.32-1.22-1.68-2.06-.36-.83-.54-1.7-.54-2.59s.18-1.76.54-2.59c.36-.83.92-1.52,1.68-2.06.76-.54,1.72-.81,2.87-.81s2.03.26,2.77.79c.74.53,1.29,1.19,1.64,1.98.35.8.53,1.62.53,2.46v1.07ZM366.86,606.34c-.13-.59-.38-1.07-.75-1.45s-.88-.57-1.52-.57c-.56,0-1.04.17-1.45.51-.41.34-.69.84-.86,1.5h4.58Z"/><path class="j" d="M371.98,600.42c-.32-.32-.48-.72-.48-1.2s.16-.88.48-1.2.72-.48,1.2-.48.87.16,1.2.48c.32.32.48.72.48,1.2s-.16.88-.48,1.2-.72.48-1.2.48-.88-.16-1.2-.48ZM371.88,602.26h2.6v10.58h-2.6v-10.58Z"/><path class="j" d="M377.94,616.4c-.89-.6-1.33-1.46-1.33-2.58,0-.87.29-1.57.86-2.1-.36-.43-.55-.98-.55-1.64,0-.49.12-.92.35-1.3s.55-.69.96-.92c-.49-.6-.73-1.33-.73-2.18,0-.71.17-1.34.51-1.88.34-.54.81-.96,1.41-1.25.6-.29,1.25-.44,1.96-.44s1.34.15,1.95.46l2-1.05,1.03,1.72-1.51.76c.28.49.42,1.05.42,1.68,0,.71-.17,1.34-.51,1.88-.34.54-.81.95-1.41,1.23-.6.28-1.25.42-1.96.42-.53,0-1.04-.08-1.53-.23-.34.2-.5.46-.5.8,0,.25.08.44.25.58.17.13.41.2.74.2h2.16c1.13,0,2.04.27,2.71.81.67.54,1.01,1.31,1.01,2.3,0,.83-.23,1.51-.68,2.06-.46.55-1.05.95-1.77,1.21-.73.26-1.51.39-2.35.39-1.42,0-2.57-.3-3.46-.9ZM383,614.8c.4-.21.6-.54.6-.99,0-.41-.15-.69-.44-.85-.29-.16-.71-.24-1.26-.24h-1.43c-.48,0-.88-.03-1.22-.08-.15.24-.23.56-.23.97,0,.49.22.86.65,1.12.43.26,1.01.39,1.72.39.67,0,1.21-.1,1.61-.31ZM382.41,606.69c.27-.27.41-.61.41-1.03s-.14-.79-.41-1.06c-.27-.27-.62-.41-1.04-.41s-.77.14-1.04.41c-.27.27-.41.63-.41,1.06s.14.76.41,1.03c.27.27.62.4,1.04.4s.77-.13,1.04-.4Z"/><path class="j" d="M390.71,597.98v5.99c.35-.56.82-1.01,1.4-1.35s1.24-.51,1.96-.51c1.02,0,1.83.27,2.42.81s.88,1.33.88,2.38v7.56h-2.6v-6.64c0-.64-.13-1.12-.39-1.43-.26-.31-.65-.46-1.19-.46-.42,0-.82.15-1.2.44-.38.29-.69.74-.92,1.34-.24.6-.36,1.36-.36,2.27v4.47h-2.6v-14.87h2.6Z"/><path class="j" d="M401.51,612.03c-.69-.66-1.03-1.63-1.03-2.92v-4.62h-1.64v-2.23h1.64v-2.65l2.6-1.64v4.28h2.79v2.23h-2.79v4.58c0,.63.12,1.08.35,1.33.23.26.58.39,1.04.39.35,0,.69-.08,1.01-.25l.61,2.1c-.55.25-1.12.38-1.72.38-1.22,0-2.17-.33-2.86-.99Z"/><path class="j" d="M343.89,637.4c-.59-.55-.89-1.34-.89-2.37v-7.56h2.6v6.78c0,.6.14,1.04.41,1.32.27.28.64.42,1.1.42.43,0,.83-.17,1.2-.5.36-.34.66-.83.88-1.48.22-.65.34-1.42.34-2.32v-4.22h2.6v10.58h-2.6v-1.7c-.41.57-.89,1.03-1.45,1.37s-1.17.5-1.83.5c-.98,0-1.77-.27-2.36-.82Z"/><path class="j" d="M357.68,627.46v1.09c.17-.31.49-.59.96-.86.47-.27,1-.4,1.61-.4,1.55,0,2.75.49,3.58,1.48.83.99,1.25,2.31,1.25,3.98s-.42,2.99-1.25,3.98c-.83.99-2.03,1.48-3.58,1.48-.52,0-1.01-.11-1.49-.34-.48-.22-.83-.49-1.07-.8v5.25h-2.6v-14.87h2.6ZM361.65,635.13c.46-.57.69-1.37.69-2.37s-.23-1.82-.69-2.38c-.46-.57-1.05-.85-1.76-.85s-1.3.28-1.75.85c-.46.57-.68,1.36-.68,2.38s.23,1.82.68,2.38c.46.57,1.04.85,1.75.85s1.3-.29,1.76-.86Z"/><path class="j" d="M368.04,636.74c-.81-.99-1.21-2.31-1.21-3.98s.4-2.99,1.21-3.98c.8-.99,1.94-1.48,3.41-1.48.6,0,1.15.11,1.65.33.5.22.87.49,1.12.81v-5.25h2.6v14.87h-2.6v-1.09c-.17.32-.5.61-1,.87s-1.09.39-1.77.39c-1.47,0-2.61-.49-3.41-1.48ZM373.78,635.14c.46-.57.68-1.36.68-2.38s-.23-1.82-.68-2.38c-.46-.57-1.04-.85-1.75-.85s-1.3.28-1.76.85c-.46.57-.69,1.36-.69,2.38s.23,1.8.69,2.37,1.05.86,1.76.86,1.3-.28,1.75-.85Z"/><path class="j" d="M379.88,637.38c-.6-.56-.9-1.35-.9-2.37s.4-1.89,1.2-2.52c.8-.63,1.88-.94,3.23-.94h1.85v-.46c0-.52-.18-.91-.53-1.17-.35-.26-.79-.39-1.32-.39-.91,0-1.52.41-1.83,1.22l-2.21-.5c.17-.88.62-1.59,1.35-2.13.73-.54,1.63-.81,2.68-.81,1.41,0,2.51.38,3.29,1.12.78.75,1.17,1.85,1.17,3.31v6.32h-2.14l-.27-1.34c-.83,1.01-1.91,1.51-3.25,1.51-.94,0-1.71-.28-2.31-.84ZM384.54,635.39c.48-.4.71-.93.71-1.59v-.21h-1.74c-.57,0-1.02.11-1.33.34-.32.22-.47.57-.47,1.03,0,.31.11.56.33.75.22.19.5.28.85.28.63,0,1.18-.2,1.66-.6Z"/><path class="j" d="M391.97,637.23c-.69-.66-1.03-1.63-1.03-2.92v-4.62h-1.64v-2.23h1.64v-2.65l2.6-1.64v4.28h2.79v2.23h-2.79v4.58c0,.63.12,1.08.35,1.33.23.26.58.39,1.04.39.35,0,.69-.08,1.01-.25l.61,2.1c-.55.25-1.12.38-1.72.38-1.22,0-2.17-.33-2.86-.99Z"/><path class="j" d="M407.28,633.6h-7.31c.11.78.39,1.38.83,1.79.44.41,1,.61,1.69.61.59,0,1.08-.13,1.48-.4.4-.27.76-.68,1.08-1.24l2.1.78c-.43.99-1.04,1.76-1.82,2.29-.78.53-1.77.8-2.99.8-1.15,0-2.1-.27-2.87-.81-.76-.54-1.32-1.22-1.68-2.06-.36-.83-.54-1.7-.54-2.59s.18-1.76.54-2.59c.36-.83.92-1.52,1.68-2.06.76-.54,1.72-.81,2.87-.81s2.03.26,2.77.79c.74.53,1.29,1.19,1.64,1.98.35.8.53,1.62.53,2.46v1.07ZM404.62,631.54c-.13-.59-.38-1.07-.75-1.45s-.88-.57-1.52-.57c-.56,0-1.04.17-1.45.51-.41.34-.69.84-.86,1.5h4.58Z"/><path class="l" d="M599.44,170.12l2.37,8.7,1.63-11.94h2.76l-2.67,16.14h-2.76l-2.61-9.75-2.61,9.75h-2.76l-2.67-16.14h2.79l1.6,11.94,2.37-8.7h2.55Z"/><path class="l" d="M614.48,180.33v11.3h2.63v1.38h-7.42v-1.38h3.2v-8.53h-3.2v-1.1c2.09-.05,3.11-.28,3.75-1.66h1.04Z"/><path class="l" d="M625.66,180.33v11.3h2.63v1.38h-7.42v-1.38h3.2v-8.53h-3.2v-1.1c2.09-.05,3.11-.28,3.75-1.66h1.04Z"/><path class="l" d="M599.44,210.12l2.37,8.7,1.63-11.94h2.76l-2.67,16.14h-2.76l-2.61-9.75-2.61,9.75h-2.76l-2.67-16.14h2.79l1.6,11.94,2.37-8.7h2.55Z"/><path class="l" d="M617.41,223.51c0,2.94-2.8,5.53-6,8.11h6.23v1.38h-8.46v-1.38c4.21-3.31,6.54-5.68,6.54-7.9,0-1.31-.74-2.26-2.16-2.26-1.3,0-2.49.8-2.53,2.89h-1.63c-.04-2.41,1.63-4.25,4.17-4.25,2.2,0,3.84,1.26,3.84,3.41Z"/><path class="l" d="M625.66,220.33v11.3h2.63v1.38h-7.42v-1.38h3.2v-8.53h-3.2v-1.1c2.09-.05,3.11-.28,3.75-1.66h1.04Z"/><path class="l" d="M596.48,263.01v-3.45h3.41v3.45h-3.41Z"/><path class="l" d="M609.71,263.01v-3.45h3.41v3.45h-3.41Z"/><path class="l" d="M622.95,263.01v-3.45h3.41v3.45h-3.41Z"/><path class="l" d="M599.44,290.12l2.37,8.7,1.63-11.94h2.76l-2.67,16.14h-2.76l-2.61-9.75-2.61,9.75h-2.76l-2.67-16.14h2.79l1.6,11.94,2.37-8.7h2.55Z"/><path class="l" d="M615.69,303.44c.97,0,1.92.45,1.92,2.94v6.63h-1.59v-5.81c0-1.36,0-2.41-.8-2.41s-1.04.94-1.04,2.89v5.33h-1.59v-5.81c0-1.36,0-2.41-.78-2.41s-1.05.96-1.05,2.92v5.3h-1.59v-9.41h1.52v1c.31-.61.81-1.15,1.7-1.15s1.25.56,1.45,1.19c.4-.73,1-1.19,1.85-1.19Z"/><path class="l" d="M625.66,300.33v11.3h2.63v1.38h-7.42v-1.38h3.2v-8.53h-3.2v-1.1c2.09-.05,3.11-.28,3.75-1.66h1.04Z"/><path class="l" d="M849.44,170.12l2.37,8.7,1.63-11.94h2.76l-2.67,16.14h-2.76l-2.61-9.75-2.61,9.75h-2.76l-2.67-16.14h2.79l1.6,11.94,2.37-8.7h2.55Z"/><path class="l" d="M864.48,180.33v11.3h2.63v1.38h-7.42v-1.38h3.2v-8.53h-3.2v-1.1c2.09-.05,3.11-.28,3.75-1.66h1.04Z"/><path class="l" d="M872.53,184.93c.47-.8,1.26-1.49,2.73-1.49,2.25,0,2.92,1.5,2.92,3.58v5.98h-1.59v-5.42c0-1.52-.12-2.78-1.85-2.78-1.44,0-2.21,1.08-2.21,3.1v5.11h-1.59v-9.41h1.59v1.33Z"/><path class="l" d="M849.44,210.12l2.37,8.7,1.63-11.94h2.76l-2.67,16.14h-2.76l-2.61-9.75-2.61,9.75h-2.76l-2.67-16.14h2.79l1.6,11.94,2.37-8.7h2.55Z"/><path class="l" d="M867.41,223.51c0,2.94-2.8,5.53-6,8.11h6.23v1.38h-8.46v-1.38c4.2-3.31,6.54-5.68,6.54-7.9,0-1.31-.74-2.26-2.16-2.26-1.3,0-2.49.8-2.53,2.89h-1.63c-.04-2.41,1.63-4.25,4.17-4.25,2.2,0,3.84,1.26,3.84,3.41Z"/><path class="l" d="M872.53,224.93c.47-.8,1.26-1.49,2.73-1.49,2.25,0,2.92,1.5,2.92,3.58v5.98h-1.59v-5.42c0-1.52-.12-2.78-1.85-2.78-1.44,0-2.21,1.08-2.21,3.1v5.11h-1.59v-9.41h1.59v1.33Z"/><path class="l" d="M846.47,263.01v-3.45h3.41v3.45h-3.41Z"/><path class="l" d="M859.71,263.01v-3.45h3.41v3.45h-3.41Z"/><path class="l" d="M872.95,263.01v-3.45h3.41v3.45h-3.41Z"/><path class="l" d="M849.44,290.12l2.37,8.7,1.63-11.94h2.76l-2.67,16.14h-2.76l-2.61-9.75-2.61,9.75h-2.76l-2.67-16.14h2.79l1.6,11.94,2.37-8.7h2.55Z"/><path class="l" d="M865.69,303.44c.97,0,1.92.45,1.92,2.94v6.63h-1.59v-5.81c0-1.36,0-2.41-.8-2.41s-1.04.94-1.04,2.89v5.33h-1.59v-5.81c0-1.36,0-2.41-.78-2.41s-1.05.96-1.05,2.92v5.3h-1.59v-9.41h1.52v1c.31-.61.81-1.15,1.7-1.15s1.25.56,1.45,1.19c.4-.73,1-1.19,1.85-1.19Z"/><path class="l" d="M872.53,304.93c.47-.8,1.26-1.49,2.73-1.49,2.25,0,2.92,1.5,2.92,3.58v5.98h-1.59v-5.42c0-1.52-.12-2.78-1.85-2.78-1.44,0-2.21,1.08-2.21,3.1v5.11h-1.59v-9.41h1.59v1.33Z"/><path class="l" d="M682.78,170.12l2.37,8.7,1.63-11.94h2.76l-2.67,16.14h-2.76l-2.61-9.75-2.61,9.75h-2.76l-2.67-16.14h2.79l1.6,11.94,2.37-8.7h2.55Z"/><path class="l" d="M697.82,180.33v11.3h2.63v1.38h-7.42v-1.38h3.2v-8.53h-3.2v-1.1c2.09-.05,3.11-.28,3.75-1.66h1.04Z"/><path class="l" d="M711.92,183.51c0,2.94-2.8,5.53-6,8.11h6.23v1.38h-8.46v-1.38c4.2-3.31,6.54-5.68,6.54-7.9,0-1.31-.74-2.26-2.16-2.26-1.3,0-2.49.8-2.53,2.89h-1.63c-.04-2.41,1.63-4.25,4.17-4.25,2.2,0,3.84,1.26,3.84,3.41Z"/><path class="l" d="M682.78,210.12l2.37,8.7,1.63-11.94h2.76l-2.67,16.14h-2.76l-2.61-9.75-2.61,9.75h-2.76l-2.67-16.14h2.79l1.6,11.94,2.37-8.7h2.55Z"/><path class="l" d="M700.74,223.51c0,2.94-2.8,5.53-6,8.11h6.23v1.38h-8.46v-1.38c4.2-3.31,6.54-5.68,6.54-7.9,0-1.31-.74-2.26-2.16-2.26-1.3,0-2.49.8-2.53,2.89h-1.63c-.04-2.41,1.63-4.25,4.17-4.25,2.2,0,3.84,1.26,3.84,3.41Z"/><path class="l" d="M711.92,223.51c0,2.94-2.8,5.53-6,8.11h6.23v1.38h-8.46v-1.38c4.2-3.31,6.54-5.68,6.54-7.9,0-1.31-.74-2.26-2.16-2.26-1.3,0-2.49.8-2.53,2.89h-1.63c-.04-2.41,1.63-4.25,4.17-4.25,2.2,0,3.84,1.26,3.84,3.41Z"/><path class="l" d="M679.81,263.01v-3.45h3.41v3.45h-3.41Z"/><path class="l" d="M693.05,263.01v-3.45h3.41v3.45h-3.41Z"/><path class="l" d="M706.29,263.01v-3.45h3.41v3.45h-3.41Z"/><path class="l" d="M682.78,290.12l2.37,8.7,1.63-11.94h2.76l-2.67,16.14h-2.76l-2.61-9.75-2.61,9.75h-2.76l-2.67-16.14h2.79l1.6,11.94,2.37-8.7h2.55Z"/><path class="l" d="M699.03,303.44c.97,0,1.92.45,1.92,2.94v6.63h-1.59v-5.81c0-1.36,0-2.41-.8-2.41s-1.04.94-1.04,2.89v5.33h-1.59v-5.81c0-1.36,0-2.41-.78-2.41s-1.05.96-1.05,2.92v5.3h-1.59v-9.41h1.52v1c.31-.61.81-1.15,1.7-1.15s1.25.56,1.45,1.19c.4-.73,1-1.19,1.85-1.19Z"/><path class="l" d="M711.92,303.51c0,2.94-2.8,5.53-6,8.11h6.23v1.38h-8.46v-1.38c4.2-3.31,6.54-5.68,6.54-7.9,0-1.31-.74-2.26-2.16-2.26-1.3,0-2.49.8-2.53,2.89h-1.63c-.04-2.41,1.63-4.25,4.17-4.25,2.2,0,3.84,1.26,3.84,3.41Z"/><path class="l" d="M763.14,183.02v-3.45h3.41v3.45h-3.41Z"/><path class="l" d="M776.38,183.02v-3.45h3.41v3.45h-3.41Z"/><path class="l" d="M789.62,183.02v-3.45h3.41v3.45h-3.41Z"/><path class="l" d="M763.14,223.02v-3.45h3.41v3.45h-3.41Z"/><path class="l" d="M776.38,223.02v-3.45h3.41v3.45h-3.41Z"/><path class="l" d="M789.62,223.02v-3.45h3.41v3.45h-3.41Z"/><path class="l" d="M763.14,263.01v-3.45h3.41v3.45h-3.41Z"/><path class="l" d="M776.38,263.01v-3.45h3.41v3.45h-3.41Z"/><path class="l" d="M789.62,263.01v-3.45h3.41v3.45h-3.41Z"/><path class="l" d="M763.14,303.01v-3.45h3.41v3.45h-3.41Z"/><path class="l" d="M776.38,303.01v-3.45h3.41v3.45h-3.41Z"/><path class="l" d="M789.62,303.01v-3.45h3.41v3.45h-3.41Z"/><polyline class="g" points="600.05 133.03 566.71 133.03 566.71 347.3 600.05 347.3"/><polyline class="g" points="873.95 347.3 907.29 347.3 907.29 133.03 873.95 133.03"/><path class="j" d="M566.5,458.38l9.32,19.38h-18.64l9.32-19.38ZM566.5,463.63l-5.61,11.85h11.25l-5.64-11.85Z"/><path class="j" d="M586.93,464.86l2.37,8.7,1.63-11.94h2.76l-2.67,16.14h-2.76l-2.61-9.75-2.61,9.75h-2.76l-2.67-16.14h2.79l1.6,11.94,2.37-8.7h2.55Z"/><path class="j" d="M601.97,475.08v11.3h2.63v1.38h-7.42v-1.38h3.2v-8.53h-3.2v-1.1c2.09-.05,3.11-.28,3.75-1.66h1.04Z"/><path class="j" d="M613.15,475.08v11.3h2.63v1.38h-7.42v-1.38h3.2v-8.53h-3.2v-1.1c2.09-.05,3.11-.28,3.75-1.66h1.04Z"/><path class="j" d="M566.5,498.38l9.32,19.38h-18.64l9.32-19.38ZM566.5,503.63l-5.61,11.85h11.25l-5.64-11.85Z"/><path class="j" d="M586.93,504.86l2.37,8.7,1.63-11.94h2.76l-2.67,16.14h-2.76l-2.61-9.75-2.61,9.75h-2.76l-2.67-16.14h2.79l1.6,11.94,2.37-8.7h2.55Z"/><path class="j" d="M604.89,518.26c0,2.94-2.8,5.53-6,8.11h6.23v1.38h-8.46v-1.38c4.2-3.3,6.54-5.68,6.54-7.9,0-1.31-.74-2.26-2.16-2.26-1.3,0-2.49.8-2.53,2.88h-1.63c-.04-2.41,1.63-4.25,4.17-4.25,2.2,0,3.84,1.26,3.84,3.41Z"/><path class="j" d="M613.15,515.08v11.3h2.63v1.38h-7.42v-1.38h3.2v-8.53h-3.2v-1.1c2.09-.05,3.11-.28,3.75-1.66h1.04Z"/><path class="j" d="M564.78,557.76v-3.45h3.41v3.45h-3.41Z"/><path class="j" d="M578.02,557.76v-3.45h3.41v3.45h-3.41Z"/><path class="j" d="M591.26,557.76v-3.45h3.41v3.45h-3.41Z"/><path class="j" d="M566.5,578.38l9.32,19.38h-18.64l9.32-19.38ZM566.5,583.63l-5.61,11.85h11.25l-5.64-11.85Z"/><path class="j" d="M586.93,584.86l2.37,8.7,1.63-11.94h2.76l-2.67,16.14h-2.76l-2.61-9.75-2.61,9.75h-2.76l-2.67-16.14h2.79l1.6,11.94,2.37-8.7h2.55Z"/><path class="j" d="M603.18,598.19c.97,0,1.92.46,1.92,2.94v6.63h-1.59v-5.81c0-1.36,0-2.41-.8-2.41s-1.04.94-1.04,2.89v5.33h-1.59v-5.81c0-1.36,0-2.41-.78-2.41s-1.05.96-1.05,2.92v5.3h-1.59v-9.41h1.52v1c.31-.61.81-1.15,1.7-1.15s1.25.56,1.45,1.19c.4-.73,1-1.19,1.85-1.19Z"/><path class="j" d="M613.15,595.08v11.3h2.63v1.38h-7.42v-1.38h3.2v-8.53h-3.2v-1.1c2.09-.05,3.11-.28,3.75-1.66h1.04Z"/><path class="j" d="M866.18,458.38l9.32,19.38h-18.64l9.32-19.38ZM866.18,463.63l-5.61,11.85h11.25l-5.64-11.85Z"/><path class="j" d="M886.61,464.86l2.37,8.7,1.63-11.94h2.76l-2.67,16.14h-2.76l-2.61-9.75-2.61,9.75h-2.76l-2.67-16.14h2.79l1.6,11.94,2.37-8.7h2.55Z"/><path class="j" d="M901.64,475.08v11.3h2.63v1.38h-7.42v-1.38h3.2v-8.53h-3.2v-1.1c2.09-.05,3.11-.28,3.75-1.66h1.04Z"/><path class="j" d="M909.69,479.67c.47-.8,1.26-1.49,2.73-1.49,2.25,0,2.92,1.5,2.92,3.58v5.98h-1.59v-5.42c0-1.52-.12-2.78-1.85-2.78-1.44,0-2.21,1.08-2.21,3.09v5.11h-1.59v-9.41h1.59v1.33Z"/><path class="j" d="M866.18,498.38l9.32,19.38h-18.64l9.32-19.38ZM866.18,503.63l-5.61,11.85h11.25l-5.64-11.85Z"/><path class="j" d="M886.61,504.86l2.37,8.7,1.63-11.94h2.76l-2.67,16.14h-2.76l-2.61-9.75-2.61,9.75h-2.76l-2.67-16.14h2.79l1.6,11.94,2.37-8.7h2.55Z"/><path class="j" d="M904.57,518.26c0,2.94-2.8,5.53-6,8.11h6.23v1.38h-8.46v-1.38c4.21-3.3,6.54-5.68,6.54-7.9,0-1.31-.74-2.26-2.16-2.26-1.3,0-2.49.8-2.53,2.88h-1.63c-.04-2.41,1.63-4.25,4.17-4.25,2.2,0,3.84,1.26,3.84,3.41Z"/><path class="j" d="M909.69,519.67c.47-.8,1.26-1.49,2.73-1.49,2.25,0,2.92,1.5,2.92,3.58v5.98h-1.59v-5.42c0-1.52-.12-2.78-1.85-2.78-1.44,0-2.21,1.08-2.21,3.09v5.11h-1.59v-9.41h1.59v1.33Z"/><path class="j" d="M864.46,557.76v-3.45h3.41v3.45h-3.41Z"/><path class="j" d="M877.7,557.76v-3.45h3.41v3.45h-3.41Z"/><path class="j" d="M890.94,557.76v-3.45h3.41v3.45h-3.41Z"/><path class="j" d="M866.18,578.38l9.32,19.38h-18.64l9.32-19.38ZM866.18,583.63l-5.61,11.85h11.25l-5.64-11.85Z"/><path class="j" d="M886.61,584.86l2.37,8.7,1.63-11.94h2.76l-2.67,16.14h-2.76l-2.61-9.75-2.61,9.75h-2.76l-2.67-16.14h2.79l1.6,11.94,2.37-8.7h2.55Z"/><path class="j" d="M902.86,598.19c.97,0,1.92.46,1.92,2.94v6.63h-1.59v-5.81c0-1.36,0-2.41-.8-2.41s-1.04.94-1.04,2.89v5.33h-1.59v-5.81c0-1.36,0-2.41-.78-2.41s-1.05.96-1.05,2.92v5.3h-1.59v-9.41h1.52v1c.31-.61.81-1.15,1.7-1.15s1.25.56,1.45,1.19c.4-.73,1-1.19,1.85-1.19Z"/><path class="j" d="M909.69,599.67c.47-.8,1.26-1.49,2.73-1.49,2.25,0,2.92,1.5,2.92,3.58v5.98h-1.59v-5.42c0-1.52-.12-2.78-1.85-2.78-1.44,0-2.21,1.08-2.21,3.09v5.11h-1.59v-9.41h1.59v1.33Z"/><path class="j" d="M666.4,458.38l9.32,19.38h-18.64l9.32-19.38ZM666.4,463.63l-5.61,11.85h11.25l-5.64-11.85Z"/><path class="j" d="M686.82,464.86l2.37,8.7,1.63-11.94h2.76l-2.67,16.14h-2.76l-2.61-9.75-2.61,9.75h-2.76l-2.67-16.14h2.79l1.6,11.94,2.37-8.7h2.55Z"/><path class="j" d="M701.86,475.08v11.3h2.63v1.38h-7.42v-1.38h3.2v-8.53h-3.2v-1.1c2.09-.05,3.11-.28,3.75-1.66h1.04Z"/><path class="j" d="M715.96,478.26c0,2.94-2.8,5.53-6,8.11h6.23v1.38h-8.46v-1.38c4.21-3.3,6.54-5.68,6.54-7.9,0-1.31-.74-2.26-2.16-2.26-1.3,0-2.49.8-2.53,2.88h-1.63c-.04-2.41,1.63-4.25,4.17-4.25,2.2,0,3.84,1.26,3.84,3.41Z"/><path class="j" d="M666.4,498.38l9.32,19.38h-18.64l9.32-19.38ZM666.4,503.63l-5.61,11.85h11.25l-5.64-11.85Z"/><path class="j" d="M686.82,504.86l2.37,8.7,1.63-11.94h2.76l-2.67,16.14h-2.76l-2.61-9.75-2.61,9.75h-2.76l-2.67-16.14h2.79l1.6,11.94,2.37-8.7h2.55Z"/><path class="j" d="M704.78,518.26c0,2.94-2.8,5.53-6,8.11h6.23v1.38h-8.46v-1.38c4.21-3.3,6.54-5.68,6.54-7.9,0-1.31-.74-2.26-2.16-2.26-1.3,0-2.49.8-2.53,2.88h-1.63c-.04-2.41,1.63-4.25,4.17-4.25,2.2,0,3.84,1.26,3.84,3.41Z"/><path class="j" d="M715.96,518.26c0,2.94-2.8,5.53-6,8.11h6.23v1.38h-8.46v-1.38c4.21-3.3,6.54-5.68,6.54-7.9,0-1.31-.74-2.26-2.16-2.26-1.3,0-2.49.8-2.53,2.88h-1.63c-.04-2.41,1.63-4.25,4.17-4.25,2.2,0,3.84,1.26,3.84,3.41Z"/><path class="j" d="M664.68,557.76v-3.45h3.41v3.45h-3.41Z"/><path class="j" d="M677.92,557.76v-3.45h3.41v3.45h-3.41Z"/><path class="j" d="M691.16,557.76v-3.45h3.41v3.45h-3.41Z"/><path class="j" d="M666.4,578.38l9.32,19.38h-18.64l9.32-19.38ZM666.4,583.63l-5.61,11.85h11.25l-5.64-11.85Z"/><path class="j" d="M686.82,584.86l2.37,8.7,1.63-11.94h2.76l-2.67,16.14h-2.76l-2.61-9.75-2.61,9.75h-2.76l-2.67-16.14h2.79l1.6,11.94,2.37-8.7h2.55Z"/><path class="j" d="M703.07,598.19c.97,0,1.92.46,1.92,2.94v6.63h-1.59v-5.81c0-1.36,0-2.41-.8-2.41s-1.04.94-1.04,2.89v5.33h-1.59v-5.81c0-1.36,0-2.41-.78-2.41s-1.05.96-1.05,2.92v5.3h-1.59v-9.41h1.52v1c.31-.61.81-1.15,1.7-1.15s1.25.56,1.45,1.19c.4-.73,1-1.19,1.85-1.19Z"/><path class="j" d="M715.96,598.26c0,2.94-2.8,5.53-6,8.11h6.23v1.38h-8.46v-1.38c4.21-3.3,6.54-5.68,6.54-7.9,0-1.31-.74-2.26-2.16-2.26-1.3,0-2.49.8-2.53,2.88h-1.63c-.04-2.41,1.63-4.25,4.17-4.25,2.2,0,3.84,1.26,3.84,3.41Z"/><path class="j" d="M764.57,477.76v-3.45h3.41v3.45h-3.41Z"/><path class="j" d="M777.81,477.76v-3.45h3.41v3.45h-3.41Z"/><path class="j" d="M791.05,477.76v-3.45h3.41v3.45h-3.41Z"/><path class="j" d="M764.57,517.76v-3.45h3.41v3.45h-3.41Z"/><path class="j" d="M777.81,517.76v-3.45h3.41v3.45h-3.41Z"/><path class="j" d="M791.05,517.76v-3.45h3.41v3.45h-3.41Z"/><path class="j" d="M764.57,557.76v-3.45h3.41v3.45h-3.41Z"/><path class="j" d="M777.81,557.76v-3.45h3.41v3.45h-3.41Z"/><path class="j" d="M791.05,557.76v-3.45h3.41v3.45h-3.41Z"/><path class="j" d="M764.57,597.76v-3.45h3.41v3.45h-3.41Z"/><path class="j" d="M777.81,597.76v-3.45h3.41v3.45h-3.41Z"/><path class="j" d="M791.05,597.76v-3.45h3.41v3.45h-3.41Z"/><polyline class="d" points="567.36 424.3 534.03 424.3 534.03 639.48 567.36 639.48"/><polyline class="d" points="906.67 639.48 940 639.48 940 424.3 906.67 424.3"/><path class="m" d="M263.7,141.33v-3.45h3.41v3.45h-3.41Z"/><path class="m" d="M276.93,141.33v-3.45h3.41v3.45h-3.41Z"/><path class="m" d="M290.17,141.33v-3.45h3.41v3.45h-3.41Z"/><path class="m" d="M263.7,181.33v-3.45h3.41v3.45h-3.41Z"/><path class="m" d="M276.93,181.33v-3.45h3.41v3.45h-3.41Z"/><path class="m" d="M290.17,181.33v-3.45h3.41v3.45h-3.41Z"/><path class="m" d="M263.7,221.33v-3.45h3.41v3.45h-3.41Z"/><path class="m" d="M276.93,221.33v-3.45h3.41v3.45h-3.41Z"/><path class="m" d="M290.17,221.33v-3.45h3.41v3.45h-3.41Z"/><path class="m" d="M263.7,261.33v-3.45h3.41v3.45h-3.41Z"/><path class="m" d="M276.93,261.33v-3.45h3.41v3.45h-3.41Z"/><path class="m" d="M290.17,261.33v-3.45h3.41v3.45h-3.41Z"/><path class="m" d="M263.7,301.33v-3.45h3.41v3.45h-3.41Z"/><path class="m" d="M276.93,301.33v-3.45h3.41v3.45h-3.41Z"/><path class="m" d="M290.17,301.33v-3.45h3.41v3.45h-3.41Z"/><path class="m" d="M263.7,341.33v-3.45h3.41v3.45h-3.41Z"/><path class="m" d="M276.93,341.33v-3.45h3.41v3.45h-3.41Z"/><path class="m" d="M290.17,341.33v-3.45h3.41v3.45h-3.41Z"/><path class="m" d="M100,128.43l2.37,8.7,1.63-11.94h2.76l-2.67,16.14h-2.76l-2.61-9.75-2.61,9.75h-2.76l-2.67-16.14h2.79l1.6,11.94,2.37-8.7h2.55Z"/><path class="m" d="M112.8,139.54v7.53h1.75v.92h-4.95v-.92h2.13v-5.69h-2.13v-.73c1.4-.04,2.08-.19,2.5-1.11h.69Z"/><path class="m" d="M120.26,139.54v7.53h1.75v.92h-4.95v-.92h2.13v-5.69h-2.13v-.73c1.4-.04,2.08-.19,2.5-1.11h.69Z"/><path class="m" d="M100,168.43l2.37,8.7,1.63-11.94h2.76l-2.67,16.14h-2.76l-2.61-9.75-2.61,9.75h-2.76l-2.67-16.14h2.79l1.6,11.94,2.37-8.7h2.55Z"/><path class="m" d="M114.75,181.66c0,1.96-1.87,3.68-4,5.41h4.15v.92h-5.64v-.92c2.8-2.2,4.36-3.79,4.36-5.27,0-.87-.5-1.5-1.44-1.5-.87,0-1.66.54-1.68,1.92h-1.08c-.02-1.61,1.08-2.83,2.78-2.83,1.47,0,2.56.84,2.56,2.27Z"/><path class="m" d="M120.26,179.54v7.53h1.75v.92h-4.95v-.92h2.13v-5.69h-2.13v-.73c1.4-.04,2.08-.19,2.5-1.11h.69Z"/><path class="m" d="M100,208.43l2.37,8.7,1.63-11.94h2.76l-2.67,16.14h-2.76l-2.61-9.75-2.61,9.75h-2.76l-2.67-16.14h2.79l1.6,11.94,2.37-8.7h2.55Z"/><path class="m" d="M113.82,225.63c0-1.19-1-1.62-2.28-1.62h-.16v-.94h.13c1.37,0,2.11-.45,2.11-1.43,0-.85-.69-1.33-1.55-1.33-1.06,0-1.64.69-1.72,1.63h-1.08c.12-1.49,1.2-2.54,2.84-2.54,1.35,0,2.64.59,2.64,2.13,0,.86-.46,1.61-1.3,1.96,1.18.41,1.51,1.27,1.51,2.13,0,1.68-1.45,2.53-2.93,2.53-1.86,0-2.77-1.29-2.87-2.67h1.07c.12,1.03.69,1.75,1.81,1.75,1.06,0,1.79-.59,1.79-1.6Z"/><path class="m" d="M120.26,219.54v7.53h1.75v.92h-4.95v-.92h2.13v-5.69h-2.13v-.73c1.4-.04,2.08-.19,2.5-1.11h.69Z"/><path class="m" d="M100,248.43l2.37,8.7,1.63-11.94h2.76l-2.67,16.14h-2.76l-2.61-9.75-2.61,9.75h-2.76l-2.67-16.14h2.79l1.6,11.94,2.37-8.7h2.55Z"/><path class="m" d="M115.24,265.91h-1.4v2.09h-1.06v-2.09h-3.95v-1l3.93-5.36h1.07v5.36h1.4v1ZM109.94,264.9h2.84v-3.92l-2.84,3.92Z"/><path class="m" d="M120.26,259.54v7.53h1.75v.92h-4.95v-.92h2.13v-5.69h-2.13v-.73c1.4-.04,2.08-.19,2.5-1.11h.69Z"/><path class="m" d="M97.03,301.33v-3.45h3.41v3.45h-3.41Z"/><path class="m" d="M110.27,301.33v-3.45h3.41v3.45h-3.41Z"/><path class="m" d="M123.51,301.33v-3.45h3.41v3.45h-3.41Z"/><path class="m" d="M100,328.43l2.37,8.7,1.63-11.94h2.76l-2.67,16.14h-2.76l-2.61-9.75-2.61,9.75h-2.76l-2.67-16.14h2.79l1.6,11.94,2.37-8.7h2.55Z"/><path class="m" d="M113.61,341.61c.65,0,1.28.3,1.28,1.96v4.42h-1.06v-3.87c0-.91,0-1.61-.53-1.61s-.69.63-.69,1.92v3.56h-1.06v-3.87c0-.91,0-1.61-.52-1.61s-.7.64-.7,1.95v3.53h-1.06v-6.27h1.02v.66c.21-.41.54-.77,1.13-.77s.83.37.97.79c.27-.49.67-.79,1.23-.79Z"/><path class="m" d="M120.26,339.54v7.53h1.75v.92h-4.95v-.92h2.13v-5.69h-2.13v-.73c1.4-.04,2.08-.19,2.5-1.11h.69Z"/><path class="m" d="M100,128.43l2.37,8.7,1.63-11.94h2.76l-2.67,16.14h-2.76l-2.61-9.75-2.61,9.75h-2.76l-2.67-16.14h2.79l1.6,11.94,2.37-8.7h2.55Z"/><path class="m" d="M110.88,122.95c0-1.31.31-1.73,1.65-1.73h2.19v.91h-2.17c-.52,0-.61.16-.61.82v.45h2.78v.92h-2.78v5.35h-1.06v-5.35h-1.65v-.92h1.65v-.45Z"/><path class="m" d="M118.06,121.83h1.06v1.57h2.54v.92h-2.54v3.63c0,.64.03.8.62.8h1.92v.92h-2.15c-1.13,0-1.45-.27-1.45-1.57v-3.78h-1.76v-.92h1.76v-1.57Z"/><path class="m" d="M100,168.43l2.37,8.7,1.63-11.94h2.76l-2.67,16.14h-2.76l-2.61-9.75-2.61,9.75h-2.76l-2.67-16.14h2.79l1.6,11.94,2.37-8.7h2.55Z"/><path class="m" d="M110.88,162.95c0-1.31.31-1.73,1.65-1.73h2.19v.91h-2.17c-.52,0-.61.16-.61.82v.45h2.78v.92h-2.78v5.35h-1.06v-5.35h-1.65v-.92h1.65v-.45Z"/><path class="m" d="M118.06,161.83h1.06v1.57h2.54v.92h-2.54v3.63c0,.64.03.8.62.8h1.92v.92h-2.15c-1.13,0-1.45-.27-1.45-1.57v-3.78h-1.76v-.92h1.76v-1.57Z"/><path class="m" d="M100,208.43l2.37,8.7,1.63-11.94h2.76l-2.67,16.14h-2.76l-2.61-9.75-2.61,9.75h-2.76l-2.67-16.14h2.79l1.6,11.94,2.37-8.7h2.55Z"/><path class="m" d="M110.88,202.95c0-1.31.31-1.73,1.65-1.73h2.19v.91h-2.17c-.52,0-.61.16-.61.82v.45h2.78v.92h-2.78v5.35h-1.06v-5.35h-1.65v-.92h1.65v-.45Z"/><path class="m" d="M118.06,201.83h1.06v1.57h2.54v.92h-2.54v3.63c0,.64.03.8.62.8h1.92v.92h-2.15c-1.13,0-1.45-.27-1.45-1.57v-3.78h-1.76v-.92h1.76v-1.57Z"/><path class="m" d="M100,248.43l2.37,8.7,1.63-11.94h2.76l-2.67,16.14h-2.76l-2.61-9.75-2.61,9.75h-2.76l-2.67-16.14h2.79l1.6,11.94,2.37-8.7h2.55Z"/><path class="m" d="M110.88,242.95c0-1.31.31-1.73,1.65-1.73h2.19v.91h-2.17c-.52,0-.61.16-.61.82v.45h2.78v.92h-2.78v5.35h-1.06v-5.35h-1.65v-.92h1.65v-.45Z"/><path class="m" d="M118.06,241.83h1.06v1.57h2.54v.92h-2.54v3.63c0,.64.03.8.62.8h1.92v.92h-2.15c-1.13,0-1.45-.27-1.45-1.57v-3.78h-1.76v-.92h1.76v-1.57Z"/><path class="m" d="M100,328.43l2.37,8.7,1.63-11.94h2.76l-2.67,16.14h-2.76l-2.61-9.75-2.61,9.75h-2.76l-2.67-16.14h2.79l1.6,11.94,2.37-8.7h2.55Z"/><path class="m" d="M110.88,322.94c0-1.31.31-1.73,1.65-1.73h2.19v.91h-2.17c-.52,0-.61.16-.61.82v.45h2.78v.92h-2.78v5.35h-1.06v-5.35h-1.65v-.92h1.65v-.45Z"/><path class="m" d="M118.06,321.83h1.06v1.57h2.54v.92h-2.54v3.63c0,.64.03.8.62.8h1.92v.92h-2.15c-1.13,0-1.45-.27-1.45-1.57v-3.78h-1.76v-.92h1.76v-1.57Z"/><path class="m" d="M183.33,128.43l2.37,8.7,1.63-11.94h2.76l-2.67,16.14h-2.76l-2.61-9.75-2.61,9.75h-2.76l-2.67-16.14h2.79l1.6,11.94,2.37-8.7h2.55Z"/><path class="m" d="M196.14,139.54v7.53h1.75v.92h-4.95v-.92h2.13v-5.69h-2.13v-.73c1.4-.04,2.08-.19,2.5-1.11h.69Z"/><path class="m" d="M205.54,141.66c0,1.96-1.87,3.68-4,5.41h4.15v.92h-5.64v-.92c2.8-2.2,4.36-3.79,4.36-5.27,0-.87-.5-1.5-1.44-1.5-.87,0-1.66.54-1.68,1.92h-1.08c-.02-1.61,1.08-2.83,2.78-2.83,1.47,0,2.56.84,2.56,2.27Z"/><path class="m" d="M183.33,168.43l2.37,8.7,1.63-11.94h2.76l-2.67,16.14h-2.76l-2.61-9.75-2.61,9.75h-2.76l-2.67-16.14h2.79l1.6,11.94,2.37-8.7h2.55Z"/><path class="m" d="M198.09,181.66c0,1.96-1.87,3.68-4,5.41h4.15v.92h-5.64v-.92c2.8-2.2,4.36-3.79,4.36-5.27,0-.87-.5-1.5-1.44-1.5-.87,0-1.66.54-1.68,1.92h-1.08c-.02-1.61,1.08-2.83,2.78-2.83,1.47,0,2.56.84,2.56,2.27Z"/><path class="m" d="M205.54,181.66c0,1.96-1.87,3.68-4,5.41h4.15v.92h-5.64v-.92c2.8-2.2,4.36-3.79,4.36-5.27,0-.87-.5-1.5-1.44-1.5-.87,0-1.66.54-1.68,1.92h-1.08c-.02-1.61,1.08-2.83,2.78-2.83,1.47,0,2.56.84,2.56,2.27Z"/><path class="m" d="M183.33,208.43l2.37,8.7,1.63-11.94h2.76l-2.67,16.14h-2.76l-2.61-9.75-2.61,9.75h-2.76l-2.67-16.14h2.79l1.6,11.94,2.37-8.7h2.55Z"/><path class="m" d="M197.15,225.63c0-1.19-1-1.62-2.28-1.62h-.16v-.94h.13c1.37,0,2.11-.45,2.11-1.43,0-.85-.69-1.33-1.55-1.33-1.06,0-1.64.69-1.72,1.63h-1.08c.12-1.49,1.2-2.54,2.84-2.54,1.35,0,2.64.59,2.64,2.13,0,.86-.46,1.61-1.3,1.96,1.18.41,1.51,1.27,1.51,2.13,0,1.68-1.45,2.53-2.93,2.53-1.86,0-2.77-1.29-2.87-2.67h1.07c.12,1.03.69,1.75,1.81,1.75,1.06,0,1.79-.59,1.79-1.6Z"/><path class="m" d="M205.54,221.66c0,1.96-1.87,3.68-4,5.41h4.15v.92h-5.64v-.92c2.8-2.2,4.36-3.79,4.36-5.27,0-.87-.5-1.5-1.44-1.5-.87,0-1.66.54-1.68,1.92h-1.08c-.02-1.61,1.08-2.83,2.78-2.83,1.47,0,2.56.84,2.56,2.27Z"/><path class="m" d="M183.33,248.43l2.37,8.7,1.63-11.94h2.76l-2.67,16.14h-2.76l-2.61-9.75-2.61,9.75h-2.76l-2.67-16.14h2.79l1.6,11.94,2.37-8.7h2.55Z"/><path class="m" d="M198.57,265.91h-1.4v2.09h-1.06v-2.09h-3.95v-1l3.93-5.36h1.07v5.36h1.4v1ZM193.28,264.9h2.84v-3.92l-2.84,3.92Z"/><path class="m" d="M205.54,261.66c0,1.96-1.87,3.68-4,5.41h4.15v.92h-5.64v-.92c2.8-2.2,4.36-3.79,4.36-5.27,0-.87-.5-1.5-1.44-1.5-.87,0-1.66.54-1.68,1.92h-1.08c-.02-1.61,1.08-2.83,2.78-2.83,1.47,0,2.56.84,2.56,2.27Z"/><path class="m" d="M180.36,301.33v-3.45h3.41v3.45h-3.41Z"/><path class="m" d="M193.6,301.33v-3.45h3.41v3.45h-3.41Z"/><path class="m" d="M206.84,301.33v-3.45h3.41v3.45h-3.41Z"/><path class="m" d="M183.33,328.43l2.37,8.7,1.63-11.94h2.76l-2.67,16.14h-2.76l-2.61-9.75-2.61,9.75h-2.76l-2.67-16.14h2.79l1.6,11.94,2.37-8.7h2.55Z"/><path class="m" d="M196.94,341.61c.65,0,1.28.3,1.28,1.96v4.42h-1.06v-3.87c0-.91,0-1.61-.53-1.61s-.69.63-.69,1.92v3.56h-1.06v-3.87c0-.91,0-1.61-.52-1.61s-.7.64-.7,1.95v3.53h-1.06v-6.27h1.02v.66c.21-.41.54-.77,1.13-.77s.83.37.97.79c.27-.49.67-.79,1.23-.79Z"/><path class="m" d="M205.54,341.66c0,1.96-1.87,3.68-4,5.41h4.15v.92h-5.64v-.92c2.8-2.2,4.36-3.79,4.36-5.27,0-.87-.5-1.5-1.44-1.5-.87,0-1.66.54-1.68,1.92h-1.08c-.02-1.61,1.08-2.83,2.78-2.83,1.47,0,2.56.84,2.56,2.27Z"/><path class="m" d="M183.33,128.43l2.37,8.7,1.63-11.94h2.76l-2.67,16.14h-2.76l-2.61-9.75-2.61,9.75h-2.76l-2.67-16.14h2.79l1.6,11.94,2.37-8.7h2.55Z"/><path class="m" d="M194.21,122.95c0-1.31.31-1.73,1.65-1.73h2.19v.91h-2.17c-.52,0-.61.16-.61.82v.45h2.78v.92h-2.78v5.35h-1.06v-5.35h-1.65v-.92h1.65v-.45Z"/><path class="m" d="M201.4,121.83h1.06v1.57h2.54v.92h-2.54v3.63c0,.64.03.8.62.8h1.92v.92h-2.15c-1.13,0-1.45-.27-1.45-1.57v-3.78h-1.76v-.92h1.76v-1.57Z"/><path class="m" d="M183.33,168.43l2.37,8.7,1.63-11.94h2.76l-2.67,16.14h-2.76l-2.61-9.75-2.61,9.75h-2.76l-2.67-16.14h2.79l1.6,11.94,2.37-8.7h2.55Z"/><path class="m" d="M194.21,162.95c0-1.31.31-1.73,1.65-1.73h2.19v.91h-2.17c-.52,0-.61.16-.61.82v.45h2.78v.92h-2.78v5.35h-1.06v-5.35h-1.65v-.92h1.65v-.45Z"/><path class="m" d="M201.4,161.83h1.06v1.57h2.54v.92h-2.54v3.63c0,.64.03.8.62.8h1.92v.92h-2.15c-1.13,0-1.45-.27-1.45-1.57v-3.78h-1.76v-.92h1.76v-1.57Z"/><path class="m" d="M183.33,208.43l2.37,8.7,1.63-11.94h2.76l-2.67,16.14h-2.76l-2.61-9.75-2.61,9.75h-2.76l-2.67-16.14h2.79l1.6,11.94,2.37-8.7h2.55Z"/><path class="m" d="M194.21,202.95c0-1.31.31-1.73,1.65-1.73h2.19v.91h-2.17c-.52,0-.61.16-.61.82v.45h2.78v.92h-2.78v5.35h-1.06v-5.35h-1.65v-.92h1.65v-.45Z"/><path class="m" d="M201.4,201.83h1.06v1.57h2.54v.92h-2.54v3.63c0,.64.03.8.62.8h1.92v.92h-2.15c-1.13,0-1.45-.27-1.45-1.57v-3.78h-1.76v-.92h1.76v-1.57Z"/><path class="m" d="M183.33,248.43l2.37,8.7,1.63-11.94h2.76l-2.67,16.14h-2.76l-2.61-9.75-2.61,9.75h-2.76l-2.67-16.14h2.79l1.6,11.94,2.37-8.7h2.55Z"/><path class="m" d="M194.21,242.95c0-1.31.31-1.73,1.65-1.73h2.19v.91h-2.17c-.52,0-.61.16-.61.82v.45h2.78v.92h-2.78v5.35h-1.06v-5.35h-1.65v-.92h1.65v-.45Z"/><path class="m" d="M201.4,241.83h1.06v1.57h2.54v.92h-2.54v3.63c0,.64.03.8.62.8h1.92v.92h-2.15c-1.13,0-1.45-.27-1.45-1.57v-3.78h-1.76v-.92h1.76v-1.57Z"/><path class="m" d="M183.33,328.43l2.37,8.7,1.63-11.94h2.76l-2.67,16.14h-2.76l-2.61-9.75-2.61,9.75h-2.76l-2.67-16.14h2.79l1.6,11.94,2.37-8.7h2.55Z"/><path class="m" d="M194.21,322.94c0-1.31.31-1.73,1.65-1.73h2.19v.91h-2.17c-.52,0-.61.16-.61.82v.45h2.78v.92h-2.78v5.35h-1.06v-5.35h-1.65v-.92h1.65v-.45Z"/><path class="m" d="M201.4,321.83h1.06v1.57h2.54v.92h-2.54v3.63c0,.64.03.8.62.8h1.92v.92h-2.15c-1.13,0-1.45-.27-1.45-1.57v-3.78h-1.76v-.92h1.76v-1.57Z"/><path class="m" d="M351.51,128.43l2.37,8.7,1.63-11.94h2.76l-2.67,16.14h-2.76l-2.61-9.75-2.61,9.75h-2.76l-2.67-16.14h2.79l1.6,11.94,2.37-8.7h2.55Z"/><path class="m" d="M364.32,139.54v7.53h1.75v.92h-4.95v-.92h2.13v-5.69h-2.13v-.73c1.4-.04,2.08-.19,2.5-1.11h.69Z"/><path class="m" d="M369.68,142.61c.31-.54.84-.99,1.82-.99,1.5,0,1.95,1,1.95,2.39v3.99h-1.06v-3.61c0-1.01-.08-1.85-1.23-1.85-.96,0-1.48.72-1.48,2.06v3.4h-1.06v-6.27h1.06v.89Z"/><path class="m" d="M351.51,168.43l2.37,8.7,1.63-11.94h2.76l-2.67,16.14h-2.76l-2.61-9.75-2.61,9.75h-2.76l-2.67-16.14h2.79l1.6,11.94,2.37-8.7h2.55Z"/><path class="m" d="M366.27,181.66c0,1.96-1.87,3.68-4,5.41h4.15v.92h-5.64v-.92c2.8-2.2,4.36-3.79,4.36-5.27,0-.87-.5-1.5-1.44-1.5-.87,0-1.66.54-1.68,1.92h-1.08c-.02-1.61,1.08-2.83,2.78-2.83,1.47,0,2.56.84,2.56,2.27Z"/><path class="m" d="M369.68,182.61c.31-.54.84-.99,1.82-.99,1.5,0,1.95,1,1.95,2.39v3.99h-1.06v-3.61c0-1.01-.08-1.85-1.23-1.85-.96,0-1.48.72-1.48,2.06v3.4h-1.06v-6.27h1.06v.89Z"/><path class="m" d="M351.51,208.43l2.37,8.7,1.63-11.94h2.76l-2.67,16.14h-2.76l-2.61-9.75-2.61,9.75h-2.76l-2.67-16.14h2.79l1.6,11.94,2.37-8.7h2.55Z"/><path class="m" d="M365.33,225.63c0-1.19-1-1.62-2.28-1.62h-.16v-.94h.13c1.37,0,2.11-.45,2.11-1.43,0-.85-.69-1.33-1.55-1.33-1.06,0-1.64.69-1.72,1.63h-1.08c.12-1.49,1.2-2.54,2.84-2.54,1.35,0,2.64.59,2.64,2.13,0,.86-.46,1.61-1.3,1.96,1.18.41,1.51,1.27,1.51,2.13,0,1.68-1.45,2.53-2.93,2.53-1.86,0-2.77-1.29-2.87-2.67h1.07c.12,1.03.69,1.75,1.81,1.75,1.06,0,1.79-.59,1.79-1.6Z"/><path class="m" d="M369.68,222.61c.31-.54.84-.99,1.82-.99,1.5,0,1.95,1,1.95,2.39v3.99h-1.06v-3.61c0-1.01-.08-1.85-1.23-1.85-.96,0-1.48.72-1.48,2.06v3.4h-1.06v-6.27h1.06v.89Z"/><path class="m" d="M351.51,248.43l2.37,8.7,1.63-11.94h2.76l-2.67,16.14h-2.76l-2.61-9.75-2.61,9.75h-2.76l-2.67-16.14h2.79l1.6,11.94,2.37-8.7h2.55Z"/><path class="m" d="M366.75,265.91h-1.4v2.09h-1.06v-2.09h-3.95v-1l3.93-5.36h1.07v5.36h1.4v1ZM361.46,264.9h2.84v-3.92l-2.84,3.92Z"/><path class="m" d="M369.68,262.61c.31-.54.84-.99,1.82-.99,1.5,0,1.95,1,1.95,2.39v3.99h-1.06v-3.61c0-1.01-.08-1.85-1.23-1.85-.96,0-1.48.72-1.48,2.06v3.4h-1.06v-6.27h1.06v.89Z"/><path class="m" d="M348.54,301.33v-3.45h3.41v3.45h-3.41Z"/><path class="m" d="M361.78,301.33v-3.45h3.41v3.45h-3.41Z"/><path class="m" d="M375.02,301.33v-3.45h3.41v3.45h-3.41Z"/><path class="m" d="M351.51,328.43l2.37,8.7,1.63-11.94h2.76l-2.67,16.14h-2.76l-2.61-9.75-2.61,9.75h-2.76l-2.67-16.14h2.79l1.6,11.94,2.37-8.7h2.55Z"/><path class="m" d="M365.12,341.61c.65,0,1.28.3,1.28,1.96v4.42h-1.06v-3.87c0-.91,0-1.61-.53-1.61s-.69.63-.69,1.92v3.56h-1.06v-3.87c0-.91,0-1.61-.52-1.61s-.7.64-.7,1.95v3.53h-1.06v-6.27h1.02v.66c.21-.41.54-.77,1.13-.77s.83.37.97.79c.27-.49.67-.79,1.23-.79Z"/><path class="m" d="M369.68,342.61c.31-.54.84-.99,1.82-.99,1.5,0,1.95,1,1.95,2.39v3.99h-1.06v-3.61c0-1.01-.08-1.85-1.23-1.85-.96,0-1.48.72-1.48,2.06v3.4h-1.06v-6.27h1.06v.89Z"/><path class="m" d="M351.51,128.43l2.37,8.7,1.63-11.94h2.76l-2.67,16.14h-2.76l-2.61-9.75-2.61,9.75h-2.76l-2.67-16.14h2.79l1.6,11.94,2.37-8.7h2.55Z"/><path class="m" d="M362.39,122.95c0-1.31.31-1.73,1.65-1.73h2.19v.91h-2.17c-.52,0-.61.16-.61.82v.45h2.78v.92h-2.78v5.35h-1.06v-5.35h-1.65v-.92h1.65v-.45Z"/><path class="m" d="M369.58,121.83h1.06v1.57h2.54v.92h-2.54v3.63c0,.64.03.8.62.8h1.92v.92h-2.15c-1.13,0-1.45-.27-1.45-1.57v-3.78h-1.76v-.92h1.76v-1.57Z"/><path class="m" d="M351.51,168.43l2.37,8.7,1.63-11.94h2.76l-2.67,16.14h-2.76l-2.61-9.75-2.61,9.75h-2.76l-2.67-16.14h2.79l1.6,11.94,2.37-8.7h2.55Z"/><path class="m" d="M362.39,162.95c0-1.31.31-1.73,1.65-1.73h2.19v.91h-2.17c-.52,0-.61.16-.61.82v.45h2.78v.92h-2.78v5.35h-1.06v-5.35h-1.65v-.92h1.65v-.45Z"/><path class="m" d="M369.58,161.83h1.06v1.57h2.54v.92h-2.54v3.63c0,.64.03.8.62.8h1.92v.92h-2.15c-1.13,0-1.45-.27-1.45-1.57v-3.78h-1.76v-.92h1.76v-1.57Z"/><path class="m" d="M351.51,208.43l2.37,8.7,1.63-11.94h2.76l-2.67,16.14h-2.76l-2.61-9.75-2.61,9.75h-2.76l-2.67-16.14h2.79l1.6,11.94,2.37-8.7h2.55Z"/><path class="m" d="M362.39,202.95c0-1.31.31-1.73,1.65-1.73h2.19v.91h-2.17c-.52,0-.61.16-.61.82v.45h2.78v.92h-2.78v5.35h-1.06v-5.35h-1.65v-.92h1.65v-.45Z"/><path class="m" d="M369.58,201.83h1.06v1.57h2.54v.92h-2.54v3.63c0,.64.03.8.62.8h1.92v.92h-2.15c-1.13,0-1.45-.27-1.45-1.57v-3.78h-1.76v-.92h1.76v-1.57Z"/><path class="m" d="M351.51,248.43l2.37,8.7,1.63-11.94h2.76l-2.67,16.14h-2.76l-2.61-9.75-2.61,9.75h-2.76l-2.67-16.14h2.79l1.6,11.94,2.37-8.7h2.55Z"/><path class="m" d="M362.39,242.95c0-1.31.31-1.73,1.65-1.73h2.19v.91h-2.17c-.52,0-.61.16-.61.82v.45h2.78v.92h-2.78v5.35h-1.06v-5.35h-1.65v-.92h1.65v-.45Z"/><path class="m" d="M369.58,241.83h1.06v1.57h2.54v.92h-2.54v3.63c0,.64.03.8.62.8h1.92v.92h-2.15c-1.13,0-1.45-.27-1.45-1.57v-3.78h-1.76v-.92h1.76v-1.57Z"/><path class="m" d="M351.51,328.43l2.37,8.7,1.63-11.94h2.76l-2.67,16.14h-2.76l-2.61-9.75-2.61,9.75h-2.76l-2.67-16.14h2.79l1.6,11.94,2.37-8.7h2.55Z"/><path class="m" d="M362.39,322.94c0-1.31.31-1.73,1.65-1.73h2.19v.91h-2.17c-.52,0-.61.16-.61.82v.45h2.78v.92h-2.78v5.35h-1.06v-5.35h-1.65v-.92h1.65v-.45Z"/><path class="m" d="M369.58,321.83h1.06v1.57h2.54v.92h-2.54v3.63c0,.64.03.8.62.8h1.92v.92h-2.15c-1.13,0-1.45-.27-1.45-1.57v-3.78h-1.76v-.92h1.76v-1.57Z"/><polyline class="e" points="93.33 94.78 60 94.78 60 372.27 93.33 372.27"/><polyline class="e" points="373.89 372.27 407.22 372.27 407.22 94.78 373.89 94.78"/><path class="k" d="M449.92,222.96h15.84v5.18h-15.84v-5.18ZM449.92,231.6h15.84v5.18h-15.84v-5.18Z"/><path class="k" d="M734.41,389.7h-8.83v-5.18h8.83v-8.83h5.18v8.83h8.83v5.18h-8.83v8.83h-5.18v-8.83Z"/><polyline class="f" points="968.89 673.03 968.89 676.03 965.89 676.03"/><line class="h" x1="959.93" y1="676.03" x2="509.87" y2="676.03"/><polyline class="f" points="506.89 676.03 503.89 676.03 503.89 673.03"/><line class="i" x1="503.89" y1="666.97" x2="503.89" y2="100.23"/><polyline class="f" points="503.89 97.2 503.89 94.2 506.89 94.2"/><line class="h" x1="512.85" y1="94.2" x2="962.91" y2="94.2"/><polyline class="f" points="965.89 94.2 968.89 94.2 968.89 97.2"/><line class="i" x1="968.89" y1="103.26" x2="968.89" y2="670"/></svg>