<?xml version="1.0" encoding="UTF-8"?><svg id="a" xmlns="http://www.w3.org/2000/svg" viewBox="0 0 1000 1000"><defs><style>.b{stroke-width:0px;}.c{fill:none;stroke:#000;stroke-miterlimit:10;stroke-width:2px;}</style></defs><path class="b" d="M271.16,127.39v23.25h5.41v2.84h-15.28v-2.84h6.59v-17.57h-6.59v-2.27c4.31-.11,6.41-.58,7.73-3.42h2.14Z"/><path class="b" d="M278.67,195.04h-4.31v6.44h-3.28v-6.44h-12.18v-3.1l12.14-16.56h3.31v16.56h4.31v3.1ZM262.33,191.94h8.76v-12.09l-8.76,12.09Z"/><path class="b" d="M274.29,240.92c0-4.25-2.85-5.98-5.52-5.98-2.46,0-4.17,1.48-4.7,2.74l-3.42-.14,1.67-14.15h14.32v2.81h-11.54l-.93,7.81c1.35-1.33,3.28-1.94,5.34-1.94,4.27,0,8.26,3.17,8.26,8.82s-4.38,9.07-8.98,9.07c-5.73,0-8.55-4-8.87-8.24h3.31c.36,3.17,2.14,5.4,5.59,5.4,2.96,0,5.45-2.23,5.45-6.19Z"/><path class="b" d="M374.3,146.18c0-3.67-3.1-5-7.05-5h-.5v-2.92h.39c4.24,0,6.52-1.4,6.52-4.43,0-2.63-2.14-4.1-4.77-4.1-3.28,0-5.06,2.12-5.31,5.04h-3.35c.36-4.61,3.7-7.85,8.76-7.85,4.17,0,8.16,1.84,8.16,6.59,0,2.66-1.42,4.97-4.02,6.05,3.63,1.26,4.67,3.92,4.67,6.59,0,5.18-4.49,7.81-9.05,7.81-5.73,0-8.55-4-8.87-8.24h3.31c.36,3.17,2.14,5.4,5.59,5.4,3.28,0,5.52-1.84,5.52-4.93Z"/><path class="b" d="M359.84,188.31c0-8.1,2.49-13.39,9.01-13.39s9.05,5.29,9.05,13.39-2.53,13.64-9.05,13.64-9.01-5.54-9.01-13.64ZM363.18,189.64l11.15-5.15c-.57-4.54-2.39-6.77-5.48-6.77-3.88,0-5.7,3.46-5.7,10.58,0,.47,0,.9.04,1.33ZM374.58,188.31c0-.4,0-.76-.04-1.15l-11.15,5.22c.61,4.46,2.39,6.73,5.45,6.73,3.88,0,5.73-3.67,5.73-10.8Z"/><path class="b" d="M360.3,223.39h18.13v2.81c-6.59,5.11-10.9,13.71-11.15,23.29h-3.74c.57-9.36,4.77-18.21,10.9-23.29h-14.14v-2.81Z"/><path class="b" d="M477.18,133.94c0,6.05-5.77,11.37-12.36,16.7h12.82v2.84h-17.42v-2.84c8.65-6.8,13.46-11.7,13.46-16.27,0-2.7-1.53-4.64-4.45-4.64-2.67,0-5.13,1.66-5.2,5.94h-3.35c-.07-4.97,3.35-8.75,8.58-8.75,4.52,0,7.91,2.59,7.91,7.02Z"/><path class="b" d="M477.25,181.58c0,2.09-.96,4.61-3.38,5.98,3.21,1.4,4.17,4.25,4.17,6.59,0,4.9-4.1,7.81-9.15,7.81s-9.15-2.92-9.15-7.81c0-2.34.93-5.18,4.17-6.59-2.46-1.37-3.42-3.89-3.42-5.98,0-3.82,3.38-6.66,8.4-6.66s8.37,2.84,8.37,6.66ZM463.18,194.14c0,3.02,2.24,4.97,5.7,4.97s5.66-1.94,5.66-4.97-2.21-5.11-5.66-5.11-5.7,2.09-5.7,5.11ZM468.88,177.76c-3.06,0-5.09,1.58-5.09,4.14s2.03,4.57,5.09,4.57,5.09-1.98,5.09-4.57-2.03-4.14-5.09-4.14Z"/><path class="b" d="M459.66,223.39v23.25h5.41v2.84h-15.28v-2.84h6.59v-17.57h-6.59v-2.27c4.31-.11,6.41-.58,7.73-3.42h2.14Z"/><path class="b" d="M471.34,236.31c0-8.1,2.49-13.39,9.01-13.39s9.05,5.29,9.05,13.39-2.53,13.64-9.05,13.64-9.01-5.54-9.01-13.64ZM474.69,237.64l11.15-5.15c-.57-4.54-2.39-6.77-5.48-6.77-3.88,0-5.7,3.46-5.7,10.58,0,.47,0,.9.04,1.33ZM486.09,236.31c0-.4,0-.76-.04-1.15l-11.15,5.22c.61,4.46,2.39,6.73,5.45,6.73,3.88,0,5.73-3.67,5.73-10.8Z"/><path class="b" d="M249.08,74.82c-1.14-.65-2.06-1.62-2.75-2.92-.7-1.3-1.04-2.86-1.04-4.7s.35-3.41,1.04-4.7c.7-1.3,1.61-2.27,2.75-2.92,1.14-.65,2.37-.97,3.7-.97,1.65,0,3.03.43,4.16,1.3,1.12.86,1.9,2.06,2.33,3.6l-1.95.53c-.33-1.1-.88-1.96-1.63-2.57-.75-.61-1.72-.91-2.91-.91-1.03,0-1.95.26-2.77.77s-1.45,1.26-1.91,2.26c-.46.99-.69,2.2-.69,3.62s.23,2.63.69,3.62c.46.99,1.1,1.74,1.91,2.26.82.51,1.74.77,2.77.77,1.19,0,2.16-.3,2.91-.91.75-.61,1.29-1.46,1.63-2.57l1.95.53c-.43,1.54-1.2,2.74-2.33,3.6-1.12.86-2.51,1.3-4.16,1.3-1.33,0-2.56-.32-3.7-.97Z"/><path class="b" d="M264.19,74.94c-.88-.57-1.55-1.33-2.02-2.29s-.7-1.99-.7-3.1.23-2.14.7-3.1,1.14-1.72,2.02-2.29c.88-.57,1.9-.85,3.05-.85s2.17.28,3.04.85c.87.57,1.54,1.33,2.01,2.29s.7,1.99.7,3.1-.23,2.14-.7,3.1-1.14,1.72-2.01,2.29c-.87.57-1.88.85-3.04.85s-2.17-.28-3.05-.85ZM269.25,73.39c.56-.42.99-.96,1.27-1.64.28-.68.43-1.41.43-2.2s-.14-1.52-.43-2.2c-.29-.68-.71-1.23-1.27-1.64-.56-.42-1.23-.62-2.01-.62s-1.45.21-2.01.62c-.56.42-.99.96-1.28,1.64-.29.68-.44,1.41-.44,2.2s.15,1.52.44,2.2c.29.68.72,1.23,1.28,1.64.56.42,1.23.62,2.01.62s1.44-.21,2.01-.62Z"/><path class="b" d="M275.87,58.61h1.97v16.99h-1.97v-16.99Z"/><path class="b" d="M289.66,61.78l-2.9,1.8v-2.16l4.18-2.62h.69v16.8h-1.97v-13.82Z"/><path class="b" d="M347.2,74.82c-1.14-.65-2.06-1.62-2.75-2.92-.7-1.3-1.04-2.86-1.04-4.7s.35-3.41,1.04-4.7c.7-1.3,1.61-2.27,2.75-2.92,1.14-.65,2.37-.97,3.7-.97,1.65,0,3.03.43,4.16,1.3,1.12.86,1.9,2.06,2.33,3.6l-1.95.53c-.33-1.1-.88-1.96-1.63-2.57-.75-.61-1.72-.91-2.91-.91-1.03,0-1.95.26-2.77.77s-1.45,1.26-1.91,2.26c-.46.99-.69,2.2-.69,3.62s.23,2.63.69,3.62c.46.99,1.1,1.74,1.91,2.26.82.51,1.74.77,2.77.77,1.19,0,2.16-.3,2.91-.91.75-.61,1.29-1.46,1.63-2.57l1.95.53c-.43,1.54-1.2,2.74-2.33,3.6-1.12.86-2.51,1.3-4.16,1.3-1.33,0-2.56-.32-3.7-.97Z"/><path class="b" d="M362.32,74.94c-.88-.57-1.55-1.33-2.02-2.29s-.7-1.99-.7-3.1.23-2.14.7-3.1,1.14-1.72,2.02-2.29c.88-.57,1.9-.85,3.05-.85s2.17.28,3.04.85c.87.57,1.54,1.33,2.01,2.29s.7,1.99.7,3.1-.23,2.14-.7,3.1-1.14,1.72-2.01,2.29c-.87.57-1.88.85-3.04.85s-2.17-.28-3.05-.85ZM367.38,73.39c.56-.42.99-.96,1.27-1.64.28-.68.43-1.41.43-2.2s-.14-1.52-.43-2.2c-.29-.68-.71-1.23-1.27-1.64-.56-.42-1.23-.62-2.01-.62s-1.45.21-2.01.62c-.56.42-.99.96-1.28,1.64-.29.68-.44,1.41-.44,2.2s.15,1.52.44,2.2c.29.68.72,1.23,1.28,1.64.56.42,1.23.62,2.01.62s1.44-.21,2.01-.62Z"/><path class="b" d="M373.99,58.61h1.97v16.99h-1.97v-16.99Z"/><path class="b" d="M390.42,66.96c.67-.85,1.11-1.52,1.34-2.03s.34-1.08.34-1.72c0-.86-.24-1.55-.71-2.05s-1.12-.76-1.95-.76c-.78,0-1.42.28-1.92.83-.51.55-.82,1.28-.95,2.2l-1.83-.36c.06-.86.3-1.63.72-2.3.42-.67.98-1.2,1.67-1.58.7-.38,1.47-.58,2.33-.58,1.39,0,2.51.41,3.36,1.24s1.27,1.95,1.27,3.37c0,.74-.15,1.45-.46,2.15-.31.7-.76,1.43-1.37,2.2l-4.75,6.22h6.96v1.82h-10.07v-.77l6.01-7.87Z"/><path class="b" d="M446.73,74.82c-1.14-.65-2.06-1.62-2.75-2.92-.7-1.3-1.04-2.86-1.04-4.7s.35-3.41,1.04-4.7c.7-1.3,1.61-2.27,2.75-2.92,1.14-.65,2.37-.97,3.7-.97,1.65,0,3.03.43,4.16,1.3,1.12.86,1.9,2.06,2.33,3.6l-1.95.53c-.33-1.1-.88-1.96-1.63-2.57-.75-.61-1.72-.91-2.91-.91-1.03,0-1.95.26-2.77.77s-1.45,1.26-1.91,2.26c-.46.99-.69,2.2-.69,3.62s.23,2.63.69,3.62c.46.99,1.1,1.74,1.91,2.26.82.51,1.74.77,2.77.77,1.19,0,2.16-.3,2.91-.91.75-.61,1.29-1.46,1.63-2.57l1.95.53c-.43,1.54-1.2,2.74-2.33,3.6-1.12.86-2.51,1.3-4.16,1.3-1.33,0-2.56-.32-3.7-.97Z"/><path class="b" d="M461.84,74.94c-.88-.57-1.55-1.33-2.02-2.29s-.7-1.99-.7-3.1.23-2.14.7-3.1,1.14-1.72,2.02-2.29c.88-.57,1.9-.85,3.05-.85s2.17.28,3.04.85c.87.57,1.54,1.33,2.01,2.29s.7,1.99.7,3.1-.23,2.14-.7,3.1-1.14,1.72-2.01,2.29c-.87.57-1.88.85-3.04.85s-2.17-.28-3.05-.85ZM466.9,73.39c.56-.42.99-.96,1.27-1.64.28-.68.43-1.41.43-2.2s-.14-1.52-.43-2.2c-.29-.68-.71-1.23-1.27-1.64-.56-.42-1.23-.62-2.01-.62s-1.45.21-2.01.62c-.56.42-.99.96-1.28,1.64-.29.68-.44,1.41-.44,2.2s.15,1.52.44,2.2c.29.68.72,1.23,1.28,1.64.56.42,1.23.62,2.01.62s1.44-.21,2.01-.62Z"/><path class="b" d="M473.52,58.61h1.97v16.99h-1.97v-16.99Z"/><path class="b" d="M486,74.5c-.96-.86-1.52-2.04-1.67-3.53l1.92-.26c.14,1.01.5,1.8,1.07,2.39.57.58,1.32.88,2.26.88,1.08,0,1.91-.32,2.49-.96s.88-1.52.88-2.64-.3-2.07-.89-2.7c-.59-.63-1.41-.95-2.46-.95-.54,0-1.03.14-1.47.41l-.88-1.18,3.92-5.35h-6.03v-1.8h8.98v.62l-4.3,5.81c.16-.05.36-.07.62-.07.82,0,1.58.21,2.27.62.69.42,1.23,1.02,1.64,1.81.4.79.61,1.72.61,2.77s-.22,2.02-.67,2.83c-.44.82-1.07,1.45-1.88,1.91-.81.46-1.75.68-2.83.68-1.42,0-2.62-.43-3.57-1.3Z"/><polyline class="c" points="248.88 99.94 228.88 99.94 228.88 279.94 248.88 279.94"/><polyline class="c" points="488.88 279.94 508.88 279.94 508.88 99.94 488.88 99.94"/><path class="b" d="M274.29,366.18c0-3.67-3.1-5-7.05-5h-.5v-2.92h.39c4.24,0,6.52-1.4,6.52-4.43,0-2.63-2.14-4.1-4.77-4.1-3.28,0-5.06,2.12-5.31,5.04h-3.35c.36-4.61,3.7-7.85,8.76-7.85,4.17,0,8.16,1.84,8.16,6.59,0,2.66-1.42,4.97-4.02,6.05,3.63,1.26,4.67,3.92,4.67,6.59,0,5.18-4.49,7.81-9.05,7.81-5.73,0-8.55-4-8.87-8.24h3.31c.36,3.17,2.14,5.4,5.59,5.4,3.28,0,5.52-1.84,5.52-4.93Z"/><path class="b" d="M259.66,395.39v23.25h5.41v2.84h-15.28v-2.84h6.59v-17.57h-6.59v-2.27c4.31-.11,6.41-.58,7.73-3.42h2.14Z"/><path class="b" d="M285.8,412.92c0-4.25-2.85-5.97-5.52-5.97-2.46,0-4.17,1.48-4.7,2.74l-3.42-.14,1.67-14.15h14.32v2.81h-11.54l-.93,7.81c1.35-1.33,3.28-1.94,5.34-1.94,4.27,0,8.26,3.17,8.26,8.82s-4.38,9.07-8.98,9.07c-5.73,0-8.55-4-8.87-8.24h3.31c.36,3.17,2.14,5.4,5.59,5.4,2.96,0,5.45-2.23,5.45-6.19Z"/><path class="b" d="M259.66,443.39v23.25h5.41v2.84h-15.28v-2.84h6.59v-17.57h-6.59v-2.27c4.31-.11,6.41-.58,7.73-3.42h2.14Z"/><path class="b" d="M288.69,449.94c0,6.05-5.77,11.38-12.36,16.7h12.82v2.84h-17.42v-2.84c8.65-6.8,13.46-11.7,13.46-16.27,0-2.7-1.53-4.64-4.45-4.64-2.67,0-5.13,1.66-5.2,5.94h-3.35c-.07-4.97,3.35-8.75,8.58-8.75,4.52,0,7.91,2.59,7.91,7.02Z"/><path class="b" d="M371.16,347.39v23.25h5.41v2.84h-15.28v-2.84h6.59v-17.57h-6.59v-2.27c4.31-.11,6.41-.58,7.73-3.42h2.14Z"/><path class="b" d="M374.3,412.92c0-4.25-2.85-5.97-5.52-5.97-2.46,0-4.17,1.48-4.7,2.74l-3.42-.14,1.67-14.15h14.32v2.81h-11.54l-.93,7.81c1.35-1.33,3.28-1.94,5.34-1.94,4.27,0,8.26,3.17,8.26,8.82s-4.38,9.07-8.98,9.07c-5.73,0-8.55-4-8.87-8.24h3.31c.36,3.17,2.14,5.4,5.59,5.4,2.96,0,5.45-2.23,5.45-6.19Z"/><path class="b" d="M378.68,463.04h-4.31v6.44h-3.28v-6.44h-12.18v-3.1l12.14-16.56h3.31v16.56h4.31v3.1ZM362.33,459.94h8.76v-12.09l-8.76,12.09Z"/><path class="b" d="M459.84,360.31c0-8.1,2.49-13.39,9.01-13.39s9.05,5.29,9.05,13.39-2.53,13.64-9.05,13.64-9.01-5.54-9.01-13.64ZM463.18,361.64l11.15-5.15c-.57-4.54-2.39-6.77-5.48-6.77-3.88,0-5.7,3.46-5.7,10.58,0,.47,0,.9.04,1.33ZM474.58,360.31c0-.4,0-.76-.04-1.15l-11.15,5.22c.61,4.46,2.39,6.73,5.45,6.73,3.88,0,5.73-3.67,5.73-10.8Z"/><path class="b" d="M459.84,408.31c0-8.1,2.49-13.39,9.01-13.39s9.05,5.29,9.05,13.39-2.53,13.64-9.05,13.64-9.01-5.54-9.01-13.64ZM463.18,409.64l11.15-5.15c-.57-4.54-2.39-6.77-5.48-6.77-3.88,0-5.7,3.46-5.7,10.58,0,.47,0,.9.04,1.33ZM474.58,408.31c0-.4,0-.76-.04-1.15l-11.15,5.22c.61,4.46,2.39,6.73,5.45,6.73,3.88,0,5.73-3.67,5.73-10.8Z"/><path class="b" d="M459.84,456.31c0-8.1,2.49-13.39,9.01-13.39s9.05,5.29,9.05,13.39-2.53,13.64-9.05,13.64-9.01-5.54-9.01-13.64ZM463.18,457.64l11.15-5.15c-.57-4.54-2.39-6.77-5.48-6.77-3.88,0-5.7,3.46-5.7,10.58,0,.47,0,.9.04,1.33ZM474.58,456.31c0-.4,0-.76-.04-1.15l-11.15,5.22c.61,4.46,2.39,6.73,5.45,6.73,3.88,0,5.73-3.67,5.73-10.8Z"/><polyline class="c" points="248.88 319.94 228.88 319.94 228.88 499.94 248.88 499.94"/><polyline class="c" points="488.88 499.94 508.88 499.94 508.88 319.94 488.88 319.94"/><path class="b" d="M274.29,584.92c0-4.25-2.85-5.97-5.52-5.97-2.46,0-4.17,1.48-4.7,2.74l-3.42-.14,1.67-14.15h14.32v2.81h-11.54l-.93,7.81c1.35-1.33,3.28-1.94,5.34-1.94,4.27,0,8.26,3.17,8.26,8.82s-4.38,9.07-8.98,9.07c-5.73,0-8.55-4-8.87-8.24h3.31c.36,3.17,2.14,5.4,5.59,5.4,2.96,0,5.45-2.23,5.45-6.19Z"/><path class="b" d="M271.16,615.39v23.25h5.41v2.84h-15.28v-2.84h6.59v-17.57h-6.59v-2.27c4.31-.11,6.41-.58,7.73-3.42h2.14Z"/><path class="b" d="M278.67,683.04h-4.31v6.44h-3.28v-6.44h-12.18v-3.1l12.14-16.56h3.31v16.56h4.31v3.1ZM262.33,679.94h8.76v-12.09l-8.76,12.09Z"/><path class="b" d="M374.3,586.18c0-3.67-3.1-5-7.05-5h-.5v-2.92h.39c4.24,0,6.52-1.4,6.52-4.43,0-2.63-2.14-4.1-4.77-4.1-3.28,0-5.06,2.12-5.31,5.04h-3.35c.36-4.61,3.7-7.85,8.76-7.85,4.17,0,8.16,1.83,8.16,6.59,0,2.66-1.42,4.97-4.02,6.05,3.63,1.26,4.67,3.92,4.67,6.59,0,5.18-4.49,7.81-9.05,7.81-5.73,0-8.55-4-8.87-8.24h3.31c.36,3.17,2.14,5.4,5.59,5.4,3.28,0,5.52-1.84,5.52-4.93Z"/><path class="b" d="M374.3,632.92c0-4.25-2.85-5.97-5.52-5.97-2.46,0-4.17,1.48-4.7,2.74l-3.42-.14,1.67-14.15h14.32v2.81h-11.54l-.93,7.81c1.35-1.33,3.28-1.94,5.34-1.94,4.27,0,8.26,3.17,8.26,8.82s-4.38,9.07-8.98,9.07c-5.73,0-8.55-4-8.87-8.24h3.31c.36,3.17,2.14,5.4,5.59,5.4,2.96,0,5.45-2.23,5.45-6.19Z"/><path class="b" d="M374.3,682.18c0-3.67-3.1-5-7.05-5h-.5v-2.92h.39c4.24,0,6.52-1.4,6.52-4.43,0-2.63-2.14-4.1-4.77-4.1-3.28,0-5.06,2.12-5.31,5.04h-3.35c.36-4.61,3.7-7.85,8.76-7.85,4.17,0,8.16,1.83,8.16,6.59,0,2.66-1.42,4.97-4.02,6.05,3.63,1.26,4.67,3.92,4.67,6.59,0,5.18-4.49,7.81-9.05,7.81-5.73,0-8.55-4-8.87-8.24h3.31c.36,3.17,2.14,5.4,5.59,5.4,3.28,0,5.52-1.84,5.52-4.93Z"/><path class="b" d="M471.16,567.39v23.25h5.41v2.84h-15.28v-2.84h6.59v-17.57h-6.59v-2.27c4.31-.11,6.41-.58,7.73-3.42h2.14Z"/><path class="b" d="M474.47,629.14c-1.1,2.02-3.24,3.56-6.48,3.56-4.56,0-8.08-3.67-8.08-8.82,0-4.79,3.42-8.96,8.8-8.96,6.2,0,9.15,4.54,9.15,12.49,0,7.31-2.64,14.54-9.72,14.54-4.77,0-7.3-3.17-7.84-6.44h3.56c.39,2.34,2.07,3.6,4.45,3.6,3.88,0,6.02-4,6.16-9.97ZM468.78,617.73c-3.21,0-5.38,2.48-5.38,6.01s2.17,6.01,5.31,6.01,5.38-2.52,5.38-6.01-2.07-6.01-5.31-6.01Z"/><path class="b" d="M477.18,669.94c0,6.05-5.77,11.38-12.36,16.7h12.82v2.84h-17.42v-2.84c8.65-6.8,13.46-11.7,13.46-16.27,0-2.7-1.53-4.64-4.45-4.64-2.67,0-5.13,1.66-5.2,5.94h-3.35c-.07-4.97,3.35-8.75,8.58-8.75,4.52,0,7.91,2.59,7.91,7.02Z"/><polyline class="c" points="248.88 539.94 228.88 539.94 228.88 719.94 248.88 719.94"/><polyline class="c" points="488.88 719.94 508.88 719.94 508.88 539.94 488.88 539.94"/><path class="b" d="M132.21,176.75h4.68l8.53,25.2h-5.04l-1.84-5.94h-7.99l-1.84,5.94h-5.04l8.53-25.2ZM137.22,191.69l-2.66-8.75-2.66,8.75h5.33Z"/><path class="b" d="M157.05,185.61h15.73v3.89h-15.73v-3.89ZM157.05,192.09h15.73v3.89h-15.73v-3.89Z"/><path class="b" d="M130.93,640.28c-1.81-1-3.26-2.47-4.34-4.41s-1.62-4.27-1.62-6.98.54-5.04,1.62-6.98c1.08-1.94,2.53-3.41,4.34-4.41,1.81-1,3.8-1.49,5.96-1.49,2.74,0,5.01.67,6.82,2,1.81,1.33,3.02,3.21,3.62,5.63l-4.21,1.08c-.53-1.39-1.28-2.47-2.27-3.24-.98-.77-2.3-1.15-3.96-1.15-1.34,0-2.56.32-3.64.95s-1.94,1.6-2.57,2.88c-.64,1.28-.95,2.86-.95,4.73s.32,3.45.95,4.73c.64,1.28,1.49,2.24,2.57,2.88,1.08.64,2.29.95,3.64.95,1.66,0,2.98-.38,3.96-1.15.98-.77,1.74-1.85,2.27-3.24l4.21,1.08c-.6,2.42-1.81,4.3-3.62,5.63-1.81,1.33-4.09,2-6.82,2-2.16,0-4.15-.5-5.96-1.49Z"/><path class="b" d="M160.11,625.14h15.73v3.89h-15.73v-3.89ZM160.11,631.62h15.73v3.89h-15.73v-3.89Z"/><path class="b" d="M135.42,396.75c2.21,0,3.96.58,5.26,1.73,1.3,1.15,1.94,2.84,1.94,5.08,0,1.03-.22,1.96-.65,2.79-.43.83-1.04,1.45-1.84,1.85,2.52,1.03,3.78,3.08,3.78,6.16,0,2.42-.74,4.3-2.21,5.62s-3.51,1.98-6.1,1.98h-9.4v-25.2h9.22ZM137.38,405.91c.49-.42.74-1.12.74-2.11s-.25-1.69-.76-2.11c-.5-.42-1.27-.63-2.3-.63h-4.18v5.47h4.28c.98,0,1.72-.21,2.21-.63ZM138.26,416.77c.65-.58.97-1.42.97-2.52s-.32-1.94-.97-2.52c-.65-.58-1.68-.86-3.1-.86h-4.28v6.77h4.28c1.42,0,2.45-.29,3.1-.86Z"/><path class="b" d="M156.84,405.61h15.73v3.89h-15.73v-3.89ZM156.84,412.09h15.73v3.89h-15.73v-3.89Z"/><path class="b" d="M641.35,201.17c-1.14-.65-2.06-1.62-2.75-2.92-.7-1.3-1.04-2.86-1.04-4.7s.35-3.41,1.04-4.7c.7-1.3,1.61-2.27,2.75-2.92,1.14-.65,2.37-.97,3.7-.97,1.65,0,3.03.43,4.16,1.3,1.12.86,1.9,2.06,2.33,3.6l-1.95.53c-.33-1.1-.88-1.96-1.63-2.57-.75-.61-1.72-.91-2.91-.91-1.03,0-1.95.26-2.77.77s-1.45,1.26-1.91,2.26c-.46.99-.69,2.2-.69,3.62s.23,2.63.69,3.62c.46.99,1.1,1.74,1.91,2.26.82.51,1.74.77,2.77.77,1.19,0,2.16-.3,2.91-.91.75-.61,1.29-1.46,1.63-2.57l1.95.53c-.43,1.54-1.2,2.74-2.33,3.6-1.12.86-2.51,1.3-4.16,1.3-1.33,0-2.56-.32-3.7-.97Z"/><path class="b" d="M656.46,201.29c-.88-.57-1.55-1.33-2.02-2.29s-.7-1.99-.7-3.1.23-2.14.7-3.1,1.14-1.72,2.02-2.29c.88-.57,1.9-.85,3.05-.85s2.17.28,3.04.85c.87.57,1.54,1.33,2.01,2.29s.7,1.99.7,3.1-.23,2.14-.7,3.1-1.14,1.72-2.01,2.29c-.87.57-1.88.85-3.04.85s-2.17-.28-3.05-.85ZM661.52,199.74c.56-.42.99-.96,1.27-1.64.28-.68.43-1.41.43-2.2s-.14-1.52-.43-2.2c-.29-.68-.71-1.23-1.27-1.64-.56-.42-1.23-.62-2.01-.62s-1.45.21-2.01.62c-.56.42-.99.96-1.28,1.64-.29.68-.44,1.41-.44,2.2s.15,1.52.44,2.2c.29.68.72,1.23,1.28,1.64.56.42,1.23.62,2.01.62s1.44-.21,2.01-.62Z"/><path class="b" d="M668.13,184.96h1.97v16.99h-1.97v-16.99Z"/><path class="b" d="M680.61,200.85c-.96-.86-1.52-2.04-1.67-3.53l1.92-.26c.14,1.01.5,1.8,1.07,2.39.57.58,1.32.88,2.26.88,1.08,0,1.91-.32,2.49-.96s.88-1.52.88-2.64-.3-2.07-.89-2.7c-.59-.63-1.41-.95-2.46-.95-.54,0-1.03.14-1.47.41l-.88-1.18,3.92-5.35h-6.03v-1.8h8.98v.62l-4.3,5.81c.16-.05.36-.07.62-.07.82,0,1.58.21,2.27.62.69.42,1.23,1.02,1.64,1.81.4.79.61,1.72.61,2.77s-.22,2.02-.67,2.83c-.44.82-1.07,1.45-1.88,1.91-.81.46-1.75.68-2.83.68-1.42,0-2.62-.43-3.57-1.3Z"/><path class="b" d="M698.22,191.49h9.59v1.75h-9.59v-1.75ZM698.22,195.59h9.59v1.75h-9.59v-1.75Z"/><path class="b" d="M722.11,193.31c.67-.85,1.11-1.52,1.34-2.03s.34-1.08.34-1.72c0-.86-.24-1.55-.71-2.05s-1.12-.76-1.95-.76c-.78,0-1.42.28-1.92.83-.51.55-.82,1.28-.95,2.2l-1.83-.36c.06-.86.3-1.63.72-2.3.42-.67.98-1.2,1.67-1.58.7-.38,1.47-.58,2.33-.58,1.39,0,2.51.41,3.36,1.24s1.27,1.95,1.27,3.37c0,.74-.15,1.45-.46,2.15-.31.7-.76,1.43-1.37,2.2l-4.75,6.22h6.96v1.82h-10.07v-.77l6.01-7.87Z"/><path class="b" d="M737.43,195.4l-3.4-5.54h2.11l2.33,3.84,2.35-3.84h2.11l-3.4,5.54,4.01,6.55h-2.04l-3.04-4.85-3.02,4.85h-2.04l4.01-6.55Z"/><path class="b" d="M754.71,201.17c-1.14-.65-2.06-1.62-2.75-2.92-.7-1.3-1.04-2.86-1.04-4.7s.35-3.41,1.04-4.7c.7-1.3,1.61-2.27,2.75-2.92,1.14-.65,2.37-.97,3.7-.97,1.65,0,3.03.43,4.16,1.3,1.12.86,1.9,2.06,2.33,3.6l-1.95.53c-.33-1.1-.88-1.96-1.63-2.57-.75-.61-1.72-.91-2.91-.91-1.03,0-1.95.26-2.77.77s-1.45,1.26-1.91,2.26c-.46.99-.69,2.2-.69,3.62s.23,2.63.69,3.62c.46.99,1.1,1.74,1.91,2.26.82.51,1.74.77,2.77.77,1.19,0,2.16-.3,2.91-.91.75-.61,1.29-1.46,1.63-2.57l1.95.53c-.43,1.54-1.2,2.74-2.33,3.6-1.12.86-2.51,1.3-4.16,1.3-1.33,0-2.56-.32-3.7-.97Z"/><path class="b" d="M769.83,201.29c-.88-.57-1.55-1.33-2.02-2.29s-.7-1.99-.7-3.1.23-2.14.7-3.1,1.14-1.72,2.02-2.29c.88-.57,1.9-.85,3.05-.85s2.17.28,3.04.85c.87.57,1.54,1.33,2.01,2.29s.7,1.99.7,3.1-.23,2.14-.7,3.1-1.14,1.72-2.01,2.29c-.87.57-1.88.85-3.04.85s-2.17-.28-3.05-.85ZM774.89,199.74c.56-.42.99-.96,1.27-1.64.28-.68.43-1.41.43-2.2s-.14-1.52-.43-2.2c-.29-.68-.71-1.23-1.27-1.64-.56-.42-1.23-.62-2.01-.62s-1.45.21-2.01.62c-.56.42-.99.96-1.28,1.64-.29.68-.44,1.41-.44,2.2s.15,1.52.44,2.2c.29.68.72,1.23,1.28,1.64.56.42,1.23.62,2.01.62s1.44-.21,2.01-.62Z"/><path class="b" d="M781.5,184.96h1.97v16.99h-1.97v-16.99Z"/><path class="b" d="M795.3,188.13l-2.9,1.8v-2.16l4.18-2.62h.69v16.8h-1.97v-13.82Z"/><path class="b" d="M641.35,396.27c-1.14-.65-2.06-1.62-2.75-2.92-.7-1.3-1.04-2.86-1.04-4.7s.35-3.41,1.04-4.7c.7-1.3,1.61-2.27,2.75-2.92,1.14-.65,2.37-.97,3.7-.97,1.65,0,3.03.43,4.16,1.3,1.12.86,1.9,2.06,2.33,3.6l-1.95.53c-.33-1.1-.88-1.96-1.63-2.57-.75-.61-1.72-.91-2.91-.91-1.03,0-1.95.26-2.77.77-.82.51-1.45,1.26-1.91,2.26-.46.99-.69,2.2-.69,3.62s.23,2.63.69,3.62c.46.99,1.1,1.74,1.91,2.26s1.74.77,2.77.77c1.19,0,2.16-.3,2.91-.91.75-.61,1.29-1.46,1.63-2.57l1.95.53c-.43,1.54-1.2,2.74-2.33,3.6-1.12.86-2.51,1.3-4.16,1.3-1.33,0-2.56-.32-3.7-.97Z"/><path class="b" d="M656.46,396.39c-.88-.57-1.55-1.33-2.02-2.29s-.7-1.99-.7-3.1.23-2.14.7-3.1,1.14-1.72,2.02-2.29,1.9-.85,3.05-.85,2.17.28,3.04.85c.87.57,1.54,1.33,2.01,2.29s.7,1.99.7,3.1-.23,2.14-.7,3.1-1.14,1.72-2.01,2.29c-.87.57-1.88.85-3.04.85s-2.17-.28-3.05-.85ZM661.52,394.84c.56-.42.99-.96,1.27-1.64.28-.68.43-1.41.43-2.2s-.14-1.52-.43-2.2c-.29-.68-.71-1.23-1.27-1.64-.56-.42-1.23-.62-2.01-.62s-1.45.21-2.01.62c-.56.42-.99.96-1.28,1.64-.29.68-.44,1.41-.44,2.2s.15,1.52.44,2.2.72,1.23,1.28,1.64c.56.42,1.23.62,2.01.62s1.44-.21,2.01-.62Z"/><path class="b" d="M668.13,380.06h1.97v16.99h-1.97v-16.99Z"/><path class="b" d="M681.93,383.22l-2.9,1.8v-2.16l4.18-2.62h.69v16.8h-1.97v-13.82Z"/><path class="b" d="M693.52,386.58h9.59v1.75h-9.59v-1.75ZM693.52,390.69h9.59v1.75h-9.59v-1.75Z"/><path class="b" d="M713.45,395.95c-.96-.86-1.52-2.04-1.67-3.53l1.92-.26c.14,1.01.5,1.8,1.07,2.39.57.58,1.32.88,2.26.88,1.08,0,1.91-.32,2.49-.96.59-.64.88-1.52.88-2.64s-.3-2.07-.89-2.7-1.41-.95-2.46-.95c-.54,0-1.03.14-1.47.41l-.88-1.18,3.92-5.35h-6.03v-1.8h8.98v.62l-4.3,5.81c.16-.05.36-.07.62-.07.82,0,1.58.21,2.27.62.69.42,1.23,1.02,1.64,1.81.4.79.61,1.72.61,2.77s-.22,2.02-.67,2.83c-.44.82-1.07,1.45-1.88,1.91-.81.46-1.75.68-2.83.68-1.42,0-2.62-.43-3.57-1.3Z"/><path class="b" d="M733.67,390.5l-3.4-5.54h2.11l2.33,3.84,2.35-3.84h2.11l-3.4,5.54,4.01,6.55h-2.04l-3.04-4.85-3.02,4.85h-2.04l4.01-6.55Z"/><path class="b" d="M750.96,396.27c-1.14-.65-2.06-1.62-2.75-2.92-.7-1.3-1.04-2.86-1.04-4.7s.35-3.41,1.04-4.7c.7-1.3,1.61-2.27,2.75-2.92,1.14-.65,2.37-.97,3.7-.97,1.65,0,3.03.43,4.16,1.3,1.12.86,1.9,2.06,2.33,3.6l-1.95.53c-.33-1.1-.88-1.96-1.63-2.57-.75-.61-1.72-.91-2.91-.91-1.03,0-1.95.26-2.77.77-.82.51-1.45,1.26-1.91,2.26-.46.99-.69,2.2-.69,3.62s.23,2.63.69,3.62c.46.99,1.1,1.74,1.91,2.26s1.74.77,2.77.77c1.19,0,2.16-.3,2.91-.91.75-.61,1.29-1.46,1.63-2.57l1.95.53c-.43,1.54-1.2,2.74-2.33,3.6-1.12.86-2.51,1.3-4.16,1.3-1.33,0-2.56-.32-3.7-.97Z"/><path class="b" d="M766.08,396.39c-.88-.57-1.55-1.33-2.02-2.29s-.7-1.99-.7-3.1.23-2.14.7-3.1,1.14-1.72,2.02-2.29,1.9-.85,3.05-.85,2.17.28,3.04.85c.87.57,1.54,1.33,2.01,2.29s.7,1.99.7,3.1-.23,2.14-.7,3.1-1.14,1.72-2.01,2.29c-.87.57-1.88.85-3.04.85s-2.17-.28-3.05-.85ZM771.13,394.84c.56-.42.99-.96,1.27-1.64.28-.68.43-1.41.43-2.2s-.14-1.52-.43-2.2c-.29-.68-.71-1.23-1.27-1.64-.56-.42-1.23-.62-2.01-.62s-1.45.21-2.01.62c-.56.42-.99.96-1.28,1.64-.29.68-.44,1.41-.44,2.2s.15,1.52.44,2.2.72,1.23,1.28,1.64c.56.42,1.23.62,2.01.62s1.44-.21,2.01-.62Z"/><path class="b" d="M777.75,380.06h1.97v16.99h-1.97v-16.99Z"/><path class="b" d="M794.18,388.41c.67-.85,1.11-1.52,1.34-2.03s.34-1.08.34-1.72c0-.86-.24-1.55-.71-2.05s-1.12-.76-1.95-.76c-.78,0-1.42.28-1.92.83-.51.55-.82,1.28-.95,2.2l-1.83-.36c.06-.86.3-1.63.72-2.3.42-.67.98-1.2,1.67-1.58.7-.38,1.47-.58,2.33-.58,1.39,0,2.51.41,3.36,1.24s1.27,1.95,1.27,3.37c0,.74-.15,1.45-.46,2.15-.31.7-.76,1.43-1.37,2.2l-4.75,6.22h6.96v1.82h-10.07v-.77l6.01-7.87Z"/><path class="b" d="M641.35,444.27c-1.14-.65-2.06-1.62-2.75-2.92-.7-1.3-1.04-2.86-1.04-4.7s.35-3.41,1.04-4.7c.7-1.3,1.61-2.27,2.75-2.92,1.14-.65,2.37-.97,3.7-.97,1.65,0,3.03.43,4.16,1.3,1.12.86,1.9,2.06,2.33,3.6l-1.95.53c-.33-1.1-.88-1.96-1.63-2.57-.75-.61-1.72-.91-2.91-.91-1.03,0-1.95.26-2.77.77-.82.51-1.45,1.26-1.91,2.26-.46.99-.69,2.2-.69,3.62s.23,2.63.69,3.62c.46.99,1.1,1.74,1.91,2.26s1.74.77,2.77.77c1.19,0,2.16-.3,2.91-.91.75-.61,1.29-1.46,1.63-2.57l1.95.53c-.43,1.54-1.2,2.74-2.33,3.6-1.12.86-2.51,1.3-4.16,1.3-1.33,0-2.56-.32-3.7-.97Z"/><path class="b" d="M656.46,444.39c-.88-.57-1.55-1.33-2.02-2.29s-.7-1.99-.7-3.1.23-2.14.7-3.1,1.14-1.72,2.02-2.29,1.9-.85,3.05-.85,2.17.28,3.04.85c.87.57,1.54,1.33,2.01,2.29s.7,1.99.7,3.1-.23,2.14-.7,3.1-1.14,1.72-2.01,2.29c-.87.57-1.88.85-3.04.85s-2.17-.28-3.05-.85ZM661.52,442.84c.56-.42.99-.96,1.27-1.64.28-.68.43-1.41.43-2.2s-.14-1.52-.43-2.2c-.29-.68-.71-1.23-1.27-1.64-.56-.42-1.23-.62-2.01-.62s-1.45.21-2.01.62c-.56.42-.99.96-1.28,1.64-.29.68-.44,1.41-.44,2.2s.15,1.52.44,2.2.72,1.23,1.28,1.64c.56.42,1.23.62,2.01.62s1.44-.21,2.01-.62Z"/><path class="b" d="M668.13,428.06h1.97v16.99h-1.97v-16.99Z"/><path class="b" d="M680.61,443.95c-.96-.86-1.52-2.04-1.67-3.53l1.92-.26c.14,1.01.5,1.8,1.07,2.39.57.58,1.32.88,2.26.88,1.08,0,1.91-.32,2.49-.96.59-.64.88-1.52.88-2.64s-.3-2.07-.89-2.7-1.41-.95-2.46-.95c-.54,0-1.03.14-1.47.41l-.88-1.18,3.92-5.35h-6.03v-1.8h8.98v.62l-4.3,5.81c.16-.05.36-.07.62-.07.82,0,1.58.21,2.27.62.69.42,1.23,1.02,1.64,1.81.4.79.61,1.72.61,2.77s-.22,2.02-.67,2.83c-.44.82-1.07,1.45-1.88,1.91-.81.46-1.75.68-2.83.68-1.42,0-2.62-.43-3.57-1.3Z"/><path class="b" d="M698.22,434.58h9.59v1.75h-9.59v-1.75ZM698.22,438.69h9.59v1.75h-9.59v-1.75Z"/><path class="b" d="M718.18,442.94c-1-1.54-1.51-3.63-1.51-6.29s.5-4.75,1.51-6.29c1.01-1.54,2.46-2.3,4.36-2.3s3.35.76,4.35,2.29c1,1.53,1.5,3.63,1.5,6.3s-.5,4.77-1.5,6.3c-1,1.53-2.45,2.29-4.35,2.29s-3.35-.77-4.36-2.3ZM725.4,441.59c.67-1.22,1.01-2.86,1.01-4.94s-.34-3.73-1.01-4.96c-.67-1.22-1.63-1.84-2.86-1.84s-2.21.61-2.87,1.84c-.67,1.22-1,2.88-1,4.96s.33,3.73,1,4.94c.67,1.22,1.62,1.82,2.87,1.82s2.19-.61,2.86-1.82Z"/><path class="b" d="M739.85,438.5l-3.4-5.54h2.11l2.33,3.84,2.35-3.84h2.11l-3.4,5.54,4.01,6.55h-2.04l-3.04-4.85-3.02,4.85h-2.04l4.01-6.55Z"/><path class="b" d="M757.14,444.27c-1.14-.65-2.06-1.62-2.75-2.92-.7-1.3-1.04-2.86-1.04-4.7s.35-3.41,1.04-4.7c.7-1.3,1.61-2.27,2.75-2.92,1.14-.65,2.37-.97,3.7-.97,1.65,0,3.03.43,4.16,1.3,1.12.86,1.9,2.06,2.33,3.6l-1.95.53c-.33-1.1-.88-1.96-1.63-2.57-.75-.61-1.72-.91-2.91-.91-1.03,0-1.95.26-2.77.77-.82.51-1.45,1.26-1.91,2.26-.46.99-.69,2.2-.69,3.62s.23,2.63.69,3.62c.46.99,1.1,1.74,1.91,2.26s1.74.77,2.77.77c1.19,0,2.16-.3,2.91-.91.75-.61,1.29-1.46,1.63-2.57l1.95.53c-.43,1.54-1.2,2.74-2.33,3.6-1.12.86-2.51,1.3-4.16,1.3-1.33,0-2.56-.32-3.7-.97Z"/><path class="b" d="M772.25,444.39c-.88-.57-1.55-1.33-2.02-2.29s-.7-1.99-.7-3.1.23-2.14.7-3.1,1.14-1.72,2.02-2.29,1.9-.85,3.05-.85,2.17.28,3.04.85c.87.57,1.54,1.33,2.01,2.29s.7,1.99.7,3.1-.23,2.14-.7,3.1-1.14,1.72-2.01,2.29c-.87.57-1.88.85-3.04.85s-2.17-.28-3.05-.85ZM777.31,442.84c.56-.42.99-.96,1.27-1.64.28-.68.43-1.41.43-2.2s-.14-1.52-.43-2.2c-.29-.68-.71-1.23-1.27-1.64-.56-.42-1.23-.62-2.01-.62s-1.45.21-2.01.62c-.56.42-.99.96-1.28,1.64-.29.68-.44,1.41-.44,2.2s.15,1.52.44,2.2.72,1.23,1.28,1.64c.56.42,1.23.62,2.01.62s1.44-.21,2.01-.62Z"/><path class="b" d="M783.92,428.06h1.97v16.99h-1.97v-16.99Z"/><path class="b" d="M800.36,436.41c.67-.85,1.11-1.52,1.34-2.03s.34-1.08.34-1.72c0-.86-.24-1.55-.71-2.05s-1.12-.76-1.95-.76c-.78,0-1.42.28-1.92.83-.51.55-.82,1.28-.95,2.2l-1.83-.36c.06-.86.3-1.63.72-2.3.42-.67.98-1.2,1.67-1.58.7-.38,1.47-.58,2.33-.58,1.39,0,2.51.41,3.36,1.24s1.27,1.95,1.27,3.37c0,.74-.15,1.45-.46,2.15-.31.7-.76,1.43-1.37,2.2l-4.75,6.22h6.96v1.82h-10.07v-.77l6.01-7.87Z"/><path class="b" d="M641.35,640.7c-1.14-.65-2.06-1.62-2.75-2.92-.7-1.3-1.04-2.86-1.04-4.7s.35-3.41,1.04-4.7c.7-1.3,1.61-2.27,2.75-2.92,1.14-.65,2.37-.97,3.7-.97,1.65,0,3.03.43,4.16,1.3,1.12.86,1.9,2.06,2.33,3.6l-1.95.53c-.33-1.1-.88-1.96-1.63-2.57-.75-.61-1.72-.91-2.91-.91-1.03,0-1.95.26-2.77.77-.82.51-1.45,1.26-1.91,2.26-.46.99-.69,2.2-.69,3.62s.23,2.63.69,3.62c.46.99,1.1,1.74,1.91,2.26s1.74.77,2.77.77c1.19,0,2.16-.3,2.91-.91.75-.61,1.29-1.46,1.63-2.57l1.95.53c-.43,1.54-1.2,2.74-2.33,3.6-1.12.86-2.51,1.3-4.16,1.3-1.33,0-2.56-.32-3.7-.97Z"/><path class="b" d="M656.46,640.82c-.88-.57-1.55-1.33-2.02-2.29s-.7-1.99-.7-3.1.23-2.14.7-3.1,1.14-1.72,2.02-2.29,1.9-.85,3.05-.85,2.17.28,3.04.85c.87.57,1.54,1.33,2.01,2.29s.7,1.99.7,3.1-.23,2.14-.7,3.1-1.14,1.72-2.01,2.29c-.87.57-1.88.85-3.04.85s-2.17-.28-3.05-.85ZM661.52,639.27c.56-.42.99-.96,1.27-1.64.28-.68.43-1.41.43-2.2s-.14-1.52-.43-2.2c-.29-.68-.71-1.23-1.27-1.64-.56-.42-1.23-.62-2.01-.62s-1.45.21-2.01.62c-.56.42-.99.96-1.28,1.64-.29.68-.44,1.41-.44,2.2s.15,1.52.44,2.2.72,1.23,1.28,1.64c.56.42,1.23.62,2.01.62s1.44-.21,2.01-.62Z"/><path class="b" d="M668.13,624.49h1.97v16.99h-1.97v-16.99Z"/><path class="b" d="M680.61,640.38c-.96-.86-1.52-2.04-1.67-3.53l1.92-.26c.14,1.01.5,1.8,1.07,2.39.57.58,1.32.88,2.26.88,1.08,0,1.91-.32,2.49-.96.59-.64.88-1.52.88-2.64s-.3-2.07-.89-2.7-1.41-.95-2.46-.95c-.54,0-1.03.14-1.47.41l-.88-1.18,3.92-5.35h-6.03v-1.8h8.98v.62l-4.3,5.81c.16-.05.36-.07.62-.07.82,0,1.58.21,2.27.62.69.42,1.23,1.02,1.64,1.81.4.79.61,1.72.61,2.77s-.22,2.02-.67,2.83c-.44.82-1.07,1.45-1.88,1.91-.81.46-1.75.68-2.83.68-1.42,0-2.62-.43-3.57-1.3Z"/><path class="b" d="M698.22,631.02h9.59v1.75h-9.59v-1.75ZM698.22,635.12h9.59v1.75h-9.59v-1.75Z"/><path class="b" d="M722.11,632.84c.67-.85,1.11-1.52,1.34-2.03s.34-1.08.34-1.72c0-.86-.24-1.55-.71-2.05s-1.12-.76-1.95-.76c-.78,0-1.42.28-1.92.83-.51.55-.82,1.28-.95,2.2l-1.83-.36c.06-.86.3-1.63.72-2.3.42-.67.98-1.2,1.67-1.58.7-.38,1.47-.58,2.33-.58,1.39,0,2.51.41,3.36,1.24s1.27,1.95,1.27,3.37c0,.74-.15,1.45-.46,2.15-.31.7-.76,1.43-1.37,2.2l-4.75,6.22h6.96v1.82h-10.07v-.77l6.01-7.87Z"/><path class="b" d="M737.43,634.93l-3.4-5.54h2.11l2.33,3.84,2.35-3.84h2.11l-3.4,5.54,4.01,6.55h-2.04l-3.04-4.85-3.02,4.85h-2.04l4.01-6.55Z"/><path class="b" d="M754.71,640.7c-1.14-.65-2.06-1.62-2.75-2.92-.7-1.3-1.04-2.86-1.04-4.7s.35-3.41,1.04-4.7c.7-1.3,1.61-2.27,2.75-2.92,1.14-.65,2.37-.97,3.7-.97,1.65,0,3.03.43,4.16,1.3,1.12.86,1.9,2.06,2.33,3.6l-1.95.53c-.33-1.1-.88-1.96-1.63-2.57-.75-.61-1.72-.91-2.91-.91-1.03,0-1.95.26-2.77.77-.82.51-1.45,1.26-1.91,2.26-.46.99-.69,2.2-.69,3.62s.23,2.63.69,3.62c.46.99,1.1,1.74,1.91,2.26s1.74.77,2.77.77c1.19,0,2.16-.3,2.91-.91.75-.61,1.29-1.46,1.63-2.57l1.95.53c-.43,1.54-1.2,2.74-2.33,3.6-1.12.86-2.51,1.3-4.16,1.3-1.33,0-2.56-.32-3.7-.97Z"/><path class="b" d="M769.83,640.82c-.88-.57-1.55-1.33-2.02-2.29s-.7-1.99-.7-3.1.23-2.14.7-3.1,1.14-1.72,2.02-2.29,1.9-.85,3.05-.85,2.17.28,3.04.85c.87.57,1.54,1.33,2.01,2.29s.7,1.99.7,3.1-.23,2.14-.7,3.1-1.14,1.72-2.01,2.29c-.87.57-1.88.85-3.04.85s-2.17-.28-3.05-.85ZM774.89,639.27c.56-.42.99-.96,1.27-1.64.28-.68.43-1.41.43-2.2s-.14-1.52-.43-2.2c-.29-.68-.71-1.23-1.27-1.64-.56-.42-1.23-.62-2.01-.62s-1.45.21-2.01.62c-.56.42-.99.96-1.28,1.64-.29.68-.44,1.41-.44,2.2s.15,1.52.44,2.2.72,1.23,1.28,1.64c.56.42,1.23.62,2.01.62s1.44-.21,2.01-.62Z"/><path class="b" d="M781.5,624.49h1.97v16.99h-1.97v-16.99Z"/><path class="b" d="M797.93,632.84c.67-.85,1.11-1.52,1.34-2.03s.34-1.08.34-1.72c0-.86-.24-1.55-.71-2.05s-1.12-.76-1.95-.76c-.78,0-1.42.28-1.92.83-.51.55-.82,1.28-.95,2.2l-1.83-.36c.06-.86.3-1.63.72-2.3.42-.67.98-1.2,1.67-1.58.7-.38,1.47-.58,2.33-.58,1.39,0,2.51.41,3.36,1.24s1.27,1.95,1.27,3.37c0,.74-.15,1.45-.46,2.15-.31.7-.76,1.43-1.37,2.2l-4.75,6.22h6.96v1.82h-10.07v-.77l6.01-7.87Z"/><path class="b" d="M810.64,633.01h8.17v1.73h-8.17v-1.73Z"/><path class="b" d="M831.37,640.7c-1.14-.65-2.06-1.62-2.75-2.92-.7-1.3-1.04-2.86-1.04-4.7s.35-3.41,1.04-4.7c.7-1.3,1.61-2.27,2.75-2.92,1.14-.65,2.37-.97,3.7-.97,1.65,0,3.03.43,4.16,1.3,1.12.86,1.9,2.06,2.33,3.6l-1.95.53c-.33-1.1-.88-1.96-1.63-2.57-.75-.61-1.72-.91-2.91-.91-1.03,0-1.95.26-2.77.77-.82.51-1.45,1.26-1.91,2.26-.46.99-.69,2.2-.69,3.62s.23,2.63.69,3.62c.46.99,1.1,1.74,1.91,2.26s1.74.77,2.77.77c1.19,0,2.16-.3,2.91-.91.75-.61,1.29-1.46,1.63-2.57l1.95.53c-.43,1.54-1.2,2.74-2.33,3.6-1.12.86-2.51,1.3-4.16,1.3-1.33,0-2.56-.32-3.7-.97Z"/><path class="b" d="M846.48,640.82c-.88-.57-1.55-1.33-2.02-2.29s-.7-1.99-.7-3.1.23-2.14.7-3.1,1.14-1.72,2.02-2.29,1.9-.85,3.05-.85,2.17.28,3.04.85c.87.57,1.54,1.33,2.01,2.29s.7,1.99.7,3.1-.23,2.14-.7,3.1-1.14,1.72-2.01,2.29c-.87.57-1.88.85-3.04.85s-2.17-.28-3.05-.85ZM851.54,639.27c.56-.42.99-.96,1.27-1.64.28-.68.43-1.41.43-2.2s-.14-1.52-.43-2.2c-.29-.68-.71-1.23-1.27-1.64-.56-.42-1.23-.62-2.01-.62s-1.45.21-2.01.62c-.56.42-.99.96-1.28,1.64-.29.68-.44,1.41-.44,2.2s.15,1.52.44,2.2.72,1.23,1.28,1.64c.56.42,1.23.62,2.01.62s1.44-.21,2.01-.62Z"/><path class="b" d="M858.16,624.49h1.97v16.99h-1.97v-16.99Z"/><path class="b" d="M871.95,627.66l-2.9,1.8v-2.16l4.18-2.62h.69v16.8h-1.97v-13.82Z"/><path class="b" d="M238.44,806.66c1.92,0,3.41.48,4.47,1.44,1.06.96,1.59,2.32,1.59,4.08,0,1.48-.38,2.68-1.13,3.59-.75.91-1.82,1.5-3.21,1.79l6.23,10.11h-2.88l-6.2-9.96h-3.27v9.96h-2.58v-21h6.98ZM241,814.52c.59-.5.89-1.28.89-2.34,0-2.06-1.18-3.09-3.53-3.09h-4.3v6.18h4.3c1.17,0,2.05-.25,2.64-.75Z"/><path class="b" d="M249.37,826.75c-.87-.77-1.31-1.92-1.31-3.43,0-1.6.59-2.83,1.77-3.68,1.18-.85,2.79-1.27,4.85-1.27h2.61v-.66c0-1.1-.29-1.91-.88-2.42-.58-.51-1.35-.77-2.3-.77-1.64,0-2.73.82-3.27,2.46l-2.2-.51c.2-1.26.81-2.27,1.83-3.03,1.02-.76,2.23-1.14,3.64-1.14,1.68,0,3.04.49,4.07,1.48s1.54,2.38,1.54,4.19v9.69h-1.93l-.45-2.19c-1.03,1.62-2.58,2.43-4.66,2.43-1.35,0-2.45-.38-3.32-1.16ZM255.1,825.19c.63-.33,1.16-.85,1.57-1.56.42-.71.62-1.59.62-2.65v-.48h-2.52c-1.39,0-2.42.24-3.12.72-.69.48-1.04,1.17-1.04,2.07,0,.76.22,1.35.67,1.77s1.06.63,1.86.63c.67,0,1.33-.16,1.96-.49Z"/><path class="b" d="M266.29,812.54v2.91c.53-.96,1.24-1.73,2.12-2.29.88-.57,1.83-.85,2.83-.85,1.41,0,2.52.42,3.35,1.26s1.25,2.03,1.25,3.57v10.53h-2.43v-9.99c0-1.04-.23-1.82-.7-2.36-.47-.53-1.15-.79-2.06-.79-.81,0-1.55.27-2.21.81s-1.19,1.32-1.57,2.33c-.39,1.01-.58,2.19-.58,3.55v6.45h-2.46v-15.12h2.46Z"/><path class="b" d="M280.3,806.42h2.46v12.57l5.79-6.45h3.06l-6.32,6.93,6.8,8.19h-3.06l-6.26-7.68v7.68h-2.46v-21.24Z"/><path class="b" d="M304.59,826.83c-1.1-.71-1.94-1.67-2.52-2.86-.58-1.2-.88-2.49-.88-3.87s.29-2.67.88-3.87c.58-1.2,1.42-2.16,2.52-2.87,1.1-.71,2.37-1.06,3.81-1.06s2.71.35,3.8,1.06c1.09.71,1.92,1.67,2.51,2.87.58,1.2.88,2.49.88,3.87s-.29,2.67-.88,3.87c-.58,1.2-1.42,2.15-2.51,2.86-1.09.71-2.35,1.07-3.8,1.07s-2.72-.36-3.81-1.07ZM310.92,824.9c.7-.52,1.23-1.21,1.59-2.05.36-.85.54-1.77.54-2.75s-.18-1.89-.54-2.74c-.36-.85-.89-1.54-1.59-2.05-.7-.52-1.54-.78-2.51-.78s-1.81.26-2.51.78c-.7.52-1.24,1.21-1.6,2.05-.37.85-.55,1.77-.55,2.74s.18,1.9.55,2.75c.37.85.9,1.54,1.6,2.05s1.54.78,2.51.78,1.81-.26,2.51-.78Z"/><path class="b" d="M317.28,814.76v-2.22h2.23v-.9c0-1.76.42-3.07,1.26-3.93.84-.86,2.02-1.29,3.55-1.29.81,0,1.51.15,2.11.45l-.54,2.13c-.51-.24-1.05-.36-1.6-.36-.75,0-1.33.22-1.74.67-.41.45-.61,1.12-.61,2.03v1.2h3.47v2.22h-3.47v12.9h-2.43v-12.9h-2.23Z"/><path class="b" d="M336.58,806.66h3.06l5.76,14.94,5.76-14.94h3.03v21h-2.55v-15.81l-5.37,13.89h-1.75l-5.34-13.89v15.81h-2.58v-21Z"/><path class="b" d="M359.17,826.75c-.87-.77-1.31-1.92-1.31-3.43,0-1.6.59-2.83,1.77-3.68,1.18-.85,2.79-1.27,4.85-1.27h2.61v-.66c0-1.1-.29-1.91-.88-2.42-.58-.51-1.35-.77-2.3-.77-1.64,0-2.73.82-3.27,2.46l-2.2-.51c.2-1.26.81-2.27,1.83-3.03,1.02-.76,2.23-1.14,3.64-1.14,1.68,0,3.04.49,4.07,1.48s1.54,2.38,1.54,4.19v9.69h-1.93l-.45-2.19c-1.03,1.62-2.58,2.43-4.66,2.43-1.35,0-2.45-.38-3.32-1.16ZM364.9,825.19c.63-.33,1.16-.85,1.57-1.56.42-.71.62-1.59.62-2.65v-.48h-2.52c-1.39,0-2.42.24-3.12.72-.69.48-1.04,1.17-1.04,2.07,0,.76.22,1.35.67,1.77s1.06.63,1.86.63c.67,0,1.33-.16,1.96-.49Z"/><path class="b" d="M375.44,826.69c-.77-.81-1.16-2.03-1.16-3.65v-8.28h-2.52v-2.22h2.52v-4.53l2.46-1.59v6.12h4.01v2.22h-4.01v8.46c0,1.64.69,2.46,2.08,2.46.67,0,1.25-.14,1.72-.42l.62,2.1c-.71.36-1.56.54-2.55.54-1.35,0-2.4-.41-3.18-1.21Z"/><path class="b" d="M386.33,812.54v2.61c.47-.92,1.09-1.62,1.84-2.12s1.6-.73,2.55-.73c.65,0,1.36.15,2.11.45l-.5,2.31c-.61-.34-1.26-.51-1.93-.51-1.19,0-2.16.63-2.92,1.89-.76,1.26-1.14,3.1-1.14,5.52v5.7h-2.46v-15.12h2.46Z"/><path class="b" d="M395.46,809.46c-.35-.35-.52-.77-.52-1.28s.17-.95.52-1.29c.35-.34.77-.51,1.26-.51s.95.17,1.29.51c.35.34.52.77.52,1.29s-.17.95-.52,1.29c-.35.34-.78.51-1.29.51s-.92-.17-1.26-.53ZM395.5,812.54h2.46v15.12h-2.46v-15.12Z"/><path class="b" d="M405.48,819.47l-4.25-6.93h2.64l2.91,4.8,2.94-4.8h2.64l-4.25,6.93,5.02,8.19h-2.55l-3.8-6.06-3.77,6.06h-2.55l5.02-8.19Z"/><path class="b" d="M428.54,806.66h2.43l7.33,21h-2.7l-1.9-5.64h-7.9l-1.9,5.64h-2.73l7.36-21ZM432.93,819.59l-3.18-9.42-3.18,9.42h6.35Z"/><path class="b" d="M448.13,814.58h11.99v2.19h-11.99v-2.19ZM448.13,819.71h11.99v2.19h-11.99v-2.19Z"/><path class="b" d="M477.99,816.86c.83-1.06,1.39-1.91,1.68-2.54.29-.63.43-1.34.43-2.15,0-1.08-.3-1.93-.89-2.56s-1.41-.95-2.43-.95c-.97,0-1.77.35-2.4,1.04-.63.69-1.03,1.61-1.19,2.75l-2.29-.45c.08-1.08.38-2.04.91-2.88.52-.84,1.22-1.5,2.09-1.98.87-.48,1.84-.72,2.91-.72,1.74,0,3.14.52,4.2,1.54,1.06,1.03,1.59,2.44,1.59,4.21,0,.92-.19,1.82-.58,2.69s-.96,1.79-1.71,2.75l-5.94,7.77h8.7v2.28h-12.59v-.96l7.51-9.84Z"/><path class="b" d="M238.44,854.66c1.92,0,3.41.48,4.47,1.44,1.06.96,1.59,2.32,1.59,4.08,0,1.48-.38,2.68-1.13,3.59-.75.91-1.82,1.5-3.21,1.79l6.23,10.11h-2.88l-6.2-9.96h-3.27v9.96h-2.58v-21h6.98ZM241,862.52c.59-.5.89-1.28.89-2.34,0-2.06-1.18-3.09-3.53-3.09h-4.3v6.18h4.3c1.17,0,2.05-.25,2.64-.75Z"/><path class="b" d="M249.37,874.75c-.87-.77-1.31-1.92-1.31-3.43,0-1.6.59-2.83,1.77-3.68,1.18-.85,2.79-1.27,4.85-1.27h2.61v-.66c0-1.1-.29-1.91-.88-2.42-.58-.51-1.35-.77-2.3-.77-1.64,0-2.73.82-3.27,2.46l-2.2-.51c.2-1.26.81-2.27,1.83-3.03,1.02-.76,2.23-1.14,3.64-1.14,1.68,0,3.04.49,4.07,1.48s1.54,2.38,1.54,4.19v9.69h-1.93l-.45-2.19c-1.03,1.62-2.58,2.43-4.66,2.43-1.35,0-2.45-.38-3.32-1.16ZM255.1,873.19c.63-.33,1.16-.85,1.57-1.56.42-.71.62-1.59.62-2.65v-.48h-2.52c-1.39,0-2.42.24-3.12.72-.69.48-1.04,1.17-1.04,2.07,0,.76.22,1.35.67,1.77s1.06.63,1.86.63c.67,0,1.33-.16,1.96-.49Z"/><path class="b" d="M266.29,860.54v2.91c.53-.96,1.24-1.73,2.12-2.29.88-.57,1.83-.85,2.83-.85,1.41,0,2.52.42,3.35,1.26s1.25,2.03,1.25,3.57v10.53h-2.43v-9.99c0-1.04-.23-1.82-.7-2.36-.47-.53-1.15-.79-2.06-.79-.81,0-1.55.27-2.21.81s-1.19,1.32-1.57,2.33c-.39,1.01-.58,2.19-.58,3.55v6.45h-2.46v-15.12h2.46Z"/><path class="b" d="M280.3,854.42h2.46v12.57l5.79-6.45h3.06l-6.32,6.93,6.8,8.19h-3.06l-6.26-7.68v7.68h-2.46v-21.24Z"/><path class="b" d="M304.59,874.83c-1.1-.71-1.94-1.67-2.52-2.86-.58-1.2-.88-2.49-.88-3.87s.29-2.67.88-3.87c.58-1.2,1.42-2.16,2.52-2.87,1.1-.71,2.37-1.06,3.81-1.06s2.71.35,3.8,1.06c1.09.71,1.92,1.67,2.51,2.87.58,1.2.88,2.49.88,3.87s-.29,2.67-.88,3.87c-.58,1.2-1.42,2.15-2.51,2.86-1.09.71-2.35,1.07-3.8,1.07s-2.72-.36-3.81-1.07ZM310.92,872.9c.7-.52,1.23-1.21,1.59-2.05.36-.85.54-1.77.54-2.75s-.18-1.89-.54-2.74c-.36-.85-.89-1.54-1.59-2.05-.7-.52-1.54-.78-2.51-.78s-1.81.26-2.51.78c-.7.52-1.24,1.21-1.6,2.05-.37.85-.55,1.77-.55,2.74s.18,1.9.55,2.75c.37.85.9,1.54,1.6,2.05s1.54.78,2.51.78,1.81-.26,2.51-.78Z"/><path class="b" d="M317.28,862.76v-2.22h2.23v-.9c0-1.76.42-3.07,1.26-3.93.84-.86,2.02-1.29,3.55-1.29.81,0,1.51.15,2.11.45l-.54,2.13c-.51-.24-1.05-.36-1.6-.36-.75,0-1.33.22-1.74.67-.41.45-.61,1.12-.61,2.03v1.2h3.47v2.22h-3.47v12.9h-2.43v-12.9h-2.23Z"/><path class="b" d="M336.58,854.66h3.06l5.76,14.94,5.76-14.94h3.03v21h-2.55v-15.81l-5.37,13.89h-1.75l-5.34-13.89v15.81h-2.58v-21Z"/><path class="b" d="M359.17,874.75c-.87-.77-1.31-1.92-1.31-3.43,0-1.6.59-2.83,1.77-3.68,1.18-.85,2.79-1.27,4.85-1.27h2.61v-.66c0-1.1-.29-1.91-.88-2.42-.58-.51-1.35-.77-2.3-.77-1.64,0-2.73.82-3.27,2.46l-2.2-.51c.2-1.26.81-2.27,1.83-3.03,1.02-.76,2.23-1.14,3.64-1.14,1.68,0,3.04.49,4.07,1.48s1.54,2.38,1.54,4.19v9.69h-1.93l-.45-2.19c-1.03,1.62-2.58,2.43-4.66,2.43-1.35,0-2.45-.38-3.32-1.16ZM364.9,873.19c.63-.33,1.16-.85,1.57-1.56.42-.71.62-1.59.62-2.65v-.48h-2.52c-1.39,0-2.42.24-3.12.72-.69.48-1.04,1.17-1.04,2.07,0,.76.22,1.35.67,1.77s1.06.63,1.86.63c.67,0,1.33-.16,1.96-.49Z"/><path class="b" d="M375.44,874.69c-.77-.81-1.16-2.03-1.16-3.65v-8.28h-2.52v-2.22h2.52v-4.53l2.46-1.59v6.12h4.01v2.22h-4.01v8.46c0,1.64.69,2.46,2.08,2.46.67,0,1.25-.14,1.72-.42l.62,2.1c-.71.36-1.56.54-2.55.54-1.35,0-2.4-.41-3.18-1.21Z"/><path class="b" d="M386.33,860.54v2.61c.47-.92,1.09-1.62,1.84-2.12s1.6-.73,2.55-.73c.65,0,1.36.15,2.11.45l-.5,2.31c-.61-.34-1.26-.51-1.93-.51-1.19,0-2.16.63-2.92,1.89-.76,1.26-1.14,3.1-1.14,5.52v5.7h-2.46v-15.12h2.46Z"/><path class="b" d="M395.46,857.46c-.35-.35-.52-.77-.52-1.28s.17-.95.52-1.29c.35-.34.77-.51,1.26-.51s.95.17,1.29.51c.35.34.52.77.52,1.29s-.17.95-.52,1.29c-.35.34-.78.51-1.29.51s-.92-.17-1.26-.53ZM395.5,860.54h2.46v15.12h-2.46v-15.12Z"/><path class="b" d="M405.48,867.47l-4.25-6.93h2.64l2.91,4.8,2.94-4.8h2.64l-4.25,6.93,5.02,8.19h-2.55l-3.8-6.06-3.77,6.06h-2.55l5.02-8.19Z"/><path class="b" d="M430.41,854.66c1.82,0,3.25.47,4.27,1.42,1.03.95,1.54,2.3,1.54,4.04,0,1-.22,1.84-.67,2.52s-1.02,1.19-1.74,1.53c1.07.42,1.92,1.07,2.54,1.95.62.88.94,2.01.94,3.39,0,1.9-.58,3.4-1.75,4.5-1.17,1.1-2.76,1.65-4.78,1.65h-7.33v-21h6.98ZM433.67,860.21c0-2.08-1.12-3.12-3.35-3.12h-4.3v6.21h4.33c2.22,0,3.32-1.03,3.32-3.09ZM433.62,872.33c.71-.6,1.07-1.55,1.07-2.85s-.36-2.25-1.07-2.85c-.71-.6-1.78-.9-3.21-.9h-4.39v7.5h4.39c1.42,0,2.49-.3,3.21-.9Z"/><path class="b" d="M448.4,862.58h11.99v2.19h-11.99v-2.19ZM448.4,867.71h11.99v2.19h-11.99v-2.19Z"/><path class="b" d="M474.96,858.38l-3.62,2.25v-2.7l5.22-3.27h.86v21h-2.46v-17.28Z"/><path class="b" d="M238.44,902.66c1.92,0,3.41.48,4.47,1.44,1.06.96,1.59,2.32,1.59,4.08,0,1.48-.38,2.68-1.13,3.59-.75.91-1.82,1.5-3.21,1.79l6.23,10.11h-2.88l-6.2-9.96h-3.27v9.96h-2.58v-21h6.98ZM241,910.52c.59-.5.89-1.28.89-2.34,0-2.06-1.18-3.09-3.53-3.09h-4.3v6.18h4.3c1.17,0,2.05-.25,2.64-.75Z"/><path class="b" d="M249.37,922.75c-.87-.77-1.31-1.92-1.31-3.43,0-1.6.59-2.83,1.77-3.68,1.18-.85,2.79-1.27,4.85-1.27h2.61v-.66c0-1.1-.29-1.91-.88-2.42-.58-.51-1.35-.77-2.3-.77-1.64,0-2.73.82-3.27,2.46l-2.2-.51c.2-1.26.81-2.27,1.83-3.03,1.02-.76,2.23-1.14,3.64-1.14,1.68,0,3.04.49,4.07,1.48s1.54,2.38,1.54,4.19v9.69h-1.93l-.45-2.19c-1.03,1.62-2.58,2.43-4.66,2.43-1.35,0-2.45-.38-3.32-1.16ZM255.1,921.19c.63-.33,1.16-.85,1.57-1.56.42-.71.62-1.59.62-2.65v-.48h-2.52c-1.39,0-2.42.24-3.12.72-.69.48-1.04,1.17-1.04,2.07,0,.76.22,1.35.67,1.77s1.06.63,1.86.63c.67,0,1.33-.16,1.96-.49Z"/><path class="b" d="M266.29,908.54v2.91c.53-.96,1.24-1.73,2.12-2.29.88-.57,1.83-.85,2.83-.85,1.41,0,2.52.42,3.35,1.26s1.25,2.03,1.25,3.57v10.53h-2.43v-9.99c0-1.04-.23-1.82-.7-2.36-.47-.53-1.15-.79-2.06-.79-.81,0-1.55.27-2.21.81s-1.19,1.32-1.57,2.33c-.39,1.01-.58,2.19-.58,3.55v6.45h-2.46v-15.12h2.46Z"/><path class="b" d="M280.3,902.42h2.46v12.57l5.79-6.45h3.06l-6.32,6.93,6.8,8.19h-3.06l-6.26-7.68v7.68h-2.46v-21.24Z"/><path class="b" d="M304.59,922.83c-1.1-.71-1.94-1.67-2.52-2.86-.58-1.2-.88-2.49-.88-3.87s.29-2.67.88-3.87c.58-1.2,1.42-2.16,2.52-2.87,1.1-.71,2.37-1.06,3.81-1.06s2.71.35,3.8,1.06c1.09.71,1.92,1.67,2.51,2.87.58,1.2.88,2.49.88,3.87s-.29,2.67-.88,3.87c-.58,1.2-1.42,2.15-2.51,2.86-1.09.71-2.35,1.07-3.8,1.07s-2.72-.36-3.81-1.07ZM310.92,920.9c.7-.52,1.23-1.21,1.59-2.05.36-.85.54-1.77.54-2.75s-.18-1.89-.54-2.74c-.36-.85-.89-1.54-1.59-2.05-.7-.52-1.54-.78-2.51-.78s-1.81.26-2.51.78c-.7.52-1.24,1.21-1.6,2.05-.37.85-.55,1.77-.55,2.74s.18,1.9.55,2.75c.37.85.9,1.54,1.6,2.05s1.54.78,2.51.78,1.81-.26,2.51-.78Z"/><path class="b" d="M317.28,910.76v-2.22h2.23v-.9c0-1.76.42-3.07,1.26-3.93.84-.86,2.02-1.29,3.55-1.29.81,0,1.51.15,2.11.45l-.54,2.13c-.51-.24-1.05-.36-1.6-.36-.75,0-1.33.22-1.74.67-.41.45-.61,1.12-.61,2.03v1.2h3.47v2.22h-3.47v12.9h-2.43v-12.9h-2.23Z"/><path class="b" d="M336.58,902.66h3.06l5.76,14.94,5.76-14.94h3.03v21h-2.55v-15.81l-5.37,13.89h-1.75l-5.34-13.89v15.81h-2.58v-21Z"/><path class="b" d="M359.17,922.75c-.87-.77-1.31-1.92-1.31-3.43,0-1.6.59-2.83,1.77-3.68,1.18-.85,2.79-1.27,4.85-1.27h2.61v-.66c0-1.1-.29-1.91-.88-2.42-.58-.51-1.35-.77-2.3-.77-1.64,0-2.73.82-3.27,2.46l-2.2-.51c.2-1.26.81-2.27,1.83-3.03,1.02-.76,2.23-1.14,3.64-1.14,1.68,0,3.04.49,4.07,1.48s1.54,2.38,1.54,4.19v9.69h-1.93l-.45-2.19c-1.03,1.62-2.58,2.43-4.66,2.43-1.35,0-2.45-.38-3.32-1.16ZM364.9,921.19c.63-.33,1.16-.85,1.57-1.56.42-.71.62-1.59.62-2.65v-.48h-2.52c-1.39,0-2.42.24-3.12.72-.69.48-1.04,1.17-1.04,2.07,0,.76.22,1.35.67,1.77s1.06.63,1.86.63c.67,0,1.33-.16,1.96-.49Z"/><path class="b" d="M375.44,922.69c-.77-.81-1.16-2.03-1.16-3.65v-8.28h-2.52v-2.22h2.52v-4.53l2.46-1.59v6.12h4.01v2.22h-4.01v8.46c0,1.64.69,2.46,2.08,2.46.67,0,1.25-.14,1.72-.42l.62,2.1c-.71.36-1.56.54-2.55.54-1.35,0-2.4-.41-3.18-1.21Z"/><path class="b" d="M386.33,908.54v2.61c.47-.92,1.09-1.62,1.84-2.12s1.6-.73,2.55-.73c.65,0,1.36.15,2.11.45l-.5,2.31c-.61-.34-1.26-.51-1.93-.51-1.19,0-2.16.63-2.92,1.89-.76,1.26-1.14,3.1-1.14,5.52v5.7h-2.46v-15.12h2.46Z"/><path class="b" d="M395.46,905.46c-.35-.35-.52-.77-.52-1.28s.17-.95.52-1.29c.35-.34.77-.51,1.26-.51s.95.17,1.29.51c.35.34.52.77.52,1.29s-.17.95-.52,1.29c-.35.34-.78.51-1.29.51s-.92-.17-1.26-.53ZM395.5,908.54h2.46v15.12h-2.46v-15.12Z"/><path class="b" d="M405.48,915.47l-4.25-6.93h2.64l2.91,4.8,2.94-4.8h2.64l-4.25,6.93,5.02,8.19h-2.55l-3.8-6.06-3.77,6.06h-2.55l5.02-8.19Z"/><path class="b" d="M427.08,922.69c-1.42-.81-2.57-2.03-3.44-3.65s-1.31-3.58-1.31-5.88.43-4.26,1.31-5.88,2.02-2.83,3.44-3.65c1.42-.81,2.97-1.21,4.63-1.21,2.06,0,3.79.54,5.2,1.62,1.4,1.08,2.37,2.58,2.91,4.5l-2.43.66c-.42-1.38-1.09-2.45-2.03-3.21-.94-.76-2.15-1.14-3.64-1.14-1.29,0-2.44.32-3.46.96-1.02.64-1.82,1.58-2.39,2.82s-.86,2.75-.86,4.53.29,3.29.86,4.53c.57,1.24,1.37,2.18,2.39,2.82,1.02.64,2.17.96,3.46.96,1.48,0,2.7-.38,3.64-1.14.94-.76,1.62-1.83,2.03-3.21l2.43.66c-.54,1.92-1.5,3.42-2.91,4.5-1.41,1.08-3.14,1.62-5.2,1.62-1.66,0-3.21-.41-4.63-1.21Z"/><path class="b" d="M450.68,910.58h11.99v2.19h-11.99v-2.19ZM450.68,915.71h11.99v2.19h-11.99v-2.19Z"/><path class="b" d="M480.54,912.86c.83-1.06,1.39-1.91,1.68-2.54.29-.63.43-1.34.43-2.15,0-1.08-.3-1.93-.89-2.56s-1.41-.95-2.43-.95c-.97,0-1.77.35-2.4,1.04-.63.69-1.03,1.61-1.19,2.75l-2.29-.45c.08-1.08.38-2.04.91-2.88.52-.84,1.22-1.5,2.09-1.98.87-.48,1.84-.72,2.91-.72,1.74,0,3.14.52,4.2,1.54,1.06,1.03,1.59,2.44,1.59,4.21,0,.92-.19,1.82-.58,2.69s-.96,1.79-1.71,2.75l-5.94,7.77h8.7v2.28h-12.59v-.96l7.51-9.84Z"/></svg>