<?xml version="1.0" encoding="UTF-8"?><svg id="a" xmlns="http://www.w3.org/2000/svg" viewBox="0 0 1000 500"><defs><style>.b{stroke-width:0px;}.c{fill:none;stroke:#000;stroke-miterlimit:10;stroke-width:2px;}</style></defs><path class="b" d="M190.63,163.66c0-3.67-3.1-5-7.05-5h-.5v-2.92h.39c4.24,0,6.52-1.4,6.52-4.43,0-2.63-2.14-4.1-4.77-4.1-3.28,0-5.06,2.12-5.31,5.04h-3.35c.36-4.61,3.7-7.85,8.76-7.85,4.17,0,8.16,1.84,8.16,6.59,0,2.66-1.42,4.97-4.02,6.05,3.63,1.26,4.67,3.92,4.67,6.59,0,5.18-4.49,7.81-9.05,7.81-5.73,0-8.55-4-8.87-8.24h3.31c.36,3.17,2.14,5.4,5.59,5.4,3.28,0,5.52-1.84,5.52-4.93Z"/><path class="b" d="M175.99,192.87v23.25h5.41v2.84h-15.28v-2.84h6.59v-17.57h-6.59v-2.27c4.31-.11,6.41-.58,7.73-3.42h2.14Z"/><path class="b" d="M202.13,210.4c0-4.25-2.85-5.97-5.52-5.97-2.46,0-4.17,1.48-4.7,2.74l-3.42-.14,1.67-14.15h14.32v2.81h-11.54l-.93,7.81c1.35-1.33,3.28-1.94,5.34-1.94,4.27,0,8.26,3.17,8.26,8.82s-4.38,9.07-8.98,9.07c-5.73,0-8.55-4-8.87-8.24h3.31c.36,3.17,2.14,5.4,5.59,5.4,2.96,0,5.45-2.23,5.45-6.19Z"/><path class="b" d="M175.99,240.87v23.25h5.41v2.84h-15.28v-2.84h6.59v-17.57h-6.59v-2.27c4.31-.11,6.41-.58,7.73-3.42h2.14Z"/><path class="b" d="M205.02,247.42c0,6.05-5.77,11.38-12.36,16.7h12.82v2.84h-17.42v-2.84c8.65-6.8,13.46-11.7,13.46-16.27,0-2.7-1.53-4.64-4.45-4.64-2.67,0-5.13,1.66-5.2,5.94h-3.35c-.07-4.97,3.35-8.75,8.58-8.75,4.52,0,7.91,2.59,7.91,7.02Z"/><path class="b" d="M287.5,144.87v23.25h5.41v2.84h-15.28v-2.84h6.59v-17.57h-6.59v-2.27c4.31-.11,6.41-.58,7.73-3.42h2.14Z"/><path class="b" d="M290.63,210.4c0-4.25-2.85-5.97-5.52-5.97-2.46,0-4.17,1.48-4.7,2.74l-3.42-.14,1.67-14.15h14.32v2.81h-11.54l-.93,7.81c1.35-1.33,3.28-1.94,5.34-1.94,4.27,0,8.26,3.17,8.26,8.82s-4.38,9.07-8.98,9.07c-5.73,0-8.55-4-8.87-8.24h3.31c.36,3.17,2.14,5.4,5.59,5.4,2.96,0,5.45-2.23,5.45-6.19Z"/><path class="b" d="M295.01,260.53h-4.31v6.44h-3.28v-6.44h-12.18v-3.1l12.14-16.56h3.31v16.56h4.31v3.1ZM278.66,257.43h8.76v-12.09l-8.76,12.09Z"/><path class="b" d="M376.17,157.79c0-8.1,2.49-13.39,9.01-13.39s9.05,5.29,9.05,13.39-2.53,13.64-9.05,13.64-9.01-5.54-9.01-13.64ZM379.52,159.13l11.15-5.15c-.57-4.54-2.39-6.77-5.48-6.77-3.88,0-5.7,3.46-5.7,10.58,0,.47,0,.9.04,1.33ZM390.91,157.79c0-.4,0-.76-.04-1.15l-11.15,5.22c.61,4.46,2.39,6.73,5.45,6.73,3.88,0,5.73-3.67,5.73-10.8Z"/><path class="b" d="M376.17,205.79c0-8.1,2.49-13.39,9.01-13.39s9.05,5.29,9.05,13.39-2.53,13.64-9.05,13.64-9.01-5.54-9.01-13.64ZM379.52,207.13l11.15-5.15c-.57-4.54-2.39-6.77-5.48-6.77-3.88,0-5.7,3.46-5.7,10.58,0,.47,0,.9.04,1.33ZM390.91,205.79c0-.4,0-.76-.04-1.15l-11.15,5.22c.61,4.46,2.39,6.73,5.45,6.73,3.88,0,5.73-3.67,5.73-10.8Z"/><path class="b" d="M376.17,253.79c0-8.1,2.49-13.39,9.01-13.39s9.05,5.29,9.05,13.39-2.53,13.64-9.05,13.64-9.01-5.54-9.01-13.64ZM379.52,255.13l11.15-5.15c-.57-4.54-2.39-6.77-5.48-6.77-3.88,0-5.7,3.46-5.7,10.58,0,.47,0,.9.04,1.33ZM390.91,253.79c0-.4,0-.76-.04-1.15l-11.15,5.22c.61,4.46,2.39,6.73,5.45,6.73,3.88,0,5.73-3.67,5.73-10.8Z"/><polyline class="c" points="165.22 117.42 145.22 117.42 145.22 297.42 165.22 297.42"/><polyline class="c" points="405.22 297.42 425.22 297.42 425.22 117.42 405.22 117.42"/><path class="b" d="M712.68,214.09c0-3.67-3.1-5-7.05-5h-.5v-2.92h.39c4.24,0,6.52-1.4,6.52-4.43,0-2.63-2.14-4.1-4.77-4.1-3.28,0-5.06,2.12-5.31,5.04h-3.35c.36-4.61,3.7-7.85,8.76-7.85,4.17,0,8.16,1.84,8.16,6.59,0,2.66-1.42,4.97-4.02,6.05,3.63,1.26,4.67,3.92,4.67,6.59,0,5.18-4.49,7.81-9.05,7.81-5.73,0-8.55-4-8.87-8.24h3.31c.36,3.17,2.14,5.4,5.59,5.4,3.28,0,5.52-1.84,5.52-4.93Z"/><path class="b" d="M809.55,195.3v23.25h5.41v2.84h-15.28v-2.84h6.59v-17.57h-6.59v-2.27c4.31-.11,6.41-.58,7.73-3.42h2.14Z"/><path class="b" d="M898.22,208.23c0-8.1,2.49-13.39,9.01-13.39s9.05,5.29,9.05,13.39-2.53,13.64-9.05,13.64-9.01-5.54-9.01-13.64ZM901.57,209.56l11.15-5.15c-.57-4.54-2.39-6.77-5.48-6.77-3.88,0-5.7,3.46-5.7,10.58,0,.47,0,.9.04,1.33ZM912.97,208.23c0-.4,0-.76-.04-1.15l-11.15,5.22c.61,4.46,2.39,6.73,5.45,6.73,3.88,0,5.73-3.67,5.73-10.8Z"/><polyline class="c" points="688.4 177.42 668.4 177.42 668.4 237.42 688.4 237.42"/><polyline class="c" points="928.4 237.42 948.4 237.42 948.4 177.42 928.4 177.42"/><path class="b" d="M548.97,144.97v23.25h5.41v2.84h-15.28v-2.84h6.59v-17.57h-6.59v-2.27c4.31-.11,6.41-.58,7.73-3.42h2.14Z"/><path class="b" d="M552.1,210.5c0-4.25-2.85-5.97-5.52-5.97-2.46,0-4.17,1.48-4.7,2.74l-3.42-.14,1.67-14.15h14.32v2.81h-11.54l-.93,7.81c1.35-1.33,3.28-1.94,5.34-1.94,4.27,0,8.26,3.17,8.26,8.82s-4.38,9.07-8.98,9.07c-5.73,0-8.55-4-8.87-8.24h3.31c.36,3.17,2.14,5.4,5.59,5.4,2.96,0,5.45-2.23,5.45-6.19Z"/><path class="b" d="M556.48,260.62h-4.31v6.44h-3.28v-6.44h-12.18v-3.1l12.14-16.56h3.31v16.56h4.31v3.1ZM540.14,257.53h8.76v-12.09l-8.76,12.09Z"/><polyline class="c" points="522.4 117.42 502.4 117.42 502.4 297.42 522.4 297.42"/><polyline class="c" points="571.22 297.42 591.22 297.42 591.22 117.42 571.22 117.42"/><path class="b" d="M233.86,401.54c-.97-.86-1.53-2.04-1.69-3.53l1.94-.26c.14,1.01.5,1.8,1.08,2.39s1.34.88,2.28.88c1.09,0,1.93-.32,2.52-.96.59-.64.89-1.52.89-2.64s-.3-2.07-.9-2.7-1.43-.95-2.48-.95c-.54,0-1.04.14-1.49.41l-.89-1.18,3.96-5.35h-6.1v-1.8h9.07v.62l-4.34,5.81c.16-.05.37-.07.62-.07.83,0,1.6.21,2.29.62.7.42,1.25,1.02,1.66,1.81.41.79.61,1.72.61,2.77s-.22,2.02-.67,2.83c-.45.82-1.08,1.45-1.9,1.91s-1.77.68-2.86.68c-1.44,0-2.64-.43-3.61-1.3Z"/><path class="b" d="M248.27,396.09l-3.43-5.54h2.14l2.35,3.84,2.38-3.84h2.14l-3.43,5.54,4.06,6.55h-2.06l-3.07-4.85-3.05,4.85h-2.06l4.06-6.55Z"/><path class="b" d="M257.48,401.54c-.97-.86-1.53-2.04-1.69-3.53l1.94-.26c.14,1.01.5,1.8,1.08,2.39s1.34.88,2.28.88c1.09,0,1.93-.32,2.52-.96.59-.64.89-1.52.89-2.64s-.3-2.07-.9-2.7-1.43-.95-2.48-.95c-.54,0-1.04.14-1.49.41l-.89-1.18,3.96-5.35h-6.1v-1.8h9.07v.62l-4.34,5.81c.16-.05.37-.07.62-.07.83,0,1.6.21,2.29.62.7.42,1.25,1.02,1.66,1.81.41.79.61,1.72.61,2.77s-.22,2.02-.67,2.83c-.45.82-1.08,1.45-1.9,1.91s-1.77.68-2.86.68c-1.44,0-2.64-.43-3.61-1.3Z"/><path class="b" d="M277.43,390.55v2.33c.42-.78.94-1.4,1.56-1.85.62-.45,1.34-.67,2.16-.67.86,0,1.58.22,2.15.66.57.44.96,1.09,1.16,1.96.42-.78.97-1.42,1.66-1.9.69-.48,1.42-.72,2.21-.72,2.32,0,3.48,1.3,3.48,3.89v8.4h-1.97v-8.09c0-.83-.15-1.44-.46-1.84-.3-.39-.8-.59-1.49-.59-.61,0-1.16.22-1.66.65-.5.43-.89,1.06-1.19,1.87-.3.82-.44,1.78-.44,2.88v5.11h-1.97v-8.09c0-.83-.15-1.44-.44-1.84-.3-.39-.8-.59-1.5-.59-.61,0-1.16.22-1.66.65-.5.43-.89,1.06-1.18,1.9s-.43,1.82-.43,2.95v5.02h-1.99v-12.1h1.99Z"/><path class="b" d="M295.46,401.91c-.7-.62-1.06-1.53-1.06-2.75,0-1.28.48-2.26,1.43-2.94.95-.68,2.26-1.02,3.92-1.02h2.11v-.53c0-.88-.24-1.52-.71-1.93-.47-.41-1.09-.61-1.86-.61-1.33,0-2.21.66-2.64,1.97l-1.78-.41c.16-1.01.65-1.82,1.48-2.42.82-.61,1.8-.91,2.94-.91,1.36,0,2.46.4,3.29,1.19s1.25,1.91,1.25,3.35v7.75h-1.56l-.36-1.75c-.83,1.3-2.09,1.94-3.77,1.94-1.09,0-1.98-.31-2.69-.92ZM300.09,400.66c.51-.26.94-.68,1.27-1.25.34-.57.5-1.28.5-2.12v-.38h-2.04c-1.12,0-1.96.19-2.52.58-.56.38-.84.94-.84,1.66,0,.61.18,1.08.54,1.42.36.34.86.5,1.5.5.54,0,1.07-.13,1.58-.4Z"/><path class="b" d="M308.61,401.86c-.62-.65-.94-1.62-.94-2.92v-6.62h-2.04v-1.78h2.04v-3.62l1.99-1.27v4.9h3.24v1.78h-3.24v6.77c0,1.31.56,1.97,1.68,1.97.54,0,1.01-.11,1.39-.34l.5,1.68c-.58.29-1.26.43-2.06.43-1.09,0-1.94-.32-2.57-.97Z"/><path class="b" d="M317.41,390.55v2.09c.38-.74.88-1.3,1.49-1.69.61-.39,1.3-.59,2.06-.59.53,0,1.1.12,1.7.36l-.41,1.85c-.5-.27-1.02-.41-1.56-.41-.96,0-1.75.5-2.36,1.51-.62,1.01-.92,2.48-.92,4.42v4.56h-1.99v-12.1h1.99Z"/><path class="b" d="M324.79,388.09c-.28-.28-.42-.62-.42-1.02s.14-.76.42-1.03c.28-.27.62-.41,1.02-.41s.76.14,1.04.41c.28.27.42.62.42,1.03s-.14.76-.42,1.03c-.28.27-.63.41-1.04.41s-.74-.14-1.02-.42ZM324.83,390.55h1.99v12.1h-1.99v-12.1Z"/><path class="b" d="M332.89,396.09l-3.43-5.54h2.14l2.35,3.84,2.38-3.84h2.14l-3.43,5.54,4.06,6.55h-2.06l-3.07-4.85-3.05,4.85h-2.06l4.06-6.55Z"/><path class="b" d="M497.86,401.35c-.97-.86-1.53-2.04-1.69-3.53l1.94-.26c.14,1.01.5,1.8,1.08,2.39s1.34.88,2.28.88c1.09,0,1.93-.32,2.52-.96.59-.64.89-1.52.89-2.64s-.3-2.07-.9-2.7-1.43-.95-2.48-.95c-.54,0-1.04.14-1.49.41l-.89-1.18,3.96-5.35h-6.1v-1.8h9.07v.62l-4.34,5.81c.16-.05.37-.07.62-.07.83,0,1.6.21,2.29.62.7.42,1.25,1.02,1.66,1.81.41.79.61,1.72.61,2.77s-.22,2.02-.67,2.83c-.45.82-1.08,1.45-1.9,1.91s-1.77.68-2.86.68c-1.44,0-2.64-.43-3.61-1.3Z"/><path class="b" d="M512.28,395.9l-3.43-5.54h2.14l2.35,3.84,2.38-3.84h2.14l-3.43,5.54,4.06,6.55h-2.06l-3.07-4.85-3.05,4.85h-2.06l4.06-6.55Z"/><path class="b" d="M522.81,388.63l-2.93,1.8v-2.16l4.22-2.62h.7v16.8h-1.99v-13.82Z"/><path class="b" d="M536.68,390.36v2.33c.42-.78.94-1.4,1.56-1.85.62-.45,1.34-.67,2.16-.67.86,0,1.58.22,2.15.66.57.44.96,1.09,1.16,1.96.42-.78.97-1.42,1.66-1.9.69-.48,1.42-.72,2.21-.72,2.32,0,3.48,1.3,3.48,3.89v8.4h-1.97v-8.09c0-.83-.15-1.44-.46-1.84-.3-.39-.8-.59-1.49-.59-.61,0-1.16.22-1.66.65-.5.43-.89,1.06-1.19,1.87-.3.82-.44,1.78-.44,2.88v5.11h-1.97v-8.09c0-.83-.15-1.44-.44-1.84-.3-.39-.8-.59-1.5-.59-.61,0-1.16.22-1.66.65-.5.43-.89,1.06-1.18,1.9s-.43,1.82-.43,2.95v5.02h-1.99v-12.1h1.99Z"/><path class="b" d="M554.71,401.72c-.7-.62-1.06-1.53-1.06-2.75,0-1.28.48-2.26,1.43-2.94.95-.68,2.26-1.02,3.92-1.02h2.11v-.53c0-.88-.24-1.52-.71-1.93-.47-.41-1.09-.61-1.86-.61-1.33,0-2.21.66-2.64,1.97l-1.78-.41c.16-1.01.65-1.82,1.48-2.42.82-.61,1.8-.91,2.94-.91,1.36,0,2.46.4,3.29,1.19s1.25,1.91,1.25,3.35v7.75h-1.56l-.36-1.75c-.83,1.3-2.09,1.94-3.77,1.94-1.09,0-1.98-.31-2.69-.92ZM559.34,400.47c.51-.26.94-.68,1.27-1.25.34-.57.5-1.28.5-2.12v-.38h-2.04c-1.12,0-1.96.19-2.52.58-.56.38-.84.94-.84,1.66,0,.61.18,1.08.54,1.42.36.34.86.5,1.5.5.54,0,1.07-.13,1.58-.4Z"/><path class="b" d="M567.86,401.67c-.62-.65-.94-1.62-.94-2.92v-6.62h-2.04v-1.78h2.04v-3.62l1.99-1.27v4.9h3.24v1.78h-3.24v6.77c0,1.31.56,1.97,1.68,1.97.54,0,1.01-.11,1.39-.34l.5,1.68c-.58.29-1.26.43-2.06.43-1.09,0-1.94-.32-2.57-.97Z"/><path class="b" d="M576.67,390.36v2.09c.38-.74.88-1.3,1.49-1.69.61-.39,1.3-.59,2.06-.59.53,0,1.1.12,1.7.36l-.41,1.85c-.5-.27-1.02-.41-1.56-.41-.96,0-1.75.5-2.36,1.51-.62,1.01-.92,2.48-.92,4.42v4.56h-1.99v-12.1h1.99Z"/><path class="b" d="M584.05,387.9c-.28-.28-.42-.62-.42-1.02s.14-.76.42-1.03c.28-.27.62-.41,1.02-.41s.76.14,1.04.41c.28.27.42.62.42,1.03s-.14.76-.42,1.03c-.28.27-.63.41-1.04.41s-.74-.14-1.02-.42ZM584.08,390.36h1.99v12.1h-1.99v-12.1Z"/><path class="b" d="M592.15,395.9l-3.43-5.54h2.14l2.35,3.84,2.38-3.84h2.14l-3.43,5.54,4.06,6.55h-2.06l-3.07-4.85-3.05,4.85h-2.06l4.06-6.55Z"/><path class="b" d="M760.82,388.63l-2.93,1.8v-2.16l4.22-2.62h.7v16.8h-1.99v-13.82Z"/><path class="b" d="M769.15,395.9l-3.43-5.54h2.14l2.35,3.84,2.38-3.84h2.14l-3.43,5.54,4.06,6.55h-2.06l-3.07-4.85-3.05,4.85h-2.06l4.06-6.55Z"/><path class="b" d="M778.35,401.35c-.97-.86-1.53-2.04-1.69-3.53l1.94-.26c.14,1.01.5,1.8,1.08,2.39s1.34.88,2.28.88c1.09,0,1.93-.32,2.52-.96.59-.64.89-1.52.89-2.64s-.3-2.07-.9-2.7-1.43-.95-2.48-.95c-.54,0-1.04.14-1.49.41l-.89-1.18,3.96-5.35h-6.1v-1.8h9.07v.62l-4.34,5.81c.16-.05.37-.07.62-.07.83,0,1.6.21,2.29.62.7.42,1.25,1.02,1.66,1.81.41.79.61,1.72.61,2.77s-.22,2.02-.67,2.83c-.45.82-1.08,1.45-1.9,1.91s-1.77.68-2.86.68c-1.44,0-2.64-.43-3.61-1.3Z"/><path class="b" d="M798.31,390.36v2.33c.42-.78.94-1.4,1.56-1.85.62-.45,1.34-.67,2.16-.67.86,0,1.58.22,2.15.66.57.44.96,1.09,1.16,1.96.42-.78.97-1.42,1.66-1.9.69-.48,1.42-.72,2.21-.72,2.32,0,3.48,1.3,3.48,3.89v8.4h-1.97v-8.09c0-.83-.15-1.44-.46-1.84-.3-.39-.8-.59-1.49-.59-.61,0-1.16.22-1.66.65-.5.43-.89,1.06-1.19,1.87-.3.82-.44,1.78-.44,2.88v5.11h-1.97v-8.09c0-.83-.15-1.44-.44-1.84-.3-.39-.8-.59-1.5-.59-.61,0-1.16.22-1.66.65-.5.43-.89,1.06-1.18,1.9s-.43,1.82-.43,2.95v5.02h-1.99v-12.1h1.99Z"/><path class="b" d="M816.33,401.72c-.7-.62-1.06-1.53-1.06-2.75,0-1.28.48-2.26,1.43-2.94.95-.68,2.26-1.02,3.92-1.02h2.11v-.53c0-.88-.24-1.52-.71-1.93-.47-.41-1.09-.61-1.86-.61-1.33,0-2.21.66-2.64,1.97l-1.78-.41c.16-1.01.65-1.82,1.48-2.42.82-.61,1.8-.91,2.94-.91,1.36,0,2.46.4,3.29,1.19s1.25,1.91,1.25,3.35v7.75h-1.56l-.36-1.75c-.83,1.3-2.09,1.94-3.77,1.94-1.09,0-1.98-.31-2.69-.92ZM820.97,400.47c.51-.26.94-.68,1.27-1.25.34-.57.5-1.28.5-2.12v-.38h-2.04c-1.12,0-1.96.19-2.52.58-.56.38-.84.94-.84,1.66,0,.61.18,1.08.54,1.42.36.34.86.5,1.5.5.54,0,1.07-.13,1.58-.4Z"/><path class="b" d="M829.49,401.67c-.62-.65-.94-1.62-.94-2.92v-6.62h-2.04v-1.78h2.04v-3.62l1.99-1.27v4.9h3.24v1.78h-3.24v6.77c0,1.31.56,1.97,1.68,1.97.54,0,1.01-.11,1.39-.34l.5,1.68c-.58.29-1.26.43-2.06.43-1.09,0-1.94-.32-2.57-.97Z"/><path class="b" d="M838.29,390.36v2.09c.38-.74.88-1.3,1.49-1.69.61-.39,1.3-.59,2.06-.59.53,0,1.1.12,1.7.36l-.41,1.85c-.5-.27-1.02-.41-1.56-.41-.96,0-1.75.5-2.36,1.51-.62,1.01-.92,2.48-.92,4.42v4.56h-1.99v-12.1h1.99Z"/><path class="b" d="M845.67,387.9c-.28-.28-.42-.62-.42-1.02s.14-.76.42-1.03c.28-.27.62-.41,1.02-.41s.76.14,1.04.41c.28.27.42.62.42,1.03s-.14.76-.42,1.03c-.28.27-.63.41-1.04.41s-.74-.14-1.02-.42ZM845.71,390.36h1.99v12.1h-1.99v-12.1Z"/><path class="b" d="M853.77,395.9l-3.43-5.54h2.14l2.35,3.84,2.38-3.84h2.14l-3.43,5.54,4.06,6.55h-2.06l-3.07-4.85-3.05,4.85h-2.06l4.06-6.55Z"/><path class="b" d="M66.18,192.19c2.21,0,3.96.58,5.26,1.73,1.3,1.15,1.94,2.84,1.94,5.08,0,1.03-.22,1.96-.65,2.79s-1.04,1.45-1.84,1.85c2.52,1.03,3.78,3.08,3.78,6.16,0,2.42-.74,4.3-2.21,5.62s-3.51,1.98-6.1,1.98h-9.4v-25.2h9.22ZM68.14,201.35c.49-.42.74-1.12.74-2.11s-.25-1.69-.76-2.11c-.5-.42-1.27-.63-2.3-.63h-4.18v5.47h4.28c.98,0,1.72-.21,2.21-.63ZM69.02,212.21c.65-.58.97-1.42.97-2.52s-.32-1.94-.97-2.52-1.68-.86-3.1-.86h-4.28v6.77h4.28c1.42,0,2.45-.29,3.1-.86Z"/><path class="b" d="M87.6,201.05h15.73v3.89h-15.73v-3.89ZM87.6,207.53h15.73v3.89h-15.73v-3.89Z"/><path class="b" d="M456.45,201.46h14.71v3.64h-14.71v-3.64ZM456.45,207.52h14.71v3.64h-14.71v-3.64Z"/><path class="b" d="M627.59,207.69l-4.92-7.91h4.38l2.76,4.41,2.76-4.41h4.38l-4.92,7.91,5.62,9.06h-4.38l-3.47-5.52-3.47,5.52h-4.38l5.62-9.06Z"/></svg>