<?xml version="1.0" encoding="UTF-8"?><svg xmlns="http://www.w3.org/2000/svg" viewBox="0 0 1200 800"><defs><style>.g{stroke-dasharray:0 0 0 5.98;}.g,.h,.i,.j,.k{stroke-width:2px;}.g,.h,.i,.j,.l{stroke-miterlimit:10;}.g,.h,.i,.l{fill:none;}.g,.h,.l{stroke:#e85530;}.g,.k{stroke-linecap:round;}.m{fill:#f3c738;}.m,.n,.o,.p,.q{stroke-width:0px;}.h{stroke-dasharray:0 0 6 6;}.i,.j,.k{stroke:#167dc0;}.j,.k,.p{fill:#10172f;}.k{stroke-linejoin:round;}.o{fill:#24c0eb;}.q{fill:#e85530;}</style></defs><g id="a"><rect class="p" x="-2.5" y="-2.5" width="1205" height="850.67"/></g><g id="c"><rect class="m" x="668.26" y="66.91" width="153.63" height="77.29" rx="8" ry="8"/><path class="j" d="M600,110.14c-28.13,0-50.93,6.98-50.93,15.59v22.61c0,8.61,22.8,15.59,50.93,15.59s50.93-6.98,50.93-15.59v-22.61c0-8.61-22.8-15.59-50.93-15.59Z"/><path class="j" d="M600,74.54c-28.13,0-50.93,6.98-50.93,15.59v22.61c0,8.61,22.8,15.59,50.93,15.59s50.93-6.98,50.93-15.59v-22.61c0-8.61-22.8-15.59-50.93-15.59Z"/><path class="j" d="M600,38.94c-28.13,0-50.93,6.98-50.93,15.59v22.61c0,8.61,22.8,15.59,50.93,15.59s50.93-6.98,50.93-15.59v-22.61c0-8.61-22.8-15.59-50.93-15.59Z"/><path class="j" d="M650.93,54.53c0,8.61-22.8,15.59-50.93,15.59s-50.93-6.98-50.93-15.59"/><path class="i" d="M650.93,90.13c0,8.61-22.8,15.59-50.93,15.59s-50.93-6.98-50.93-15.59"/><path class="i" d="M650.93,125.74c0,8.61-22.8,15.59-50.93,15.59s-50.93-6.98-50.93-15.59"/><path class="n" d="M701.3,81.99v47.43h-12.33v-47.43h12.33Z"/><path class="n" d="M742.81,81.99v47.43h-10.78v-32.02s-4.31,32.02-4.31,32.02h-7.65l-4.53-31.29v31.29h-10.8v-47.43h15.96c.47,2.85.96,6.21,1.46,10.08l1.75,12.06,2.83-22.15h16.05Z"/><path class="n" d="M746.26,81.99h9.23c5.96,0,9.99.27,12.08.82,2.1.55,3.7,1.45,4.79,2.7,1.09,1.25,1.78,2.64,2.05,4.17.27,1.53.41,4.55.41,9.04v16.61c0,4.26-.2,7.1-.6,8.54s-1.1,2.56-2.09,3.37c-1,.81-2.23,1.38-3.69,1.7s-3.67.48-6.62.48h-15.56v-47.43ZM758.59,90.11v31.2c1.78,0,2.87-.36,3.28-1.07.41-.71.62-2.65.62-5.82v-18.43c0-2.15-.07-3.53-.21-4.13-.14-.6-.45-1.05-.94-1.33-.49-.28-1.41-.42-2.75-.42Z"/><path class="n" d="M789.41,81.99v11.23c.98-1.14,2.07-1.98,3.27-2.54,1.2-.56,2.5-.84,3.91-.84,1.62,0,3.03.25,4.22.76,1.19.51,2.1,1.22,2.72,2.14.62.92,1,1.82,1.13,2.7s.19,2.75.19,5.62v17.52c0,2.85-.19,4.98-.57,6.37-.38,1.4-1.27,2.61-2.68,3.63s-3.08,1.54-5.01,1.54c-1.39,0-2.68-.3-3.88-.91s-2.3-1.52-3.3-2.73l-.76,2.94h-11.07v-47.43h11.84ZM793.01,101.59c0-2.01-.13-3.33-.38-3.94s-.75-.92-1.49-.92-1.19.27-1.41.81c-.21.54-.32,1.89-.32,4.06v16.76c0,2.09.12,3.43.37,4.01s.73.88,1.45.88,1.23-.3,1.45-.91c.22-.6.34-2.06.34-4.37v-16.38Z"/></g><g id="e"><path class="k" d="M589.75,242.3l-7.03,2.92-7.03,2.92,1.37,10.6c-2.05,1.65-3.91,3.49-5.52,5.51l-10.51-1.56-2.91,7.04-2.91,7.04,8.45,6.52c-.28,2.57-.26,5.18.02,7.8l-8.54,6.34,2.92,7.04,2.92,7.03,10.6-1.37c1.65,2.05,3.49,3.91,5.51,5.52l-1.56,10.51,7.04,2.91,7.04,2.91,6.52-8.45c2.57.28,5.18.26,7.8-.02l6.34,8.55,7.03-2.92,7.03-2.92-1.37-10.6c2.05-1.65,3.91-3.49,5.52-5.51l10.51,1.56,2.91-7.04,2.91-7.04-8.45-6.52c.28-2.57.26-5.18-.02-7.8l8.55-6.34-2.92-7.03-2.92-7.03-10.6,1.37c-1.65-2.05-3.49-3.91-5.51-5.53l1.56-10.51-7.04-2.91-7.04-2.91-6.52,8.45c-2.57-.28-5.18-.26-7.8.02l-6.34-8.55Z"/><path class="k" d="M587.77,287.17c0-6.74,5.48-12.22,12.23-12.22s12.22,5.48,12.22,12.22-5.48,12.22-12.22,12.22-12.23-5.48-12.23-12.22Z"/><path class="k" d="M592.83,437.63l-4.92,2.04-4.92,2.04.96,7.42c-1.43,1.16-2.73,2.44-3.87,3.85l-7.35-1.09-2.04,4.93-2.04,4.93,5.92,4.56c-.19,1.8-.18,3.63.01,5.46l-5.98,4.44,2.04,4.92,2.04,4.92,7.42-.96c1.16,1.43,2.45,2.73,3.86,3.87l-1.09,7.35,4.93,2.04,4.93,2.04,4.56-5.92c1.8.19,3.63.18,5.46-.01l4.44,5.98,4.92-2.04,4.92-2.04-.96-7.42c1.43-1.16,2.73-2.45,3.87-3.86l7.35,1.09,2.04-4.93,2.04-4.93-5.92-4.56c.19-1.8.18-3.63-.01-5.46l5.98-4.44-2.04-4.92-2.04-4.92-7.42.96c-1.16-1.43-2.45-2.73-3.86-3.87l1.09-7.35-4.93-2.04-4.93-2.04-4.56,5.92c-1.8-.19-3.63-.18-5.46.01l-4.44-5.98Z"/><path class="k" d="M591.44,469.04c0-4.72,3.84-8.56,8.56-8.56s8.56,3.84,8.56,8.56-3.84,8.56-8.56,8.56-8.56-3.84-8.56-8.56Z"/><path class="k" d="M594.98,628.91l-3.45,1.43-3.45,1.43.67,5.2c-1,.81-1.91,1.71-2.71,2.7l-5.15-.76-1.43,3.45-1.43,3.45,4.14,3.19c-.14,1.26-.13,2.54,0,3.82l-4.19,3.11,1.43,3.45,1.43,3.45,5.2-.67c.81,1,1.71,1.91,2.7,2.71l-.76,5.15,3.45,1.43,3.45,1.43,3.19-4.14c1.26.14,2.54.13,3.82,0l3.11,4.19,3.45-1.43,3.45-1.43-.67-5.2c1-.81,1.91-1.71,2.71-2.7l5.15.76,1.43-3.45,1.43-3.45-4.14-3.19c.14-1.26.13-2.54,0-3.82l4.19-3.11-1.43-3.45-1.43-3.45-5.2.67c-.81-1-1.71-1.91-2.7-2.71l.76-5.15-3.45-1.43-3.45-1.43-3.19,4.14c-1.26-.14-2.54-.13-3.82,0l-3.11-4.19Z"/><path class="k" d="M594.01,650.9c0-3.3,2.69-5.99,5.99-5.99s5.99,2.69,5.99,5.99-2.69,5.99-5.99,5.99-5.99-2.69-5.99-5.99Z"/><path class="q" d="M121.63,260.92h10.63v2.88h-7.51v3.84h6.05v2.88h-6.05v7.2h-3.12v-16.8Z"/><path class="q" d="M135.11,276.98c-.68-.62-1.02-1.53-1.02-2.71v-8.64h2.98v7.75c0,.69.16,1.19.47,1.51.31.32.73.48,1.26.48.5,0,.95-.19,1.37-.58.42-.38.75-.95,1.01-1.69.26-.74.38-1.63.38-2.65v-4.82h2.98v12.1h-2.98v-1.94c-.46.66-1.02,1.18-1.66,1.56-.64.38-1.34.58-2.09.58-1.12,0-2.02-.31-2.7-.94Z"/><path class="q" d="M147.89,260.73h2.98v16.99h-2.98v-16.99Z"/><path class="q" d="M154.22,260.73h2.98v16.99h-2.98v-16.99Z"/><path class="q" d="M64.56,289.72h10.63v2.88h-7.51v3.84h6.05v2.88h-6.05v7.2h-3.12v-16.8Z"/><path class="q" d="M77.71,292.31c-.37-.37-.55-.82-.55-1.37s.18-1,.55-1.37.82-.55,1.37-.55,1,.18,1.37.55c.37.37.55.82.55,1.37s-.18,1-.55,1.37-.82.55-1.37.55-1-.18-1.37-.55ZM77.59,294.42h2.98v12.1h-2.98v-12.1Z"/><path class="q" d="M86.81,294.42v1.94c.46-.66,1.02-1.18,1.66-1.56.64-.38,1.34-.58,2.09-.58,1.12,0,2.02.31,2.7.94.68.62,1.02,1.53,1.02,2.71v8.64h-2.98v-7.75c0-.69-.16-1.19-.47-1.51-.31-.32-.73-.48-1.26-.48-.5,0-.95.19-1.37.58s-.75.95-1.01,1.69c-.26.74-.38,1.63-.38,2.65v4.82h-2.98v-12.1h2.98Z"/><path class="q" d="M108.41,301.43h-8.35c.13.9.44,1.58.95,2.04.5.46,1.15.7,1.93.7.67,0,1.24-.15,1.69-.46.46-.3.87-.78,1.24-1.42l2.4.89c-.5,1.14-1.19,2.01-2.08,2.62-.89.61-2.03.91-3.42.91-1.31,0-2.4-.31-3.28-.92-.87-.62-1.51-1.4-1.92-2.35-.41-.95-.61-1.94-.61-2.96s.2-2.01.61-2.96c.41-.95,1.05-1.74,1.92-2.35.87-.62,1.96-.92,3.28-.92s2.32.3,3.17.9c.85.6,1.47,1.36,1.87,2.27s.6,1.85.6,2.81v1.22ZM105.36,299.08c-.14-.67-.43-1.22-.85-1.66-.42-.43-1-.65-1.74-.65-.64,0-1.19.2-1.66.59-.46.39-.79.96-.98,1.72h5.23Z"/><path class="q" d="M112.68,305.58c-.78-.75-1.18-1.86-1.18-3.34v-5.28h-1.87v-2.54h1.87v-3.02l2.98-1.87v4.9h3.19v2.54h-3.19v5.23c0,.72.13,1.23.4,1.52.26.3.66.44,1.19.44.4,0,.78-.1,1.15-.29l.7,2.4c-.62.29-1.28.43-1.97.43-1.39,0-2.48-.38-3.26-1.13Z"/><path class="q" d="M120.51,305.78c-.68-.62-1.02-1.53-1.02-2.71v-8.64h2.98v7.75c0,.69.16,1.19.47,1.51.31.32.73.48,1.26.48.5,0,.95-.19,1.37-.58.42-.38.75-.95,1.01-1.69.26-.74.38-1.63.38-2.65v-4.82h2.98v12.1h-2.98v-1.94c-.46.66-1.02,1.18-1.66,1.56-.64.38-1.34.58-2.09.58-1.12,0-2.02-.31-2.7-.94Z"/><path class="q" d="M136.27,294.42v1.94c.46-.66,1.02-1.18,1.66-1.56.64-.38,1.34-.58,2.09-.58,1.12,0,2.02.31,2.7.94.68.62,1.02,1.53,1.02,2.71v8.64h-2.98v-7.75c0-.69-.16-1.19-.47-1.51-.31-.32-.73-.48-1.26-.48-.5,0-.95.19-1.37.58s-.75.95-1.01,1.69c-.26.74-.38,1.63-.38,2.65v4.82h-2.98v-12.1h2.98Z"/><path class="q" d="M157.87,301.43h-8.35c.13.9.44,1.58.95,2.04.5.46,1.15.7,1.93.7.67,0,1.24-.15,1.69-.46.46-.3.87-.78,1.24-1.42l2.4.89c-.5,1.14-1.19,2.01-2.08,2.62-.89.61-2.03.91-3.42.91-1.31,0-2.4-.31-3.28-.92-.87-.62-1.51-1.4-1.92-2.35-.41-.95-.61-1.94-.61-2.96s.2-2.01.61-2.96c.41-.95,1.05-1.74,1.92-2.35.87-.62,1.96-.92,3.28-.92s2.32.3,3.17.9c.85.6,1.47,1.36,1.87,2.27s.6,1.85.6,2.81v1.22ZM154.82,299.08c-.14-.67-.43-1.22-.85-1.66-.42-.43-1-.65-1.74-.65-.64,0-1.19.2-1.66.59-.46.39-.79.96-.98,1.72h5.23Z"/><path class="o" d="M488.82,352.22h8.71v1.7h-6.89v4.52h5.63v1.7h-5.63v6.78h-1.83v-14.7Z"/><path class="o" d="M499.79,354.19c-.25-.25-.37-.54-.37-.89s.12-.67.37-.9c.25-.24.54-.36.89-.36s.67.12.91.36c.24.24.37.54.37.9s-.12.67-.37.9c-.25.24-.55.36-.91.36s-.65-.12-.89-.37ZM499.82,356.34h1.74v10.58h-1.74v-10.58Z"/><path class="o" d="M506.44,356.34v2.04c.38-.67.88-1.21,1.5-1.61.62-.4,1.29-.6,2.01-.6.99,0,1.78.29,2.37.88.59.59.88,1.42.88,2.5v7.37h-1.72v-6.99c0-.73-.16-1.28-.49-1.65-.33-.37-.82-.56-1.46-.56-.57,0-1.09.19-1.56.57-.47.38-.84.92-1.11,1.63-.27.71-.41,1.54-.41,2.49v4.52h-1.74v-10.58h1.74Z"/><path class="o" d="M525.29,361.9h-7.79c.04,1.08.34,1.95.88,2.62s1.29,1.01,2.23,1.01c.73,0,1.32-.16,1.79-.48.46-.32.88-.85,1.24-1.57l1.47.63c-.5,1.04-1.12,1.79-1.84,2.27-.72.48-1.62.71-2.7.71-.99,0-1.85-.25-2.58-.75-.73-.5-1.28-1.16-1.67-1.99-.39-.83-.58-1.74-.58-2.72s.19-1.91.58-2.74c.38-.83.94-1.49,1.67-1.98.73-.49,1.59-.73,2.58-.73s1.81.22,2.52.67c.71.45,1.26,1.05,1.64,1.81s.57,1.6.57,2.52v.73ZM523.53,360.41c-.13-.83-.44-1.48-.94-1.96s-1.18-.72-2.02-.72c-.73,0-1.36.23-1.89.69s-.89,1.13-1.07,2h5.92Z"/><path class="o" d="M529.12,366.24c-.55-.57-.82-1.42-.82-2.55v-5.8h-1.79v-1.55h1.79v-3.17l1.74-1.11v4.28h2.84v1.55h-2.84v5.92c0,1.15.49,1.72,1.47,1.72.48,0,.88-.1,1.22-.29l.44,1.47c-.5.25-1.11.38-1.81.38-.95,0-1.7-.28-2.25-.85Z"/><path class="o" d="M535.71,366.21c-.59-.59-.88-1.42-.88-2.5v-7.37h1.74v6.99c0,.73.16,1.28.49,1.65s.81.56,1.44.56c.57,0,1.1-.19,1.58-.57s.85-.92,1.12-1.64c.27-.71.41-1.55.41-2.5v-4.49h1.72v10.58h-1.72v-2.04c-.38.67-.88,1.21-1.5,1.61s-1.3.6-2.03.6c-.99,0-1.79-.29-2.37-.88Z"/><path class="o" d="M548.23,356.34v2.04c.38-.67.88-1.21,1.5-1.61.62-.4,1.29-.6,2.01-.6.99,0,1.79.29,2.37.88s.88,1.42.88,2.5v7.37h-1.72v-6.99c0-.73-.17-1.28-.49-1.65-.33-.37-.82-.56-1.46-.56-.57,0-1.1.19-1.56.57-.47.38-.84.92-1.11,1.63-.27.71-.41,1.54-.41,2.49v4.52h-1.74v-10.58h1.74Z"/><path class="o" d="M567.08,361.9h-7.79c.04,1.08.34,1.95.88,2.62.55.67,1.29,1.01,2.23,1.01.73,0,1.32-.16,1.79-.48.46-.32.87-.85,1.24-1.57l1.47.63c-.5,1.04-1.12,1.79-1.84,2.27s-1.62.71-2.7.71c-.99,0-1.86-.25-2.58-.75-.73-.5-1.29-1.16-1.67-1.99s-.58-1.74-.58-2.72.19-1.91.58-2.74c.38-.83.94-1.49,1.67-1.98.73-.49,1.59-.73,2.58-.73s1.81.22,2.52.67c.71.45,1.26,1.05,1.64,1.81s.57,1.6.57,2.52v.73ZM565.32,360.41c-.13-.83-.44-1.48-.95-1.96s-1.18-.72-2.02-.72c-.73,0-1.36.23-1.89.69-.53.46-.89,1.13-1.07,2h5.92Z"/><path class="o" d="M570.02,366.25c-.67-.56-1.11-1.24-1.32-2.04l1.45-.78c.21.67.51,1.19.91,1.55.4.36.93.55,1.59.55.52,0,.93-.14,1.23-.42.3-.28.45-.67.45-1.18,0-.45-.19-.81-.58-1.09-.39-.28-.96-.56-1.71-.84-.84-.31-1.49-.69-1.94-1.15s-.68-1.08-.68-1.85c0-.84.29-1.52.87-2.05s1.32-.79,2.22-.79c1.36,0,2.38.55,3.07,1.66l-1.13,1.01c-.48-.74-1.13-1.11-1.95-1.11-.39,0-.72.12-.99.35-.27.23-.4.54-.4.93s.17.72.51.98c.34.26.96.55,1.84.87,1.72.63,2.58,1.64,2.58,3.02,0,.99-.31,1.78-.92,2.35-.62.57-1.44.86-2.46.86-1.08,0-1.95-.28-2.62-.84Z"/><path class="o" d="M584.13,366.28c-.62-.54-.92-1.34-.92-2.4,0-1.12.42-1.98,1.25-2.57.83-.59,1.98-.89,3.43-.89h1.85v-.46c0-.77-.21-1.33-.62-1.69s-.96-.54-1.63-.54c-1.16,0-1.93.57-2.31,1.72l-1.55-.36c.14-.88.57-1.59,1.29-2.12.72-.53,1.58-.8,2.57-.8,1.19,0,2.15.35,2.88,1.04.73.69,1.09,1.67,1.09,2.93v6.78h-1.37l-.31-1.53c-.73,1.13-1.83,1.7-3.3,1.7-.95,0-1.74-.27-2.35-.81ZM588.19,365.19c.45-.23.82-.59,1.11-1.09.29-.5.44-1.12.44-1.86v-.34h-1.79c-.98,0-1.71.17-2.21.5s-.74.82-.74,1.45c0,.53.16.94.47,1.24.32.29.75.44,1.31.44.48,0,.94-.12,1.39-.35Z"/><path class="o" d="M594.38,352.05h1.74v14.87h-1.74v-14.87Z"/><path class="o" d="M599.28,352.05h1.74v14.87h-1.74v-14.87Z"/><path class="o" d="M611.18,356.34v1.36c.25-.41.66-.76,1.23-1.07.57-.31,1.19-.46,1.86-.46,1.01,0,1.87.23,2.58.7s1.25,1.12,1.62,1.94c.36.83.55,1.76.55,2.81s-.18,1.99-.55,2.81c-.36.83-.9,1.47-1.62,1.94-.71.47-1.58.7-2.58.7-.6,0-1.19-.14-1.76-.41-.57-.27-1.02-.63-1.32-1.08v5.61h-1.74v-14.87h1.74ZM616.38,364.46c.55-.72.83-1.66.83-2.82s-.28-2.1-.83-2.82c-.55-.72-1.31-1.08-2.28-1.08s-1.72.36-2.27,1.08c-.55.72-.82,1.66-.82,2.82s.28,2.1.83,2.82,1.31,1.08,2.26,1.08,1.73-.36,2.28-1.08Z"/><path class="o" d="M621.79,366.28c-.62-.54-.92-1.34-.92-2.4,0-1.12.42-1.98,1.25-2.57.83-.59,1.98-.89,3.43-.89h1.85v-.46c0-.77-.21-1.33-.62-1.69s-.96-.54-1.63-.54c-1.16,0-1.93.57-2.31,1.72l-1.55-.36c.14-.88.57-1.59,1.29-2.12.72-.53,1.58-.8,2.57-.8,1.19,0,2.15.35,2.88,1.04.73.69,1.09,1.67,1.09,2.93v6.78h-1.37l-.32-1.53c-.73,1.13-1.83,1.7-3.3,1.7-.95,0-1.74-.27-2.35-.81ZM625.84,365.19c.45-.23.82-.59,1.11-1.09.29-.5.44-1.12.44-1.86v-.34h-1.79c-.98,0-1.71.17-2.21.5s-.73.82-.73,1.45c0,.53.16.94.47,1.24.31.29.75.44,1.31.44.48,0,.94-.12,1.39-.35Z"/><path class="o" d="M633.76,356.34v1.83c.34-.64.77-1.14,1.3-1.48s1.13-.51,1.81-.51c.46,0,.96.1,1.49.31l-.36,1.62c-.43-.24-.89-.36-1.37-.36-.84,0-1.53.44-2.07,1.32-.54.88-.81,2.17-.81,3.86v3.99h-1.74v-10.58h1.74Z"/><path class="o" d="M640.04,366.28c-.62-.54-.92-1.34-.92-2.4,0-1.12.42-1.98,1.25-2.57.83-.59,1.98-.89,3.43-.89h1.85v-.46c0-.77-.21-1.33-.62-1.69s-.96-.54-1.63-.54c-1.16,0-1.93.57-2.31,1.72l-1.55-.36c.14-.88.57-1.59,1.29-2.12.72-.53,1.58-.8,2.57-.8,1.19,0,2.15.35,2.88,1.04.73.69,1.09,1.67,1.09,2.93v6.78h-1.37l-.32-1.53c-.73,1.13-1.83,1.7-3.3,1.7-.95,0-1.74-.27-2.35-.81ZM644.09,365.19c.45-.23.82-.59,1.11-1.09.29-.5.44-1.12.44-1.86v-.34h-1.79c-.98,0-1.71.17-2.21.5s-.73.82-.73,1.45c0,.53.16.94.47,1.24.31.29.75.44,1.31.44.48,0,.94-.12,1.39-.35Z"/><path class="o" d="M652.01,356.34v2.04c.36-.69.82-1.23,1.37-1.62.55-.39,1.18-.59,1.89-.59.76,0,1.38.19,1.88.58.5.39.84.96,1.02,1.71.36-.69.85-1.24,1.45-1.66.6-.42,1.25-.63,1.93-.63,2.03,0,3.04,1.13,3.04,3.4v7.35h-1.72v-7.08c0-.73-.13-1.26-.4-1.61-.27-.34-.7-.51-1.3-.51-.53,0-1.02.19-1.45.57-.43.38-.78.92-1.04,1.64-.26.71-.39,1.55-.39,2.52v4.47h-1.72v-7.08c0-.73-.13-1.26-.39-1.61-.26-.34-.7-.51-1.31-.51-.53,0-1.01.19-1.45.57-.43.38-.78.93-1.03,1.66-.25.73-.38,1.59-.38,2.58v4.39h-1.74v-10.58h1.74Z"/><path class="o" d="M676.68,361.9h-7.79c.04,1.08.34,1.95.88,2.62s1.29,1.01,2.23,1.01c.73,0,1.32-.16,1.79-.48.46-.32.88-.85,1.24-1.57l1.47.63c-.5,1.04-1.12,1.79-1.84,2.27-.72.48-1.62.71-2.7.71-.99,0-1.85-.25-2.58-.75-.73-.5-1.28-1.16-1.67-1.99-.39-.83-.58-1.74-.58-2.72s.19-1.91.58-2.74c.38-.83.94-1.49,1.67-1.98.73-.49,1.59-.73,2.58-.73s1.81.22,2.52.67c.71.45,1.26,1.05,1.64,1.81s.57,1.6.57,2.52v.73ZM674.92,360.41c-.13-.83-.44-1.48-.94-1.96s-1.18-.72-2.02-.72c-.73,0-1.36.23-1.89.69s-.89,1.13-1.07,2h5.92Z"/><path class="o" d="M680.5,366.24c-.55-.57-.82-1.42-.82-2.55v-5.8h-1.79v-1.55h1.79v-3.17l1.74-1.11v4.28h2.84v1.55h-2.84v5.92c0,1.15.49,1.72,1.47,1.72.48,0,.88-.1,1.22-.29l.44,1.47c-.5.25-1.11.38-1.81.38-.95,0-1.7-.28-2.25-.85Z"/><path class="o" d="M695.08,361.9h-7.79c.04,1.08.34,1.95.88,2.62.55.67,1.29,1.01,2.23,1.01.73,0,1.32-.16,1.79-.48.46-.32.87-.85,1.24-1.57l1.47.63c-.5,1.04-1.12,1.79-1.84,2.27s-1.62.71-2.7.71c-.99,0-1.86-.25-2.58-.75-.73-.5-1.29-1.16-1.67-1.99s-.58-1.74-.58-2.72.19-1.91.58-2.74c.38-.83.94-1.49,1.67-1.98.73-.49,1.59-.73,2.58-.73s1.81.22,2.52.67c.71.45,1.26,1.05,1.64,1.81s.57,1.6.57,2.52v.73ZM693.31,360.41c-.13-.83-.44-1.48-.95-1.96s-1.18-.72-2.02-.72c-.73,0-1.36.23-1.89.69-.53.46-.89,1.13-1.07,2h5.92Z"/><path class="o" d="M699.38,356.34v1.83c.34-.64.77-1.14,1.3-1.48s1.13-.51,1.81-.51c.46,0,.96.1,1.49.31l-.36,1.62c-.43-.24-.89-.36-1.37-.36-.84,0-1.53.44-2.07,1.32-.54.88-.81,2.17-.81,3.86v3.99h-1.74v-10.58h1.74Z"/><path class="o" d="M706.1,366.25c-.67-.56-1.11-1.24-1.32-2.04l1.45-.78c.21.67.51,1.19.91,1.55.4.36.93.55,1.59.55.52,0,.93-.14,1.23-.42.3-.28.45-.67.45-1.18,0-.45-.19-.81-.58-1.09-.39-.28-.96-.56-1.71-.84-.84-.31-1.49-.69-1.94-1.15s-.68-1.08-.68-1.85c0-.84.29-1.52.87-2.05s1.32-.79,2.22-.79c1.36,0,2.38.55,3.07,1.66l-1.13,1.01c-.48-.74-1.13-1.11-1.95-1.11-.39,0-.72.12-.99.35-.27.23-.4.54-.4.93s.17.72.51.98c.34.26.96.55,1.84.87,1.72.63,2.58,1.64,2.58,3.02,0,.99-.31,1.78-.92,2.35-.62.57-1.44.86-2.46.86-1.08,0-1.95-.28-2.62-.84Z"/><path class="o" d="M449.99,529.4h8.71v1.7h-6.89v4.51h5.63v1.7h-5.63v6.78h-1.83v-14.7Z"/><path class="o" d="M460.96,531.37c-.25-.25-.37-.54-.37-.89s.12-.67.37-.9.54-.36.89-.36.67.12.91.36c.24.24.37.54.37.9s-.12.67-.37.9c-.25.24-.55.36-.91.36s-.65-.12-.89-.37ZM460.99,533.52h1.74v10.58h-1.74v-10.58Z"/><path class="o" d="M467.61,533.52v2.04c.38-.67.88-1.21,1.5-1.61.62-.4,1.29-.6,2.01-.6.99,0,1.78.29,2.37.88.59.59.88,1.42.88,2.5v7.37h-1.72v-6.99c0-.73-.16-1.28-.49-1.65s-.82-.56-1.46-.56c-.57,0-1.09.19-1.56.57-.47.38-.84.92-1.11,1.63-.27.71-.41,1.54-.41,2.49v4.52h-1.74v-10.58h1.74Z"/><path class="o" d="M486.47,539.08h-7.79c.04,1.08.34,1.95.88,2.62s1.29,1.01,2.23,1.01c.73,0,1.32-.16,1.79-.48s.88-.85,1.24-1.58l1.47.63c-.5,1.04-1.12,1.79-1.84,2.27-.72.48-1.62.71-2.7.71-.99,0-1.85-.25-2.58-.75-.73-.5-1.28-1.16-1.67-1.99-.39-.83-.58-1.74-.58-2.72s.19-1.91.58-2.74c.38-.83.94-1.49,1.67-1.98.73-.49,1.59-.73,2.58-.73s1.81.22,2.52.67,1.26,1.05,1.64,1.81.57,1.6.57,2.52v.73ZM484.7,537.59c-.13-.83-.44-1.48-.94-1.96-.5-.48-1.18-.72-2.02-.72-.73,0-1.36.23-1.89.69s-.89,1.13-1.07,2h5.92Z"/><path class="o" d="M490.29,543.42c-.55-.57-.82-1.42-.82-2.55v-5.8h-1.79v-1.55h1.79v-3.17l1.74-1.11v4.28h2.84v1.55h-2.84v5.92c0,1.15.49,1.72,1.47,1.72.48,0,.88-.1,1.22-.29l.44,1.47c-.5.25-1.11.38-1.81.38-.95,0-1.7-.28-2.25-.85Z"/><path class="o" d="M496.88,543.39c-.59-.59-.88-1.42-.88-2.5v-7.37h1.74v6.99c0,.73.16,1.28.49,1.65s.81.56,1.44.56c.57,0,1.1-.19,1.58-.57s.85-.92,1.12-1.64c.27-.71.41-1.55.41-2.5v-4.49h1.72v10.58h-1.72v-2.04c-.38.67-.88,1.21-1.5,1.61-.62.4-1.3.6-2.03.6-.99,0-1.79-.29-2.37-.88Z"/><path class="o" d="M509.4,533.52v2.04c.38-.67.88-1.21,1.5-1.61.62-.4,1.29-.6,2.01-.6.99,0,1.79.29,2.37.88s.88,1.42.88,2.5v7.37h-1.72v-6.99c0-.73-.17-1.28-.49-1.65s-.82-.56-1.46-.56c-.57,0-1.1.19-1.56.57-.47.38-.84.92-1.11,1.63-.27.71-.41,1.54-.41,2.49v4.52h-1.74v-10.58h1.74Z"/><path class="o" d="M528.25,539.08h-7.79c.04,1.08.34,1.95.88,2.62.55.67,1.29,1.01,2.23,1.01.73,0,1.32-.16,1.79-.48s.87-.85,1.24-1.58l1.47.63c-.5,1.04-1.12,1.79-1.84,2.27-.72.48-1.62.71-2.7.71-.99,0-1.86-.25-2.58-.75-.73-.5-1.29-1.16-1.67-1.99s-.58-1.74-.58-2.72.19-1.91.58-2.74c.38-.83.94-1.49,1.67-1.98.73-.49,1.59-.73,2.58-.73s1.81.22,2.52.67,1.26,1.05,1.64,1.81.57,1.6.57,2.52v.73ZM526.49,537.59c-.13-.83-.44-1.48-.95-1.96-.5-.48-1.18-.72-2.02-.72-.73,0-1.36.23-1.89.69-.53.46-.89,1.13-1.07,2h5.92Z"/><path class="o" d="M531.2,543.43c-.67-.56-1.11-1.24-1.32-2.04l1.45-.78c.21.67.51,1.19.91,1.55.4.36.93.55,1.59.55.52,0,.93-.14,1.23-.42.3-.28.45-.67.45-1.18,0-.45-.19-.81-.58-1.09-.39-.28-.96-.56-1.71-.84-.84-.31-1.49-.69-1.94-1.16s-.68-1.08-.68-1.85c0-.84.29-1.52.87-2.05.58-.52,1.32-.79,2.22-.79,1.36,0,2.38.55,3.07,1.66l-1.13,1.01c-.48-.74-1.13-1.11-1.95-1.11-.39,0-.72.12-.99.35-.27.23-.4.54-.4.93s.17.72.51.98.96.55,1.84.87c1.72.63,2.58,1.64,2.58,3.02,0,.99-.31,1.78-.92,2.35-.62.57-1.44.86-2.46.86-1.08,0-1.95-.28-2.62-.84Z"/><path class="o" d="M545.31,543.46c-.62-.54-.92-1.34-.92-2.4,0-1.12.42-1.98,1.25-2.57.83-.59,1.98-.89,3.43-.89h1.85v-.46c0-.77-.21-1.33-.62-1.69-.41-.36-.96-.54-1.63-.54-1.16,0-1.93.57-2.31,1.72l-1.55-.36c.14-.88.57-1.59,1.29-2.12.72-.53,1.58-.8,2.57-.8,1.19,0,2.15.35,2.88,1.04.73.69,1.09,1.67,1.09,2.93v6.78h-1.37l-.31-1.53c-.73,1.13-1.83,1.7-3.3,1.7-.95,0-1.74-.27-2.35-.81ZM549.36,542.37c.45-.23.82-.59,1.11-1.09.29-.5.44-1.12.44-1.86v-.34h-1.79c-.98,0-1.71.17-2.21.5s-.74.82-.74,1.45c0,.53.16.95.47,1.24.32.29.75.44,1.31.44.48,0,.94-.12,1.39-.35Z"/><path class="o" d="M561.46,543.43c-.67-.56-1.11-1.24-1.32-2.04l1.45-.78c.21.67.51,1.19.91,1.55.4.36.93.55,1.58.55.52,0,.93-.14,1.23-.42.3-.28.45-.67.45-1.18,0-.45-.19-.81-.58-1.09s-.96-.56-1.71-.84c-.84-.31-1.49-.69-1.94-1.16s-.68-1.08-.68-1.85c0-.84.29-1.52.87-2.05.58-.52,1.32-.79,2.22-.79,1.36,0,2.38.55,3.07,1.66l-1.13,1.01c-.48-.74-1.13-1.11-1.95-1.11-.39,0-.72.12-.99.35-.27.23-.4.54-.4.93s.17.72.51.98c.34.26.96.55,1.84.87,1.72.63,2.58,1.64,2.58,3.02,0,.99-.31,1.78-.92,2.35s-1.44.86-2.46.86c-1.08,0-1.95-.28-2.62-.84Z"/><path class="o" d="M570.57,543.39c-.59-.59-.88-1.42-.88-2.5v-7.37h1.74v6.99c0,.73.17,1.28.49,1.65.33.37.81.56,1.44.56.57,0,1.1-.19,1.58-.57.48-.38.85-.92,1.12-1.64.27-.71.41-1.55.41-2.5v-4.49h1.72v10.58h-1.72v-2.04c-.38.67-.88,1.21-1.5,1.61-.62.4-1.3.6-2.03.6-.99,0-1.79-.29-2.37-.88Z"/><path class="o" d="M584.33,543.83c-.58-.29-1-.63-1.25-1.01v1.28h-1.74v-14.87h1.74v5.61c.35-.45.8-.81,1.34-1.08s1.13-.41,1.74-.41c1.01,0,1.87.23,2.58.7.71.47,1.25,1.12,1.62,1.94.36.83.55,1.76.55,2.81s-.18,1.99-.55,2.81c-.36.83-.9,1.47-1.62,1.94-.71.47-1.58.7-2.58.7-.64,0-1.26-.15-1.84-.44ZM588.28,541.63c.55-.72.83-1.66.83-2.82s-.28-2.1-.83-2.83c-.55-.72-1.31-1.08-2.28-1.08s-1.71.36-2.26,1.08c-.55.72-.83,1.66-.83,2.83s.27,2.1.82,2.82c.55.72,1.3,1.08,2.27,1.08s1.73-.36,2.28-1.08Z"/><path class="o" d="M593.84,543.43c-.67-.56-1.11-1.24-1.32-2.04l1.45-.78c.21.67.51,1.19.91,1.55.4.36.93.55,1.58.55.52,0,.93-.14,1.23-.42.3-.28.45-.67.45-1.18,0-.45-.19-.81-.58-1.09s-.96-.56-1.71-.84c-.84-.31-1.49-.69-1.94-1.16s-.68-1.08-.68-1.85c0-.84.29-1.52.87-2.05.58-.52,1.32-.79,2.22-.79,1.36,0,2.38.55,3.07,1.66l-1.13,1.01c-.48-.74-1.13-1.11-1.95-1.11-.39,0-.72.12-.99.35-.27.23-.4.54-.4.93s.17.72.51.98c.34.26.96.55,1.84.87,1.72.63,2.58,1.64,2.58,3.02,0,.99-.31,1.78-.92,2.35s-1.44.86-2.46.86c-1.08,0-1.95-.28-2.62-.84Z"/><path class="o" d="M611.01,539.08h-7.79c.04,1.08.34,1.95.88,2.62.55.67,1.29,1.01,2.23,1.01.73,0,1.32-.16,1.79-.48s.87-.85,1.24-1.58l1.47.63c-.5,1.04-1.12,1.79-1.84,2.27-.72.48-1.62.71-2.7.71-.99,0-1.86-.25-2.58-.75-.73-.5-1.29-1.16-1.67-1.99s-.58-1.74-.58-2.72.19-1.91.58-2.74c.38-.83.94-1.49,1.67-1.98.73-.49,1.59-.73,2.58-.73s1.81.22,2.52.67,1.26,1.05,1.64,1.81.57,1.6.57,2.52v.73ZM609.25,537.59c-.13-.83-.44-1.48-.95-1.96-.5-.48-1.18-.72-2.02-.72-.73,0-1.36.23-1.89.69-.53.46-.89,1.13-1.07,2h5.92Z"/><path class="o" d="M614.84,543.42c-.55-.57-.82-1.42-.82-2.55v-5.8h-1.79v-1.55h1.79v-3.17l1.74-1.11v4.28h2.83v1.55h-2.83v5.92c0,1.15.49,1.72,1.47,1.72.48,0,.88-.1,1.22-.29l.44,1.47c-.5.25-1.11.38-1.81.38-.95,0-1.7-.28-2.25-.85Z"/><path class="o" d="M628.04,543.52c-.78-.5-1.37-1.17-1.79-2-.41-.84-.62-1.74-.62-2.71s.21-1.87.62-2.71c.41-.84,1.01-1.51,1.79-2.01.78-.5,1.68-.75,2.7-.75s1.92.25,2.69.75c.77.5,1.36,1.17,1.78,2.01.41.84.62,1.74.62,2.71s-.21,1.87-.62,2.71c-.41.84-1,1.51-1.78,2-.77.5-1.67.75-2.69.75s-1.92-.25-2.7-.75ZM632.51,542.17c.5-.36.87-.84,1.12-1.44.25-.59.38-1.24.38-1.92s-.13-1.33-.38-1.92c-.25-.59-.63-1.07-1.12-1.44s-1.09-.55-1.77-.55-1.28.18-1.77.55-.88.84-1.13,1.44c-.26.6-.39,1.24-.39,1.92s.13,1.33.39,1.92c.26.6.64,1.08,1.13,1.44.5.36,1.09.55,1.77.55s1.28-.18,1.77-.55Z"/><path class="o" d="M637.01,535.07v-1.55h1.58v-.63c0-1.23.3-2.15.89-2.75.59-.6,1.43-.9,2.51-.9.57,0,1.07.1,1.49.31l-.38,1.49c-.36-.17-.74-.25-1.13-.25-.53,0-.94.16-1.23.47s-.43.79-.43,1.42v.84h2.46v1.55h-2.46v9.03h-1.72v-9.03h-1.58Z"/><path class="o" d="M651.67,543.42c-.55-.57-.82-1.42-.82-2.55v-5.8h-1.79v-1.55h1.79v-3.17l1.74-1.11v4.28h2.84v1.55h-2.84v5.92c0,1.15.49,1.72,1.47,1.72.48,0,.88-.1,1.22-.29l.44,1.47c-.5.25-1.11.38-1.81.38-.95,0-1.7-.28-2.25-.85Z"/><path class="o" d="M659.31,529.23v6.41c.35-.73.85-1.29,1.51-1.69.66-.4,1.36-.6,2.12-.6,1.04,0,1.84.29,2.42.87s.87,1.42.87,2.51v7.37h-1.72v-6.95c0-.73-.17-1.28-.5-1.67-.34-.38-.83-.58-1.49-.58-.57,0-1.11.19-1.6.56s-.88.91-1.18,1.63c-.29.71-.44,1.55-.44,2.52v4.49h-1.74v-14.87h1.74Z"/><path class="o" d="M678.34,539.08h-7.79c.04,1.08.34,1.95.88,2.62s1.29,1.01,2.23,1.01c.73,0,1.32-.16,1.79-.48s.88-.85,1.24-1.58l1.47.63c-.5,1.04-1.12,1.79-1.84,2.27-.72.48-1.62.71-2.7.71-.99,0-1.85-.25-2.58-.75-.73-.5-1.28-1.16-1.67-1.99-.39-.83-.58-1.74-.58-2.72s.19-1.91.58-2.74c.38-.83.94-1.49,1.67-1.98.73-.49,1.59-.73,2.58-.73s1.81.22,2.52.67,1.26,1.05,1.64,1.81.57,1.6.57,2.52v.73ZM676.58,537.59c-.13-.83-.44-1.48-.94-1.96-.5-.48-1.18-.72-2.02-.72-.73,0-1.36.23-1.89.69s-.89,1.13-1.07,2h5.92Z"/><path class="o" d="M687.97,543.52c-.78-.5-1.37-1.17-1.79-2s-.62-1.74-.62-2.71.21-1.87.62-2.71,1.01-1.51,1.79-2.01,1.68-.75,2.7-.75,1.92.25,2.69.75c.77.5,1.36,1.17,1.77,2.01s.62,1.74.62,2.71-.21,1.87-.62,2.71-1,1.51-1.77,2c-.77.5-1.67.75-2.69.75s-1.92-.25-2.7-.75ZM692.44,542.17c.5-.36.87-.84,1.12-1.44.25-.59.38-1.24.38-1.92s-.13-1.33-.38-1.92c-.25-.59-.63-1.07-1.12-1.44s-1.09-.55-1.77-.55-1.28.18-1.77.55-.88.84-1.13,1.44c-.26.6-.39,1.24-.39,1.92s.13,1.33.39,1.92c.26.6.64,1.08,1.13,1.44.5.36,1.09.55,1.77.55s1.28-.18,1.77-.55Z"/><path class="o" d="M700.03,533.52v1.83c.34-.64.77-1.14,1.3-1.48.53-.34,1.13-.51,1.81-.51.46,0,.96.1,1.49.31l-.36,1.62c-.43-.24-.89-.36-1.37-.36-.84,0-1.53.44-2.07,1.32-.54.88-.81,2.17-.81,3.86v3.99h-1.74v-10.58h1.74Z"/><path class="o" d="M706.49,531.37c-.25-.25-.37-.54-.37-.89s.12-.67.37-.9.54-.36.89-.36.67.12.91.36c.24.24.37.54.37.9s-.12.67-.37.9c-.25.24-.55.36-.91.36s-.65-.12-.89-.37ZM706.52,533.52h1.74v10.58h-1.74v-10.58Z"/><path class="o" d="M711.84,547.63c-.82-.62-1.23-1.47-1.23-2.56,0-.46.09-.88.28-1.26.19-.38.44-.69.75-.92-.5-.35-.76-.92-.76-1.7,0-.45.12-.84.36-1.19s.55-.61.95-.81c-.52-.63-.78-1.39-.78-2.29,0-.7.16-1.32.49-1.86s.77-.96,1.33-1.25c.56-.29,1.18-.44,1.87-.44.64,0,1.27.16,1.87.48l1.91-1.07.76,1.3-1.49.8c.42.6.63,1.28.63,2.04,0,.71-.16,1.34-.48,1.88-.32.54-.76.95-1.32,1.24-.56.29-1.18.43-1.87.43s-1.29-.14-1.85-.42c-.49.24-.73.59-.73,1.05,0,.32.11.56.34.71.22.15.51.23.86.23h2.54c1.02,0,1.84.24,2.45.72.61.48.91,1.2.91,2.15,0,1.23-.42,2.15-1.26,2.75-.84.6-1.92.9-3.23.9s-2.47-.31-3.29-.92ZM717.19,546.51c.49-.36.73-.84.73-1.44,0-.56-.17-.96-.5-1.21-.34-.24-.82-.37-1.45-.37h-1.91c-.39,0-.76-.02-1.09-.06-.48.34-.71.87-.71,1.6,0,.63.25,1.12.75,1.48.5.36,1.21.54,2.13.54s1.57-.18,2.06-.54ZM716.55,538.43c.38-.38.58-.89.58-1.53s-.19-1.16-.58-1.53c-.39-.38-.87-.57-1.44-.57s-1.05.19-1.44.57c-.39.38-.58.89-.58,1.53s.19,1.16.58,1.53c.38.38.86.57,1.44.57s1.05-.19,1.44-.57Z"/><path class="o" d="M721.67,531.37c-.25-.25-.37-.54-.37-.89s.12-.67.37-.9.54-.36.89-.36.67.12.91.36c.24.24.37.54.37.9s-.12.67-.37.9c-.25.24-.55.36-.91.36s-.65-.12-.89-.37ZM721.7,533.52h1.74v10.58h-1.74v-10.58Z"/><path class="o" d="M728.32,533.52v2.04c.38-.67.88-1.21,1.5-1.61.62-.4,1.29-.6,2.01-.6.99,0,1.78.29,2.37.88.59.59.88,1.42.88,2.5v7.37h-1.72v-6.99c0-.73-.16-1.28-.49-1.65s-.82-.56-1.46-.56c-.57,0-1.09.19-1.56.57-.47.38-.84.92-1.11,1.63-.27.71-.41,1.54-.41,2.49v4.52h-1.74v-10.58h1.74Z"/><path class="o" d="M738.27,543.46c-.62-.54-.92-1.34-.92-2.4,0-1.12.42-1.98,1.25-2.57.83-.59,1.98-.89,3.43-.89h1.85v-.46c0-.77-.21-1.33-.62-1.69-.41-.36-.96-.54-1.63-.54-1.16,0-1.93.57-2.31,1.72l-1.55-.36c.14-.88.57-1.59,1.29-2.12.72-.53,1.58-.8,2.57-.8,1.19,0,2.15.35,2.88,1.04.73.69,1.09,1.67,1.09,2.93v6.78h-1.37l-.31-1.53c-.73,1.13-1.83,1.7-3.3,1.7-.95,0-1.74-.27-2.35-.81ZM742.33,542.37c.45-.23.82-.59,1.11-1.09.29-.5.44-1.12.44-1.86v-.34h-1.79c-.98,0-1.71.17-2.21.5s-.74.82-.74,1.45c0,.53.16.95.47,1.24.32.29.75.44,1.31.44.48,0,.94-.12,1.39-.35Z"/><path class="o" d="M748.52,529.23h1.74v14.87h-1.74v-14.87Z"/><path class="o" d="M512.83,558.72v2.04c.36-.69.82-1.23,1.37-1.62s1.18-.59,1.89-.59c.76,0,1.38.19,1.88.58.5.39.84.96,1.02,1.71.36-.69.85-1.24,1.45-1.66.6-.42,1.25-.63,1.93-.63,2.03,0,3.04,1.13,3.04,3.4v7.35h-1.72v-7.08c0-.73-.13-1.26-.4-1.61-.27-.34-.7-.51-1.3-.51-.53,0-1.02.19-1.45.57-.43.38-.78.92-1.04,1.64-.26.71-.39,1.55-.39,2.52v4.47h-1.72v-7.08c0-.73-.13-1.26-.39-1.61-.26-.34-.7-.51-1.31-.51-.53,0-1.01.19-1.45.57-.43.38-.78.93-1.03,1.66-.25.73-.38,1.59-.38,2.58v4.39h-1.74v-10.58h1.74Z"/><path class="o" d="M530.35,568.72c-.78-.5-1.37-1.17-1.79-2-.41-.84-.62-1.74-.62-2.71s.21-1.87.62-2.71c.41-.84,1.01-1.51,1.79-2.01.78-.5,1.68-.75,2.7-.75s1.92.25,2.69.75c.77.5,1.36,1.17,1.78,2.01.41.84.62,1.74.62,2.71s-.21,1.87-.62,2.71c-.41.84-1,1.51-1.78,2-.77.5-1.67.75-2.69.75s-1.92-.25-2.7-.75ZM534.83,567.37c.5-.36.87-.84,1.12-1.44.25-.59.38-1.24.38-1.92s-.13-1.33-.38-1.92c-.25-.59-.63-1.07-1.12-1.44s-1.09-.55-1.77-.55-1.28.18-1.77.55-.88.84-1.13,1.44c-.26.6-.39,1.24-.39,1.92s.13,1.33.39,1.92c.26.6.64,1.08,1.13,1.44.5.36,1.09.55,1.77.55s1.28-.18,1.77-.55Z"/><path class="o" d="M542.21,568.77c-.7-.47-1.23-1.12-1.6-1.94-.36-.83-.55-1.76-.55-2.81s.18-1.99.55-2.81.9-1.47,1.6-1.94c.7-.47,1.55-.7,2.54-.7.67,0,1.28.13,1.83.4.55.27.99.63,1.34,1.09v-5.61h1.72v14.87h-1.72v-1.39c-.27.42-.69.79-1.28,1.09s-1.22.46-1.89.46c-.99,0-1.84-.23-2.54-.7ZM547.25,566.84c.55-.71.82-1.66.82-2.83s-.27-2.1-.82-2.83c-.55-.72-1.3-1.08-2.27-1.08s-1.73.36-2.28,1.08c-.55.72-.83,1.66-.83,2.83s.28,2.1.83,2.82c.55.72,1.31,1.08,2.28,1.08s1.72-.36,2.27-1.07Z"/><path class="o" d="M561.74,564.28h-7.79c.04,1.08.34,1.95.88,2.62.55.67,1.29,1.01,2.23,1.01.73,0,1.32-.16,1.79-.48s.87-.85,1.24-1.58l1.47.63c-.5,1.04-1.12,1.79-1.84,2.27-.72.48-1.62.71-2.7.71-.99,0-1.86-.25-2.58-.75-.73-.5-1.29-1.16-1.67-1.99s-.58-1.74-.58-2.72.19-1.91.58-2.74c.38-.83.94-1.49,1.67-1.98.73-.49,1.59-.73,2.58-.73s1.81.22,2.52.67,1.26,1.05,1.64,1.81.57,1.6.57,2.52v.73ZM559.97,562.79c-.13-.83-.44-1.48-.95-1.96-.5-.48-1.18-.72-2.02-.72-.73,0-1.36.23-1.89.69-.53.46-.89,1.13-1.07,2h5.92Z"/><path class="o" d="M564.3,554.43h1.74v14.87h-1.74v-14.87Z"/><path class="o" d="M569.76,554.43h2.46l-2.58,4.26h-1.26l1.39-4.26Z"/><path class="o" d="M573.16,568.63c-.67-.56-1.11-1.24-1.32-2.04l1.45-.78c.21.67.51,1.19.91,1.55.4.36.93.55,1.58.55.52,0,.93-.14,1.23-.42.3-.28.45-.67.45-1.18,0-.45-.19-.81-.58-1.09s-.96-.56-1.71-.84c-.84-.31-1.49-.69-1.94-1.16s-.68-1.08-.68-1.85c0-.84.29-1.52.87-2.05.58-.52,1.32-.79,2.22-.79,1.36,0,2.38.55,3.07,1.66l-1.13,1.01c-.48-.74-1.13-1.11-1.95-1.11-.39,0-.72.12-.99.35-.27.23-.4.54-.4.93s.17.72.51.98c.34.26.96.55,1.84.87,1.72.63,2.58,1.64,2.58,3.02,0,.99-.31,1.78-.92,2.35s-1.44.86-2.46.86c-1.08,0-1.95-.28-2.62-.84Z"/><path class="o" d="M588.66,558.72v1.36c.25-.41.66-.76,1.23-1.07.57-.31,1.19-.46,1.86-.46,1.01,0,1.87.23,2.58.7.71.47,1.25,1.12,1.62,1.94.36.83.55,1.76.55,2.81s-.18,1.99-.55,2.81c-.36.83-.9,1.47-1.62,1.94-.71.47-1.58.7-2.58.7-.6,0-1.19-.14-1.76-.41-.57-.27-1.02-.63-1.32-1.08v5.61h-1.74v-14.87h1.74ZM593.86,566.83c.55-.72.83-1.66.83-2.82s-.28-2.1-.83-2.83c-.55-.72-1.31-1.08-2.28-1.08s-1.72.36-2.27,1.08c-.55.72-.82,1.66-.82,2.83s.28,2.1.83,2.82c.55.72,1.31,1.08,2.26,1.08s1.73-.36,2.28-1.08Z"/><path class="o" d="M599.26,568.66c-.62-.54-.92-1.34-.92-2.4,0-1.12.42-1.98,1.25-2.57.83-.59,1.98-.89,3.43-.89h1.85v-.46c0-.77-.21-1.33-.62-1.69-.41-.36-.96-.54-1.63-.54-1.16,0-1.93.57-2.31,1.72l-1.55-.36c.14-.88.57-1.59,1.29-2.12.72-.53,1.58-.8,2.57-.8,1.19,0,2.15.35,2.88,1.04.73.69,1.09,1.67,1.09,2.93v6.78h-1.37l-.31-1.53c-.73,1.13-1.83,1.7-3.3,1.7-.95,0-1.74-.27-2.35-.81ZM603.32,567.57c.45-.23.82-.59,1.11-1.09.29-.5.44-1.12.44-1.86v-.34h-1.79c-.98,0-1.71.17-2.21.5s-.74.82-.74,1.45c0,.53.16.95.47,1.24.32.29.75.44,1.31.44.48,0,.94-.12,1.39-.35Z"/><path class="o" d="M611.23,558.72v1.83c.34-.64.77-1.14,1.3-1.48.53-.34,1.13-.51,1.81-.51.46,0,.96.1,1.49.31l-.36,1.62c-.43-.24-.89-.36-1.37-.36-.84,0-1.53.44-2.07,1.32s-.81,2.17-.81,3.86v3.99h-1.74v-10.58h1.74Z"/><path class="o" d="M617.51,568.66c-.62-.54-.92-1.34-.92-2.4,0-1.12.42-1.98,1.25-2.57.83-.59,1.98-.89,3.43-.89h1.85v-.46c0-.77-.21-1.33-.62-1.69-.41-.36-.96-.54-1.63-.54-1.16,0-1.93.57-2.31,1.72l-1.55-.36c.14-.88.57-1.59,1.29-2.12.72-.53,1.58-.8,2.57-.8,1.19,0,2.15.35,2.88,1.04.73.69,1.09,1.67,1.09,2.93v6.78h-1.37l-.31-1.53c-.73,1.13-1.83,1.7-3.3,1.7-.95,0-1.74-.27-2.35-.81ZM621.57,567.57c.45-.23.82-.59,1.11-1.09.29-.5.44-1.12.44-1.86v-.34h-1.79c-.98,0-1.71.17-2.21.5s-.74.82-.74,1.45c0,.53.16.95.47,1.24.32.29.75.44,1.31.44.48,0,.94-.12,1.39-.35Z"/><path class="o" d="M629.48,558.72v2.04c.36-.69.82-1.23,1.37-1.62s1.18-.59,1.89-.59c.76,0,1.38.19,1.88.58.5.39.84.96,1.02,1.71.36-.69.85-1.24,1.45-1.66.6-.42,1.25-.63,1.93-.63,2.03,0,3.04,1.13,3.04,3.4v7.35h-1.72v-7.08c0-.73-.13-1.26-.4-1.61-.27-.34-.7-.51-1.3-.51-.53,0-1.01.19-1.45.57-.43.38-.78.92-1.04,1.64-.26.71-.39,1.55-.39,2.52v4.47h-1.72v-7.08c0-.73-.13-1.26-.39-1.61-.26-.34-.7-.51-1.31-.51-.53,0-1.02.19-1.45.57s-.78.93-1.03,1.66c-.25.73-.38,1.59-.38,2.58v4.39h-1.74v-10.58h1.74Z"/><path class="o" d="M654.16,564.28h-7.79c.04,1.08.34,1.95.88,2.62.55.67,1.29,1.01,2.23,1.01.73,0,1.32-.16,1.79-.48s.87-.85,1.24-1.58l1.47.63c-.5,1.04-1.12,1.79-1.84,2.27-.72.48-1.62.71-2.7.71-.99,0-1.86-.25-2.58-.75-.73-.5-1.29-1.16-1.67-1.99s-.58-1.74-.58-2.72.19-1.91.58-2.74c.38-.83.94-1.49,1.67-1.98.73-.49,1.59-.73,2.58-.73s1.81.22,2.52.67,1.26,1.05,1.64,1.81.57,1.6.57,2.52v.73ZM652.39,562.79c-.13-.83-.44-1.48-.95-1.96-.5-.48-1.18-.72-2.02-.72-.73,0-1.36.23-1.89.69-.53.46-.89,1.13-1.07,2h5.92Z"/><path class="o" d="M657.98,568.62c-.55-.57-.82-1.42-.82-2.55v-5.8h-1.79v-1.55h1.79v-3.17l1.74-1.11v4.28h2.83v1.55h-2.83v5.92c0,1.15.49,1.72,1.47,1.72.48,0,.88-.1,1.22-.29l.44,1.47c-.5.25-1.11.38-1.81.38-.95,0-1.7-.28-2.25-.85Z"/><path class="o" d="M672.55,564.28h-7.79c.04,1.08.34,1.95.88,2.62s1.29,1.01,2.23,1.01c.73,0,1.32-.16,1.79-.48s.88-.85,1.24-1.58l1.47.63c-.5,1.04-1.12,1.79-1.84,2.27-.72.48-1.62.71-2.7.71-.99,0-1.85-.25-2.58-.75-.73-.5-1.28-1.16-1.67-1.99-.39-.83-.58-1.74-.58-2.72s.19-1.91.58-2.74c.38-.83.94-1.49,1.67-1.98.73-.49,1.59-.73,2.58-.73s1.81.22,2.52.67,1.26,1.05,1.64,1.81.57,1.6.57,2.52v.73ZM670.79,562.79c-.13-.83-.44-1.48-.94-1.96-.5-.48-1.18-.72-2.02-.72-.73,0-1.36.23-1.89.69s-.89,1.13-1.07,2h5.92Z"/><path class="o" d="M676.86,558.72v1.83c.34-.64.77-1.14,1.3-1.48.53-.34,1.13-.51,1.81-.51.46,0,.96.1,1.49.31l-.36,1.62c-.43-.24-.89-.36-1.37-.36-.84,0-1.53.44-2.07,1.32-.54.88-.81,2.17-.81,3.86v3.99h-1.74v-10.58h1.74Z"/><path class="o" d="M683.58,568.63c-.67-.56-1.11-1.24-1.32-2.04l1.45-.78c.21.67.51,1.19.91,1.55.4.36.93.55,1.58.55.52,0,.93-.14,1.23-.42.3-.28.45-.67.45-1.18,0-.45-.19-.81-.58-1.09s-.96-.56-1.71-.84c-.84-.31-1.49-.69-1.94-1.16s-.68-1.08-.68-1.85c0-.84.29-1.52.87-2.05.58-.52,1.32-.79,2.22-.79,1.36,0,2.38.55,3.07,1.66l-1.13,1.01c-.48-.74-1.13-1.11-1.95-1.11-.39,0-.72.12-.99.35-.27.23-.4.54-.4.93s.17.72.51.98c.34.26.96.55,1.84.87,1.72.63,2.58,1.64,2.58,3.02,0,.99-.31,1.78-.92,2.35s-1.44.86-2.46.86c-1.08,0-1.95-.28-2.62-.84Z"/><path class="o" d="M438.34,720.54h8.71v1.7h-6.89v4.52h5.63v1.7h-5.63v6.78h-1.83v-14.7Z"/><path class="o" d="M449.32,722.5c-.25-.25-.37-.54-.37-.89s.12-.67.37-.9c.25-.24.54-.36.89-.36s.67.12.91.36c.24.24.37.54.37.9s-.12.67-.37.9c-.25.24-.55.36-.91.36s-.65-.12-.89-.37ZM449.35,724.66h1.74v10.58h-1.74v-10.58Z"/><path class="o" d="M455.96,724.66v2.04c.38-.67.88-1.21,1.5-1.61s1.29-.6,2.01-.6c.99,0,1.78.29,2.37.88.59.59.88,1.42.88,2.5v7.37h-1.72v-6.99c0-.73-.16-1.28-.49-1.65-.33-.37-.82-.56-1.46-.56-.57,0-1.09.19-1.56.57-.47.38-.84.92-1.11,1.63-.27.71-.41,1.54-.41,2.49v4.51h-1.74v-10.58h1.74Z"/><path class="o" d="M474.82,730.22h-7.79c.04,1.08.34,1.95.88,2.62s1.29,1.01,2.23,1.01c.73,0,1.32-.16,1.79-.48.46-.32.88-.85,1.24-1.57l1.47.63c-.5,1.04-1.12,1.79-1.84,2.27-.72.48-1.62.71-2.7.71-.99,0-1.85-.25-2.58-.75-.73-.5-1.28-1.16-1.67-2-.39-.83-.58-1.74-.58-2.72s.19-1.91.58-2.74c.38-.83.94-1.49,1.67-1.98.73-.49,1.59-.74,2.58-.74s1.81.22,2.52.67c.71.45,1.26,1.05,1.64,1.81s.57,1.6.57,2.52v.74ZM473.06,728.73c-.13-.83-.44-1.48-.94-1.96-.5-.48-1.18-.72-2.02-.72-.73,0-1.36.23-1.89.69s-.89,1.13-1.07,2h5.92Z"/><path class="o" d="M478.64,734.56c-.55-.57-.82-1.42-.82-2.55v-5.8h-1.79v-1.55h1.79v-3.17l1.74-1.11v4.28h2.84v1.55h-2.84v5.92c0,1.15.49,1.72,1.47,1.72.48,0,.88-.1,1.22-.29l.44,1.47c-.5.25-1.11.38-1.81.38-.95,0-1.7-.28-2.25-.85Z"/><path class="o" d="M485.24,734.53c-.59-.59-.88-1.42-.88-2.5v-7.37h1.74v6.99c0,.73.16,1.28.49,1.65s.81.56,1.44.56c.57,0,1.1-.19,1.58-.57s.85-.92,1.12-1.64c.27-.71.41-1.55.41-2.5v-4.49h1.72v10.58h-1.72v-2.04c-.38.67-.88,1.21-1.5,1.61-.62.4-1.3.6-2.03.6-.99,0-1.79-.29-2.37-.88Z"/><path class="o" d="M497.75,724.66v2.04c.38-.67.88-1.21,1.5-1.61s1.29-.6,2.01-.6c.99,0,1.79.29,2.37.88s.88,1.42.88,2.5v7.37h-1.72v-6.99c0-.73-.17-1.28-.49-1.65-.33-.37-.82-.56-1.46-.56-.57,0-1.1.19-1.56.57-.47.38-.84.92-1.11,1.63-.27.71-.41,1.54-.41,2.49v4.51h-1.74v-10.58h1.74Z"/><path class="o" d="M516.61,730.22h-7.79c.04,1.08.34,1.95.88,2.62.55.67,1.29,1.01,2.23,1.01.73,0,1.32-.16,1.79-.48.46-.32.87-.85,1.24-1.57l1.47.63c-.5,1.04-1.12,1.79-1.84,2.27-.72.48-1.62.71-2.7.71-.99,0-1.86-.25-2.58-.75-.73-.5-1.29-1.16-1.67-2s-.58-1.74-.58-2.72.19-1.91.58-2.74.94-1.49,1.67-1.98c.73-.49,1.59-.74,2.58-.74s1.81.22,2.52.67c.71.45,1.26,1.05,1.64,1.81s.57,1.6.57,2.52v.74ZM514.85,728.73c-.13-.83-.44-1.48-.95-1.96-.5-.48-1.18-.72-2.02-.72-.73,0-1.36.23-1.89.69-.53.46-.89,1.13-1.07,2h5.92Z"/><path class="o" d="M519.55,734.57c-.67-.56-1.11-1.24-1.32-2.04l1.45-.78c.21.67.51,1.19.91,1.55.4.36.93.55,1.59.55.52,0,.93-.14,1.23-.42.3-.28.45-.67.45-1.18,0-.45-.19-.81-.58-1.09-.39-.28-.96-.56-1.71-.84-.84-.31-1.49-.69-1.94-1.15s-.68-1.08-.68-1.85c0-.84.29-1.52.87-2.05.58-.53,1.32-.79,2.22-.79,1.36,0,2.38.55,3.07,1.66l-1.13,1.01c-.48-.74-1.13-1.11-1.95-1.11-.39,0-.72.12-.99.35-.27.23-.4.54-.4.93s.17.72.51.98c.34.26.96.55,1.84.87,1.72.63,2.58,1.64,2.58,3.02,0,.99-.31,1.78-.92,2.35-.62.57-1.44.86-2.46.86-1.08,0-1.95-.28-2.62-.84Z"/><path class="o" d="M533.66,734.6c-.62-.54-.92-1.34-.92-2.4,0-1.12.42-1.98,1.25-2.57s1.98-.89,3.43-.89h1.85v-.46c0-.77-.21-1.33-.62-1.69-.41-.36-.96-.54-1.63-.54-1.16,0-1.93.57-2.31,1.72l-1.55-.36c.14-.88.57-1.59,1.29-2.12.72-.53,1.58-.8,2.57-.8,1.19,0,2.15.35,2.88,1.04.73.69,1.09,1.67,1.09,2.93v6.78h-1.37l-.31-1.53c-.73,1.13-1.83,1.7-3.3,1.7-.95,0-1.74-.27-2.35-.81ZM537.71,733.51c.45-.23.82-.59,1.11-1.09s.44-1.12.44-1.86v-.34h-1.79c-.98,0-1.71.17-2.21.5s-.74.82-.74,1.45c0,.53.16.94.47,1.24.32.29.75.44,1.31.44.48,0,.94-.12,1.39-.35Z"/><path class="o" d="M549.81,734.57c-.67-.56-1.11-1.24-1.32-2.04l1.45-.78c.21.67.51,1.19.91,1.55.4.36.93.55,1.58.55.52,0,.93-.14,1.23-.42s.45-.67.45-1.18c0-.45-.19-.81-.58-1.09-.38-.28-.96-.56-1.71-.84-.84-.31-1.49-.69-1.94-1.15s-.68-1.08-.68-1.85c0-.84.29-1.52.87-2.05.58-.53,1.32-.79,2.22-.79,1.36,0,2.38.55,3.07,1.66l-1.13,1.01c-.48-.74-1.13-1.11-1.95-1.11-.39,0-.72.12-.99.35-.27.23-.4.54-.4.93s.17.72.51.98c.34.26.96.55,1.84.87,1.72.63,2.58,1.64,2.58,3.02,0,.99-.31,1.78-.92,2.35s-1.44.86-2.46.86c-1.08,0-1.95-.28-2.62-.84Z"/><path class="o" d="M558.92,734.53c-.59-.59-.88-1.42-.88-2.5v-7.37h1.74v6.99c0,.73.17,1.28.49,1.65.33.37.81.56,1.44.56.57,0,1.1-.19,1.58-.57.48-.38.85-.92,1.12-1.64s.41-1.55.41-2.5v-4.49h1.72v10.58h-1.72v-2.04c-.38.67-.88,1.21-1.5,1.61-.62.4-1.3.6-2.03.6-.99,0-1.79-.29-2.37-.88Z"/><path class="o" d="M572.69,734.97c-.58-.29-1-.63-1.25-1.01v1.28h-1.74v-14.87h1.74v5.61c.35-.45.8-.81,1.34-1.08.55-.27,1.13-.41,1.74-.41,1.01,0,1.87.23,2.58.7.71.47,1.25,1.12,1.62,1.94.36.83.55,1.76.55,2.81s-.18,1.99-.55,2.81c-.36.83-.9,1.47-1.62,1.94s-1.58.7-2.58.7c-.64,0-1.26-.15-1.84-.44ZM576.64,732.77c.55-.72.83-1.66.83-2.83s-.28-2.1-.83-2.82-1.31-1.08-2.28-1.08-1.71.36-2.26,1.08-.83,1.66-.83,2.82.27,2.1.82,2.83c.55.72,1.3,1.08,2.27,1.08s1.73-.36,2.28-1.08Z"/><path class="o" d="M582.19,734.57c-.67-.56-1.11-1.24-1.32-2.04l1.45-.78c.21.67.51,1.19.91,1.55.4.36.93.55,1.58.55.52,0,.93-.14,1.23-.42s.45-.67.45-1.18c0-.45-.19-.81-.58-1.09-.38-.28-.96-.56-1.71-.84-.84-.31-1.49-.69-1.94-1.15s-.68-1.08-.68-1.85c0-.84.29-1.52.87-2.05.58-.53,1.32-.79,2.22-.79,1.36,0,2.38.55,3.07,1.66l-1.13,1.01c-.48-.74-1.13-1.11-1.95-1.11-.39,0-.72.12-.99.35-.27.23-.4.54-.4.93s.17.72.51.98c.34.26.96.55,1.84.87,1.72.63,2.58,1.64,2.58,3.02,0,.99-.31,1.78-.92,2.35s-1.44.86-2.46.86c-1.08,0-1.95-.28-2.62-.84Z"/><path class="o" d="M599.37,730.22h-7.79c.04,1.08.34,1.95.88,2.62.55.67,1.29,1.01,2.23,1.01.73,0,1.32-.16,1.79-.48.46-.32.87-.85,1.24-1.57l1.47.63c-.5,1.04-1.12,1.79-1.84,2.27-.72.48-1.62.71-2.7.71-.99,0-1.86-.25-2.58-.75-.73-.5-1.29-1.16-1.67-2s-.58-1.74-.58-2.72.19-1.91.58-2.74.94-1.49,1.67-1.98c.73-.49,1.59-.74,2.58-.74s1.81.22,2.52.67c.71.45,1.26,1.05,1.64,1.81s.57,1.6.57,2.52v.74ZM597.61,728.73c-.13-.83-.44-1.48-.95-1.96-.5-.48-1.18-.72-2.02-.72-.73,0-1.36.23-1.89.69-.53.46-.89,1.13-1.07,2h5.92Z"/><path class="o" d="M603.19,734.56c-.55-.57-.82-1.42-.82-2.55v-5.8h-1.79v-1.55h1.79v-3.17l1.74-1.11v4.28h2.83v1.55h-2.83v5.92c0,1.15.49,1.72,1.47,1.72.48,0,.88-.1,1.22-.29l.44,1.47c-.5.25-1.11.38-1.81.38-.95,0-1.7-.28-2.25-.85Z"/><path class="o" d="M616.39,734.66c-.78-.5-1.37-1.17-1.79-2.01-.41-.84-.62-1.74-.62-2.71s.21-1.87.62-2.71c.41-.84,1.01-1.51,1.79-2,.78-.5,1.68-.75,2.7-.75s1.92.25,2.69.75c.77.5,1.36,1.17,1.78,2,.41.84.62,1.74.62,2.71s-.21,1.87-.62,2.71c-.41.84-1,1.51-1.78,2.01-.77.5-1.67.75-2.69.75s-1.92-.25-2.7-.75ZM620.86,733.31c.5-.36.87-.84,1.12-1.44.25-.59.38-1.24.38-1.92s-.13-1.33-.38-1.92c-.25-.6-.63-1.07-1.12-1.44s-1.09-.55-1.77-.55-1.28.18-1.77.55-.88.84-1.13,1.44c-.26.59-.39,1.24-.39,1.92s.13,1.33.39,1.92c.26.59.64,1.07,1.13,1.44s1.09.55,1.77.55,1.28-.18,1.77-.55Z"/><path class="o" d="M625.37,726.21v-1.55h1.58v-.63c0-1.23.3-2.15.89-2.75.59-.6,1.43-.9,2.51-.9.57,0,1.07.11,1.49.32l-.38,1.49c-.36-.17-.74-.25-1.13-.25-.53,0-.94.16-1.23.47-.29.31-.43.79-.43,1.42v.84h2.46v1.55h-2.46v9.03h-1.72v-9.03h-1.58Z"/><path class="o" d="M640.03,734.56c-.55-.57-.82-1.42-.82-2.55v-5.8h-1.79v-1.55h1.79v-3.17l1.74-1.11v4.28h2.84v1.55h-2.84v5.92c0,1.15.49,1.72,1.47,1.72.48,0,.88-.1,1.22-.29l.44,1.47c-.5.25-1.11.38-1.81.38-.95,0-1.7-.28-2.25-.85Z"/><path class="o" d="M647.67,720.37v6.41c.35-.73.85-1.29,1.51-1.69.66-.4,1.36-.6,2.12-.6,1.04,0,1.84.29,2.42.87s.87,1.42.87,2.51v7.37h-1.72v-6.95c0-.73-.17-1.28-.5-1.67s-.83-.58-1.49-.58c-.57,0-1.11.19-1.6.56-.49.37-.88.91-1.18,1.63s-.44,1.55-.44,2.52v4.49h-1.74v-14.87h1.74Z"/><path class="o" d="M666.7,730.22h-7.79c.04,1.08.34,1.95.88,2.62s1.29,1.01,2.23,1.01c.73,0,1.32-.16,1.79-.48.46-.32.88-.85,1.24-1.57l1.47.63c-.5,1.04-1.12,1.79-1.84,2.27-.72.48-1.62.71-2.7.71-.99,0-1.85-.25-2.58-.75-.73-.5-1.28-1.16-1.67-2-.39-.83-.58-1.74-.58-2.72s.19-1.91.58-2.74c.38-.83.94-1.49,1.67-1.98.73-.49,1.59-.74,2.58-.74s1.81.22,2.52.67c.71.45,1.26,1.05,1.64,1.81s.57,1.6.57,2.52v.74ZM664.93,728.73c-.13-.83-.44-1.48-.94-1.96-.5-.48-1.18-.72-2.02-.72-.73,0-1.36.23-1.89.69s-.89,1.13-1.07,2h5.92Z"/><path class="o" d="M681.77,733.92c-.34.46-.78.83-1.32,1.09s-1.13.4-1.76.4c-1.01,0-1.87-.23-2.59-.7-.72-.47-1.26-1.12-1.63-1.94s-.55-1.76-.55-2.81.18-1.99.55-2.81.91-1.47,1.63-1.94c.72-.47,1.58-.7,2.59-.7.64,0,1.26.15,1.84.44s1,.63,1.25,1.01v-1.28h1.72v14.87h-1.72v-5.61ZM681.1,732.77c.55-.72.82-1.66.82-2.83s-.27-2.12-.82-2.83-1.3-1.07-2.27-1.07-1.73.36-2.28,1.08c-.55.72-.83,1.66-.83,2.82s.28,2.1.83,2.83c.55.72,1.31,1.08,2.28,1.08s1.72-.36,2.27-1.08Z"/><path class="o" d="M687.53,734.53c-.59-.59-.88-1.42-.88-2.5v-7.37h1.74v6.99c0,.73.16,1.28.49,1.65s.81.56,1.44.56c.57,0,1.1-.19,1.58-.57s.85-.92,1.12-1.64c.27-.71.41-1.55.41-2.5v-4.49h1.72v10.58h-1.72v-2.04c-.38.67-.88,1.21-1.5,1.61-.62.4-1.3.6-2.03.6-.99,0-1.79-.29-2.37-.88Z"/><path class="o" d="M698.66,734.6c-.62-.54-.92-1.34-.92-2.4,0-1.12.42-1.98,1.25-2.57s1.98-.89,3.43-.89h1.85v-.46c0-.77-.21-1.33-.62-1.69-.41-.36-.96-.54-1.63-.54-1.16,0-1.93.57-2.31,1.72l-1.55-.36c.14-.88.57-1.59,1.29-2.12.72-.53,1.58-.8,2.57-.8,1.19,0,2.15.35,2.88,1.04.73.69,1.09,1.67,1.09,2.93v6.78h-1.37l-.31-1.53c-.73,1.13-1.83,1.7-3.3,1.7-.95,0-1.74-.27-2.35-.81ZM702.71,733.51c.45-.23.82-.59,1.11-1.09s.44-1.12.44-1.86v-.34h-1.79c-.98,0-1.71.17-2.21.5s-.74.82-.74,1.45c0,.53.16.94.47,1.24.32.29.75.44,1.31.44.48,0,.94-.12,1.39-.35Z"/><path class="o" d="M710.63,724.66v2.04c.38-.67.88-1.21,1.5-1.61s1.29-.6,2.01-.6c.99,0,1.78.29,2.37.88.59.59.88,1.42.88,2.5v7.37h-1.72v-6.99c0-.73-.16-1.28-.49-1.65-.33-.37-.82-.56-1.46-.56-.57,0-1.09.19-1.56.57-.47.38-.84.92-1.11,1.63-.27.71-.41,1.54-.41,2.49v4.51h-1.74v-10.58h1.74Z"/><path class="o" d="M721.63,734.56c-.55-.57-.82-1.42-.82-2.55v-5.8h-1.79v-1.55h1.79v-3.17l1.74-1.11v4.28h2.83v1.55h-2.83v5.92c0,1.15.49,1.72,1.47,1.72.48,0,.88-.1,1.22-.29l.44,1.47c-.5.25-1.11.38-1.81.38-.95,0-1.7-.28-2.25-.85Z"/><path class="o" d="M727.73,722.5c-.25-.25-.37-.54-.37-.89s.12-.67.37-.9c.25-.24.54-.36.89-.36s.67.12.91.36c.24.24.37.54.37.9s-.12.67-.37.9c-.25.24-.55.36-.91.36s-.65-.12-.89-.37ZM727.76,724.66h1.74v10.58h-1.74v-10.58Z"/><path class="o" d="M731.79,734.48l5.12-8.27h-4.85v-1.55h7.08v.82l-5.08,8.21h5.33v1.55h-7.6v-.76Z"/><path class="o" d="M750.38,730.22h-7.79c.04,1.08.34,1.95.88,2.62.55.67,1.29,1.01,2.23,1.01.73,0,1.32-.16,1.79-.48.46-.32.87-.85,1.24-1.57l1.47.63c-.5,1.04-1.12,1.79-1.84,2.27-.72.48-1.62.71-2.7.71-.99,0-1.86-.25-2.58-.75-.73-.5-1.29-1.16-1.67-2s-.58-1.74-.58-2.72.19-1.91.58-2.74.94-1.49,1.67-1.98c.73-.49,1.59-.74,2.58-.74s1.81.22,2.52.67c.71.45,1.26,1.05,1.64,1.81s.57,1.6.57,2.52v.74ZM748.62,728.73c-.13-.83-.44-1.48-.95-1.96-.5-.48-1.18-.72-2.02-.72-.73,0-1.36.23-1.89.69-.53.46-.89,1.13-1.07,2h5.92Z"/><path class="o" d="M754.47,734.7c-.7-.47-1.23-1.12-1.6-1.94s-.55-1.76-.55-2.81.18-1.99.55-2.81.9-1.47,1.6-1.94c.7-.47,1.55-.7,2.54-.7.67,0,1.28.13,1.83.4s.99.63,1.34,1.09v-5.61h1.72v14.87h-1.72v-1.39c-.27.42-.69.78-1.28,1.09s-1.22.46-1.89.46c-.99,0-1.84-.23-2.54-.7ZM759.51,732.78c.55-.71.82-1.66.82-2.83s-.27-2.1-.82-2.82-1.3-1.08-2.27-1.08-1.73.36-2.28,1.08c-.55.72-.83,1.66-.83,2.82s.28,2.1.83,2.83c.55.72,1.31,1.08,2.28,1.08s1.72-.36,2.27-1.07Z"/><path class="o" d="M512.83,749.86v2.04c.36-.69.82-1.22,1.37-1.62.55-.39,1.18-.59,1.89-.59.76,0,1.38.19,1.88.58.5.38.84.96,1.02,1.71.36-.69.85-1.24,1.45-1.66.6-.42,1.25-.63,1.93-.63,2.03,0,3.04,1.13,3.04,3.4v7.35h-1.72v-7.08c0-.73-.13-1.26-.4-1.61-.27-.34-.7-.51-1.3-.51-.53,0-1.02.19-1.45.57-.43.38-.78.92-1.04,1.64-.26.71-.39,1.55-.39,2.52v4.47h-1.72v-7.08c0-.73-.13-1.26-.39-1.61-.26-.34-.7-.51-1.31-.51-.53,0-1.01.19-1.45.57-.43.38-.78.93-1.03,1.66-.25.73-.38,1.59-.38,2.58v4.39h-1.74v-10.58h1.74Z"/><path class="o" d="M530.35,759.86c-.78-.5-1.37-1.17-1.79-2.01-.41-.84-.62-1.74-.62-2.71s.21-1.87.62-2.71c.41-.84,1.01-1.51,1.79-2,.78-.5,1.68-.75,2.7-.75s1.92.25,2.69.75c.77.5,1.36,1.17,1.78,2,.41.84.62,1.74.62,2.71s-.21,1.87-.62,2.71c-.41.84-1,1.51-1.78,2.01-.77.5-1.67.75-2.69.75s-1.92-.25-2.7-.75ZM534.83,758.51c.5-.36.87-.84,1.12-1.44.25-.59.38-1.24.38-1.92s-.13-1.33-.38-1.92c-.25-.6-.63-1.07-1.12-1.44s-1.09-.55-1.77-.55-1.28.18-1.77.55-.88.84-1.13,1.44c-.26.59-.39,1.24-.39,1.92s.13,1.33.39,1.92c.26.59.64,1.07,1.13,1.44s1.09.55,1.77.55,1.28-.18,1.77-.55Z"/><path class="o" d="M542.21,759.9c-.7-.47-1.23-1.12-1.6-1.94s-.55-1.76-.55-2.81.18-1.99.55-2.81.9-1.47,1.6-1.94c.7-.47,1.55-.7,2.54-.7.67,0,1.28.13,1.83.4s.99.63,1.34,1.09v-5.61h1.72v14.87h-1.72v-1.39c-.27.42-.69.78-1.28,1.09s-1.22.46-1.89.46c-.99,0-1.84-.23-2.54-.7ZM547.25,757.98c.55-.71.82-1.66.82-2.83s-.27-2.1-.82-2.82-1.3-1.08-2.27-1.08-1.73.36-2.28,1.08c-.55.72-.83,1.66-.83,2.82s.28,2.1.83,2.83c.55.72,1.31,1.08,2.28,1.08s1.72-.36,2.27-1.07Z"/><path class="o" d="M561.74,755.42h-7.79c.04,1.08.34,1.95.88,2.62.55.67,1.29,1.01,2.23,1.01.73,0,1.32-.16,1.79-.48.46-.32.87-.85,1.24-1.57l1.47.63c-.5,1.04-1.12,1.79-1.84,2.27-.72.48-1.62.71-2.7.71-.99,0-1.86-.25-2.58-.75-.73-.5-1.29-1.16-1.67-2s-.58-1.74-.58-2.72.19-1.91.58-2.74.94-1.49,1.67-1.98c.73-.49,1.59-.74,2.58-.74s1.81.22,2.52.67c.71.45,1.26,1.05,1.64,1.81s.57,1.6.57,2.52v.74ZM559.97,753.93c-.13-.83-.44-1.48-.95-1.96-.5-.48-1.18-.72-2.02-.72-.73,0-1.36.23-1.89.69-.53.46-.89,1.13-1.07,2h5.92Z"/><path class="o" d="M564.3,745.57h1.74v14.87h-1.74v-14.87Z"/><path class="o" d="M569.76,745.57h2.46l-2.58,4.26h-1.26l1.39-4.26Z"/><path class="o" d="M573.16,759.77c-.67-.56-1.11-1.24-1.32-2.04l1.45-.78c.21.67.51,1.19.91,1.55.4.36.93.55,1.58.55.52,0,.93-.14,1.23-.42s.45-.67.45-1.18c0-.45-.19-.81-.58-1.09-.38-.28-.96-.56-1.71-.84-.84-.31-1.49-.69-1.94-1.15s-.68-1.08-.68-1.85c0-.84.29-1.52.87-2.05.58-.53,1.32-.79,2.22-.79,1.36,0,2.38.55,3.07,1.66l-1.13,1.01c-.48-.74-1.13-1.11-1.95-1.11-.39,0-.72.12-.99.35-.27.23-.4.54-.4.93s.17.72.51.98c.34.26.96.55,1.84.87,1.72.63,2.58,1.64,2.58,3.02,0,.99-.31,1.78-.92,2.35s-1.44.86-2.46.86c-1.08,0-1.95-.28-2.62-.84Z"/><path class="o" d="M588.66,749.86v1.37c.25-.41.66-.76,1.23-1.07.57-.31,1.19-.46,1.86-.46,1.01,0,1.87.23,2.58.7.71.47,1.25,1.12,1.62,1.94.36.83.55,1.76.55,2.81s-.18,1.99-.55,2.81c-.36.83-.9,1.47-1.62,1.94s-1.58.7-2.58.7c-.6,0-1.19-.14-1.76-.41-.57-.27-1.02-.63-1.32-1.08v5.61h-1.74v-14.87h1.74ZM593.86,757.97c.55-.72.83-1.66.83-2.83s-.28-2.1-.83-2.82-1.31-1.08-2.28-1.08-1.72.36-2.27,1.08c-.55.72-.82,1.66-.82,2.82s.28,2.1.83,2.83c.55.72,1.31,1.08,2.26,1.08s1.73-.36,2.28-1.08Z"/><path class="o" d="M599.26,759.8c-.62-.54-.92-1.34-.92-2.4,0-1.12.42-1.98,1.25-2.57s1.98-.89,3.43-.89h1.85v-.46c0-.77-.21-1.33-.62-1.69-.41-.36-.96-.54-1.63-.54-1.16,0-1.93.57-2.31,1.72l-1.55-.36c.14-.88.57-1.59,1.29-2.12.72-.53,1.58-.8,2.57-.8,1.19,0,2.15.35,2.88,1.04.73.69,1.09,1.67,1.09,2.93v6.78h-1.37l-.31-1.53c-.73,1.13-1.83,1.7-3.3,1.7-.95,0-1.74-.27-2.35-.81ZM603.32,758.71c.45-.23.82-.59,1.11-1.09s.44-1.12.44-1.86v-.34h-1.79c-.98,0-1.71.17-2.21.5s-.74.82-.74,1.45c0,.53.16.94.47,1.24.32.29.75.44,1.31.44.48,0,.94-.12,1.39-.35Z"/><path class="o" d="M611.23,749.86v1.83c.34-.64.77-1.14,1.3-1.48.53-.34,1.13-.51,1.81-.51.46,0,.96.11,1.49.32l-.36,1.62c-.43-.24-.89-.36-1.37-.36-.84,0-1.53.44-2.07,1.32s-.81,2.17-.81,3.86v3.99h-1.74v-10.58h1.74Z"/><path class="o" d="M617.51,759.8c-.62-.54-.92-1.34-.92-2.4,0-1.12.42-1.98,1.25-2.57s1.98-.89,3.43-.89h1.85v-.46c0-.77-.21-1.33-.62-1.69-.41-.36-.96-.54-1.63-.54-1.16,0-1.93.57-2.31,1.72l-1.55-.36c.14-.88.57-1.59,1.29-2.12.72-.53,1.58-.8,2.57-.8,1.19,0,2.15.35,2.88,1.04.73.69,1.09,1.67,1.09,2.93v6.78h-1.37l-.31-1.53c-.73,1.13-1.83,1.7-3.3,1.7-.95,0-1.74-.27-2.35-.81ZM621.57,758.71c.45-.23.82-.59,1.11-1.09s.44-1.12.44-1.86v-.34h-1.79c-.98,0-1.71.17-2.21.5s-.74.82-.74,1.45c0,.53.16.94.47,1.24.32.29.75.44,1.31.44.48,0,.94-.12,1.39-.35Z"/><path class="o" d="M629.48,749.86v2.04c.36-.69.82-1.22,1.37-1.62.55-.39,1.18-.59,1.89-.59.76,0,1.38.19,1.88.58.5.38.84.96,1.02,1.71.36-.69.85-1.24,1.45-1.66.6-.42,1.25-.63,1.93-.63,2.03,0,3.04,1.13,3.04,3.4v7.35h-1.72v-7.08c0-.73-.13-1.26-.4-1.61-.27-.34-.7-.51-1.3-.51-.53,0-1.01.19-1.45.57-.43.38-.78.92-1.04,1.64-.26.71-.39,1.55-.39,2.52v4.47h-1.72v-7.08c0-.73-.13-1.26-.39-1.61-.26-.34-.7-.51-1.31-.51-.53,0-1.02.19-1.45.57s-.78.93-1.03,1.66c-.25.73-.38,1.59-.38,2.58v4.39h-1.74v-10.58h1.74Z"/><path class="o" d="M654.16,755.42h-7.79c.04,1.08.34,1.95.88,2.62.55.67,1.29,1.01,2.23,1.01.73,0,1.32-.16,1.79-.48.46-.32.87-.85,1.24-1.57l1.47.63c-.5,1.04-1.12,1.79-1.84,2.27-.72.48-1.62.71-2.7.71-.99,0-1.86-.25-2.58-.75-.73-.5-1.29-1.16-1.67-2s-.58-1.74-.58-2.72.19-1.91.58-2.74.94-1.49,1.67-1.98c.73-.49,1.59-.74,2.58-.74s1.81.22,2.52.67c.71.45,1.26,1.05,1.64,1.81s.57,1.6.57,2.52v.74ZM652.39,753.93c-.13-.83-.44-1.48-.95-1.96-.5-.48-1.18-.72-2.02-.72-.73,0-1.36.23-1.89.69-.53.46-.89,1.13-1.07,2h5.92Z"/><path class="o" d="M657.98,759.76c-.55-.57-.82-1.42-.82-2.55v-5.8h-1.79v-1.55h1.79v-3.17l1.74-1.11v4.28h2.83v1.55h-2.83v5.92c0,1.15.49,1.72,1.47,1.72.48,0,.88-.1,1.22-.29l.44,1.47c-.5.25-1.11.38-1.81.38-.95,0-1.7-.28-2.25-.85Z"/><path class="o" d="M672.55,755.42h-7.79c.04,1.08.34,1.95.88,2.62s1.29,1.01,2.23,1.01c.73,0,1.32-.16,1.79-.48.46-.32.88-.85,1.24-1.57l1.47.63c-.5,1.04-1.12,1.79-1.84,2.27-.72.48-1.62.71-2.7.71-.99,0-1.85-.25-2.58-.75-.73-.5-1.28-1.16-1.67-2-.39-.83-.58-1.74-.58-2.72s.19-1.91.58-2.74c.38-.83.94-1.49,1.67-1.98.73-.49,1.59-.74,2.58-.74s1.81.22,2.52.67c.71.45,1.26,1.05,1.64,1.81s.57,1.6.57,2.52v.74ZM670.79,753.93c-.13-.83-.44-1.48-.94-1.96-.5-.48-1.18-.72-2.02-.72-.73,0-1.36.23-1.89.69s-.89,1.13-1.07,2h5.92Z"/><path class="o" d="M676.86,749.86v1.83c.34-.64.77-1.14,1.3-1.48.53-.34,1.13-.51,1.81-.51.46,0,.96.11,1.49.32l-.36,1.62c-.43-.24-.89-.36-1.37-.36-.84,0-1.53.44-2.07,1.32-.54.88-.81,2.17-.81,3.86v3.99h-1.74v-10.58h1.74Z"/><path class="o" d="M683.58,759.77c-.67-.56-1.11-1.24-1.32-2.04l1.45-.78c.21.67.51,1.19.91,1.55.4.36.93.55,1.58.55.52,0,.93-.14,1.23-.42s.45-.67.45-1.18c0-.45-.19-.81-.58-1.09-.38-.28-.96-.56-1.71-.84-.84-.31-1.49-.69-1.94-1.15s-.68-1.08-.68-1.85c0-.84.29-1.52.87-2.05.58-.53,1.32-.79,2.22-.79,1.36,0,2.38.55,3.07,1.66l-1.13,1.01c-.48-.74-1.13-1.11-1.95-1.11-.39,0-.72.12-.99.35-.27.23-.4.54-.4.93s.17.72.51.98c.34.26.96.55,1.84.87,1.72.63,2.58,1.64,2.58,3.02,0,.99-.31,1.78-.92,2.35s-1.44.86-2.46.86c-1.08,0-1.95-.28-2.62-.84Z"/><rect class="l" x="923.8" y="230.15" width="163.46" height="114.04" rx="8" ry="8"/><path class="q" d="M961.76,251.91h17.78v4.64h-6.19v16.81h6.19v4.64h-17.78v-4.64h6.19v-16.81h-6.19v-4.64Z"/><path class="q" d="M995.67,251.91h7.77v26.1h-5.29v-11.88l.11-9.79h-.22l-2.23,13.28h-3.82l-2.2-13.28h-.25l.11,9.79v11.88h-5.29v-26.1h7.77l1.76,11.05,1.76-11.05Z"/><path class="q" d="M1014.42,251.91c7.09,0,12.6,3.06,12.6,13.03s-5.62,13.07-12.74,13.07h-5.98v-26.1h6.12ZM1014.17,256.3h-.47v17.28h.47c4.39,0,7.13-1.76,7.13-8.64s-2.74-8.64-7.13-8.64Z"/><path class="q" d="M1036.78,261.09c.9-1.8,2.7-2.88,4.93-2.88,4.43,0,7.88,3.53,7.88,10.15s-3.46,10.11-7.88,10.11c-2.23,0-4.03-1.08-4.93-2.88l-.04,2.41h-5.11v-26.1h5.15v9.18ZM1040.56,274.66c2.45,0,3.85-2.41,3.85-6.3s-1.4-6.34-3.85-6.34-4,2.27-4,6.34,1.51,6.3,4,6.3Z"/><path class="q" d="M962.37,295.11h8.1c5.04,0,8.86,1.3,8.86,6.73,0,2.23-1.08,4.17-2.81,5.36,2.12.94,3.71,2.74,3.71,5.9,0,5.83-3.78,8.1-9.32,8.1h-8.53v-26.1ZM970.4,305.84c2.2,0,3.28-1.08,3.28-3.17s-1.08-3.17-3.28-3.17h-2.63v6.33h2.63ZM970.68,309.8h-2.92v6.95h2.92c2.66,0,3.82-1.15,3.82-3.46s-1.15-3.49-3.82-3.49Z"/><path class="q" d="M986.13,295.11h15.8v4.64h-10.4v5.79h9.68v4.64h-9.68v6.37h10.4v4.64h-15.8v-26.1Z"/><path class="q" d="M1015.87,310.63h-2.05v10.58h-5.4v-26.1h6.95c5.94,0,10.44,1.26,10.44,7.74,0,3.74-1.94,5.62-4.68,6.62l5.83,11.73h-5.94l-5.15-10.58ZM1013.81,299.5v6.88h1.73c2.56,0,4.54-.61,4.54-3.42s-1.98-3.46-4.54-3.46h-1.73Z"/><path class="q" d="M1037.72,299.76h-7.38v-4.64h20.16v4.64h-7.38v21.45h-5.4v-21.45Z"/><rect class="l" x="1028.55" y="420.45" width="139.17" height="97.09" rx="8" ry="8"/><path class="q" d="M1042.41,447.65h10.09v2.64h-3.51v9.54h3.51v2.64h-10.09v-2.64h3.51v-9.54h-3.51v-2.64Z"/><path class="q" d="M1061.15,447.65h4.41v14.81h-3v-6.74l.06-5.56h-.12l-1.27,7.54h-2.17l-1.25-7.54h-.14l.06,5.56v6.74h-3v-14.81h4.41l1,6.27,1-6.27Z"/><path class="q" d="M1071.29,447.65c4.02,0,7.15,1.74,7.15,7.4s-3.19,7.42-7.23,7.42h-3.39v-14.81h3.47ZM1071.14,450.15h-.27v9.81h.27c2.49,0,4.05-1,4.05-4.9s-1.55-4.9-4.05-4.9Z"/><path class="q" d="M1083.46,452.86c.51-1.02,1.53-1.63,2.8-1.63,2.51,0,4.47,2,4.47,5.76s-1.96,5.74-4.47,5.74c-1.27,0-2.29-.61-2.8-1.63l-.02,1.37h-2.9v-14.81h2.92v5.21ZM1085.61,460.57c1.39,0,2.19-1.37,2.19-3.58s-.8-3.6-2.19-3.6-2.27,1.29-2.27,3.6.86,3.58,2.27,3.58Z"/><path class="q" d="M1109.52,459.83h6.91v2.64h-9.97v-14.81h3.06v12.18Z"/><path class="q" d="M1123.6,462.73c-2.7,0-5.25-1.55-5.25-5.76s2.55-5.74,5.25-5.74,5.25,1.53,5.25,5.74-2.57,5.76-5.25,5.76ZM1123.6,453.39c-1.41,0-2.31,1.04-2.31,3.58s.9,3.6,2.31,3.6,2.31-1.06,2.31-3.6-.9-3.58-2.31-3.58Z"/><path class="q" d="M1135.55,456.46h-1.17v6.01h-3.06v-14.81h3.94c3.37,0,5.92.71,5.92,4.39,0,2.12-1.1,3.19-2.66,3.76l3.31,6.66h-3.37l-2.92-6.01ZM1134.38,450.15v3.9h.98c1.45,0,2.57-.35,2.57-1.94s-1.12-1.96-2.57-1.96h-.98Z"/><path class="q" d="M1147.05,447.65h3.82l3.82,14.81h-3.35l-.67-3.08h-3.47l-.67,3.08h-3.27l3.8-14.81ZM1147.73,456.99h2.41l-1.18-5.43-1.23,5.43Z"/><path class="q" d="M1062.38,482.96l.51-10.79h3.21l-.92,14.81h-3.76l-1.29-7.54-1.27,7.54h-3.76l-.92-14.81h3.21l.49,10.79,1.1-6.84h2.29l1.1,6.84Z"/><path class="q" d="M1070.47,482.25c.1,2.02,1.21,2.92,2.43,2.92s1.86-.59,2.08-1.61h2.8c-.31,1.86-1.96,3.7-4.92,3.7-3.43,0-5.21-2.29-5.21-5.66s1.9-5.84,5.17-5.84,5.25,2.45,5.15,6.5h-7.5ZM1070.47,480.39h4.7c-.06-2-1.23-2.53-2.39-2.53-.94,0-2.15.67-2.31,2.53Z"/><path class="q" d="M1080.91,486.99v-2.21h3.19v-6.58h-3.19v-2.21h6.13v8.79h3.21v2.21h-9.34ZM1087.04,472.17v2.72h-2.94v-2.72h2.94Z"/><path class="q" d="M1100.28,475.99h2.92v9.87c0,3.62-1.92,4.94-5.09,4.94-2.21,0-4.27-.88-4.62-3.53h2.7c.18.94.78,1.43,1.94,1.43,1.47,0,2.15-.98,2.15-2.33v-1.18c-.53,1-1.55,1.61-2.82,1.61-2.51,0-4.45-1.96-4.45-5.52s1.94-5.54,4.45-5.54c1.27,0,2.29.61,2.82,1.63v-1.39ZM1098.11,477.92c-1.39,0-2.17,1.39-2.17,3.37s.78,3.37,2.17,3.37,2.27-1.27,2.27-3.37-.86-3.37-2.27-3.37Z"/><path class="q" d="M1109.09,472.17v5.11c.63-.98,1.65-1.53,2.94-1.53,2.53,0,3.56,1.7,3.56,4.33v6.91h-2.94v-6.42c0-1.17-.1-2.55-1.59-2.55-1.65,0-1.96,1.47-1.96,3.15v5.82h-2.94v-14.81h2.94Z"/><path class="q" d="M1120.98,473.05h2.94v2.94h4.29v2.23h-4.29v5.31c0,1.04.35,1.25,1.21,1.25h3.04v2.21h-4.13c-2.39,0-3.06-.8-3.06-2.98v-5.78h-3.19v-2.23h3.19v-2.94Z"/><path class="q" d="M1138.25,479.26c-.2-.96-.98-1.37-2.25-1.37-.9,0-1.61.37-1.61.96s.63.98,1.43,1.19l1.21.29c2.17.51,3.88,1.1,3.88,3.29,0,2.33-2.12,3.64-4.58,3.64-2.62,0-4.47-1.45-4.74-3.96h2.59c.12,1.12.92,1.8,2.27,1.8,1.1,0,1.78-.39,1.78-1.12s-.78-1.06-1.7-1.29l-1.31-.31c-2-.47-3.37-1.37-3.37-3.31,0-2.12,1.92-3.31,4.31-3.31,2.02,0,4.23,1,4.62,3.51h-2.53Z"/><rect class="l" x="1028.55" y="602.45" width="139.17" height="97.09" rx="8" ry="8"/><path class="q" d="M1047.46,619.24c4,0,5.8,3.06,5.8,7.66,0,2.66-.59,4.8-1.88,6.15l1.72,2.43-1.65,1.21-1.74-2.49c-.65.25-1.41.39-2.25.39-4,0-5.8-3.08-5.8-7.68s1.8-7.66,5.8-7.66ZM1047.46,632.17c.27,0,.53-.04.76-.12l-1.66-2.39,1.63-1.21,1.37,1.96c.31-.9.45-2.1.45-3.51,0-3.13-.65-5.25-2.55-5.25s-2.55,2.12-2.55,5.25.67,5.27,2.55,5.27Z"/><path class="q" d="M1061.97,633.11c-.63,1-1.63,1.47-2.8,1.47-2.66,0-3.7-1.7-3.7-4.33v-6.93h2.94v6.44c0,1.17.12,2.55,1.61,2.55,1.63,0,1.94-1.47,1.94-3.15v-5.84h2.94v10.99h-2.94v-1.21Z"/><path class="q" d="M1071.35,634.58c-1.88,0-3.72-1.21-3.72-3.21,0-2.8,3.21-3.37,6.91-3.84v-.25c0-1.7-.74-2.27-1.94-2.27s-1.96.57-2.04,1.78h-2.64c.2-2.17,1.98-3.76,4.78-3.76s4.66,1.1,4.66,4.82c0,.35-.04,1.82-.04,2.82,0,3.02.12,3.31.22,3.64h-2.68l-.02-1.41c-.78,1.17-1.9,1.68-3.49,1.68ZM1074.62,629.33c-2.84.29-4.09.61-4.09,1.92,0,.82.55,1.33,1.61,1.33,1.84,0,2.47-1.19,2.47-2.96v-.29Z"/><path class="q" d="M1083.71,623.33v1.29c.63-.98,1.63-1.53,2.92-1.53,2.53,0,3.58,1.7,3.58,4.33v6.91h-2.94v-6.42c0-1.17-.12-2.55-1.61-2.55-1.65,0-1.94,1.47-1.94,3.15v5.82h-2.94v-10.99h2.94Z"/><path class="q" d="M1095.6,620.38h2.94v2.94h4.29v2.23h-4.29v5.31c0,1.04.35,1.25,1.21,1.25h3.04v2.21h-4.13c-2.39,0-3.06-.8-3.06-2.98v-5.78h-3.19v-2.23h3.19v-2.94Z"/><path class="q" d="M1106.29,634.32v-2.21h3.19v-6.58h-3.19v-2.21h6.13v8.79h3.21v2.21h-9.34ZM1112.42,619.51v2.72h-2.94v-2.72h2.94Z"/><path class="q" d="M1118.96,632.17l5.7-6.62h-5.27v-2.23h8.62v2.15l-5.74,6.64h5.88v2.21h-9.19v-2.15Z"/><path class="q" d="M1133.92,629.58c.1,2.02,1.21,2.92,2.43,2.92s1.86-.59,2.08-1.61h2.8c-.31,1.86-1.96,3.7-4.92,3.7-3.43,0-5.21-2.29-5.21-5.66s1.9-5.84,5.17-5.84,5.25,2.45,5.15,6.5h-7.5ZM1133.92,627.72h4.7c-.06-2-1.23-2.53-2.39-2.53-.94,0-2.15.67-2.31,2.53Z"/><path class="q" d="M1151.04,619.51h2.92v14.81h-2.9l-.02-1.37c-.53,1.02-1.55,1.63-2.82,1.63-2.51,0-4.45-1.98-4.45-5.74s1.94-5.76,4.45-5.76c1.27,0,2.29.61,2.82,1.63v-5.21ZM1148.87,625.25c-1.39,0-2.17,1.39-2.17,3.6s.78,3.58,2.17,3.58,2.27-1.27,2.27-3.58-.86-3.6-2.27-3.6Z"/><path class="q" d="M1042.41,644.03h10.09v2.64h-3.51v9.54h3.51v2.64h-10.09v-2.64h3.51v-9.54h-3.51v-2.64Z"/><path class="q" d="M1061.15,644.03h4.41v14.81h-3v-6.74l.06-5.56h-.12l-1.27,7.54h-2.17l-1.25-7.54h-.14l.06,5.56v6.74h-3v-14.81h4.41l1,6.27,1-6.27Z"/><path class="q" d="M1071.29,644.03c4.02,0,7.15,1.74,7.15,7.4s-3.19,7.42-7.23,7.42h-3.39v-14.81h3.47ZM1071.14,646.52h-.27v9.81h.27c2.49,0,4.05-1,4.05-4.9s-1.55-4.9-4.05-4.9Z"/><path class="q" d="M1083.46,649.24c.51-1.02,1.53-1.63,2.8-1.63,2.51,0,4.47,2,4.47,5.76s-1.96,5.74-4.47,5.74c-1.27,0-2.29-.61-2.8-1.63l-.02,1.37h-2.9v-14.81h2.92v5.21ZM1085.61,656.94c1.39,0,2.19-1.37,2.19-3.58s-.8-3.6-2.19-3.6-2.27,1.29-2.27,3.6.86,3.58,2.27,3.58Z"/><path class="q" d="M1109.52,656.2h6.91v2.64h-9.97v-14.81h3.06v12.18Z"/><path class="q" d="M1123.6,659.1c-2.7,0-5.25-1.55-5.25-5.76s2.55-5.74,5.25-5.74,5.25,1.53,5.25,5.74-2.57,5.76-5.25,5.76ZM1123.6,649.77c-1.41,0-2.31,1.04-2.31,3.58s.9,3.6,2.31,3.6,2.31-1.06,2.31-3.6-.9-3.58-2.31-3.58Z"/><path class="q" d="M1135.55,652.83h-1.17v6.01h-3.06v-14.81h3.94c3.37,0,5.92.71,5.92,4.39,0,2.12-1.1,3.19-2.66,3.76l3.31,6.66h-3.37l-2.92-6.01ZM1134.38,646.52v3.9h.98c1.45,0,2.57-.35,2.57-1.94s-1.12-1.96-2.57-1.96h-.98Z"/><path class="q" d="M1147.05,644.03h3.82l3.82,14.81h-3.35l-.67-3.08h-3.47l-.67,3.08h-3.27l3.8-14.81ZM1147.73,653.36h2.41l-1.18-5.43-1.23,5.43Z"/><path class="q" d="M1062.38,679.33l.51-10.79h3.21l-.92,14.81h-3.76l-1.29-7.54-1.27,7.54h-3.76l-.92-14.81h3.21l.49,10.79,1.1-6.84h2.29l1.1,6.84Z"/><path class="q" d="M1070.47,678.62c.1,2.02,1.21,2.92,2.43,2.92s1.86-.59,2.08-1.61h2.8c-.31,1.86-1.96,3.7-4.92,3.7-3.43,0-5.21-2.29-5.21-5.66s1.9-5.84,5.17-5.84,5.25,2.45,5.15,6.5h-7.5ZM1070.47,676.76h4.7c-.06-2-1.23-2.53-2.39-2.53-.94,0-2.15.67-2.31,2.53Z"/><path class="q" d="M1080.91,683.36v-2.21h3.19v-6.58h-3.19v-2.21h6.13v8.79h3.21v2.21h-9.34ZM1087.04,668.55v2.72h-2.94v-2.72h2.94Z"/><path class="q" d="M1100.28,672.37h2.92v9.87c0,3.62-1.92,4.94-5.09,4.94-2.21,0-4.27-.88-4.62-3.53h2.7c.18.94.78,1.43,1.94,1.43,1.47,0,2.15-.98,2.15-2.33v-1.18c-.53,1-1.55,1.61-2.82,1.61-2.51,0-4.45-1.96-4.45-5.52s1.94-5.54,4.45-5.54c1.27,0,2.29.61,2.82,1.63v-1.39ZM1098.11,674.29c-1.39,0-2.17,1.39-2.17,3.37s.78,3.37,2.17,3.37,2.27-1.27,2.27-3.37-.86-3.37-2.27-3.37Z"/><path class="q" d="M1109.09,668.55v5.11c.63-.98,1.65-1.53,2.94-1.53,2.53,0,3.56,1.7,3.56,4.33v6.91h-2.94v-6.42c0-1.17-.1-2.55-1.59-2.55-1.65,0-1.96,1.47-1.96,3.15v5.82h-2.94v-14.81h2.94Z"/><path class="q" d="M1120.98,669.43h2.94v2.94h4.29v2.23h-4.29v5.31c0,1.04.35,1.25,1.21,1.25h3.04v2.21h-4.13c-2.39,0-3.06-.8-3.06-2.98v-5.78h-3.19v-2.23h3.19v-2.94Z"/><path class="q" d="M1138.25,675.64c-.2-.96-.98-1.37-2.25-1.37-.9,0-1.61.37-1.61.96s.63.98,1.43,1.19l1.21.29c2.17.51,3.88,1.1,3.88,3.29,0,2.33-2.12,3.64-4.58,3.64-2.62,0-4.47-1.45-4.74-3.96h2.59c.12,1.12.92,1.8,2.27,1.8,1.1,0,1.78-.39,1.78-1.12s-.78-1.06-1.7-1.29l-1.31-.31c-2-.47-3.37-1.37-3.37-3.31,0-2.12,1.92-3.31,4.31-3.31,2.02,0,4.23,1,4.62,3.51h-2.53Z"/><rect class="l" x="175.81" y="230.15" width="163.46" height="114.04" rx="8" ry="8"/><path class="q" d="M214.37,273.77h8.1c5.04,0,8.86,1.3,8.86,6.73,0,2.23-1.08,4.17-2.81,5.36,2.12.94,3.71,2.74,3.71,5.9,0,5.83-3.78,8.1-9.32,8.1h-8.53v-26.1ZM222.4,284.5c2.2,0,3.28-1.08,3.28-3.17s-1.08-3.17-3.28-3.17h-2.63v6.33h2.63ZM222.69,288.46h-2.92v6.95h2.92c2.66,0,3.82-1.15,3.82-3.46s-1.15-3.49-3.82-3.49Z"/><path class="q" d="M238.13,273.77h15.8v4.64h-10.4v5.79h9.68v4.64h-9.68v6.37h10.4v4.64h-15.8v-26.1Z"/><path class="q" d="M267.87,289.28h-2.05v10.58h-5.4v-26.1h6.95c5.94,0,10.44,1.26,10.44,7.74,0,3.74-1.94,5.62-4.68,6.62l5.83,11.73h-5.94l-5.15-10.58ZM265.81,278.16v6.88h1.73c2.56,0,4.54-.61,4.54-3.42s-1.98-3.46-4.54-3.46h-1.73Z"/><path class="q" d="M289.72,278.41h-7.38v-4.64h20.16v4.64h-7.38v21.45h-5.4v-21.45Z"/><rect class="l" x="175.81" y="593.88" width="163.46" height="114.04" rx="8" ry="8"/><path class="q" d="M197.94,629.32h3.43v17.11h-3.43v-5.81c-.62,1.2-1.82,1.92-3.31,1.92-2.95,0-5.23-2.33-5.23-6.75s2.28-6.77,5.23-6.77c1.49,0,2.69.72,3.31,1.92v-1.63ZM195.4,631.58c-1.63,0-2.54,1.63-2.54,4.22s.91,4.2,2.54,4.2,2.66-1.49,2.66-4.2-1.01-4.22-2.66-4.22Z"/><path class="q" d="M213.16,640.82c-.74,1.18-1.92,1.73-3.29,1.73-3.12,0-4.34-1.99-4.34-5.09v-8.14h3.46v7.56c0,1.37.14,3,1.9,3,1.92,0,2.28-1.73,2.28-3.7v-6.86h3.46v12.91h-3.46v-1.42Z"/><path class="q" d="M224.78,642.55c-2.21,0-4.37-1.42-4.37-3.77,0-3.29,3.77-3.96,8.11-4.51v-.29c0-1.99-.86-2.66-2.28-2.66s-2.3.67-2.4,2.09h-3.1c.24-2.54,2.33-4.42,5.62-4.42s5.47,1.3,5.47,5.66c0,.41-.05,2.14-.05,3.31,0,3.55.14,3.89.26,4.27h-3.14l-.02-1.66c-.91,1.37-2.23,1.97-4.1,1.97ZM228.62,636.38c-3.34.34-4.8.72-4.8,2.26,0,.96.65,1.56,1.9,1.56,2.16,0,2.9-1.39,2.9-3.48v-.34Z"/><path class="q" d="M239.9,629.32v1.51c.74-1.15,1.92-1.8,3.43-1.8,2.98,0,4.2,1.99,4.2,5.09v8.11h-3.46v-7.54c0-1.37-.14-3-1.9-3-1.94,0-2.28,1.73-2.28,3.7v6.84h-3.46v-12.91h3.46Z"/><path class="q" d="M254.46,625.87h3.46v3.46h5.04v2.62h-5.04v6.24c0,1.22.41,1.46,1.42,1.46h3.58v2.59h-4.85c-2.81,0-3.6-.94-3.6-3.5v-6.79h-3.74v-2.62h3.74v-3.46Z"/><path class="q" d="M267.62,642.23v-2.59h3.74v-7.73h-3.74v-2.59h7.2v10.32h3.77v2.59h-10.97ZM274.82,624.83v3.19h-3.46v-3.19h3.46Z"/><path class="q" d="M283.1,639.71l6.7-7.78h-6.19v-2.62h10.13v2.52l-6.75,7.8h6.91v2.59h-10.8v-2.52Z"/><path class="q" d="M301.26,636.67c.12,2.38,1.42,3.43,2.86,3.43s2.18-.7,2.45-1.9h3.29c-.36,2.18-2.3,4.34-5.79,4.34-4.03,0-6.12-2.69-6.12-6.65s2.23-6.86,6.07-6.86,6.17,2.88,6.05,7.63h-8.81ZM301.26,634.48h5.52c-.07-2.35-1.44-2.98-2.81-2.98-1.1,0-2.52.79-2.71,2.98Z"/><path class="q" d="M321.98,624.83h3.43v17.4h-3.41l-.02-1.61c-.62,1.2-1.82,1.92-3.31,1.92-2.95,0-5.23-2.33-5.23-6.75s2.28-6.77,5.23-6.77c1.49,0,2.69.72,3.31,1.92v-6.12ZM319.43,631.58c-1.63,0-2.54,1.63-2.54,4.22s.91,4.2,2.54,4.2,2.66-1.49,2.66-4.2-1.01-4.22-2.66-4.22Z"/><path class="q" d="M214.37,652.14h8.1c5.04,0,8.86,1.3,8.86,6.73,0,2.23-1.08,4.17-2.81,5.36,2.12.94,3.71,2.74,3.71,5.9,0,5.83-3.78,8.1-9.32,8.1h-8.53v-26.1ZM222.4,662.86c2.2,0,3.28-1.08,3.28-3.17s-1.08-3.17-3.28-3.17h-2.63v6.33h2.63ZM222.69,666.82h-2.92v6.95h2.92c2.66,0,3.82-1.15,3.82-3.46s-1.15-3.49-3.82-3.49Z"/><path class="q" d="M238.13,652.14h15.8v4.64h-10.4v5.79h9.68v4.64h-9.68v6.37h10.4v4.64h-15.8v-26.1Z"/><path class="q" d="M267.87,667.65h-2.05v10.58h-5.4v-26.1h6.95c5.94,0,10.44,1.26,10.44,7.74,0,3.74-1.94,5.62-4.68,6.62l5.83,11.73h-5.94l-5.15-10.58ZM265.81,656.53v6.88h1.73c2.56,0,4.54-.61,4.54-3.42s-1.98-3.46-4.54-3.46h-1.73Z"/><path class="q" d="M289.72,656.78h-7.38v-4.64h20.16v4.64h-7.38v21.45h-5.4v-21.45Z"/><rect class="l" x="175.81" y="412.02" width="163.46" height="114.04" rx="8" ry="8"/><path class="q" d="M214.37,456.13h8.1c5.04,0,8.86,1.3,8.86,6.73,0,2.23-1.08,4.17-2.81,5.36,2.12.94,3.71,2.74,3.71,5.9,0,5.83-3.78,8.1-9.32,8.1h-8.53v-26.1ZM222.4,466.86c2.2,0,3.28-1.08,3.28-3.17s-1.08-3.17-3.28-3.17h-2.63v6.33h2.63ZM222.69,470.82h-2.92v6.95h2.92c2.66,0,3.82-1.15,3.82-3.46s-1.15-3.49-3.82-3.49Z"/><path class="q" d="M238.13,456.13h15.8v4.64h-10.4v5.79h9.68v4.64h-9.68v6.37h10.4v4.64h-15.8v-26.1Z"/><path class="q" d="M267.87,471.65h-2.05v10.58h-5.4v-26.1h6.95c5.94,0,10.44,1.26,10.44,7.74,0,3.74-1.94,5.62-4.68,6.62l5.83,11.73h-5.94l-5.15-10.58ZM265.81,460.52v6.88h1.73c2.56,0,4.54-.61,4.54-3.42s-1.98-3.46-4.54-3.46h-1.73Z"/><path class="q" d="M289.72,460.78h-7.38v-4.64h20.16v4.64h-7.38v21.45h-5.4v-21.45Z"/><rect class="l" x="843.34" y="602.45" width="139.17" height="97.09" rx="8" ry="8"/><path class="q" d="M862.19,632.63h2.92v14.57h-2.92v-4.94c-.53,1.02-1.55,1.63-2.82,1.63-2.51,0-4.45-1.98-4.45-5.74s1.94-5.76,4.45-5.76c1.27,0,2.29.61,2.82,1.63v-1.39ZM860.03,634.55c-1.39,0-2.17,1.39-2.17,3.6s.78,3.58,2.17,3.58,2.27-1.27,2.27-3.58-.86-3.6-2.27-3.6Z"/><path class="q" d="M875.15,642.42c-.63,1-1.63,1.47-2.8,1.47-2.66,0-3.7-1.7-3.7-4.33v-6.93h2.94v6.44c0,1.17.12,2.55,1.61,2.55,1.63,0,1.94-1.47,1.94-3.15v-5.84h2.94v10.99h-2.94v-1.21Z"/><path class="q" d="M885.04,643.89c-1.88,0-3.72-1.21-3.72-3.21,0-2.8,3.21-3.37,6.91-3.84v-.25c0-1.7-.74-2.27-1.94-2.27s-1.96.57-2.04,1.78h-2.64c.2-2.17,1.98-3.76,4.78-3.76s4.66,1.1,4.66,4.82c0,.35-.04,1.82-.04,2.82,0,3.02.12,3.31.22,3.64h-2.68l-.02-1.41c-.78,1.17-1.9,1.68-3.49,1.68ZM888.31,638.63c-2.84.29-4.09.61-4.09,1.92,0,.82.55,1.33,1.61,1.33,1.84,0,2.47-1.19,2.47-2.96v-.29Z"/><path class="q" d="M897.91,632.63v1.29c.63-.98,1.63-1.53,2.92-1.53,2.53,0,3.58,1.7,3.58,4.33v6.91h-2.94v-6.42c0-1.17-.12-2.55-1.61-2.55-1.65,0-1.94,1.47-1.94,3.15v5.82h-2.94v-10.99h2.94Z"/><path class="q" d="M910.31,629.69h2.94v2.94h4.29v2.23h-4.29v5.31c0,1.04.35,1.25,1.21,1.25h3.04v2.21h-4.13c-2.39,0-3.06-.8-3.06-2.98v-5.78h-3.19v-2.23h3.19v-2.94Z"/><path class="q" d="M921.51,643.62v-2.21h3.19v-6.58h-3.19v-2.21h6.13v8.79h3.21v2.21h-9.34ZM927.64,628.81v2.72h-2.94v-2.72h2.94Z"/><path class="q" d="M934.69,641.47l5.7-6.62h-5.27v-2.23h8.62v2.15l-5.74,6.64h5.88v2.21h-9.19v-2.15Z"/><path class="q" d="M950.16,638.88c.1,2.02,1.21,2.92,2.43,2.92s1.86-.59,2.08-1.61h2.8c-.31,1.86-1.96,3.7-4.92,3.7-3.43,0-5.21-2.29-5.21-5.66s1.9-5.84,5.17-5.84,5.25,2.45,5.15,6.5h-7.5ZM950.16,637.02h4.7c-.06-2-1.23-2.53-2.39-2.53-.94,0-2.15.67-2.31,2.53Z"/><path class="q" d="M967.79,628.81h2.92v14.81h-2.9l-.02-1.37c-.53,1.02-1.55,1.63-2.82,1.63-2.51,0-4.45-1.98-4.45-5.74s1.94-5.76,4.45-5.76c1.27,0,2.29.61,2.82,1.63v-5.21ZM965.63,634.55c-1.39,0-2.17,1.39-2.17,3.6s.78,3.58,2.17,3.58,2.27-1.27,2.27-3.58-.86-3.6-2.27-3.6Z"/><path class="q" d="M876.18,652.05h6.9c4.29,0,7.54,1.1,7.54,5.73,0,1.9-.92,3.56-2.39,4.57,1.81.8,3.16,2.33,3.16,5.03,0,4.97-3.22,6.9-7.94,6.9h-7.27v-22.22ZM883.02,661.18c1.87,0,2.79-.92,2.79-2.7s-.92-2.7-2.79-2.7h-2.24v5.4h2.24ZM883.26,664.55h-2.48v5.92h2.48c2.27,0,3.25-.98,3.25-2.94s-.98-2.97-3.25-2.97Z"/><path class="q" d="M896.41,652.05h13.46v3.95h-8.86v4.94h8.25v3.95h-8.25v5.43h8.86v3.95h-13.46v-22.22Z"/><path class="q" d="M921.73,665.26h-1.75v9.01h-4.6v-22.22h5.92c5.06,0,8.89,1.07,8.89,6.59,0,3.19-1.66,4.78-3.99,5.64l4.97,9.99h-5.06l-4.38-9.01ZM919.98,655.79v5.86h1.47c2.18,0,3.86-.52,3.86-2.91s-1.69-2.94-3.86-2.94h-1.47Z"/><path class="q" d="M940.33,656h-6.28v-3.95h17.17v3.95h-6.29v18.27h-4.6v-18.27Z"/><rect class="l" x="843.34" y="420.45" width="139.17" height="97.09" rx="8" ry="8"/><path class="q" d="M876.18,458.01h6.9c4.29,0,7.54,1.1,7.54,5.73,0,1.9-.92,3.56-2.39,4.57,1.81.8,3.16,2.33,3.16,5.03,0,4.97-3.22,6.9-7.94,6.9h-7.27v-22.22ZM883.02,467.14c1.87,0,2.79-.92,2.79-2.7s-.92-2.7-2.79-2.7h-2.24v5.4h2.24ZM883.26,470.51h-2.48v5.92h2.48c2.27,0,3.25-.98,3.25-2.94s-.98-2.97-3.25-2.97Z"/><path class="q" d="M896.41,458.01h13.46v3.95h-8.86v4.94h8.25v3.95h-8.25v5.43h8.86v3.95h-13.46v-22.22Z"/><path class="q" d="M921.73,471.22h-1.75v9.01h-4.6v-22.22h5.92c5.06,0,8.89,1.07,8.89,6.59,0,3.19-1.66,4.78-3.99,5.64l4.97,9.99h-5.06l-4.38-9.01ZM919.98,461.75v5.86h1.47c2.18,0,3.86-.52,3.86-2.91s-1.69-2.94-3.86-2.94h-1.47Z"/><path class="q" d="M940.33,461.96h-6.28v-3.95h17.17v3.95h-6.29v18.27h-4.6v-18.27Z"/><path class="q" d="M102.74,459.47h3.12v13.92h7.13v2.88h-10.25v-16.8Z"/><path class="q" d="M117.28,475.64c-.93-.54-1.64-1.29-2.12-2.23-.49-.94-.73-2.01-.73-3.19s.24-2.25.73-3.19c.49-.94,1.2-1.69,2.12-2.23.93-.54,2.02-.82,3.29-.82s2.36.27,3.29.82c.93.54,1.64,1.29,2.12,2.23.49.94.73,2.01.73,3.19s-.24,2.25-.73,3.19c-.49.94-1.2,1.69-2.12,2.23-.93.54-2.02.82-3.29.82s-2.36-.27-3.29-.82ZM122.78,472.85c.54-.71.82-1.59.82-2.63s-.27-1.92-.82-2.63-1.28-1.07-2.21-1.07-1.66.36-2.21,1.07-.82,1.59-.82,2.63.27,1.92.82,2.63,1.28,1.07,2.21,1.07,1.66-.36,2.21-1.07Z"/><path class="q" d="M135.76,459.47c1.63,0,2.89.44,3.78,1.31.89.87,1.33,2.03,1.33,3.47,0,1.12-.27,2.08-.82,2.87-.54.79-1.32,1.34-2.33,1.64l4.66,7.51h-3.48l-4.51-7.25h-1.63v7.25h-3.12v-16.8h6.12ZM137.23,465.68c.35-.3.53-.78.53-1.44s-.18-1.14-.53-1.44c-.35-.3-.83-.46-1.44-.46h-3.02v3.79h3.02c.61,0,1.09-.15,1.44-.46Z"/><path class="q" d="M148.84,459.47h3.12l5.69,16.8h-3.36l-1.22-3.96h-5.33l-1.22,3.96h-3.36l5.69-16.8ZM152.18,469.43l-1.78-5.83-1.78,5.83h3.55Z"/><path class="q" d="M87.81,657.09c-1.2-.64-2.16-1.6-2.87-2.89s-1.07-2.87-1.07-4.74.36-3.45,1.07-4.74c.71-1.29,1.67-2.25,2.87-2.89s2.53-.96,3.98-.96,2.78.32,3.98.96c1.2.64,2.16,1.6,2.87,2.89.71,1.29,1.07,2.87,1.07,4.74s-.38,3.52-1.13,4.85l1.61,1.58-2.18,2.16-1.46-1.44c-1.31.96-2.9,1.44-4.75,1.44-1.46,0-2.78-.32-3.98-.96ZM94.36,654.45l-2.18-2.21,2.18-2.16,1.82,1.85c.24-.7.36-1.53.36-2.47,0-1.28-.22-2.35-.65-3.2-.43-.86-1-1.49-1.72-1.9-.71-.41-1.51-.61-2.39-.61s-1.68.2-2.39.61c-.71.41-1.28,1.04-1.72,1.9-.43.86-.65,1.92-.65,3.2s.22,2.35.65,3.2c.43.86,1,1.49,1.72,1.9.71.41,1.51.61,2.39.61.98,0,1.83-.24,2.57-.72Z"/><path class="q" d="M102.74,641.06h3.12v13.92h7.13v2.88h-10.25v-16.8Z"/><path class="q" d="M117.28,657.23c-.93-.54-1.64-1.29-2.12-2.23-.49-.94-.73-2.01-.73-3.19s.24-2.25.73-3.19c.49-.94,1.2-1.69,2.12-2.23.93-.54,2.02-.82,3.29-.82s2.36.27,3.29.82c.93.54,1.64,1.29,2.12,2.23.49.94.73,2.01.73,3.19s-.24,2.25-.73,3.19c-.49.94-1.2,1.69-2.12,2.23-.93.54-2.02.82-3.29.82s-2.36-.27-3.29-.82ZM122.78,654.44c.54-.71.82-1.59.82-2.63s-.27-1.92-.82-2.63-1.28-1.07-2.21-1.07-1.66.36-2.21,1.07-.82,1.59-.82,2.63.27,1.92.82,2.63,1.28,1.07,2.21,1.07,1.66-.36,2.21-1.07Z"/><path class="q" d="M135.76,641.06c1.63,0,2.89.44,3.78,1.31.89.87,1.33,2.03,1.33,3.47,0,1.12-.27,2.08-.82,2.87s-1.32,1.34-2.33,1.64l4.66,7.51h-3.48l-4.51-7.25h-1.63v7.25h-3.12v-16.8h6.12ZM137.23,647.27c.35-.3.53-.78.53-1.44s-.18-1.14-.53-1.44-.83-.46-1.44-.46h-3.02v3.79h3.02c.61,0,1.09-.15,1.44-.46Z"/><path class="q" d="M148.84,641.06h3.12l5.69,16.8h-3.36l-1.22-3.96h-5.33l-1.22,3.96h-3.36l5.69-16.8ZM152.18,651.02l-1.78-5.83-1.78,5.83h3.55Z"/><line class="h" x1="389.9" y1="287.17" x2="509.5" y2="287.17"/><polygon class="q" points="502.87 295.35 501.5 293.89 508.73 287.18 501.5 280.46 502.87 279 511.67 287.18 502.87 295.35"/><line class="h" x1="389.9" y1="469.04" x2="509.5" y2="469.04"/><polygon class="q" points="502.87 477.22 501.5 475.75 508.73 469.04 501.5 462.32 502.87 460.86 511.67 469.04 502.87 477.22"/><line class="h" x1="389.9" y1="650.9" x2="509.5" y2="650.9"/><polygon class="q" points="502.87 659.08 501.5 657.62 508.73 650.9 501.5 644.19 502.87 642.72 511.67 650.9 502.87 659.08"/><line class="h" x1="688.34" y1="287.17" x2="807.93" y2="287.17"/><polygon class="q" points="801.3 295.35 799.94 293.89 807.16 287.18 799.94 280.46 801.3 279 810.1 287.18 801.3 295.35"/><line class="h" x1="688.34" y1="469.04" x2="807.93" y2="469.04"/><polygon class="q" points="801.3 477.22 799.94 475.75 807.16 469.04 799.94 462.32 801.3 460.86 810.1 469.04 801.3 477.22"/><line class="h" x1="688.34" y1="650.9" x2="807.93" y2="650.9"/><polygon class="q" points="801.3 659.08 799.94 657.62 807.16 650.9 799.94 644.19 801.3 642.72 810.1 650.9 801.3 659.08"/><line class="h" x1="600" y1="180.71" x2="600" y2="221.9"/><polygon class="q" points="591.82 215.28 593.29 213.91 600 221.14 606.71 213.91 608.18 215.28 600 224.07 591.82 215.28"/><path class="q" d="M1007.54,458.13v8.91h8.54v3.84h-8.54v8.99h-4v-8.99h-8.54v-3.84h8.54v-8.91h4Z"/><path class="q" d="M1007.54,638.25v8.91h8.54v3.84h-8.54v8.99h-4v-8.99h-8.54v-3.84h8.54v-8.91h4Z"/></g><g id="f"><rect class="g" x="833.34" y="410.45" width="344.38" height="117.09" rx="8" ry="8"/><rect class="g" x="833.34" y="592.45" width="344.38" height="117.09" rx="8" ry="8"/></g></svg>