<?xml version="1.0" encoding="UTF-8"?><svg xmlns="http://www.w3.org/2000/svg" viewBox="0 0 1200 800"><defs><style>.c{fill:#f3c738;}.c,.d,.e,.f{stroke-width:0px;}.g{stroke:#24c0eb;stroke-width:2.4px;}.g,.h,.i{fill:none;stroke-miterlimit:10;}.d{fill:#ed8367;}.h{stroke:#167dc0;stroke-dasharray:0 0 4.81 4.81;stroke-width:3px;}.e{fill:#24c0eb;}.f{fill:#10172f;}.i{stroke:#bfb9b4;stroke-linecap:round;stroke-width:48px;}</style></defs><g id="a"><rect class="f" x="-2.5" y="-2.5" width="1205" height="805"/></g><g id="b"><path class="h" d="M926,607.92h-252c-13.25,0-24-10.75-24-24.06v-312c0-13.2,10.75-23.94,24-23.94h252c13.25,0,24,10.75,24,24v312c0,13.25-10.75,24-24,24Z"/><line class="i" x1="680" y1="575.13" x2="920" y2="575.13"/><path class="f" d="M726.69,568.96v2.33c.56-.84,1.17-1.48,1.83-1.92s1.45-.65,2.35-.65,1.78.25,2.51.75c.73.5,1.25,1.25,1.55,2.25.52-.94,1.17-1.68,1.94-2.2.78-.53,1.61-.79,2.49-.79,1.34,0,2.4.39,3.17,1.18s1.15,1.88,1.15,3.28v10.28h-3.57v-9.68c0-1.34-.59-2.02-1.79-2.02-.92,0-1.68.52-2.26,1.55-.59,1.04-.88,2.53-.88,4.49v5.64h-3.57v-9.68c0-1.34-.59-2.02-1.79-2.02-.92,0-1.68.54-2.26,1.63-.59,1.08-.88,2.66-.88,4.74v5.33h-3.57v-14.52h3.57Z"/><path class="f" d="M750.34,582.73c-1.11-.65-1.96-1.54-2.55-2.68s-.88-2.41-.88-3.83.29-2.7.88-3.83,1.44-2.03,2.55-2.68c1.11-.65,2.43-.98,3.95-.98s2.83.33,3.95.98c1.11.65,1.96,1.55,2.55,2.68s.88,2.41.88,3.83-.29,2.7-.88,3.83-1.44,2.03-2.55,2.68c-1.11.65-2.43.98-3.95.98s-2.83-.33-3.95-.98ZM756.93,579.37c.65-.85.98-1.91.98-3.15s-.33-2.3-.98-3.15c-.65-.85-1.54-1.28-2.65-1.28s-2,.43-2.65,1.28-.98,1.91-.98,3.15.33,2.3.98,3.15,1.54,1.28,2.65,1.28,2-.43,2.65-1.28Z"/><path class="f" d="M765.73,581.68c-1.1-1.35-1.65-3.17-1.65-5.46s.55-4.1,1.65-5.46c1.11-1.35,2.66-2.03,4.68-2.03.82,0,1.58.15,2.26.45s1.2.67,1.54,1.11v-7.2h3.57v20.39h-3.57v-1.5c-.23.44-.69.84-1.37,1.2-.68.36-1.49.53-2.43.53-2.02,0-3.58-.68-4.68-2.03ZM773.59,579.49c.62-.78.94-1.87.94-3.27s-.31-2.49-.94-3.27c-.62-.78-1.43-1.17-2.4-1.17s-1.79.39-2.42,1.17c-.63.78-.95,1.87-.95,3.27s.32,2.47.95,3.25c.63.79,1.44,1.18,2.42,1.18s1.78-.39,2.4-1.17Z"/><path class="f" d="M794.74,577.37h-10.02c.15,1.08.53,1.89,1.14,2.45.61.56,1.38.83,2.32.83.81,0,1.48-.18,2.03-.55.55-.37,1.04-.93,1.48-1.7l2.88,1.07c-.6,1.36-1.43,2.41-2.49,3.14-1.06.73-2.43,1.09-4.1,1.09-1.57,0-2.88-.37-3.93-1.11s-1.81-1.68-2.3-2.82c-.49-1.14-.73-2.33-.73-3.56s.24-2.41.73-3.56c.49-1.14,1.26-2.08,2.3-2.82s2.36-1.11,3.93-1.11,2.78.36,3.8,1.08c1.02.72,1.77,1.63,2.25,2.72.48,1.09.72,2.22.72,3.37v1.47ZM791.09,574.55c-.17-.81-.52-1.47-1.02-1.99-.51-.52-1.21-.78-2.09-.78-.77,0-1.43.24-1.99.71-.56.47-.95,1.16-1.18,2.06h6.28Z"/><path class="f" d="M797.97,563.09h3.57v20.39h-3.57v-20.39Z"/><path class="f" d="M812.86,566.43c-.44-.44-.66-.99-.66-1.64s.22-1.2.66-1.64c.44-.44.99-.66,1.64-.66s1.2.22,1.64.66c.44.44.66.99.66,1.64s-.22,1.2-.66,1.64c-.44.44-.99.66-1.64.66s-1.2-.22-1.64-.66ZM812.71,568.96h3.57v14.52h-3.57v-14.52Z"/><path class="f" d="M823.77,568.96v2.33c.56-.79,1.22-1.41,1.99-1.87s1.6-.69,2.51-.69c1.34,0,2.42.37,3.24,1.12.81.75,1.22,1.83,1.22,3.25v10.37h-3.57v-9.3c0-.83-.19-1.43-.56-1.81-.37-.38-.88-.58-1.51-.58-.6,0-1.14.23-1.64.69-.5.46-.9,1.14-1.21,2.03-.31.89-.46,1.95-.46,3.18v5.79h-3.57v-14.52h3.57Z"/><path class="f" d="M840.33,568.96v1.5c.23-.42.67-.82,1.31-1.18.64-.36,1.38-.55,2.2-.55,2.13,0,3.77.68,4.91,2.03s1.71,3.17,1.71,5.46-.57,4.1-1.71,5.46-2.78,2.03-4.91,2.03c-.71,0-1.39-.15-2.04-.46s-1.14-.67-1.47-1.09v7.2h-3.57v-20.39h3.57ZM845.78,579.48c.63-.79.95-1.87.95-3.25s-.32-2.49-.95-3.27c-.63-.78-1.44-1.17-2.42-1.17s-1.78.39-2.4,1.17c-.62.78-.94,1.87-.94,3.27s.31,2.49.94,3.27c.62.78,1.43,1.17,2.4,1.17s1.79-.39,2.42-1.18Z"/><path class="f" d="M854.92,582.59c-.82-.75-1.22-1.83-1.22-3.25v-10.37h3.57v9.3c0,.83.19,1.43.56,1.81.38.38.88.58,1.51.58.6,0,1.14-.23,1.64-.69.5-.46.9-1.14,1.21-2.03s.46-1.95.46-3.18v-5.79h3.57v14.52h-3.57v-2.33c-.56.79-1.22,1.41-1.99,1.87s-1.6.69-2.5.69c-1.35,0-2.43-.37-3.24-1.12Z"/><path class="f" d="M872.16,582.36c-.94-.9-1.41-2.24-1.41-4v-6.34h-2.25v-3.05h2.25v-3.63l3.57-2.25v5.88h3.83v3.05h-3.83v6.28c0,.86.16,1.47.47,1.83.32.36.79.53,1.43.53.48,0,.94-.12,1.38-.35l.84,2.88c-.75.35-1.54.52-2.36.52-1.67,0-2.98-.45-3.92-1.35Z"/><line class="i" x1="680" y1="280.71" x2="920" y2="280.71"/><path class="f" d="M716.53,274.54v2.33c.56-.84,1.17-1.48,1.83-1.92s1.45-.65,2.35-.65,1.78.25,2.51.75c.73.5,1.25,1.25,1.55,2.25.52-.94,1.17-1.68,1.94-2.2.78-.53,1.61-.79,2.49-.79,1.34,0,2.4.39,3.17,1.18s1.15,1.88,1.15,3.28v10.28h-3.57v-9.68c0-1.34-.59-2.02-1.79-2.02-.92,0-1.68.52-2.26,1.55-.59,1.04-.88,2.53-.88,4.49v5.64h-3.57v-9.68c0-1.34-.59-2.02-1.79-2.02-.92,0-1.68.54-2.26,1.63-.59,1.08-.88,2.66-.88,4.74v5.33h-3.57v-14.52h3.57Z"/><path class="f" d="M740.17,288.31c-1.11-.65-1.96-1.54-2.55-2.68s-.88-2.41-.88-3.83.29-2.7.88-3.83,1.44-2.03,2.55-2.68c1.11-.65,2.43-.98,3.95-.98s2.83.33,3.95.98c1.11.65,1.96,1.55,2.55,2.68s.88,2.41.88,3.83-.29,2.7-.88,3.83-1.44,2.03-2.55,2.68c-1.11.65-2.43.98-3.95.98s-2.83-.33-3.95-.98ZM746.77,284.95c.65-.85.98-1.91.98-3.15s-.33-2.3-.98-3.15c-.65-.85-1.54-1.28-2.65-1.28s-2,.43-2.65,1.28-.98,1.91-.98,3.15.33,2.3.98,3.15,1.54,1.28,2.65,1.28,2-.43,2.65-1.28Z"/><path class="f" d="M755.56,287.26c-1.1-1.35-1.65-3.17-1.65-5.46s.55-4.1,1.65-5.46c1.11-1.35,2.66-2.03,4.68-2.03.82,0,1.58.15,2.26.45s1.2.67,1.54,1.11v-7.2h3.57v20.39h-3.57v-1.5c-.23.44-.69.84-1.37,1.2-.68.36-1.49.53-2.43.53-2.02,0-3.58-.68-4.68-2.03ZM763.43,285.07c.62-.78.94-1.87.94-3.27s-.31-2.49-.94-3.27c-.62-.78-1.43-1.17-2.4-1.17s-1.79.39-2.42,1.17c-.63.78-.95,1.87-.95,3.27s.32,2.47.95,3.25c.63.79,1.44,1.18,2.42,1.18s1.78-.39,2.4-1.17Z"/><path class="f" d="M784.58,282.95h-10.02c.15,1.08.53,1.89,1.14,2.45.61.56,1.38.83,2.32.83.81,0,1.48-.18,2.03-.55.55-.37,1.04-.93,1.48-1.7l2.88,1.07c-.6,1.36-1.43,2.41-2.49,3.14-1.06.73-2.43,1.09-4.1,1.09-1.57,0-2.88-.37-3.93-1.11s-1.81-1.68-2.3-2.82c-.49-1.14-.73-2.33-.73-3.56s.24-2.41.73-3.56c.49-1.14,1.26-2.08,2.3-2.82s2.36-1.11,3.93-1.11,2.78.36,3.8,1.08c1.02.72,1.77,1.63,2.25,2.72.48,1.09.72,2.22.72,3.37v1.47ZM780.92,280.13c-.17-.81-.52-1.47-1.02-1.99-.51-.52-1.21-.78-2.09-.78-.77,0-1.43.24-1.99.71-.56.47-.95,1.16-1.18,2.06h6.28Z"/><path class="f" d="M787.8,268.66h3.57v20.39h-3.57v-20.39Z"/><path class="f" d="M805.17,288.31c-1.11-.65-1.96-1.54-2.55-2.68s-.88-2.41-.88-3.83.29-2.7.88-3.83,1.44-2.03,2.55-2.68c1.11-.65,2.43-.98,3.95-.98s2.83.33,3.95.98c1.11.65,1.96,1.55,2.55,2.68.58,1.13.88,2.41.88,3.83s-.29,2.7-.88,3.83c-.59,1.13-1.44,2.03-2.55,2.68-1.12.65-2.43.98-3.95.98s-2.83-.33-3.95-.98ZM811.77,284.95c.65-.85.98-1.91.98-3.15s-.33-2.3-.98-3.15-1.54-1.28-2.65-1.28-2,.43-2.65,1.28-.98,1.91-.98,3.15.33,2.3.98,3.15,1.54,1.28,2.65,1.28,2-.43,2.65-1.28Z"/><path class="f" d="M820.94,288.16c-.82-.75-1.22-1.83-1.22-3.25v-10.37h3.57v9.3c0,.83.19,1.43.56,1.81.38.38.88.58,1.51.58.59,0,1.14-.23,1.64-.69s.9-1.14,1.21-2.03c.31-.89.46-1.95.46-3.18v-5.79h3.57v14.52h-3.57v-2.33c-.56.79-1.22,1.41-1.99,1.87s-1.6.69-2.51.69c-1.34,0-2.42-.37-3.24-1.12Z"/><path class="f" d="M838.17,287.93c-.94-.9-1.41-2.24-1.41-4v-6.34h-2.25v-3.05h2.25v-3.63l3.57-2.25v5.88h3.83v3.05h-3.83v6.28c0,.86.16,1.47.47,1.83.32.36.79.53,1.43.53.48,0,.94-.12,1.38-.35l.84,2.88c-.75.35-1.54.52-2.36.52-1.67,0-2.98-.45-3.92-1.35Z"/><path class="f" d="M850.5,274.54v1.5c.23-.42.67-.82,1.31-1.18.64-.36,1.38-.55,2.2-.55,2.13,0,3.77.68,4.91,2.03s1.71,3.17,1.71,5.46-.57,4.1-1.71,5.46-2.78,2.03-4.91,2.03c-.71,0-1.39-.15-2.04-.46-.65-.31-1.14-.67-1.47-1.09v7.2h-3.57v-20.39h3.57ZM855.94,285.05c.63-.79.95-1.87.95-3.25s-.32-2.49-.95-3.27c-.63-.78-1.44-1.17-2.42-1.17s-1.78.39-2.41,1.17c-.62.78-.94,1.87-.94,3.27s.31,2.49.94,3.27c.62.78,1.43,1.17,2.41,1.17s1.79-.39,2.42-1.18Z"/><path class="f" d="M865.09,288.16c-.82-.75-1.22-1.83-1.22-3.25v-10.37h3.57v9.3c0,.83.19,1.43.56,1.81.38.38.88.58,1.51.58.59,0,1.14-.23,1.64-.69s.9-1.14,1.21-2.03c.31-.89.46-1.95.46-3.18v-5.79h3.57v14.52h-3.57v-2.33c-.56.79-1.22,1.41-1.99,1.87s-1.6.69-2.51.69c-1.34,0-2.42-.37-3.24-1.12Z"/><path class="f" d="M882.32,287.93c-.94-.9-1.41-2.24-1.41-4v-6.34h-2.25v-3.05h2.25v-3.63l3.57-2.25v5.88h3.83v3.05h-3.83v6.28c0,.86.16,1.47.47,1.83.32.36.79.53,1.43.53.48,0,.94-.12,1.38-.35l.84,2.88c-.75.35-1.54.52-2.36.52-1.67,0-2.98-.45-3.92-1.35Z"/><rect class="d" x="672.85" y="355.92" width="120" height="144"/><path class="f" d="M690.34,390.99c1.43,0,2.53.39,3.32,1.16.79.77,1.18,1.82,1.18,3.14s-.39,2.39-1.18,3.16-1.89,1.16-3.32,1.16h-3.43v6.5h-1.88v-15.12h5.31ZM692.26,397.18c.42-.45.62-1.08.62-1.89s-.21-1.42-.62-1.87c-.42-.45-1.07-.68-1.95-.68h-3.41v5.12h3.41c.88,0,1.53-.23,1.95-.68Z"/><path class="f" d="M698.72,395.23v1.88c.35-.66.79-1.17,1.34-1.52.55-.35,1.17-.53,1.86-.53.48,0,.99.11,1.54.32l-.37,1.66c-.45-.24-.92-.37-1.4-.37-.87,0-1.57.45-2.13,1.36s-.83,2.23-.83,3.97v4.1h-1.79v-10.89h1.79Z"/><path class="f" d="M714.01,400.95h-8.01c.04,1.11.35,2.01.91,2.7.56.69,1.32,1.04,2.29,1.04.75,0,1.36-.17,1.84-.5.48-.33.9-.87,1.28-1.62l1.51.65c-.52,1.07-1.15,1.84-1.89,2.33s-1.67.73-2.78.73c-1.02,0-1.91-.26-2.66-.77-.75-.51-1.32-1.2-1.72-2.05-.4-.86-.6-1.79-.6-2.8s.2-1.96.6-2.82c.39-.86.97-1.54,1.72-2.04.75-.5,1.63-.76,2.66-.76s1.86.23,2.59.69,1.3,1.08,1.69,1.86c.39.78.58,1.64.58,2.59v.76ZM712.2,399.42c-.13-.85-.45-1.52-.97-2.02-.52-.5-1.21-.75-2.07-.75-.75,0-1.4.24-1.94.71-.55.48-.92,1.16-1.1,2.05h6.09Z"/><path class="f" d="M717.94,405.41c-.56-.58-.84-1.46-.84-2.62v-5.96h-1.84v-1.6h1.84v-3.26l1.79-1.14v4.41h2.92v1.6h-2.92v6.09c0,1.18.5,1.77,1.51,1.77.49,0,.91-.1,1.25-.3l.46,1.51c-.52.26-1.14.39-1.86.39-.98,0-1.75-.29-2.31-.88Z"/><path class="f" d="M725.87,395.23v1.88c.35-.66.79-1.17,1.34-1.52.55-.35,1.17-.53,1.86-.53.48,0,.99.11,1.54.32l-.37,1.66c-.45-.24-.92-.37-1.4-.37-.87,0-1.57.45-2.13,1.36s-.83,2.23-.83,3.97v4.1h-1.79v-10.89h1.79Z"/><path class="f" d="M732.33,405.46c-.63-.55-.95-1.38-.95-2.47,0-1.15.43-2.03,1.29-2.65.86-.61,2.03-.92,3.53-.92h1.9v-.47c0-.79-.21-1.37-.64-1.74-.42-.37-.98-.55-1.67-.55-1.2,0-1.99.59-2.38,1.77l-1.6-.37c.14-.91.59-1.63,1.33-2.18.74-.55,1.62-.82,2.65-.82,1.22,0,2.21.36,2.96,1.07.75.71,1.12,1.72,1.12,3.01v6.98h-1.4l-.32-1.58c-.75,1.17-1.88,1.75-3.39,1.75-.98,0-1.79-.28-2.42-.83ZM736.5,404.33c.46-.24.84-.61,1.14-1.12.3-.51.46-1.15.46-1.91v-.35h-1.84c-1.01,0-1.76.17-2.27.52-.5.34-.76.84-.76,1.49,0,.55.16.97.49,1.27.32.3.77.45,1.35.45.49,0,.96-.12,1.43-.36Z"/><path class="f" d="M742.84,393.01c-.25-.25-.38-.56-.38-.92s.13-.68.38-.93c.25-.24.56-.37.92-.37s.69.12.94.37c.25.25.38.55.38.93s-.12.68-.38.93c-.25.25-.57.37-.94.37s-.67-.13-.92-.38ZM742.87,395.23h1.79v10.89h-1.79v-10.89Z"/><path class="f" d="M749.67,395.23v2.1c.39-.69.9-1.24,1.54-1.65s1.33-.62,2.06-.62c1.02,0,1.84.3,2.44.91.6.61.91,1.46.91,2.57v7.58h-1.77v-7.19c0-.75-.17-1.31-.51-1.7-.34-.38-.84-.57-1.5-.57-.59,0-1.13.19-1.61.58s-.86.95-1.14,1.67c-.28.73-.42,1.58-.42,2.56v4.64h-1.79v-10.89h1.79Z"/><path class="f" d="M769.07,400.95h-8.01c.04,1.11.35,2.01.91,2.7.56.69,1.33,1.04,2.29,1.04.75,0,1.36-.17,1.84-.5.47-.33.9-.87,1.27-1.62l1.51.65c-.52,1.07-1.15,1.84-1.89,2.33-.74.49-1.67.73-2.78.73-1.02,0-1.91-.26-2.66-.77-.75-.51-1.32-1.2-1.72-2.05-.4-.86-.59-1.79-.59-2.8s.2-1.96.59-2.82.97-1.54,1.72-2.04c.75-.5,1.63-.76,2.66-.76s1.86.23,2.59.69,1.29,1.08,1.68,1.86c.39.78.58,1.64.58,2.59v.76ZM767.26,399.42c-.13-.85-.45-1.52-.97-2.02-.52-.5-1.21-.75-2.07-.75-.75,0-1.4.24-1.95.71s-.91,1.16-1.1,2.05h6.09Z"/><path class="f" d="M773.28,405.56c-.72-.48-1.27-1.15-1.64-2s-.56-1.81-.56-2.89.19-2.04.56-2.89c.38-.85.92-1.51,1.64-2,.72-.48,1.59-.72,2.61-.72.69,0,1.32.14,1.88.41.56.27,1.02.65,1.38,1.12v-5.77h1.77v15.29h-1.77v-1.43c-.28.43-.71.81-1.32,1.12-.61.32-1.25.48-1.94.48-1.02,0-1.89-.24-2.61-.72ZM778.47,403.59c.56-.73.84-1.71.84-2.92s-.28-2.16-.84-2.91c-.56-.74-1.34-1.11-2.33-1.11s-1.77.37-2.34,1.11c-.57.74-.85,1.71-.85,2.91s.28,2.16.85,2.91c.57.74,1.35,1.11,2.34,1.11s1.77-.37,2.33-1.1Z"/><path class="f" d="M696.04,416.91h1.99l3.11,12.31,3.28-10.71h1.66l3.26,10.71,3.13-12.31h1.97l-4.08,15.12h-1.9l-3.22-10.54-3.2,10.54h-1.92l-4.08-15.12Z"/><path class="f" d="M724.47,426.87h-8.01c.04,1.11.35,2.01.91,2.7.56.69,1.32,1.04,2.29,1.04.75,0,1.36-.17,1.84-.5.48-.33.9-.87,1.28-1.62l1.51.65c-.52,1.07-1.15,1.84-1.89,2.33s-1.67.73-2.78.73c-1.02,0-1.91-.26-2.66-.77-.75-.51-1.32-1.2-1.72-2.05-.4-.86-.6-1.79-.6-2.8s.2-1.96.6-2.82c.39-.86.97-1.54,1.72-2.04.75-.5,1.63-.76,2.66-.76s1.86.23,2.59.69,1.3,1.08,1.69,1.86c.39.78.58,1.64.58,2.59v.76ZM722.65,425.34c-.13-.85-.45-1.52-.97-2.02-.52-.5-1.21-.75-2.07-.75-.75,0-1.4.24-1.94.71-.55.48-.92,1.16-1.1,2.05h6.09Z"/><path class="f" d="M727.07,418.93c-.25-.25-.38-.56-.38-.92s.12-.68.38-.93c.25-.24.56-.37.92-.37s.69.12.94.37c.25.25.38.55.38.93s-.13.68-.38.93c-.25.25-.56.37-.94.37s-.67-.13-.92-.38ZM727.1,421.15h1.79v10.89h-1.79v-10.89Z"/><path class="f" d="M732.58,435.66c-.84-.63-1.26-1.51-1.26-2.64,0-.47.1-.91.29-1.3.2-.39.45-.71.77-.95-.52-.36-.78-.94-.78-1.75,0-.46.12-.87.37-1.22.24-.35.57-.63.97-.83-.53-.65-.8-1.43-.8-2.35,0-.72.17-1.36.51-1.91s.79-.98,1.37-1.29,1.22-.45,1.92-.45c.66,0,1.3.17,1.92.5l1.96-1.1.78,1.34-1.53.82c.43.62.65,1.32.65,2.09,0,.73-.17,1.38-.5,1.93-.33.55-.79.98-1.36,1.27s-1.22.44-1.92.44-1.33-.14-1.9-.43c-.5.25-.76.6-.76,1.08,0,.33.12.58.35.73s.53.24.89.24h2.61c1.05,0,1.89.25,2.52.75.63.5.94,1.24.94,2.21,0,1.27-.43,2.21-1.29,2.83-.87.62-1.97.93-3.33.93s-2.54-.32-3.38-.95ZM738.07,434.51c.5-.37.76-.86.76-1.48,0-.58-.17-.99-.52-1.24-.35-.25-.84-.38-1.49-.38h-1.96c-.4,0-.78-.02-1.12-.07-.49.35-.73.89-.73,1.64,0,.65.25,1.16.77,1.52s1.24.55,2.19.55,1.61-.18,2.12-.55ZM737.42,426.2c.4-.39.59-.91.59-1.58s-.2-1.19-.59-1.58-.89-.58-1.48-.58-1.08.19-1.48.58-.59.91-.59,1.58.2,1.19.59,1.58.89.58,1.48.58,1.08-.19,1.48-.58Z"/><path class="f" d="M744.51,416.74v6.59c.36-.75.88-1.33,1.55-1.74.68-.41,1.4-.62,2.18-.62,1.07,0,1.9.3,2.5.9.6.6.9,1.46.9,2.58v7.58h-1.77v-7.15c0-.75-.17-1.32-.52-1.72-.35-.4-.86-.59-1.53-.59-.59,0-1.14.19-1.64.57-.51.38-.91.94-1.21,1.67-.3.73-.45,1.6-.45,2.59v4.62h-1.79v-15.29h1.79Z"/><path class="f" d="M756,431.33c-.56-.58-.84-1.46-.84-2.62v-5.96h-1.84v-1.6h1.84v-3.26l1.79-1.14v4.41h2.92v1.6h-2.92v6.09c0,1.18.5,1.77,1.51,1.77.49,0,.91-.1,1.25-.3l.46,1.51c-.52.26-1.14.39-1.86.39-.98,0-1.75-.29-2.31-.88Z"/><path class="f" d="M762.79,431.34c-.69-.58-1.14-1.27-1.36-2.09l1.49-.8c.22.69.53,1.22.94,1.6.41.38.96.56,1.63.56.53,0,.96-.14,1.26-.43.31-.29.46-.69.46-1.21,0-.46-.2-.83-.59-1.12s-.98-.58-1.76-.86c-.87-.32-1.53-.71-2-1.19-.47-.48-.7-1.11-.7-1.9,0-.86.3-1.57.9-2.11s1.36-.81,2.28-.81c1.4,0,2.45.57,3.15,1.71l-1.17,1.04c-.49-.76-1.16-1.14-2.01-1.14-.4,0-.74.12-1.02.36s-.41.56-.41.96.18.74.53,1,.98.57,1.89.9c1.77.65,2.66,1.68,2.66,3.11,0,1.02-.32,1.83-.95,2.42-.63.59-1.48.89-2.53.89-1.11,0-2.01-.29-2.7-.86Z"/><path class="f" d="M723.31,446.44h2.59l.95,16.42,6.8-14.28h2.28l1.5,14.31,7.34-16.45h2.59l-9.21,20.16h-2.56l-1.53-13.97-6.74,13.97h-2.53l-1.47-20.16Z"/><polygon class="c" points="903.31 402.09 831 402.09 807.15 355.92 927.15 355.92 903.31 402.09"/><polygon class="c" points="831 453.75 903.31 453.75 927.15 499.92 807.15 499.92 831 453.75"/><path class="e" d="M867.43,422.86l-.37,1.84c.42-.63.93-1.13,1.53-1.48.6-.35,1.23-.53,1.88-.53.35,0,.64.03.88.09.24.06.49.14.74.26l-.67,1.64c-.36-.24-.79-.37-1.3-.37s-1.04.19-1.57.57c-.53.38-1,.95-1.44,1.72s-.75,1.68-.95,2.76l-.84,4.38h-1.79l2.1-10.89h1.79Z"/><path class="f" d="M869.95,366.9c1.52,0,2.72.4,3.6,1.2s1.33,1.88,1.33,3.24c0,1.13-.29,2.12-.87,2.95-.58.83-1.37,1.47-2.39,1.92.71.29,1.31.77,1.79,1.44.48.67.72,1.55.72,2.62,0,2.19-.67,3.87-2.02,5.04s-3.15,1.76-5.41,1.76h-7.2l3.95-20.16h6.51ZM870.25,383.67c.87-.7,1.31-1.73,1.31-3.1,0-.98-.3-1.73-.89-2.26-.6-.53-1.47-.79-2.62-.79h-4.18l-1.38,7.2h4.21c1.5,0,2.68-.35,3.56-1.05ZM871.22,374.31c.71-.58,1.07-1.43,1.07-2.52,0-.84-.24-1.48-.72-1.92-.48-.43-1.18-.65-2.1-.65h-3.97l-1.15,5.96h4.03c1.19,0,2.14-.29,2.85-.88Z"/><path class="f" d="M868.34,468.4h2.45l3.22,20.16h-2.62l-.81-5.41h-7.57l-2.91,5.41h-2.62l10.86-20.16ZM870.29,480.81l-1.32-9.1-4.75,9.1h6.08Z"/><line class="g" x1="834.55" y1="543.13" x2="865.31" y2="512.37"/><polygon class="e" points="866.63 524.93 864.23 524.85 864.66 513.02 852.84 513.45 852.75 511.05 867.16 510.53 866.63 524.93"/><line class="g" x1="765.45" y1="543.13" x2="734.69" y2="512.37"/><polygon class="e" points="747.25 511.05 747.17 513.45 735.34 513.02 735.77 524.84 733.37 524.93 732.85 510.53 747.25 511.05"/><line class="g" x1="763.61" y1="316.34" x2="732.85" y2="347.1"/><polygon class="e" points="751.05 315.02 751.14 317.42 762.96 316.99 762.53 328.81 764.93 328.9 765.45 314.49 751.05 315.02"/><line class="g" x1="836.39" y1="316.34" x2="867.15" y2="347.1"/><polygon class="e" points="835.07 328.9 837.47 328.81 837.04 316.99 848.86 317.42 848.95 315.02 834.54 314.5 835.07 328.9"/><path class="e" d="M798.44,339.19v-5.22h-5.44v-3.03h5.44v-5.32h3.13v5.32h5.44v3.03h-5.44v5.22h-3.13Z"/><path class="e" d="M755.2,223.77h14.6v5.57h-21.08v-31.32h6.48v25.75Z"/><path class="e" d="M786.04,229.9c-5.7,0-11.1-3.28-11.1-12.18s5.4-12.14,11.1-12.14,11.1,3.24,11.1,12.14-5.44,12.18-11.1,12.18ZM786.04,210.16c-2.98,0-4.88,2.2-4.88,7.56s1.9,7.6,4.88,7.6,4.88-2.25,4.88-7.6-1.9-7.56-4.88-7.56Z"/><path class="e" d="M812.4,216.64h-2.46v12.7h-6.48v-31.32h8.34c7.13,0,12.53,1.51,12.53,9.29,0,4.49-2.33,6.74-5.62,7.95l7,14.08h-7.13l-6.18-12.7ZM809.94,203.29v8.25h2.07c3.07,0,5.44-.73,5.44-4.1s-2.38-4.15-5.44-4.15h-2.07Z"/><path class="e" d="M837.8,198.02h8.08l8.08,31.32h-7.08l-1.43-6.52h-7.34l-1.42,6.52h-6.91l8.04-31.32ZM839.22,217.76h5.1l-2.51-11.49-2.59,11.49Z"/><path class="e" d="M896.3,443.44h-21.19c-3.63,0-6.68-.58-6.97-4.03h-1.96c-.29,3.46-3.34,4.03-6.97,4.03h-21.19c-5.18,0-6.91,1.15-6.91,6.74v1.09h2.02v-.58c0-4.55.92-5.01,5.13-5.01h21.02c5.36,0,7.14-1.32,7.89-3.92h0c.75,2.59,2.53,3.92,7.89,3.92h21.02c4.2,0,5.13.46,5.13,5.01v.58h2.02v-1.09c0-5.59-1.73-6.74-6.91-6.74Z"/><path class="e" d="M838.01,412.41h21.19c3.63,0,6.68.58,6.97,4.03h1.96c.29-3.46,3.34-4.03,6.97-4.03h21.19c5.18,0,6.91-1.15,6.91-6.74v-1.09h-2.02v.58c0,4.55-.92,5.01-5.13,5.01h-21.02c-5.36,0-7.14,1.32-7.89,3.92h0c-.75-2.59-2.53-3.92-7.89-3.92h-21.02c-4.2,0-5.13-.46-5.13-5.01v-.58h-2.02v1.09c0,5.59,1.73,6.74,6.91,6.74Z"/><line class="i" x1="280" y1="575.13" x2="520" y2="575.13"/><path class="f" d="M326.69,568.96v2.33c.56-.84,1.17-1.48,1.83-1.92s1.45-.65,2.35-.65,1.78.25,2.51.75c.73.5,1.25,1.25,1.55,2.25.52-.94,1.17-1.68,1.94-2.2.78-.53,1.61-.79,2.49-.79,1.34,0,2.4.39,3.17,1.18s1.15,1.88,1.15,3.28v10.28h-3.57v-9.68c0-1.34-.59-2.02-1.79-2.02-.92,0-1.68.52-2.26,1.55-.59,1.04-.88,2.53-.88,4.49v5.64h-3.57v-9.68c0-1.34-.59-2.02-1.79-2.02-.92,0-1.68.54-2.26,1.63-.59,1.08-.88,2.66-.88,4.74v5.33h-3.57v-14.52h3.57Z"/><path class="f" d="M350.34,582.73c-1.11-.65-1.96-1.54-2.55-2.68s-.88-2.41-.88-3.83.29-2.7.88-3.83,1.44-2.03,2.55-2.68c1.11-.65,2.43-.98,3.95-.98s2.83.33,3.95.98c1.11.65,1.96,1.55,2.55,2.68s.88,2.41.88,3.83-.29,2.7-.88,3.83-1.44,2.03-2.55,2.68c-1.11.65-2.43.98-3.95.98s-2.83-.33-3.95-.98ZM356.93,579.38c.65-.85.98-1.91.98-3.15s-.33-2.3-.98-3.15c-.65-.85-1.54-1.28-2.65-1.28s-2,.43-2.65,1.28-.98,1.91-.98,3.15.33,2.3.98,3.15,1.54,1.28,2.65,1.28,2-.43,2.65-1.28Z"/><path class="f" d="M365.73,581.68c-1.1-1.35-1.65-3.17-1.65-5.46s.55-4.1,1.65-5.46c1.11-1.35,2.66-2.03,4.68-2.03.82,0,1.58.15,2.26.45s1.2.67,1.54,1.11v-7.2h3.57v20.39h-3.57v-1.5c-.23.44-.69.84-1.37,1.2-.68.36-1.49.53-2.43.53-2.02,0-3.58-.68-4.68-2.03ZM373.59,579.49c.62-.78.94-1.87.94-3.27s-.31-2.49-.94-3.27c-.62-.78-1.43-1.17-2.4-1.17s-1.79.39-2.42,1.17c-.63.78-.95,1.87-.95,3.27s.32,2.47.95,3.25c.63.79,1.44,1.18,2.42,1.18s1.78-.39,2.4-1.17Z"/><path class="f" d="M394.74,577.37h-10.02c.15,1.08.53,1.89,1.14,2.45.61.56,1.38.83,2.32.83.81,0,1.48-.18,2.03-.55.55-.37,1.04-.93,1.48-1.7l2.88,1.07c-.6,1.36-1.43,2.41-2.49,3.14-1.06.73-2.43,1.09-4.1,1.09-1.57,0-2.88-.37-3.93-1.11s-1.81-1.68-2.3-2.82c-.49-1.14-.73-2.33-.73-3.56s.24-2.41.73-3.56c.49-1.14,1.26-2.08,2.3-2.82s2.36-1.11,3.93-1.11,2.78.36,3.8,1.08c1.02.72,1.77,1.63,2.25,2.72.48,1.09.72,2.22.72,3.37v1.47ZM391.09,574.55c-.17-.81-.52-1.47-1.02-1.99-.51-.52-1.21-.78-2.09-.78-.77,0-1.43.24-1.99.71-.56.47-.95,1.16-1.18,2.06h6.28Z"/><path class="f" d="M397.97,563.09h3.57v20.39h-3.57v-20.39Z"/><path class="f" d="M412.86,566.43c-.44-.44-.66-.99-.66-1.64s.22-1.2.66-1.64c.44-.44.99-.66,1.64-.66s1.2.22,1.64.66c.44.44.66.99.66,1.64s-.22,1.2-.66,1.64c-.44.44-.99.66-1.64.66s-1.2-.22-1.64-.66ZM412.71,568.96h3.57v14.52h-3.57v-14.52Z"/><path class="f" d="M423.77,568.96v2.33c.56-.79,1.22-1.41,1.99-1.87s1.6-.69,2.51-.69c1.34,0,2.42.37,3.24,1.12.81.75,1.22,1.83,1.22,3.25v10.37h-3.57v-9.3c0-.83-.19-1.43-.56-1.81-.37-.38-.88-.58-1.51-.58-.6,0-1.14.23-1.64.69-.5.46-.9,1.14-1.21,2.03-.31.89-.46,1.95-.46,3.18v5.79h-3.57v-14.52h3.57Z"/><path class="f" d="M440.33,568.96v1.5c.23-.42.67-.82,1.31-1.18.64-.36,1.38-.55,2.2-.55,2.13,0,3.77.68,4.91,2.03s1.71,3.17,1.71,5.46-.57,4.1-1.71,5.46-2.78,2.03-4.91,2.03c-.71,0-1.39-.15-2.04-.46s-1.14-.67-1.47-1.09v7.2h-3.57v-20.39h3.57ZM445.78,579.48c.63-.79.95-1.87.95-3.25s-.32-2.49-.95-3.27c-.63-.78-1.44-1.17-2.42-1.17s-1.78.39-2.4,1.17c-.62.78-.94,1.87-.94,3.27s.31,2.49.94,3.27c.62.78,1.43,1.17,2.4,1.17s1.79-.39,2.42-1.18Z"/><path class="f" d="M454.92,582.59c-.82-.75-1.22-1.83-1.22-3.25v-10.37h3.57v9.3c0,.83.19,1.43.56,1.81.38.38.88.58,1.51.58.6,0,1.14-.23,1.64-.69.5-.46.9-1.14,1.21-2.03s.46-1.95.46-3.18v-5.79h3.57v14.52h-3.57v-2.33c-.56.79-1.22,1.41-1.99,1.87s-1.6.69-2.5.69c-1.35,0-2.43-.37-3.24-1.12Z"/><path class="f" d="M472.16,582.36c-.94-.9-1.41-2.24-1.41-4v-6.34h-2.25v-3.05h2.25v-3.63l3.57-2.25v5.88h3.83v3.05h-3.83v6.28c0,.86.16,1.47.47,1.83.32.36.79.53,1.43.53.48,0,.94-.12,1.38-.35l.83,2.88c-.75.35-1.54.52-2.36.52-1.67,0-2.98-.45-3.92-1.35Z"/><line class="i" x1="280" y1="280.71" x2="520" y2="280.71"/><path class="f" d="M316.53,274.54v2.33c.56-.84,1.17-1.48,1.83-1.92s1.45-.65,2.35-.65,1.78.25,2.51.75c.73.5,1.25,1.25,1.55,2.25.52-.94,1.17-1.68,1.94-2.2.78-.53,1.61-.79,2.49-.79,1.34,0,2.4.39,3.17,1.18s1.15,1.88,1.15,3.28v10.28h-3.57v-9.68c0-1.34-.59-2.02-1.79-2.02-.92,0-1.68.52-2.26,1.55-.59,1.04-.88,2.53-.88,4.49v5.64h-3.57v-9.68c0-1.34-.59-2.02-1.79-2.02-.92,0-1.68.54-2.26,1.63-.59,1.08-.88,2.66-.88,4.74v5.33h-3.57v-14.52h3.57Z"/><path class="f" d="M340.17,288.31c-1.11-.65-1.96-1.54-2.55-2.68s-.88-2.41-.88-3.83.29-2.7.88-3.83,1.44-2.03,2.55-2.68c1.11-.65,2.43-.98,3.95-.98s2.83.33,3.95.98c1.11.65,1.96,1.55,2.55,2.68s.88,2.41.88,3.83-.29,2.7-.88,3.83-1.44,2.03-2.55,2.68c-1.11.65-2.43.98-3.95.98s-2.83-.33-3.95-.98ZM346.77,284.95c.65-.85.98-1.91.98-3.15s-.33-2.3-.98-3.15c-.65-.85-1.54-1.28-2.65-1.28s-2,.43-2.65,1.28-.98,1.91-.98,3.15.33,2.3.98,3.15,1.54,1.28,2.65,1.28,2-.43,2.65-1.28Z"/><path class="f" d="M355.56,287.26c-1.1-1.35-1.65-3.17-1.65-5.46s.55-4.1,1.65-5.46c1.11-1.35,2.66-2.03,4.68-2.03.82,0,1.58.15,2.26.45s1.2.67,1.54,1.11v-7.2h3.57v20.39h-3.57v-1.5c-.23.44-.69.84-1.37,1.2-.68.36-1.49.53-2.43.53-2.02,0-3.58-.68-4.68-2.03ZM363.43,285.07c.62-.78.94-1.87.94-3.27s-.31-2.49-.94-3.27c-.62-.78-1.43-1.17-2.4-1.17s-1.79.39-2.42,1.17c-.63.78-.95,1.87-.95,3.27s.32,2.47.95,3.25c.63.79,1.44,1.18,2.42,1.18s1.78-.39,2.4-1.17Z"/><path class="f" d="M384.58,282.95h-10.02c.15,1.08.53,1.89,1.14,2.45.61.56,1.38.83,2.32.83.81,0,1.48-.18,2.03-.55.55-.37,1.04-.93,1.48-1.7l2.88,1.07c-.6,1.36-1.43,2.41-2.49,3.14-1.06.73-2.43,1.09-4.1,1.09-1.57,0-2.88-.37-3.93-1.11s-1.81-1.68-2.3-2.82c-.49-1.14-.73-2.33-.73-3.56s.24-2.41.73-3.56c.49-1.14,1.26-2.08,2.3-2.82s2.36-1.11,3.93-1.11,2.78.36,3.8,1.08c1.02.72,1.77,1.63,2.25,2.72.48,1.09.72,2.22.72,3.37v1.47ZM380.92,280.13c-.17-.81-.52-1.47-1.02-1.99-.51-.52-1.21-.78-2.09-.78-.77,0-1.43.24-1.99.71-.56.47-.95,1.16-1.18,2.06h6.28Z"/><path class="f" d="M387.8,268.67h3.57v20.39h-3.57v-20.39Z"/><path class="f" d="M405.17,288.31c-1.11-.65-1.96-1.54-2.55-2.68s-.88-2.41-.88-3.83.29-2.7.88-3.83,1.44-2.03,2.55-2.68c1.11-.65,2.43-.98,3.95-.98s2.83.33,3.95.98c1.11.65,1.96,1.55,2.55,2.68.58,1.13.88,2.41.88,3.83s-.29,2.7-.88,3.83c-.59,1.13-1.44,2.03-2.55,2.68-1.12.65-2.43.98-3.95.98s-2.83-.33-3.95-.98ZM411.77,284.95c.65-.85.98-1.91.98-3.15s-.33-2.3-.98-3.15-1.54-1.28-2.65-1.28-2,.43-2.65,1.28-.98,1.91-.98,3.15.33,2.3.98,3.15,1.54,1.28,2.65,1.28,2-.43,2.65-1.28Z"/><path class="f" d="M420.94,288.16c-.82-.75-1.22-1.83-1.22-3.25v-10.37h3.57v9.3c0,.83.19,1.43.56,1.81.38.38.88.58,1.51.58.59,0,1.14-.23,1.64-.69s.9-1.14,1.21-2.03c.31-.89.46-1.95.46-3.18v-5.79h3.57v14.52h-3.57v-2.33c-.56.79-1.22,1.41-1.99,1.87s-1.6.69-2.51.69c-1.34,0-2.42-.37-3.24-1.12Z"/><path class="f" d="M438.17,287.93c-.94-.9-1.41-2.24-1.41-4v-6.34h-2.25v-3.05h2.25v-3.63l3.57-2.25v5.88h3.83v3.05h-3.83v6.28c0,.86.16,1.47.47,1.83.32.36.79.53,1.43.53.48,0,.94-.12,1.38-.35l.84,2.88c-.75.35-1.54.52-2.36.52-1.67,0-2.98-.45-3.92-1.35Z"/><path class="f" d="M450.5,274.54v1.5c.23-.42.67-.82,1.31-1.18.64-.36,1.38-.55,2.2-.55,2.13,0,3.77.68,4.91,2.03s1.71,3.17,1.71,5.46-.57,4.1-1.71,5.46-2.78,2.03-4.91,2.03c-.71,0-1.39-.15-2.04-.46-.65-.31-1.14-.67-1.47-1.09v7.2h-3.57v-20.39h3.57ZM455.94,285.05c.63-.79.95-1.87.95-3.25s-.32-2.49-.95-3.27c-.63-.78-1.44-1.17-2.42-1.17s-1.78.39-2.41,1.17c-.62.78-.94,1.87-.94,3.27s.31,2.49.94,3.27c.62.78,1.43,1.17,2.41,1.17s1.79-.39,2.42-1.18Z"/><path class="f" d="M465.09,288.16c-.82-.75-1.22-1.83-1.22-3.25v-10.37h3.57v9.3c0,.83.19,1.43.56,1.81.38.38.88.58,1.51.58.59,0,1.14-.23,1.64-.69s.9-1.14,1.21-2.03c.31-.89.46-1.95.46-3.18v-5.79h3.57v14.52h-3.57v-2.33c-.56.79-1.22,1.41-1.99,1.87s-1.6.69-2.51.69c-1.34,0-2.42-.37-3.24-1.12Z"/><path class="f" d="M482.32,287.93c-.94-.9-1.41-2.24-1.41-4v-6.34h-2.25v-3.05h2.25v-3.63l3.57-2.25v5.88h3.83v3.05h-3.83v6.28c0,.86.16,1.47.47,1.83.32.36.79.53,1.43.53.48,0,.94-.12,1.38-.35l.84,2.88c-.75.35-1.54.52-2.36.52-1.67,0-2.98-.45-3.92-1.35Z"/><rect class="e" x="272.85" y="355.92" width="120" height="144"/><path class="f" d="M290.34,391c1.43,0,2.53.39,3.32,1.16.79.77,1.18,1.82,1.18,3.14s-.39,2.39-1.18,3.16-1.89,1.16-3.32,1.16h-3.43v6.5h-1.88v-15.12h5.31ZM292.26,397.18c.42-.45.62-1.08.62-1.89s-.21-1.42-.62-1.87c-.42-.45-1.07-.68-1.95-.68h-3.41v5.12h3.41c.88,0,1.53-.23,1.95-.68Z"/><path class="f" d="M298.72,395.23v1.88c.35-.66.79-1.17,1.34-1.52.55-.35,1.17-.53,1.86-.53.48,0,.99.11,1.54.32l-.37,1.66c-.45-.24-.92-.37-1.4-.37-.87,0-1.57.45-2.13,1.36s-.83,2.23-.83,3.97v4.1h-1.79v-10.89h1.79Z"/><path class="f" d="M314.01,400.95h-8.01c.04,1.11.35,2.01.91,2.7.56.69,1.32,1.04,2.29,1.04.75,0,1.36-.17,1.84-.5.48-.33.9-.87,1.28-1.62l1.51.65c-.52,1.07-1.15,1.84-1.89,2.33s-1.67.73-2.78.73c-1.02,0-1.91-.26-2.66-.77-.75-.51-1.32-1.2-1.72-2.05-.4-.86-.6-1.79-.6-2.8s.2-1.96.6-2.82c.39-.86.97-1.54,1.72-2.04.75-.5,1.63-.76,2.66-.76s1.86.23,2.59.69,1.3,1.08,1.69,1.86c.39.78.58,1.64.58,2.59v.76ZM312.2,399.42c-.13-.85-.45-1.52-.97-2.02-.52-.5-1.21-.75-2.07-.75-.75,0-1.4.24-1.94.71-.55.48-.92,1.16-1.1,2.05h6.09Z"/><path class="f" d="M317.94,405.41c-.56-.58-.84-1.46-.84-2.62v-5.96h-1.84v-1.6h1.84v-3.26l1.79-1.14v4.41h2.92v1.6h-2.92v6.09c0,1.18.5,1.77,1.51,1.77.49,0,.91-.1,1.25-.3l.46,1.51c-.52.26-1.14.39-1.86.39-.98,0-1.75-.29-2.31-.88Z"/><path class="f" d="M325.87,395.23v1.88c.35-.66.79-1.17,1.34-1.52.55-.35,1.17-.53,1.86-.53.48,0,.99.11,1.54.32l-.37,1.66c-.45-.24-.92-.37-1.4-.37-.87,0-1.57.45-2.13,1.36s-.83,2.23-.83,3.97v4.1h-1.79v-10.89h1.79Z"/><path class="f" d="M332.33,405.46c-.63-.55-.95-1.38-.95-2.47,0-1.15.43-2.03,1.29-2.65.86-.61,2.03-.92,3.53-.92h1.9v-.47c0-.79-.21-1.37-.64-1.74-.42-.37-.98-.55-1.67-.55-1.2,0-1.99.59-2.38,1.77l-1.6-.37c.14-.91.59-1.63,1.33-2.18.74-.55,1.62-.82,2.65-.82,1.22,0,2.21.36,2.96,1.07.75.71,1.12,1.72,1.12,3.01v6.98h-1.4l-.32-1.58c-.75,1.17-1.88,1.75-3.39,1.75-.98,0-1.79-.28-2.42-.83ZM336.5,404.33c.46-.24.84-.61,1.14-1.12.3-.51.46-1.15.46-1.91v-.35h-1.84c-1.01,0-1.76.17-2.27.52-.5.34-.76.84-.76,1.49,0,.55.16.97.49,1.27.32.3.77.45,1.35.45.49,0,.96-.12,1.43-.36Z"/><path class="f" d="M342.84,393.02c-.25-.25-.38-.56-.38-.92s.13-.68.38-.93c.25-.24.56-.37.92-.37s.69.12.94.37c.25.25.38.55.38.93s-.12.68-.38.93c-.25.25-.57.37-.94.37s-.67-.13-.92-.38ZM342.87,395.23h1.79v10.89h-1.79v-10.89Z"/><path class="f" d="M349.67,395.23v2.1c.39-.69.9-1.24,1.54-1.65s1.33-.62,2.06-.62c1.02,0,1.84.3,2.44.91.6.61.91,1.46.91,2.57v7.58h-1.77v-7.19c0-.75-.17-1.31-.51-1.7-.34-.38-.84-.57-1.5-.57-.59,0-1.13.19-1.61.58s-.86.95-1.14,1.67c-.28.73-.42,1.58-.42,2.56v4.64h-1.79v-10.89h1.79Z"/><path class="f" d="M369.07,400.95h-8.01c.04,1.11.35,2.01.91,2.7.56.69,1.33,1.04,2.29,1.04.75,0,1.36-.17,1.84-.5.47-.33.9-.87,1.27-1.62l1.51.65c-.52,1.07-1.15,1.84-1.89,2.33-.74.49-1.67.73-2.78.73-1.02,0-1.91-.26-2.66-.77-.75-.51-1.32-1.2-1.72-2.05-.4-.86-.59-1.79-.59-2.8s.2-1.96.59-2.82.97-1.54,1.72-2.04c.75-.5,1.63-.76,2.66-.76s1.86.23,2.59.69,1.29,1.08,1.68,1.86c.39.78.58,1.64.58,2.59v.76ZM367.26,399.42c-.13-.85-.45-1.52-.97-2.02-.52-.5-1.21-.75-2.07-.75-.75,0-1.4.24-1.95.71s-.91,1.16-1.1,2.05h6.09Z"/><path class="f" d="M373.28,405.57c-.72-.48-1.27-1.15-1.64-2s-.56-1.81-.56-2.89.19-2.04.56-2.89c.38-.85.92-1.51,1.64-2,.72-.48,1.59-.72,2.61-.72.69,0,1.32.14,1.88.41.56.27,1.02.65,1.38,1.12v-5.77h1.77v15.29h-1.77v-1.43c-.28.43-.71.81-1.32,1.12-.61.32-1.25.48-1.94.48-1.02,0-1.89-.24-2.61-.72ZM378.47,403.59c.56-.73.84-1.71.84-2.92s-.28-2.16-.84-2.91c-.56-.74-1.34-1.11-2.33-1.11s-1.77.37-2.34,1.11c-.57.74-.85,1.71-.85,2.91s.28,2.16.85,2.91c.57.74,1.35,1.11,2.34,1.11s1.77-.37,2.33-1.1Z"/><path class="f" d="M296.04,416.92h1.99l3.11,12.31,3.28-10.71h1.66l3.26,10.71,3.13-12.31h1.97l-4.08,15.12h-1.9l-3.22-10.54-3.2,10.54h-1.92l-4.08-15.12Z"/><path class="f" d="M324.47,426.87h-8.01c.04,1.11.35,2.01.91,2.7.56.69,1.32,1.04,2.29,1.04.75,0,1.36-.17,1.84-.5.48-.33.9-.87,1.28-1.62l1.51.65c-.52,1.07-1.15,1.84-1.89,2.33s-1.67.73-2.78.73c-1.02,0-1.91-.26-2.66-.77-.75-.51-1.32-1.2-1.72-2.05-.4-.86-.6-1.79-.6-2.8s.2-1.96.6-2.82c.39-.86.97-1.54,1.72-2.04.75-.5,1.63-.76,2.66-.76s1.86.23,2.59.69,1.3,1.08,1.69,1.86c.39.78.58,1.64.58,2.59v.76ZM322.65,425.34c-.13-.85-.45-1.52-.97-2.02-.52-.5-1.21-.75-2.07-.75-.75,0-1.4.24-1.94.71-.55.48-.92,1.16-1.1,2.05h6.09Z"/><path class="f" d="M327.07,418.94c-.25-.25-.38-.56-.38-.92s.12-.68.38-.93c.25-.24.56-.37.92-.37s.69.12.94.37c.25.25.38.55.38.93s-.13.68-.38.93c-.25.25-.56.37-.94.37s-.67-.13-.92-.38ZM327.1,421.15h1.79v10.89h-1.79v-10.89Z"/><path class="f" d="M332.58,435.66c-.84-.63-1.26-1.51-1.26-2.64,0-.47.1-.91.29-1.3.2-.39.45-.71.77-.95-.52-.36-.78-.94-.78-1.75,0-.46.12-.87.37-1.22.24-.35.57-.63.97-.83-.53-.65-.8-1.43-.8-2.35,0-.72.17-1.36.51-1.91s.79-.98,1.37-1.29,1.22-.45,1.92-.45c.66,0,1.3.17,1.92.5l1.96-1.1.78,1.34-1.53.82c.43.62.65,1.32.65,2.09,0,.73-.17,1.38-.5,1.93-.33.55-.79.98-1.36,1.27s-1.22.44-1.92.44-1.33-.14-1.9-.43c-.5.25-.76.6-.76,1.08,0,.33.12.58.35.73s.53.24.89.24h2.61c1.05,0,1.89.25,2.52.75.63.5.94,1.24.94,2.21,0,1.27-.43,2.21-1.29,2.83-.87.62-1.97.93-3.33.93s-2.54-.32-3.38-.95ZM338.07,434.51c.5-.37.76-.86.76-1.48,0-.58-.17-.99-.52-1.24-.35-.25-.84-.38-1.49-.38h-1.96c-.4,0-.78-.02-1.12-.07-.49.35-.73.89-.73,1.64,0,.65.25,1.16.77,1.52s1.24.55,2.19.55,1.61-.18,2.12-.55ZM337.42,426.2c.4-.39.59-.91.59-1.58s-.2-1.19-.59-1.58-.89-.58-1.48-.58-1.08.19-1.48.58-.59.91-.59,1.58.2,1.19.59,1.58.89.58,1.48.58,1.08-.19,1.48-.58Z"/><path class="f" d="M344.51,416.74v6.59c.36-.75.88-1.33,1.55-1.74.68-.41,1.4-.62,2.18-.62,1.07,0,1.9.3,2.5.9.6.6.9,1.46.9,2.58v7.58h-1.77v-7.15c0-.75-.17-1.32-.52-1.72-.35-.4-.86-.59-1.53-.59-.59,0-1.14.19-1.64.57-.51.38-.91.94-1.21,1.67-.3.73-.45,1.6-.45,2.59v4.62h-1.79v-15.29h1.79Z"/><path class="f" d="M356,431.33c-.56-.58-.84-1.46-.84-2.62v-5.96h-1.84v-1.6h1.84v-3.26l1.79-1.14v4.41h2.92v1.6h-2.92v6.09c0,1.18.5,1.77,1.51,1.77.49,0,.91-.1,1.25-.3l.46,1.51c-.52.26-1.14.39-1.86.39-.98,0-1.75-.29-2.31-.88Z"/><path class="f" d="M362.79,431.34c-.69-.58-1.14-1.27-1.36-2.09l1.49-.8c.22.69.53,1.22.94,1.6.41.38.96.56,1.63.56.53,0,.96-.14,1.26-.43.31-.29.46-.69.46-1.21,0-.46-.2-.83-.59-1.12s-.98-.58-1.76-.86c-.87-.32-1.53-.71-2-1.19-.47-.48-.7-1.11-.7-1.9,0-.86.3-1.57.9-2.11s1.36-.81,2.28-.81c1.4,0,2.45.57,3.15,1.71l-1.17,1.04c-.49-.76-1.16-1.14-2.01-1.14-.4,0-.74.12-1.02.36s-.41.56-.41.96.18.74.53,1,.98.57,1.89.9c1.77.65,2.66,1.68,2.66,3.11,0,1.02-.32,1.83-.95,2.42-.63.59-1.48.89-2.53.89-1.11,0-2.01-.29-2.7-.86Z"/><path class="f" d="M323.31,446.44h2.59l.95,16.42,6.8-14.28h2.28l1.5,14.31,7.34-16.45h2.59l-9.21,20.16h-2.56l-1.53-13.97-6.74,13.97h-2.53l-1.47-20.16Z"/><rect class="c" x="407.15" y="355.92" width="120" height="144"/><path class="f" d="M434.95,391h1.99l3.11,12.31,3.28-10.71h1.66l3.26,10.71,3.13-12.31h1.97l-4.08,15.12h-1.9l-3.22-10.54-3.2,10.54h-1.92l-4.08-15.12Z"/><path class="f" d="M463.38,400.95h-8.01c.04,1.11.35,2.01.91,2.7.56.69,1.32,1.04,2.29,1.04.75,0,1.36-.17,1.84-.5.48-.33.9-.87,1.28-1.62l1.51.65c-.52,1.07-1.15,1.84-1.89,2.33s-1.67.73-2.78.73c-1.02,0-1.91-.26-2.66-.77-.75-.51-1.32-1.2-1.72-2.05-.4-.86-.6-1.79-.6-2.8s.2-1.96.6-2.82c.39-.86.97-1.54,1.72-2.04.75-.5,1.63-.76,2.66-.76s1.86.23,2.59.69,1.3,1.08,1.69,1.86c.39.78.58,1.64.58,2.59v.76ZM461.56,399.42c-.13-.85-.45-1.52-.97-2.02-.52-.5-1.21-.75-2.07-.75-.75,0-1.4.24-1.94.71-.55.48-.92,1.16-1.1,2.05h6.09Z"/><path class="f" d="M465.98,393.02c-.25-.25-.38-.56-.38-.92s.12-.68.38-.93c.25-.24.56-.37.92-.37s.69.12.94.37c.25.25.38.55.38.93s-.13.68-.38.93c-.25.25-.56.37-.94.37s-.67-.13-.92-.38ZM466.01,395.23h1.79v10.89h-1.79v-10.89Z"/><path class="f" d="M471.49,409.74c-.84-.63-1.26-1.51-1.26-2.64,0-.47.1-.91.29-1.3.2-.39.45-.71.77-.95-.52-.36-.78-.94-.78-1.75,0-.46.12-.87.37-1.22.24-.35.57-.63.97-.83-.53-.65-.8-1.43-.8-2.35,0-.72.17-1.36.51-1.91s.79-.98,1.37-1.29,1.22-.45,1.92-.45c.66,0,1.3.17,1.92.5l1.96-1.1.78,1.34-1.53.82c.43.62.65,1.32.65,2.09,0,.73-.17,1.38-.5,1.93-.33.55-.79.98-1.36,1.27s-1.22.44-1.92.44-1.33-.14-1.9-.43c-.5.25-.76.6-.76,1.08,0,.33.12.58.35.73s.53.24.89.24h2.61c1.05,0,1.89.25,2.52.75.63.5.94,1.24.94,2.21,0,1.27-.43,2.21-1.29,2.83-.87.62-1.97.93-3.33.93s-2.54-.32-3.38-.95ZM476.98,408.59c.5-.37.76-.86.76-1.48,0-.58-.17-.99-.52-1.24-.35-.25-.84-.38-1.49-.38h-1.96c-.4,0-.78-.02-1.12-.07-.49.35-.73.89-.73,1.64,0,.65.25,1.16.77,1.52s1.24.55,2.19.55,1.61-.18,2.12-.55ZM476.32,400.28c.4-.39.59-.91.59-1.58s-.2-1.19-.59-1.58-.89-.58-1.48-.58-1.08.19-1.48.58-.59.91-.59,1.58.2,1.19.59,1.58.89.58,1.48.58,1.08-.19,1.48-.58Z"/><path class="f" d="M483.42,390.82v6.59c.36-.75.88-1.33,1.55-1.74.68-.41,1.4-.62,2.18-.62,1.07,0,1.9.3,2.5.9.6.6.9,1.46.9,2.58v7.58h-1.77v-7.15c0-.75-.17-1.32-.52-1.72-.35-.4-.86-.59-1.53-.59-.59,0-1.14.19-1.64.57-.51.38-.91.94-1.21,1.67-.3.73-.45,1.6-.45,2.59v4.62h-1.79v-15.29h1.79Z"/><path class="f" d="M494.91,405.41c-.56-.58-.84-1.46-.84-2.62v-5.96h-1.84v-1.6h1.84v-3.26l1.79-1.14v4.41h2.92v1.6h-2.92v6.09c0,1.18.5,1.77,1.51,1.77.49,0,.91-.1,1.25-.3l.46,1.51c-.52.26-1.14.39-1.86.39-.98,0-1.75-.29-2.31-.88Z"/><path class="f" d="M437.19,431.61c-.81-.4-1.44-.99-1.91-1.79-.47-.8-.7-1.77-.7-2.93v-9.98h1.88v10.09c0,1.04.29,1.87.88,2.51.59.63,1.45.95,2.57.95s1.98-.32,2.57-.95c.59-.63.89-1.47.89-2.51v-10.09h1.88v9.98c0,1.15-.24,2.13-.71,2.93-.47.8-1.12,1.4-1.92,1.79-.81.4-1.71.59-2.7.59s-1.91-.2-2.72-.59Z"/><path class="f" d="M450.3,421.15v1.4c.26-.42.68-.78,1.26-1.1.58-.32,1.22-.48,1.91-.48,1.04,0,1.92.24,2.66.72.73.48,1.29,1.15,1.66,2,.38.85.56,1.81.56,2.89s-.19,2.04-.56,2.89-.93,1.52-1.66,2-1.62.72-2.66.72c-.62,0-1.22-.14-1.81-.42-.59-.28-1.04-.65-1.36-1.11v5.77h-1.79v-15.29h1.79ZM455.64,429.5c.57-.74.85-1.71.85-2.91s-.29-2.16-.85-2.91c-.57-.74-1.35-1.11-2.34-1.11s-1.77.37-2.33,1.11c-.56.74-.84,1.71-.84,2.91s.29,2.16.85,2.91c.57.74,1.34,1.11,2.32,1.11s1.77-.37,2.34-1.11Z"/><path class="f" d="M462.54,431.48c-.72-.48-1.27-1.15-1.64-2s-.56-1.81-.56-2.89.19-2.04.56-2.89c.38-.85.92-1.51,1.64-2,.72-.48,1.59-.72,2.61-.72.69,0,1.32.14,1.88.41.56.27,1.02.65,1.38,1.12v-5.77h1.77v15.29h-1.77v-1.43c-.28.43-.71.81-1.32,1.12-.61.32-1.25.48-1.94.48-1.02,0-1.89-.24-2.61-.72ZM467.73,429.51c.56-.73.84-1.71.84-2.92s-.28-2.16-.84-2.91c-.56-.74-1.34-1.11-2.33-1.11s-1.77.37-2.34,1.11c-.57.74-.85,1.71-.85,2.91s.28,2.16.85,2.91c.57.74,1.35,1.11,2.34,1.11s1.77-.37,2.33-1.1Z"/><path class="f" d="M473.54,431.38c-.63-.55-.95-1.38-.95-2.47,0-1.15.43-2.03,1.29-2.65.86-.61,2.03-.92,3.53-.92h1.9v-.47c0-.79-.21-1.37-.64-1.74-.42-.37-.98-.55-1.67-.55-1.2,0-1.99.59-2.38,1.77l-1.6-.37c.14-.91.59-1.63,1.33-2.18.74-.55,1.62-.82,2.65-.82,1.22,0,2.21.36,2.96,1.07.75.71,1.12,1.72,1.12,3.01v6.98h-1.4l-.32-1.58c-.75,1.17-1.88,1.75-3.39,1.75-.98,0-1.79-.28-2.42-.83ZM477.71,430.25c.46-.24.84-.61,1.14-1.12.3-.51.46-1.15.46-1.91v-.35h-1.84c-1.01,0-1.76.17-2.27.52-.5.34-.76.84-.76,1.49,0,.55.16.97.49,1.27.32.3.77.45,1.35.45.49,0,.96-.12,1.43-.36Z"/><path class="f" d="M485.38,431.33c-.56-.58-.84-1.46-.84-2.62v-5.96h-1.84v-1.6h1.84v-3.26l1.79-1.14v4.41h2.92v1.6h-2.92v6.09c0,1.18.5,1.77,1.51,1.77.49,0,.91-.1,1.25-.3l.45,1.51c-.52.26-1.14.39-1.86.39-.98,0-1.75-.29-2.31-.88Z"/><path class="f" d="M500.37,426.87h-8.01c.04,1.11.35,2.01.91,2.7.56.69,1.33,1.04,2.29,1.04.75,0,1.36-.17,1.84-.5.47-.33.9-.87,1.27-1.62l1.51.65c-.52,1.07-1.15,1.84-1.89,2.33-.74.49-1.67.73-2.78.73-1.02,0-1.91-.26-2.66-.77-.75-.51-1.32-1.2-1.72-2.05-.4-.86-.59-1.79-.59-2.8s.2-1.96.59-2.82.97-1.54,1.72-2.04c.75-.5,1.63-.76,2.66-.76s1.86.23,2.59.69,1.29,1.08,1.68,1.86c.39.78.58,1.64.58,2.59v.76ZM498.55,425.34c-.13-.85-.45-1.52-.97-2.02-.52-.5-1.21-.75-2.07-.75-.75,0-1.4.24-1.95.71s-.91,1.16-1.1,2.05h6.09Z"/><path class="f" d="M445.96,465.99l10.71-19.56h2.25l3.11,19.56-.12.6h-16.07l.12-.6ZM459.35,464.47l-2.19-14.8-7.95,14.8h10.14Z"/><path class="f" d="M465.25,446.44h2.59l.95,16.42,6.8-14.28h2.28l1.5,14.31,7.34-16.45h2.59l-9.21,20.16h-2.56l-1.53-13.97-6.74,13.97h-2.53l-1.47-20.16Z"/><line class="g" x1="434.55" y1="543.13" x2="465.31" y2="512.37"/><polygon class="e" points="466.63 524.93 464.23 524.85 464.66 513.02 452.84 513.45 452.75 511.05 467.16 510.53 466.63 524.93"/><line class="g" x1="365.45" y1="543.13" x2="334.69" y2="512.37"/><polygon class="e" points="347.25 511.05 347.17 513.45 335.34 513.02 335.77 524.84 333.37 524.93 332.85 510.53 347.25 511.05"/><line class="g" x1="363.61" y1="316.34" x2="332.85" y2="347.1"/><polygon class="e" points="351.05 315.02 351.14 317.42 362.96 316.99 362.53 328.81 364.93 328.9 365.45 314.49 351.05 315.02"/><line class="g" x1="436.39" y1="316.34" x2="467.15" y2="347.1"/><polygon class="e" points="435.07 328.9 437.47 328.81 437.04 316.99 448.86 317.42 448.95 315.02 434.54 314.5 435.07 328.9"/><path class="e" d="M398.44,339.19v-5.22h-5.44v-3.03h5.44v-5.32h3.13v5.32h5.44v3.03h-5.44v5.22h-3.13Z"/><path class="e" d="M307.25,198.02h19.27v5.57h-12.79v6.96h12.01v5.57h-12.01v13.22h-6.48v-31.32Z"/><path class="e" d="M348.03,226.79c-1.34,2.12-3.46,3.11-5.92,3.11-5.62,0-7.82-3.58-7.82-9.16v-14.64h6.22v13.61c0,2.46.26,5.4,3.41,5.4,3.46,0,4.11-3.11,4.11-6.65v-12.35h6.22v23.24h-6.22v-2.55Z"/><path class="e" d="M362.37,229.34v-4.67h6.74v-22.03h-6.74v-4.62h12.96v26.65h6.74v4.67h-19.7Z"/><path class="e" d="M390.28,229.34v-4.67h6.74v-22.03h-6.74v-4.62h12.96v26.65h6.74v4.67h-19.7Z"/><path class="e" d="M446.79,198.02h19.27v5.57h-12.79v6.96h12.01v5.57h-12.01v13.22h-6.48v-31.32Z"/><path class="e" d="M480.48,203.59h-8.86v-5.57h24.19v5.57h-8.86v25.75h-6.48v-25.75Z"/><path class="h" d="M526,607.92h-252c-13.25,0-24-10.75-24-24.06v-312c0-13.2,10.75-23.94,24-23.94h252c13.25,0,24,10.75,24,24v312c0,13.25-10.75,24-24,24Z"/></g></svg>