<?xml version="1.0" encoding="UTF-8"?><svg xmlns="http://www.w3.org/2000/svg" viewBox="0 0 1200 800"><defs><style>.c{fill:#f3c738;}.c,.d,.e,.f,.g{stroke-width:0px;}.d{fill:#ed8367;}.h{stroke-width:2.4px;}.h,.i,.j,.k,.l{fill:none;stroke-miterlimit:10;}.h,.j{stroke:#24c0eb;}.i{stroke-dasharray:0 0 4.81 4.81;}.i,.k{stroke:#167dc0;stroke-width:3px;}.j{stroke-width:3.6px;}.k{stroke-dasharray:0 0 4.81 4.81;}.e{fill:#24c0eb;}.f{fill:#e7ddd2;}.g{fill:#10172f;}.l{stroke:#bfb9b4;stroke-linecap:round;stroke-width:48px;}</style></defs><g id="a"><rect class="g" x="-2.5" y="-2.5" width="1205" height="805"/></g><g id="b"><path class="i" d="M1068.47,604.82h-252c-13.25,0-24-10.75-24-24.06v-312c0-13.2,10.75-23.94,24-23.94h252c13.25,0,24,10.75,24,24v312c0,13.25-10.75,24-24,24Z"/><path class="k" d="M493.93,604.82H141.13c-18.56,0-33.6-10.75-33.6-24.06v-312c0-13.2,15.04-23.94,33.6-23.94h352.8c18.56,0,33.6,10.75,33.6,24v312c0,13.25-15.04,24-33.6,24Z"/><line class="l" x1="822.47" y1="572.03" x2="1062.47" y2="572.03"/><path class="g" d="M869.16,565.86v2.33c.56-.84,1.17-1.48,1.83-1.92s1.44-.65,2.35-.65,1.78.25,2.5.75c.73.5,1.25,1.25,1.56,2.25.52-.94,1.17-1.68,1.94-2.2.78-.53,1.61-.79,2.49-.79,1.34,0,2.4.39,3.17,1.18.77.79,1.15,1.88,1.15,3.28v10.28h-3.57v-9.68c0-1.34-.59-2.02-1.79-2.02-.92,0-1.68.52-2.26,1.55-.59,1.04-.88,2.53-.88,4.49v5.64h-3.57v-9.68c0-1.34-.59-2.02-1.79-2.02-.92,0-1.68.54-2.26,1.63-.59,1.08-.88,2.66-.88,4.74v5.33h-3.57v-14.52h3.57Z"/><path class="g" d="M892.81,579.63c-1.11-.65-1.96-1.54-2.55-2.68s-.88-2.41-.88-3.83.29-2.7.88-3.83,1.44-2.03,2.55-2.68c1.11-.65,2.43-.98,3.95-.98s2.83.33,3.95.98c1.11.65,1.96,1.55,2.55,2.68.58,1.13.88,2.41.88,3.83s-.29,2.7-.88,3.83c-.59,1.13-1.44,2.03-2.55,2.68-1.11.65-2.43.98-3.95.98s-2.83-.33-3.95-.98ZM899.4,576.27c.65-.85.98-1.91.98-3.15s-.33-2.3-.98-3.15c-.65-.85-1.54-1.28-2.65-1.28s-2,.43-2.65,1.28-.98,1.91-.98,3.15.33,2.3.98,3.15,1.54,1.28,2.65,1.28,2-.43,2.65-1.28Z"/><path class="g" d="M908.2,578.57c-1.1-1.35-1.66-3.17-1.66-5.46s.55-4.1,1.66-5.46c1.1-1.35,2.66-2.03,4.68-2.03.83,0,1.58.15,2.26.45.68.3,1.2.67,1.54,1.11v-7.2h3.57v20.39h-3.57v-1.5c-.23.44-.69.84-1.37,1.2-.68.36-1.49.53-2.43.53-2.02,0-3.58-.68-4.68-2.03ZM916.06,576.39c.62-.78.94-1.87.94-3.27s-.31-2.49-.94-3.27-1.42-1.17-2.4-1.17-1.79.39-2.42,1.17-.95,1.87-.95,3.27.32,2.47.95,3.25,1.44,1.18,2.42,1.18,1.78-.39,2.4-1.17Z"/><path class="g" d="M937.22,574.27h-10.02c.15,1.08.53,1.89,1.14,2.45s1.38.83,2.32.83c.81,0,1.48-.18,2.03-.55.55-.37,1.04-.93,1.48-1.7l2.88,1.07c-.6,1.36-1.43,2.41-2.49,3.14-1.07.73-2.43,1.09-4.1,1.09-1.58,0-2.89-.37-3.93-1.11-1.05-.74-1.81-1.68-2.3-2.82-.49-1.14-.73-2.33-.73-3.56s.24-2.41.73-3.56c.49-1.14,1.26-2.08,2.3-2.82,1.05-.74,2.36-1.11,3.93-1.11s2.78.36,3.8,1.08c1.02.72,1.77,1.63,2.25,2.72.48,1.09.72,2.22.72,3.37v1.47ZM933.56,571.45c-.17-.81-.51-1.47-1.02-1.99-.51-.52-1.21-.78-2.09-.78-.77,0-1.43.24-1.99.71-.56.47-.95,1.16-1.18,2.06h6.28Z"/><path class="g" d="M940.44,559.98h3.57v20.39h-3.57v-20.39Z"/><path class="g" d="M955.33,563.32c-.44-.44-.66-.99-.66-1.64s.22-1.2.66-1.64.99-.66,1.64-.66,1.2.22,1.64.66c.44.44.66.99.66,1.64s-.22,1.2-.66,1.64-.99.66-1.64.66-1.2-.22-1.64-.66ZM955.19,565.86h3.57v14.52h-3.57v-14.52Z"/><path class="g" d="M966.25,565.86v2.33c.56-.79,1.22-1.41,1.99-1.87s1.6-.69,2.51-.69c1.34,0,2.42.37,3.24,1.12.82.75,1.22,1.83,1.22,3.25v10.37h-3.57v-9.3c0-.83-.19-1.43-.56-1.81-.37-.38-.88-.58-1.51-.58-.6,0-1.14.23-1.64.69-.5.46-.9,1.14-1.21,2.03-.31.89-.46,1.95-.46,3.18v5.79h-3.57v-14.52h3.57Z"/><path class="g" d="M982.81,565.86v1.5c.23-.42.67-.82,1.31-1.18.64-.36,1.38-.55,2.2-.55,2.13,0,3.77.68,4.91,2.03s1.71,3.17,1.71,5.46-.57,4.1-1.71,5.46-2.78,2.03-4.91,2.03c-.71,0-1.39-.15-2.04-.46-.65-.31-1.14-.67-1.47-1.09v7.2h-3.57v-20.39h3.57ZM988.25,576.37c.63-.79.95-1.87.95-3.25s-.32-2.49-.95-3.27-1.44-1.17-2.42-1.17-1.78.39-2.41,1.17-.94,1.87-.94,3.27.31,2.49.94,3.27c.62.78,1.43,1.17,2.41,1.17s1.79-.39,2.42-1.18Z"/><path class="g" d="M997.39,579.48c-.82-.75-1.22-1.83-1.22-3.25v-10.37h3.57v9.3c0,.83.19,1.43.56,1.81.38.38.88.58,1.51.58.59,0,1.14-.23,1.64-.69.5-.46.9-1.14,1.21-2.03.31-.89.46-1.95.46-3.18v-5.79h3.57v14.52h-3.57v-2.33c-.56.79-1.22,1.41-1.99,1.87s-1.6.69-2.5.69c-1.34,0-2.42-.37-3.24-1.12Z"/><path class="g" d="M1014.63,579.25c-.94-.9-1.41-2.24-1.41-4v-6.34h-2.25v-3.05h2.25v-3.63l3.57-2.25v5.88h3.83v3.05h-3.83v6.28c0,.86.16,1.47.47,1.83.32.36.79.53,1.43.53.48,0,.94-.12,1.38-.35l.83,2.88c-.75.35-1.54.52-2.36.52-1.67,0-2.98-.45-3.92-1.35Z"/><line class="l" x1="822.47" y1="277.61" x2="1062.47" y2="277.61"/><path class="g" d="M859,271.44v2.33c.56-.84,1.17-1.48,1.83-1.92s1.44-.65,2.35-.65,1.78.25,2.5.75c.73.5,1.25,1.25,1.56,2.25.52-.94,1.17-1.68,1.94-2.2.78-.53,1.61-.79,2.49-.79,1.34,0,2.4.39,3.17,1.18.77.79,1.15,1.88,1.15,3.28v10.28h-3.57v-9.68c0-1.34-.59-2.02-1.79-2.02-.92,0-1.68.52-2.26,1.55-.59,1.04-.88,2.53-.88,4.49v5.64h-3.57v-9.68c0-1.34-.59-2.02-1.79-2.02-.92,0-1.68.54-2.26,1.63-.59,1.08-.88,2.66-.88,4.74v5.33h-3.57v-14.52h3.57Z"/><path class="g" d="M882.64,285.2c-1.11-.65-1.96-1.54-2.55-2.68s-.88-2.41-.88-3.83.29-2.7.88-3.83,1.44-2.03,2.55-2.68c1.11-.65,2.43-.98,3.95-.98s2.83.33,3.95.98c1.11.65,1.96,1.55,2.55,2.68.58,1.13.88,2.41.88,3.83s-.29,2.7-.88,3.83c-.59,1.13-1.44,2.03-2.55,2.68-1.11.65-2.43.98-3.95.98s-2.83-.33-3.95-.98ZM889.24,281.85c.65-.85.98-1.91.98-3.15s-.33-2.3-.98-3.15c-.65-.85-1.54-1.28-2.65-1.28s-2,.43-2.65,1.28-.98,1.91-.98,3.15.33,2.3.98,3.15,1.54,1.28,2.65,1.28,2-.43,2.65-1.28Z"/><path class="g" d="M898.04,284.15c-1.1-1.35-1.66-3.17-1.66-5.46s.55-4.1,1.66-5.46c1.1-1.35,2.66-2.03,4.68-2.03.83,0,1.58.15,2.26.45.68.3,1.2.67,1.54,1.11v-7.2h3.57v20.39h-3.57v-1.5c-.23.44-.69.84-1.37,1.2-.68.36-1.49.53-2.43.53-2.02,0-3.58-.68-4.68-2.03ZM905.9,281.96c.62-.78.94-1.87.94-3.27s-.31-2.49-.94-3.27-1.42-1.17-2.4-1.17-1.79.39-2.42,1.17-.95,1.87-.95,3.27.32,2.47.95,3.25,1.44,1.18,2.42,1.18,1.78-.39,2.4-1.17Z"/><path class="g" d="M927.05,279.85h-10.02c.15,1.08.53,1.89,1.14,2.45s1.38.83,2.32.83c.81,0,1.48-.18,2.03-.55.55-.37,1.04-.93,1.48-1.7l2.88,1.07c-.6,1.36-1.43,2.41-2.49,3.14-1.07.73-2.43,1.09-4.1,1.09-1.58,0-2.89-.37-3.93-1.11-1.05-.74-1.81-1.68-2.3-2.82-.49-1.14-.73-2.33-.73-3.56s.24-2.41.73-3.56c.49-1.14,1.26-2.08,2.3-2.82,1.05-.74,2.36-1.11,3.93-1.11s2.78.36,3.8,1.08c1.02.72,1.77,1.63,2.25,2.72.48,1.09.72,2.22.72,3.37v1.47ZM923.39,277.02c-.17-.81-.51-1.47-1.02-1.99-.51-.52-1.21-.78-2.09-.78-.77,0-1.43.24-1.99.71-.56.47-.95,1.16-1.18,2.06h6.28Z"/><path class="g" d="M930.28,265.56h3.57v20.39h-3.57v-20.39Z"/><path class="g" d="M947.64,285.2c-1.11-.65-1.96-1.54-2.55-2.68s-.88-2.41-.88-3.83.29-2.7.88-3.83,1.44-2.03,2.55-2.68c1.11-.65,2.43-.98,3.95-.98s2.83.33,3.95.98c1.11.65,1.96,1.55,2.55,2.68.58,1.13.88,2.41.88,3.83s-.29,2.7-.88,3.83c-.59,1.13-1.44,2.03-2.55,2.68-1.11.65-2.43.98-3.95.98s-2.83-.33-3.95-.98ZM954.24,281.85c.65-.85.98-1.91.98-3.15s-.33-2.3-.98-3.15c-.65-.85-1.54-1.28-2.65-1.28s-2,.43-2.65,1.28-.98,1.91-.98,3.15.33,2.3.98,3.15,1.54,1.28,2.65,1.28,2-.43,2.65-1.28Z"/><path class="g" d="M963.41,285.06c-.82-.75-1.22-1.83-1.22-3.25v-10.37h3.57v9.3c0,.83.19,1.43.56,1.81.38.38.88.58,1.51.58.59,0,1.14-.23,1.64-.69.5-.46.9-1.14,1.21-2.03.31-.89.46-1.95.46-3.18v-5.79h3.57v14.52h-3.57v-2.33c-.56.79-1.22,1.41-1.99,1.87s-1.6.69-2.5.69c-1.34,0-2.42-.37-3.24-1.12Z"/><path class="g" d="M980.65,284.83c-.94-.9-1.41-2.24-1.41-4v-6.34h-2.25v-3.05h2.25v-3.63l3.57-2.25v5.88h3.83v3.05h-3.83v6.28c0,.86.16,1.47.47,1.83.32.36.79.53,1.43.53.48,0,.94-.12,1.38-.35l.83,2.88c-.75.35-1.54.52-2.36.52-1.67,0-2.98-.45-3.92-1.35Z"/><path class="g" d="M992.97,271.44v1.5c.23-.42.67-.82,1.31-1.18.64-.36,1.38-.55,2.2-.55,2.13,0,3.77.68,4.91,2.03s1.71,3.17,1.71,5.46-.57,4.1-1.71,5.46-2.78,2.03-4.91,2.03c-.71,0-1.39-.15-2.04-.46-.65-.31-1.14-.67-1.47-1.09v7.2h-3.57v-20.39h3.57ZM998.42,281.95c.63-.79.95-1.87.95-3.25s-.32-2.49-.95-3.27-1.44-1.17-2.42-1.17-1.78.39-2.41,1.17-.94,1.87-.94,3.27.31,2.49.94,3.27c.62.78,1.43,1.17,2.41,1.17s1.79-.39,2.42-1.18Z"/><path class="g" d="M1007.56,285.06c-.82-.75-1.22-1.83-1.22-3.25v-10.37h3.57v9.3c0,.83.19,1.43.56,1.81.38.38.88.58,1.51.58.59,0,1.14-.23,1.64-.69.5-.46.9-1.14,1.21-2.03.31-.89.46-1.95.46-3.18v-5.79h3.57v14.52h-3.57v-2.33c-.56.79-1.22,1.41-1.99,1.87s-1.6.69-2.5.69c-1.34,0-2.42-.37-3.24-1.12Z"/><path class="g" d="M1024.8,284.83c-.94-.9-1.41-2.24-1.41-4v-6.34h-2.25v-3.05h2.25v-3.63l3.57-2.25v5.88h3.83v3.05h-3.83v6.28c0,.86.16,1.47.47,1.83.32.36.79.53,1.43.53.48,0,.94-.12,1.38-.35l.83,2.88c-.75.35-1.54.52-2.36.52-1.67,0-2.98-.45-3.92-1.35Z"/><rect class="d" x="815.32" y="352.82" width="120" height="144"/><path class="g" d="M832.81,387.89c1.43,0,2.53.39,3.32,1.16.78.77,1.18,1.82,1.18,3.14s-.39,2.39-1.18,3.16c-.79.77-1.89,1.16-3.32,1.16h-3.43v6.5h-1.88v-15.12h5.31ZM834.73,394.08c.42-.45.63-1.08.63-1.89s-.21-1.42-.63-1.87c-.42-.45-1.07-.68-1.94-.68h-3.41v5.12h3.41c.88,0,1.53-.23,1.94-.68Z"/><path class="g" d="M841.19,392.12v1.88c.35-.66.79-1.17,1.34-1.52.55-.35,1.17-.53,1.86-.53.48,0,.99.11,1.53.32l-.37,1.66c-.45-.24-.92-.37-1.4-.37-.86,0-1.57.45-2.13,1.36s-.83,2.23-.83,3.97v4.1h-1.79v-10.89h1.79Z"/><path class="g" d="M856.49,397.85h-8.01c.04,1.11.35,2.01.91,2.7.56.69,1.33,1.04,2.29,1.04.75,0,1.36-.17,1.84-.5.48-.33.9-.87,1.27-1.62l1.51.65c-.52,1.07-1.15,1.84-1.89,2.33-.74.49-1.67.73-2.78.73-1.02,0-1.91-.26-2.66-.77s-1.32-1.2-1.72-2.05c-.4-.86-.59-1.79-.59-2.8s.2-1.96.59-2.82c.4-.86.97-1.54,1.72-2.04s1.63-.76,2.66-.76,1.86.23,2.59.69,1.3,1.08,1.68,1.86c.39.78.58,1.64.58,2.59v.76ZM854.67,396.32c-.13-.85-.45-1.52-.97-2.02-.52-.5-1.21-.75-2.07-.75-.75,0-1.4.24-1.94.71-.55.48-.92,1.16-1.1,2.05h6.09Z"/><path class="g" d="M860.42,402.31c-.56-.58-.84-1.46-.84-2.62v-5.96h-1.84v-1.6h1.84v-3.26l1.79-1.14v4.41h2.92v1.6h-2.92v6.09c0,1.18.5,1.77,1.51,1.77.49,0,.91-.1,1.25-.3l.45,1.51c-.52.26-1.14.39-1.86.39-.98,0-1.75-.29-2.31-.88Z"/><path class="g" d="M868.34,392.12v1.88c.35-.66.79-1.17,1.34-1.52.55-.35,1.17-.53,1.86-.53.48,0,.99.11,1.53.32l-.37,1.66c-.45-.24-.92-.37-1.4-.37-.86,0-1.57.45-2.13,1.36s-.83,2.23-.83,3.97v4.1h-1.79v-10.89h1.79Z"/><path class="g" d="M874.8,402.35c-.63-.55-.95-1.38-.95-2.47,0-1.15.43-2.03,1.29-2.65.86-.61,2.03-.92,3.53-.92h1.9v-.47c0-.79-.21-1.37-.64-1.74s-.98-.55-1.67-.55c-1.2,0-1.99.59-2.38,1.77l-1.6-.37c.14-.91.59-1.63,1.33-2.18.74-.55,1.62-.82,2.65-.82,1.22,0,2.21.36,2.96,1.07s1.12,1.72,1.12,3.01v6.98h-1.4l-.32-1.58c-.75,1.17-1.88,1.75-3.39,1.75-.98,0-1.79-.28-2.42-.83ZM878.97,401.23c.46-.24.84-.61,1.14-1.12.3-.51.45-1.15.45-1.91v-.35h-1.84c-1.01,0-1.76.17-2.27.52-.5.34-.76.84-.76,1.49,0,.55.16.97.49,1.27.32.3.77.45,1.35.45.49,0,.96-.12,1.43-.36Z"/><path class="g" d="M885.31,389.91c-.25-.25-.38-.56-.38-.92s.13-.68.38-.93c.25-.24.56-.37.92-.37s.69.12.94.37c.25.25.38.55.38.93s-.13.68-.38.93c-.25.25-.57.37-.94.37s-.67-.13-.92-.38ZM885.34,392.12h1.79v10.89h-1.79v-10.89Z"/><path class="g" d="M892.15,392.12v2.1c.39-.69.9-1.24,1.54-1.65s1.33-.62,2.06-.62c1.02,0,1.84.3,2.44.91.6.61.91,1.46.91,2.57v7.58h-1.77v-7.19c0-.75-.17-1.31-.51-1.7-.34-.38-.84-.57-1.5-.57-.59,0-1.13.19-1.61.58s-.86.95-1.14,1.67c-.28.73-.42,1.58-.42,2.56v4.64h-1.79v-10.89h1.79Z"/><path class="g" d="M911.54,397.85h-8.01c.04,1.11.35,2.01.91,2.7.56.69,1.33,1.04,2.29,1.04.75,0,1.36-.17,1.84-.5.48-.33.9-.87,1.27-1.62l1.51.65c-.52,1.07-1.15,1.84-1.89,2.33-.74.49-1.67.73-2.78.73-1.02,0-1.91-.26-2.66-.77s-1.32-1.2-1.72-2.05c-.4-.86-.59-1.79-.59-2.8s.2-1.96.59-2.82c.4-.86.97-1.54,1.72-2.04s1.63-.76,2.66-.76,1.86.23,2.59.69,1.3,1.08,1.68,1.86c.39.78.58,1.64.58,2.59v.76ZM909.73,396.32c-.13-.85-.45-1.52-.97-2.02-.52-.5-1.21-.75-2.07-.75-.75,0-1.4.24-1.94.71-.55.48-.92,1.16-1.1,2.05h6.09Z"/><path class="g" d="M915.76,402.46c-.72-.48-1.27-1.15-1.64-2-.38-.85-.56-1.81-.56-2.89s.19-2.04.56-2.89c.37-.85.92-1.51,1.64-2,.72-.48,1.59-.72,2.61-.72.69,0,1.32.14,1.88.41s1.02.65,1.38,1.12v-5.77h1.77v15.29h-1.77v-1.43c-.27.43-.71.81-1.32,1.12-.61.32-1.25.48-1.94.48-1.02,0-1.89-.24-2.61-.72ZM920.94,400.48c.56-.73.84-1.71.84-2.92s-.28-2.16-.84-2.91c-.56-.74-1.34-1.11-2.33-1.11s-1.77.37-2.34,1.11c-.57.74-.85,1.71-.85,2.91s.28,2.16.85,2.91c.57.74,1.35,1.11,2.34,1.11s1.77-.37,2.33-1.1Z"/><path class="g" d="M838.51,413.81h1.99l3.11,12.31,3.28-10.71h1.66l3.26,10.71,3.13-12.31h1.97l-4.08,15.12h-1.9l-3.22-10.54-3.2,10.54h-1.92l-4.08-15.12Z"/><path class="g" d="M866.94,423.77h-8.01c.04,1.11.35,2.01.91,2.7.56.69,1.33,1.04,2.29,1.04.75,0,1.36-.17,1.84-.5.48-.33.9-.87,1.27-1.62l1.51.65c-.52,1.07-1.15,1.84-1.89,2.33-.74.49-1.67.73-2.78.73-1.02,0-1.91-.26-2.66-.77s-1.32-1.2-1.72-2.05c-.4-.86-.59-1.79-.59-2.8s.2-1.96.59-2.82c.4-.86.97-1.54,1.72-2.04s1.63-.76,2.66-.76,1.86.23,2.59.69,1.3,1.08,1.68,1.86c.39.78.58,1.64.58,2.59v.76ZM865.13,422.23c-.13-.85-.45-1.52-.97-2.02-.52-.5-1.21-.75-2.07-.75-.75,0-1.4.24-1.94.71-.55.48-.92,1.16-1.1,2.05h6.09Z"/><path class="g" d="M869.54,415.83c-.25-.25-.38-.56-.38-.92s.13-.68.38-.93c.25-.24.56-.37.92-.37s.69.12.94.37c.25.25.38.55.38.93s-.13.68-.38.93c-.25.25-.57.37-.94.37s-.67-.13-.92-.38ZM869.58,418.04h1.79v10.89h-1.79v-10.89Z"/><path class="g" d="M875.05,432.56c-.84-.63-1.26-1.51-1.26-2.64,0-.47.1-.91.29-1.3s.45-.71.77-.95c-.52-.36-.78-.94-.78-1.75,0-.46.12-.87.37-1.22.24-.35.57-.63.97-.83-.53-.65-.8-1.43-.8-2.35,0-.72.17-1.36.51-1.91.34-.55.79-.98,1.37-1.29s1.22-.45,1.92-.45c.66,0,1.3.17,1.92.5l1.97-1.1.78,1.34-1.53.82c.43.62.65,1.32.65,2.09,0,.73-.17,1.38-.5,1.93-.33.55-.79.98-1.36,1.27s-1.22.44-1.92.44-1.33-.14-1.9-.43c-.5.25-.76.6-.76,1.08,0,.33.12.58.35.73s.53.24.89.24h2.61c1.05,0,1.89.25,2.52.75.63.5.94,1.24.94,2.21,0,1.27-.43,2.21-1.3,2.83s-1.97.93-3.33.93-2.54-.32-3.38-.95ZM880.55,431.4c.5-.37.76-.86.76-1.48,0-.58-.17-.99-.52-1.24-.35-.25-.84-.38-1.49-.38h-1.97c-.4,0-.78-.02-1.12-.07-.49.35-.73.89-.73,1.64,0,.65.25,1.16.77,1.52.51.37,1.24.55,2.19.55s1.61-.18,2.12-.55ZM879.89,423.1c.4-.39.59-.91.59-1.58s-.2-1.19-.59-1.58c-.4-.39-.89-.58-1.48-.58s-1.08.19-1.48.58c-.4.39-.59.91-.59,1.58s.2,1.19.59,1.58c.4.39.89.58,1.48.58s1.08-.19,1.48-.58Z"/><path class="g" d="M886.99,413.64v6.59c.36-.75.88-1.33,1.55-1.74s1.4-.62,2.18-.62c1.07,0,1.9.3,2.5.9.6.6.9,1.46.9,2.58v7.58h-1.77v-7.15c0-.75-.17-1.32-.52-1.72-.35-.4-.86-.59-1.53-.59-.59,0-1.14.19-1.64.57-.5.38-.91.94-1.21,1.67-.3.73-.45,1.6-.45,2.59v4.62h-1.79v-15.29h1.79Z"/><path class="g" d="M898.48,428.23c-.56-.58-.84-1.46-.84-2.62v-5.96h-1.84v-1.6h1.84v-3.26l1.79-1.14v4.41h2.92v1.6h-2.92v6.09c0,1.18.5,1.77,1.51,1.77.49,0,.91-.1,1.25-.3l.45,1.51c-.52.26-1.14.39-1.86.39-.98,0-1.75-.29-2.31-.88Z"/><path class="g" d="M905.26,428.24c-.69-.58-1.14-1.27-1.36-2.09l1.49-.8c.22.69.53,1.22.94,1.6.41.38.95.56,1.63.56.53,0,.95-.14,1.26-.43s.46-.69.46-1.21c0-.46-.2-.83-.59-1.12-.4-.29-.98-.58-1.76-.86-.86-.32-1.53-.71-2-1.19-.47-.48-.7-1.11-.7-1.9,0-.86.3-1.57.9-2.11s1.36-.81,2.28-.81c1.4,0,2.45.57,3.15,1.71l-1.17,1.04c-.49-.76-1.16-1.14-2.01-1.14-.4,0-.74.12-1.01.36-.27.24-.41.56-.41.96s.18.74.53,1c.35.27.98.57,1.89.9,1.77.65,2.66,1.68,2.66,3.11,0,1.02-.32,1.83-.95,2.42-.63.59-1.48.89-2.53.89-1.11,0-2.01-.29-2.7-.86Z"/><path class="g" d="M865.79,443.33h2.59l.95,16.42,6.8-14.28h2.28l1.5,14.31,7.34-16.45h2.59l-9.22,20.16h-2.56l-1.53-13.97-6.74,13.97h-2.53l-1.47-20.16Z"/><polygon class="c" points="1045.78 398.99 973.47 398.99 949.63 352.82 1069.63 352.82 1045.78 398.99"/><polygon class="c" points="973.47 450.64 1045.78 450.64 1069.63 496.82 949.63 496.82 973.47 450.64"/><path class="e" d="M1009.9,419.76l-.37,1.84c.42-.63.93-1.13,1.53-1.48.6-.35,1.23-.53,1.88-.53.35,0,.64.03.88.09s.49.14.75.26l-.67,1.64c-.36-.24-.79-.37-1.3-.37s-1.04.19-1.57.57c-.53.38-1,.95-1.44,1.72s-.75,1.68-.95,2.76l-.84,4.38h-1.79l2.1-10.89h1.79Z"/><path class="g" d="M1012.42,363.79c1.52,0,2.72.4,3.6,1.2s1.33,1.88,1.33,3.24c0,1.13-.29,2.12-.86,2.95-.58.83-1.37,1.47-2.39,1.92.71.29,1.31.77,1.79,1.44.48.67.72,1.55.72,2.62,0,2.19-.67,3.87-2.02,5.04-1.34,1.17-3.15,1.76-5.42,1.76h-7.2l3.95-20.16h6.51ZM1012.73,380.57c.87-.7,1.31-1.73,1.31-3.1,0-.98-.3-1.73-.89-2.26-.59-.53-1.47-.79-2.62-.79h-4.18l-1.38,7.2h4.2c1.5,0,2.68-.35,3.56-1.05ZM1013.69,371.21c.71-.58,1.07-1.43,1.07-2.52,0-.84-.24-1.48-.72-1.92-.48-.43-1.18-.65-2.1-.65h-3.97l-1.15,5.96h4.03c1.19,0,2.14-.29,2.85-.88Z"/><path class="g" d="M1010.81,465.29h2.45l3.23,20.16h-2.62l-.81-5.41h-7.57l-2.91,5.41h-2.62l10.86-20.16ZM1012.77,477.71l-1.33-9.1-4.75,9.1h6.08Z"/><line class="h" x1="977.02" y1="540.03" x2="1007.79" y2="509.26"/><polygon class="e" points="1009.1 521.83 1006.7 521.74 1007.14 509.92 995.31 510.35 995.22 507.95 1009.63 507.42 1009.1 521.83"/><line class="h" x1="907.93" y1="540.03" x2="877.16" y2="509.26"/><polygon class="e" points="889.72 507.95 889.64 510.35 877.81 509.91 878.24 521.74 875.84 521.83 875.32 507.42 889.72 507.95"/><line class="h" x1="906.09" y1="313.23" x2="875.32" y2="344"/><polygon class="e" points="893.52 311.91 893.61 314.31 905.43 313.88 905 325.71 907.4 325.79 907.93 311.39 893.52 311.91"/><line class="h" x1="978.86" y1="313.23" x2="1009.63" y2="344"/><polygon class="e" points="977.54 325.8 979.94 325.71 979.51 313.88 991.34 314.32 991.42 311.92 977.02 311.39 977.54 325.8"/><path class="e" d="M940.91,336.08v-5.22h-5.44v-3.03h5.44v-5.32h3.13v5.32h5.44v3.03h-5.44v5.22h-3.13Z"/><path class="e" d="M897.67,220.66h14.6v5.57h-21.08v-31.32h6.48v25.75Z"/><path class="e" d="M928.52,226.8c-5.7,0-11.1-3.28-11.1-12.18s5.4-12.14,11.1-12.14,11.1,3.24,11.1,12.14-5.44,12.18-11.1,12.18ZM928.52,207.05c-2.98,0-4.88,2.2-4.88,7.56s1.9,7.6,4.88,7.6,4.88-2.25,4.88-7.6-1.9-7.56-4.88-7.56Z"/><path class="e" d="M954.87,213.53h-2.46v12.7h-6.48v-31.32h8.34c7.13,0,12.53,1.51,12.53,9.29,0,4.49-2.33,6.74-5.62,7.95l7,14.08h-7.13l-6.18-12.7ZM952.41,200.19v8.25h2.07c3.07,0,5.44-.73,5.44-4.1s-2.38-4.15-5.44-4.15h-2.07Z"/><path class="e" d="M980.27,194.92h8.08l8.08,31.32h-7.08l-1.43-6.52h-7.34l-1.42,6.52h-6.91l8.04-31.32ZM981.7,214.66h5.1l-2.51-11.49-2.59,11.49Z"/><path class="e" d="M129.56,225.41c-2.16-1.15-3.88-2.89-5.16-5.21-1.28-2.32-1.92-5.16-1.92-8.53s.64-6.21,1.92-8.53c1.28-2.32,3-4.05,5.16-5.21,2.16-1.15,4.55-1.73,7.17-1.73s5.01.58,7.17,1.73c2.16,1.15,3.88,2.89,5.16,5.21,1.28,2.32,1.92,5.16,1.92,8.53s-.68,6.34-2.03,8.73l2.89,2.85-3.93,3.89-2.64-2.59c-2.36,1.73-5.21,2.59-8.55,2.59-2.62,0-5.01-.58-7.17-1.73ZM141.35,220.66l-3.93-3.97,3.93-3.89,3.28,3.33c.43-1.27.65-2.75.65-4.45,0-2.3-.39-4.23-1.17-5.77-.78-1.54-1.81-2.68-3.09-3.41-1.28-.73-2.71-1.1-4.3-1.1s-3.02.37-4.3,1.1c-1.28.73-2.31,1.87-3.09,3.41-.78,1.54-1.17,3.46-1.17,5.77s.39,4.23,1.17,5.77c.78,1.54,1.81,2.68,3.09,3.41,1.28.73,2.71,1.1,4.3,1.1,1.76,0,3.3-.43,4.62-1.3Z"/><path class="e" d="M157.83,225.46c-1.22-1.12-1.84-2.75-1.84-4.88v-15.55h5.36v13.95c0,1.24.28,2.15.84,2.72s1.32.86,2.27.86c.89,0,1.71-.35,2.46-1.04.75-.69,1.35-1.71,1.81-3.05.46-1.34.69-2.93.69-4.77v-8.68h5.36v21.77h-5.36v-3.5c-.84,1.18-1.83,2.12-2.98,2.81-1.15.69-2.41,1.04-3.76,1.04-2.02,0-3.64-.56-4.86-1.68Z"/><path class="e" d="M181.57,225.41c-1.24-1.15-1.86-2.78-1.86-4.88s.82-3.89,2.46-5.18,3.86-1.94,6.65-1.94h3.8v-.95c0-1.06-.36-1.86-1.08-2.4-.72-.53-1.63-.8-2.72-.8-1.87,0-3.13.84-3.76,2.51l-4.54-1.04c.35-1.81,1.27-3.28,2.79-4.38,1.51-1.11,3.35-1.66,5.51-1.66,2.91,0,5.16.77,6.76,2.31,1.6,1.54,2.4,3.81,2.4,6.8v13h-4.41l-.56-2.76c-1.7,2.07-3.93,3.11-6.7,3.11-1.93,0-3.51-.58-4.75-1.73ZM191.16,221.33c.98-.82,1.47-1.91,1.47-3.26v-.43h-3.59c-1.18,0-2.1.23-2.74.69s-.97,1.17-.97,2.12c0,.63.22,1.14.67,1.53.45.39,1.03.58,1.75.58,1.3,0,2.43-.41,3.41-1.23Z"/><path class="e" d="M208.79,205.02v3.5c.83-1.18,1.83-2.12,2.98-2.81,1.15-.69,2.4-1.04,3.76-1.04,2.02,0,3.64.56,4.86,1.68,1.22,1.12,1.84,2.75,1.84,4.88v15.55h-5.36v-13.95c0-1.24-.28-2.15-.84-2.72s-1.32-.86-2.27-.86c-.89,0-1.71.35-2.46,1.04-.75.69-1.35,1.71-1.81,3.04-.46,1.34-.69,2.93-.69,4.77v8.68h-5.36v-21.77h5.36Z"/><path class="e" d="M230.73,225.11c-1.41-1.35-2.12-3.35-2.12-6v-9.5h-3.37v-4.58h3.37v-5.44l5.36-3.37v8.81h5.75v4.58h-5.75v9.42c0,1.3.24,2.21.71,2.74.48.53,1.19.8,2.14.8.72,0,1.41-.17,2.07-.52l1.25,4.32c-1.12.52-2.3.78-3.54.78-2.51,0-4.46-.68-5.88-2.03Z"/><path class="e" d="M244.08,201.22c-.66-.66-.99-1.48-.99-2.46s.33-1.8.99-2.46,1.48-.99,2.46-.99,1.8.33,2.46.99c.66.66.99,1.48.99,2.46s-.33,1.8-.99,2.46-1.48.99-2.46.99-1.8-.33-2.46-.99ZM243.87,205.02h5.36v21.77h-5.36v-21.77Z"/><path class="e" d="M253.54,224.72l9.42-15.12h-8.73v-4.58h15.38v2.07l-9.33,15.12h9.94v4.58h-16.68v-2.07Z"/><path class="e" d="M275.19,225.41c-1.24-1.15-1.86-2.78-1.86-4.88s.82-3.89,2.46-5.18,3.86-1.94,6.65-1.94h3.8v-.95c0-1.06-.36-1.86-1.08-2.4-.72-.53-1.63-.8-2.72-.8-1.87,0-3.13.84-3.76,2.51l-4.54-1.04c.35-1.81,1.27-3.28,2.79-4.38,1.51-1.11,3.35-1.66,5.51-1.66,2.91,0,5.16.77,6.76,2.31,1.6,1.54,2.4,3.81,2.4,6.8v13h-4.41l-.56-2.76c-1.7,2.07-3.93,3.11-6.7,3.11-1.93,0-3.51-.58-4.75-1.73ZM284.78,221.33c.98-.82,1.47-1.91,1.47-3.26v-.43h-3.59c-1.18,0-2.1.23-2.74.69s-.97,1.17-.97,2.12c0,.63.22,1.14.67,1.53.45.39,1.03.58,1.75.58,1.3,0,2.43-.41,3.41-1.23Z"/><path class="e" d="M300.07,225.11c-1.41-1.35-2.12-3.35-2.12-6v-9.5h-3.37v-4.58h3.37v-5.44l5.36-3.37v8.81h5.75v4.58h-5.75v9.42c0,1.3.24,2.21.71,2.74.48.53,1.19.8,2.14.8.72,0,1.41-.17,2.07-.52l1.25,4.32c-1.12.52-2.3.78-3.54.78-2.51,0-4.46-.68-5.88-2.03Z"/><path class="e" d="M313.42,201.22c-.66-.66-.99-1.48-.99-2.46s.33-1.8.99-2.46,1.48-.99,2.46-.99,1.8.33,2.46.99c.66.66.99,1.48.99,2.46s-.33,1.8-.99,2.46-1.48.99-2.46.99-1.8-.33-2.46-.99ZM313.2,205.02h5.36v21.77h-5.36v-21.77Z"/><path class="e" d="M328.45,225.67c-1.67-.98-2.94-2.32-3.82-4.02-.88-1.7-1.32-3.61-1.32-5.75s.44-4.05,1.32-5.75c.88-1.7,2.15-3.04,3.82-4.02,1.67-.98,3.64-1.47,5.92-1.47s4.25.49,5.92,1.47c1.67.98,2.94,2.32,3.82,4.02.88,1.7,1.32,3.61,1.32,5.75s-.44,4.05-1.32,5.75c-.88,1.7-2.15,3.04-3.82,4.02-1.67.98-3.64,1.47-5.92,1.47s-4.25-.49-5.92-1.47ZM338.34,220.64c.98-1.28,1.47-2.86,1.47-4.73s-.49-3.45-1.47-4.73c-.98-1.28-2.3-1.92-3.97-1.92s-3,.64-3.97,1.92c-.98,1.28-1.47,2.86-1.47,4.73s.49,3.45,1.47,4.73c.98,1.28,2.3,1.92,3.97,1.92s3-.64,3.97-1.92Z"/><path class="e" d="M355.62,205.02v3.5c.83-1.18,1.83-2.12,2.98-2.81,1.15-.69,2.4-1.04,3.76-1.04,2.02,0,3.64.56,4.86,1.68,1.22,1.12,1.84,2.75,1.84,4.88v15.55h-5.36v-13.95c0-1.24-.28-2.15-.84-2.72s-1.32-.86-2.27-.86c-.89,0-1.71.35-2.46,1.04-.75.69-1.35,1.71-1.81,3.04-.46,1.34-.69,2.93-.69,4.77v8.68h-5.36v-21.77h5.36Z"/><rect class="f" x="120.49" y="310.6" width="59.72" height="59.72"/><path class="g" d="M130.44,340.43c0-8.71,3.1-13.5,9.47-13.5s9.47,4.79,9.47,13.5-3.1,13.53-9.47,13.53-9.47-4.82-9.47-13.53ZM135.73,340.65l8.13-3.78c-.4-4-1.58-6.12-3.96-6.12-3.06,0-4.18,3.38-4.18,9.68v.22ZM144.05,340.43v-.22l-8.17,3.74c.4,4.03,1.58,6.16,4.03,6.16,3.02,0,4.14-3.38,4.14-9.68Z"/><path class="g" d="M159.82,353.5v-6.41h6.7v6.41h-6.7Z"/><rect class="f" x="186.17" y="310.6" width="59.72" height="59.72"/><path class="g" d="M215.27,349.61v-14.04h-7.16v-3.89c5.76-.11,7.42-1.44,8.39-4.28h3.96v22.21h6.01v3.89h-18.36v-3.89h7.16Z"/><rect class="f" x="251.85" y="310.6" width="59.72" height="59.72"/><path class="g" d="M286.89,343.21c-1.12,1.19-2.88,1.91-5.15,1.91-4.1,0-7.99-3.56-7.99-9.14s3.92-9.03,9.11-9.03c6.48,0,9.43,5.4,9.43,12.96s-3.06,14.07-10.01,14.07c-5.29,0-8.06-3.46-8.31-7.59h5.08c.22,2.56,1.91,3.78,3.53,3.78,2.41,0,4.28-2.41,4.32-6.95ZM282.86,330.75c-2.2,0-3.85,2.05-3.85,5.22s1.66,5.11,3.85,5.11,3.96-1.84,3.96-5.11-1.66-5.22-3.96-5.22Z"/><rect class="f" x="120.49" y="479.32" width="59.72" height="59.72"/><path class="g" d="M130.44,509.16c0-8.71,3.1-13.5,9.47-13.5s9.47,4.79,9.47,13.5-3.1,13.53-9.47,13.53-9.47-4.82-9.47-13.53ZM135.73,509.37l8.13-3.78c-.4-4-1.58-6.12-3.96-6.12-3.06,0-4.18,3.38-4.18,9.68v.22ZM144.05,509.16v-.22l-8.17,3.74c.4,4.03,1.58,6.16,4.03,6.16,3.02,0,4.14-3.38,4.14-9.68Z"/><path class="g" d="M159.82,522.22v-6.41h6.7v6.41h-6.7Z"/><rect class="f" x="186.17" y="479.32" width="59.72" height="59.72"/><path class="g" d="M215.27,518.34v-14.04h-7.16v-3.89c5.76-.11,7.42-1.44,8.39-4.28h3.96v22.21h6.01v3.89h-18.36v-3.89h7.16Z"/><rect class="f" x="251.85" y="479.32" width="59.72" height="59.72"/><path class="g" d="M286.89,511.93c-1.12,1.19-2.88,1.91-5.15,1.91-4.1,0-7.99-3.56-7.99-9.14s3.92-9.03,9.11-9.03c6.48,0,9.43,5.4,9.43,12.96s-3.06,14.07-10.01,14.07c-5.29,0-8.06-3.46-8.31-7.59h5.08c.22,2.56,1.91,3.78,3.53,3.78,2.41,0,4.28-2.41,4.32-6.95ZM282.86,499.48c-2.2,0-3.85,2.05-3.85,5.22s1.66,5.11,3.85,5.11,3.96-1.84,3.96-5.11-1.66-5.22-3.96-5.22Z"/><rect class="f" x="317.53" y="310.6" width="59.72" height="59.72"/><path class="g" d="M358.19,348.21h-3.53v5.29h-5.18v-5.29h-11.45v-4.43l11.81-16.38h4.82v16.13h3.53v4.68ZM343.03,343.53h6.44v-9.14l-6.44,9.14Z"/><rect class="f" x="383.21" y="310.6" width="59.72" height="59.72"/><path class="g" d="M414.11,350.12c2.34,0,3.89-1.37,3.89-3.78s-1.98-3.85-4.86-3.85h-1.51v-4.64h1.33c2.92,0,4.75-1.3,4.75-3.85,0-1.84-1.22-3.24-3.6-3.24s-3.71,1.48-4,4.18h-5.11c.58-5.18,4.21-7.99,9.32-7.99,4.03,0,8.6,2.09,8.6,6.84,0,2.7-1.58,4.9-3.17,5.94,2.27,1.01,3.56,3.82,3.56,6.19,0,5.4-4.61,8.06-9.32,8.06-5.22,0-8.75-3.06-9.36-8.67h5.15c.29,3.06,1.94,4.82,4.32,4.82Z"/><rect class="f" x="448.89" y="310.6" width="59.72" height="59.72"/><path class="g" d="M479.79,350.12c2.34,0,3.89-1.37,3.89-3.78s-1.98-3.85-4.86-3.85h-1.51v-4.64h1.33c2.92,0,4.75-1.3,4.75-3.85,0-1.84-1.22-3.24-3.6-3.24s-3.71,1.48-4,4.18h-5.11c.58-5.18,4.21-7.99,9.32-7.99,4.03,0,8.6,2.09,8.6,6.84,0,2.7-1.58,4.9-3.17,5.94,2.27,1.01,3.56,3.82,3.56,6.19,0,5.4-4.61,8.06-9.32,8.06-5.22,0-8.75-3.06-9.36-8.67h5.15c.29,3.06,1.94,4.82,4.32,4.82Z"/><path class="e" d="M763.51,488.29v-55.38c0-3.63-.58-5.93-4.38-5.93v-4.26c3.8,0,4.38-2.36,4.38-5.93v-55.44c0-6.45,1.38-8.53,8.35-8.53h2.76v4.44h-2.65c-2.71,0-3.23.81-3.23,4.03v55.61c0,5.36-1.78,7.09-4.84,7.89v.11c3.05.81,4.84,2.53,4.84,7.89v55.55c0,3.23.52,4.03,3.23,4.03h2.65v4.44h-2.76c-6.97,0-8.35-2.07-8.35-8.53Z"/><path class="e" d="M1038.77,440.33h-21.19c-3.63,0-6.68-.58-6.97-4.03h-1.96c-.29,3.46-3.34,4.03-6.97,4.03h-21.19c-5.18,0-6.91,1.15-6.91,6.74v1.09h2.02v-.58c0-4.55.92-5.01,5.13-5.01h21.02c5.36,0,7.14-1.32,7.89-3.92h0c.75,2.59,2.53,3.92,7.89,3.92h21.02c4.2,0,5.13.46,5.13,5.01v.58h2.02v-1.09c0-5.59-1.73-6.74-6.91-6.74Z"/><path class="e" d="M980.48,409.3h21.19c3.63,0,6.68.58,6.97,4.03h1.96c.29-3.46,3.34-4.03,6.97-4.03h21.19c5.18,0,6.91-1.15,6.91-6.74v-1.09h-2.02v.58c0,4.55-.92,5.01-5.13,5.01h-21.02c-5.36,0-7.14,1.32-7.89,3.92h0c-.75-2.59-2.53-3.92-7.89-3.92h-21.02c-4.2,0-5.13-.46-5.13-5.01v-.58h-2.02v1.09c0,5.59,1.73,6.74,6.91,6.74Z"/><line class="j" x1="217.22" y1="388.5" x2="217.22" y2="452.98"/><polygon class="e" points="202.49 441.05 205.13 438.6 217.21 451.6 229.3 438.6 231.94 441.05 217.21 456.88 202.49 441.05"/><line class="j" x1="726.05" y1="422.69" x2="561.82" y2="422.69"/><polygon class="e" points="714.12 407.97 711.67 410.6 724.67 422.69 711.67 434.77 714.12 437.41 729.95 422.69 714.12 407.97"/></g></svg>