<?xml version="1.0" encoding="UTF-8"?>
<svg width="376px" height="190px" viewBox="0 0 376 190" version="1.1" xmlns="http://www.w3.org/2000/svg" xmlns:xlink="http://www.w3.org/1999/xlink">
    <!-- Generator: Sketch 59.1 (86144) - https://sketch.com -->
    <title>1-hot Encoding </title>
    <desc>Created with Sketch.</desc>
    <g id="1-hot-Encoding-" stroke="none" stroke-width="1" fill="none" fill-rule="evenodd">
        <path d="M55.5,34.5 L9.5,34.5 L9.5,10.5 L55.5,10.5 L55.5,34.5 Z M54.5,11.5 L10.5,11.5 L10.5,33.5 L54.5,33.5 L54.5,11.5 Z" id="Rectangle" fill="#0F1931" fill-rule="nonzero"></path>
        <path d="M199.5,34.5 L153.5,34.5 L153.5,10.5 L199.5,10.5 L199.5,34.5 Z M198.5,11.5 L154.5,11.5 L154.5,33.5 L198.5,33.5 L198.5,11.5 Z" id="Rectangle-Copy-12" fill="#0F1931" fill-rule="nonzero"></path>
        <path d="M55.5,57.5 L9.5,57.5 L9.5,33.5 L55.5,33.5 L55.5,57.5 Z M54.5,34.5 L10.5,34.5 L10.5,56.5 L54.5,56.5 L54.5,34.5 Z" id="Rectangle-Copy-3" fill="#0F1931" fill-rule="nonzero"></path>
        <path d="M199.5,57.5 L153.5,57.5 L153.5,33.5 L199.5,33.5 L199.5,57.5 Z M198.5,34.5 L154.5,34.5 L154.5,56.5 L198.5,56.5 L198.5,34.5 Z" id="Rectangle-Copy-13" fill="#0F1931" fill-rule="nonzero"></path>
        <path d="M88.5,34.5 L54.5,34.5 L54.5,10.5 L88.5,10.5 L88.5,34.5 Z M87.5,11.5 L55.5,11.5 L55.5,33.5 L87.5,33.5 L87.5,11.5 Z" id="Rectangle-Copy" fill="#0F1931" fill-rule="nonzero"></path>
        <path d="M232.5,34.5 L198.5,34.5 L198.5,10.5 L232.5,10.5 L232.5,34.5 Z M231.5,11.5 L199.5,11.5 L199.5,33.5 L231.5,33.5 L231.5,11.5 Z" id="Rectangle-Copy-14" fill="#0F1931" fill-rule="nonzero"></path>
        <path d="M88.5,57.5 L54.5,57.5 L54.5,33.5 L88.5,33.5 L88.5,57.5 Z M87.5,34.5 L55.5,34.5 L55.5,56.5 L87.5,56.5 L87.5,34.5 Z" id="Rectangle-Copy-4" fill="#0F1931" fill-rule="nonzero"></path>
        <path d="M232.5,57.5 L198.5,57.5 L198.5,33.5 L232.5,33.5 L232.5,57.5 Z M231.5,34.5 L199.5,34.5 L199.5,56.5 L231.5,56.5 L231.5,34.5 Z" id="Rectangle-Copy-15" fill="#0F1931" fill-rule="nonzero"></path>
        <path d="M24.321,18.1489989 C25.1890043,18.1489989 25.8353312,18.3706633 26.26,18.8139989 C26.6846688,19.2573344 26.897,19.931661 26.897,20.8369989 L26.897,25.1349989 L25.791,25.1349989 L25.791,23.9729989 C25.6136658,24.3743342 25.3430018,24.6846644 24.979,24.9039989 C24.6149982,25.1233333 24.1950024,25.2329989 23.719,25.2329989 C23.2803311,25.2329989 22.8766685,25.1443331 22.508,24.9669989 C22.1393315,24.7896646 21.8476677,24.5423338 21.633,24.2249989 C21.4183323,23.9076639 21.311,23.5576674 21.311,23.1749989 C21.311,22.661663 21.4416654,22.2626669 21.703,21.9779989 C21.9643346,21.6933308 22.3936637,21.4879995 22.991,21.3619989 C23.5219656,21.2499983 24.2372845,21.1877765 25.136974,21.1753322 L25.791,21.1729989 L25.791,20.7109989 C25.791,20.1416627 25.6743345,19.7286668 25.441,19.4719989 C25.2076655,19.2153309 24.8296693,19.0869989 24.307,19.0869989 C23.5229961,19.0869989 22.7436705,19.3296631 21.969,19.8149989 L21.591,18.9889989 C21.9456684,18.7369976 22.3726642,18.5339996 22.872,18.3799989 C23.3713358,18.2259981 23.854331,18.1489989 24.321,18.1489989 Z M23.873,24.3369989 C24.4330028,24.3369989 24.8926649,24.1480007 25.252,23.7699989 C25.6113351,23.391997 25.791,22.9043352 25.791,22.3069989 L25.791,21.9009989 L25.539,21.9009989 C24.7176626,21.9009989 24.0923355,21.9359985 23.663,22.0059989 C23.2336645,22.0759992 22.9280009,22.1926647 22.746,22.3559989 C22.5639991,22.519333 22.473,22.7596639 22.473,23.0769989 C22.473,23.4410007 22.6059987,23.7419977 22.872,23.9799989 C23.1380013,24.218 23.4716647,24.3369989 23.873,24.3369989 Z M35.073,18.3169989 L35.073,24.6729989 C35.073,25.6903373 34.8116693,26.4579963 34.289,26.9759989 C33.7663307,27.4940014 32.9916718,27.7529989 31.965,27.7529989 C30.7703274,27.7529989 29.7670041,27.4450019 28.955,26.8289989 L29.333,25.9889989 C29.7903356,26.287667 30.2196647,26.5023315 30.621,26.6329989 C31.0223353,26.7636662 31.4703309,26.8289989 31.965,26.8289989 C32.6183366,26.8289989 33.1129983,26.6540006 33.449,26.3039989 C33.7850017,25.9539971 33.953,25.4430022 33.953,24.7709989 L33.953,23.5669989 C33.756999,24.0056677 33.456002,24.3416644 33.05,24.5749989 C32.643998,24.8083334 32.1656694,24.9249989 31.615,24.9249989 C31.0176637,24.9249989 30.4880023,24.7850003 30.026,24.5049989 C29.5639977,24.2249975 29.2046679,23.8283348 28.948,23.3149989 C28.691332,22.801663 28.563,22.2090022 28.563,21.5369989 C28.563,20.8649955 28.691332,20.2723348 28.948,19.7589989 C29.2046679,19.245663 29.5639977,18.8490003 30.026,18.5689989 C30.4880023,18.2889975 31.0176637,18.1489989 31.615,18.1489989 C32.156336,18.1489989 32.6276647,18.2656644 33.029,18.4989989 C33.4303353,18.7323334 33.7336656,19.0636634 33.939,19.4929989 L33.939,18.3169989 L35.073,18.3169989 Z M31.839,23.9869989 C32.4923366,23.9869989 33.0056648,23.770001 33.379,23.3359989 C33.7523352,22.9019967 33.939,22.302336 33.939,21.5369989 C33.939,20.7809951 33.7546685,20.186001 33.386,19.7519989 C33.0173315,19.3179967 32.50167,19.1009989 31.839,19.1009989 C31.17633,19.1009989 30.6560019,19.3179967 30.278,19.7519989 C29.8999981,20.186001 29.711,20.7809951 29.711,21.5369989 C29.711,22.302336 29.8999981,22.9019967 30.278,23.3359989 C30.6560019,23.770001 31.17633,23.9869989 31.839,23.9869989 Z" id="age" fill="#0F1931" fill-rule="nonzero"></path>
        <path d="M39.987,18.1489989 C40.8923379,18.1489989 41.6016641,18.4453292 42.115,19.0379989 C42.6283359,19.6306685 42.885,20.4449937 42.885,21.4809989 L42.885,21.9009989 L37.901,21.9009989 C37.9383335,22.6943362 38.152998,23.2939968 38.545,23.6999989 C38.937002,24.1060009 39.4923297,24.3089989 40.211,24.3089989 C41.0043373,24.3089989 41.73233,24.0383349 42.395,23.4969989 L42.773,24.3229989 C42.4743318,24.6030003 42.091669,24.8246647 41.625,24.9879989 C41.158331,25.151333 40.6823358,25.2329989 40.197,25.2329989 C39.1329947,25.2329989 38.2953364,24.9203353 37.684,24.2949989 C37.0726636,23.6696624 36.767,22.8063377 36.767,21.7049989 C36.767,21.0049954 36.902332,20.3866682 37.173,19.8499989 C37.443668,19.3133295 37.8239976,18.895667 38.314,18.5969989 C38.8040025,18.2983307 39.3616635,18.1489989 39.987,18.1489989 Z M40.001,19.0309989 C39.4036637,19.0309989 38.9253351,19.2176637 38.566,19.5909989 C38.2066649,19.9643341 37.9943337,20.4916621 37.929,21.1729989 L37.929,21.1729989 L41.891,21.1729989 C41.8723332,20.4823287 41.6996683,19.9526674 41.373,19.5839989 C41.0463317,19.2153303 40.5890029,19.0309989 40.001,19.0309989 Z" id="Combined-Shape" fill="#0F1931" fill-rule="nonzero"></path>
        <path d="M168.321,18.1489989 C169.189004,18.1489989 169.835331,18.3706633 170.26,18.8139989 C170.684669,19.2573344 170.897,19.931661 170.897,20.8369989 L170.897,25.1349989 L169.791,25.1349989 L169.791,23.9729989 C169.613666,24.3743342 169.343002,24.6846644 168.979,24.9039989 C168.614998,25.1233333 168.195002,25.2329989 167.719,25.2329989 C167.280331,25.2329989 166.876669,25.1443331 166.508,24.9669989 C166.139331,24.7896646 165.847668,24.5423338 165.633,24.2249989 C165.418332,23.9076639 165.311,23.5576674 165.311,23.1749989 C165.311,22.661663 165.441665,22.2626669 165.703,21.9779989 C165.964335,21.6933308 166.393664,21.4879995 166.991,21.3619989 C167.521966,21.2499983 168.237284,21.1877765 169.136974,21.1753322 L169.791,21.1729989 L169.791,20.7109989 C169.791,20.1416627 169.674334,19.7286668 169.441,19.4719989 C169.207665,19.2153309 168.829669,19.0869989 168.307,19.0869989 C167.522996,19.0869989 166.743671,19.3296631 165.969,19.8149989 L165.591,18.9889989 C165.945668,18.7369976 166.372664,18.5339996 166.872,18.3799989 C167.371336,18.2259981 167.854331,18.1489989 168.321,18.1489989 Z M167.873,24.3369989 C168.433003,24.3369989 168.892665,24.1480007 169.252,23.7699989 C169.611335,23.391997 169.791,22.9043352 169.791,22.3069989 L169.791,21.9009989 L169.539,21.9009989 C168.717663,21.9009989 168.092335,21.9359985 167.663,22.0059989 C167.233665,22.0759992 166.928001,22.1926647 166.746,22.3559989 C166.563999,22.519333 166.473,22.7596639 166.473,23.0769989 C166.473,23.4410007 166.605999,23.7419977 166.872,23.9799989 C167.138001,24.218 167.471665,24.3369989 167.873,24.3369989 Z M179.073,18.3169989 L179.073,24.6729989 C179.073,25.6903373 178.811669,26.4579963 178.289,26.9759989 C177.766331,27.4940014 176.991672,27.7529989 175.965,27.7529989 C174.770327,27.7529989 173.767004,27.4450019 172.955,26.8289989 L173.333,25.9889989 C173.790336,26.287667 174.219665,26.5023315 174.621,26.6329989 C175.022335,26.7636662 175.470331,26.8289989 175.965,26.8289989 C176.618337,26.8289989 177.112998,26.6540006 177.449,26.3039989 C177.785002,25.9539971 177.953,25.4430022 177.953,24.7709989 L177.953,23.5669989 C177.756999,24.0056677 177.456002,24.3416644 177.05,24.5749989 C176.643998,24.8083334 176.165669,24.9249989 175.615,24.9249989 C175.017664,24.9249989 174.488002,24.7850003 174.026,24.5049989 C173.563998,24.2249975 173.204668,23.8283348 172.948,23.3149989 C172.691332,22.801663 172.563,22.2090022 172.563,21.5369989 C172.563,20.8649955 172.691332,20.2723348 172.948,19.7589989 C173.204668,19.245663 173.563998,18.8490003 174.026,18.5689989 C174.488002,18.2889975 175.017664,18.1489989 175.615,18.1489989 C176.156336,18.1489989 176.627665,18.2656644 177.029,18.4989989 C177.430335,18.7323334 177.733666,19.0636634 177.939,19.4929989 L177.939,18.3169989 L179.073,18.3169989 Z M175.839,23.9869989 C176.492337,23.9869989 177.005665,23.770001 177.379,23.3359989 C177.752335,22.9019967 177.939,22.302336 177.939,21.5369989 C177.939,20.7809951 177.754669,20.186001 177.386,19.7519989 C177.017331,19.3179967 176.50167,19.1009989 175.839,19.1009989 C175.17633,19.1009989 174.656002,19.3179967 174.278,19.7519989 C173.899998,20.186001 173.711,20.7809951 173.711,21.5369989 C173.711,22.302336 173.899998,22.9019967 174.278,23.3359989 C174.656002,23.770001 175.17633,23.9869989 175.839,23.9869989 Z" id="age" fill="#0F1931" fill-rule="nonzero"></path>
        <path d="M183.987,18.1489989 C184.892338,18.1489989 185.601664,18.4453292 186.115,19.0379989 C186.628336,19.6306685 186.885,20.4449937 186.885,21.4809989 L186.885,21.9009989 L181.901,21.9009989 C181.938334,22.6943362 182.152998,23.2939968 182.545,23.6999989 C182.937002,24.1060009 183.49233,24.3089989 184.211,24.3089989 C185.004337,24.3089989 185.73233,24.0383349 186.395,23.4969989 L186.773,24.3229989 C186.474332,24.6030003 186.091669,24.8246647 185.625,24.9879989 C185.158331,25.151333 184.682336,25.2329989 184.197,25.2329989 C183.132995,25.2329989 182.295336,24.9203353 181.684,24.2949989 C181.072664,23.6696624 180.767,22.8063377 180.767,21.7049989 C180.767,21.0049954 180.902332,20.3866682 181.173,19.8499989 C181.443668,19.3133295 181.823998,18.895667 182.314,18.5969989 C182.804002,18.2983307 183.361664,18.1489989 183.987,18.1489989 Z M184.001,19.0309989 C183.403664,19.0309989 182.925335,19.2176637 182.566,19.5909989 C182.206665,19.9643341 181.994334,20.4916621 181.929,21.1729989 L181.929,21.1729989 L185.891,21.1729989 C185.872333,20.4823287 185.699668,19.9526674 185.373,19.5839989 C185.046332,19.2153303 184.589003,19.0309989 184.001,19.0309989 Z" id="Combined-Shape" fill="#0F1931" fill-rule="nonzero"></path>
        <path d="M29.158,45.0669989 C29.7366696,45.2349997 30.1799985,45.5219968 30.488,45.9279989 C30.7960015,46.3340009 30.95,46.8449958 30.95,47.4609989 C30.95,48.3196698 30.6583362,48.9963297 30.075,49.4909989 C29.4916638,49.985668 28.7006717,50.2329989 27.702,50.2329989 C27.0673302,50.2329989 26.4560029,50.1256666 25.868,49.9109989 C25.2799971,49.6963311 24.7853353,49.3976674 24.384,49.0149989 L24.818,48.1329989 C25.7140045,48.8890026 26.665995,49.2669989 27.674,49.2669989 C28.3740035,49.2669989 28.9059982,49.1106671 29.27,48.7979989 C29.6340018,48.4853306 29.816,48.0256686 29.816,47.4189989 C29.816,46.2149928 29.0600076,45.6129989 27.548,45.6129989 L26.414,45.6129989 L26.414,44.6469989 L27.324,44.6469989 C28.0520036,44.6469989 28.611998,44.4860005 29.004,44.1639989 C29.396002,43.8419972 29.592,43.3776686 29.592,42.7709989 C29.592,42.2389962 29.4333349,41.8306669 29.116,41.5459989 C28.7986651,41.2613308 28.3460029,41.1189989 27.758,41.1189989 C26.8059952,41.1189989 25.8726712,41.4969951 24.958,42.2529989 L24.524,41.3709989 C24.9253353,40.9883303 25.4153304,40.6896666 25.994,40.4749989 C26.5726696,40.2603311 27.1746635,40.1529989 27.8,40.1529989 C28.6960045,40.1529989 29.407664,40.3793299 29.935,40.8319989 C30.462336,41.2846678 30.726,41.8936617 30.726,42.6589989 C30.726,43.228335 30.5883347,43.7253301 30.313,44.1499989 C30.0376653,44.5746676 29.6526691,44.8803313 29.158,45.0669989 Z M39.546,49.1689989 L39.546,50.1349989 L33.19,50.1349989 L33.19,49.2669989 L36.648,45.4589989 C37.114669,44.9363296 37.452999,44.4673343 37.663,44.0519989 C37.873001,43.6366634 37.978,43.219001 37.978,42.7989989 C37.978,42.2576628 37.8193349,41.8423336 37.502,41.5529989 C37.1846651,41.2636641 36.7366696,41.1189989 36.158,41.1189989 C35.2059952,41.1189989 34.2726712,41.4969951 33.358,42.2529989 L32.924,41.3709989 C33.316002,40.9976637 33.8083304,40.7013333 34.401,40.4819989 C34.9936696,40.2626644 35.5886637,40.1529989 36.186,40.1529989 C37.0913379,40.1529989 37.807664,40.3863299 38.335,40.8529989 C38.862336,41.3196679 39.126,41.9496616 39.126,42.7429989 C39.126,43.312335 38.997668,43.8583296 38.741,44.3809989 C38.484332,44.9036681 38.0620029,45.4869956 37.474,46.1309989 L34.674,49.1689989 L39.546,49.1689989 Z" id="32" fill="#0F1931" fill-rule="nonzero"></path>
        <path d="M173.158,45.0669989 C173.73667,45.2349997 174.179998,45.5219968 174.488,45.9279989 C174.796002,46.3340009 174.95,46.8449958 174.95,47.4609989 C174.95,48.3196698 174.658336,48.9963297 174.075,49.4909989 C173.491664,49.985668 172.700672,50.2329989 171.702,50.2329989 C171.06733,50.2329989 170.456003,50.1256666 169.868,49.9109989 C169.279997,49.6963311 168.785335,49.3976674 168.384,49.0149989 L168.818,48.1329989 C169.714004,48.8890026 170.665995,49.2669989 171.674,49.2669989 C172.374003,49.2669989 172.905998,49.1106671 173.27,48.7979989 C173.634002,48.4853306 173.816,48.0256686 173.816,47.4189989 C173.816,46.2149928 173.060008,45.6129989 171.548,45.6129989 L170.414,45.6129989 L170.414,44.6469989 L171.324,44.6469989 C172.052004,44.6469989 172.611998,44.4860005 173.004,44.1639989 C173.396002,43.8419972 173.592,43.3776686 173.592,42.7709989 C173.592,42.2389962 173.433335,41.8306669 173.116,41.5459989 C172.798665,41.2613308 172.346003,41.1189989 171.758,41.1189989 C170.805995,41.1189989 169.872671,41.4969951 168.958,42.2529989 L168.524,41.3709989 C168.925335,40.9883303 169.41533,40.6896666 169.994,40.4749989 C170.57267,40.2603311 171.174664,40.1529989 171.8,40.1529989 C172.696004,40.1529989 173.407664,40.3793299 173.935,40.8319989 C174.462336,41.2846678 174.726,41.8936617 174.726,42.6589989 C174.726,43.228335 174.588335,43.7253301 174.313,44.1499989 C174.037665,44.5746676 173.652669,44.8803313 173.158,45.0669989 Z M183.546,49.1689989 L183.546,50.1349989 L177.19,50.1349989 L177.19,49.2669989 L180.648,45.4589989 C181.114669,44.9363296 181.452999,44.4673343 181.663,44.0519989 C181.873001,43.6366634 181.978,43.219001 181.978,42.7989989 C181.978,42.2576628 181.819335,41.8423336 181.502,41.5529989 C181.184665,41.2636641 180.73667,41.1189989 180.158,41.1189989 C179.205995,41.1189989 178.272671,41.4969951 177.358,42.2529989 L176.924,41.3709989 C177.316002,40.9976637 177.80833,40.7013333 178.401,40.4819989 C178.99367,40.2626644 179.588664,40.1529989 180.186,40.1529989 C181.091338,40.1529989 181.807664,40.3863299 182.335,40.8529989 C182.862336,41.3196679 183.126,41.9496616 183.126,42.7429989 C183.126,43.312335 182.997668,43.8583296 182.741,44.3809989 C182.484332,44.9036681 182.062003,45.4869956 181.474,46.1309989 L178.674,49.1689989 L183.546,49.1689989 Z" id="32" fill="#0F1931" fill-rule="nonzero"></path>
        <path d="M67.073,23.7069989 L68.501,23.7069989 L68.501,25.1349989 L67.073,25.1349989 L67.073,23.7069989 Z M70.279,23.7069989 L71.707,23.7069989 L71.707,25.1349989 L70.279,25.1349989 L70.279,23.7069989 Z M73.485,23.7069989 L74.913,23.7069989 L74.913,25.1349989 L73.485,25.1349989 L73.485,23.7069989 Z" id="…" fill="#0F1931" fill-rule="nonzero"></path>
        <path d="M211.073,23.7069989 L212.501,23.7069989 L212.501,25.1349989 L211.073,25.1349989 L211.073,23.7069989 Z M214.279,23.7069989 L215.707,23.7069989 L215.707,25.1349989 L214.279,25.1349989 L214.279,23.7069989 Z M217.485,23.7069989 L218.913,23.7069989 L218.913,25.1349989 L217.485,25.1349989 L217.485,23.7069989 Z" id="…" fill="#0F1931" fill-rule="nonzero"></path>
        <path d="M67.073,46.7069989 L68.501,46.7069989 L68.501,48.1349989 L67.073,48.1349989 L67.073,46.7069989 Z M70.279,46.7069989 L71.707,46.7069989 L71.707,48.1349989 L70.279,48.1349989 L70.279,46.7069989 Z M73.485,46.7069989 L74.913,46.7069989 L74.913,48.1349989 L73.485,48.1349989 L73.485,46.7069989 Z" id="…" fill="#0F1931" fill-rule="nonzero"></path>
        <path d="M211.073,46.7069989 L212.501,46.7069989 L212.501,48.1349989 L211.073,48.1349989 L211.073,46.7069989 Z M214.279,46.7069989 L215.707,46.7069989 L215.707,48.1349989 L214.279,48.1349989 L214.279,46.7069989 Z M217.485,46.7069989 L218.913,46.7069989 L218.913,48.1349989 L217.485,48.1349989 L217.485,46.7069989 Z" id="…" fill="#0F1931" fill-rule="nonzero"></path>
        <path d="M141.5,34.5 L87.5,34.5 L87.5,10.5 L141.5,10.5 L141.5,34.5 Z M140.5,11.5 L88.5,11.5 L88.5,33.5 L140.5,33.5 L140.5,11.5 Z" id="Rectangle-Copy-2" fill="#0F1931" fill-rule="nonzero"></path>
        <path d="M265.5,34.5 L231.5,34.5 L231.5,10.5 L265.5,10.5 L265.5,34.5 Z M264.5,11.5 L232.5,11.5 L232.5,33.5 L264.5,33.5 L264.5,11.5 Z" id="Rectangle-Copy-16" fill="#0F1931" fill-rule="nonzero"></path>
        <path d="M298.5,34.5 L264.5,34.5 L264.5,10.5 L298.5,10.5 L298.5,34.5 Z M297.5,11.5 L265.5,11.5 L265.5,33.5 L297.5,33.5 L297.5,11.5 Z" id="Rectangle-Copy-24" fill="#0F1931" fill-rule="nonzero"></path>
        <path d="M331.5,34.5 L297.5,34.5 L297.5,10.5 L331.5,10.5 L331.5,34.5 Z M330.5,11.5 L298.5,11.5 L298.5,33.5 L330.5,33.5 L330.5,11.5 Z" id="Rectangle-Copy-28" fill="#0F1931" fill-rule="nonzero"></path>
        <path d="M276.17,16.2649989 L277.248,16.2649989 L277.248,26.1349989 L276.366,26.1349989 L270.416,18.1969989 L270.416,26.1349989 L269.338,26.1349989 L269.338,16.2649989 L270.22,16.2649989 L276.17,24.2029989 L276.17,16.2649989 Z M292.284,16.2649989 L293.404,16.2649989 L289.96,26.1349989 L288.98,26.1349989 L286.166,18.0569989 L283.352,26.1349989 L282.386,26.1349989 L278.928,16.2649989 L280.09,16.2649989 L282.89,24.5109989 L285.76,16.2649989 L286.628,16.2789989 L289.456,24.5249989 L292.284,16.2649989 Z" id="NW" fill="#0F1931" fill-rule="nonzero"></path>
        <path d="M309.961,26.2469989 C308.420992,26.2469989 307.189005,25.8316697 306.265,25.0009989 L306.713,24.1189989 C307.198336,24.5296676 307.695331,24.8236646 308.204,25.0009989 C308.712669,25.1783331 309.302997,25.2669989 309.975,25.2669989 C310.768337,25.2669989 311.379665,25.1130004 311.809,24.8049989 C312.238335,24.4969973 312.453,24.0630017 312.453,23.5029989 C312.453,23.1763306 312.350334,22.9103332 312.145,22.7049989 C311.939666,22.4996645 311.669002,22.3363328 311.333,22.2149989 C311.092999,22.1283318 310.793477,22.0392847 310.43443,21.9478562 L309.975,21.8369989 C309.209663,21.6596646 308.582002,21.4729998 308.092,21.2769989 C307.601998,21.0809979 307.205335,20.8010007 306.902,20.4369989 C306.598665,20.072997 306.447,19.5970018 306.447,19.0089989 C306.447,18.4489961 306.593999,17.952001 306.888,17.5179989 C307.182001,17.0839967 307.601997,16.748 308.148,16.5099989 C308.694003,16.2719977 309.32633,16.1529989 310.045,16.1529989 C310.726337,16.1529989 311.36333,16.2603311 311.956,16.4749989 C312.54867,16.6896666 313.050331,16.9976635 313.461,17.3989989 L313.027,18.2809989 C312.560331,17.8796635 312.086669,17.5879998 311.606,17.4059989 C311.125331,17.2239979 310.605003,17.1329989 310.045,17.1329989 C309.279663,17.1329989 308.680002,17.2939972 308.246,17.6159989 C307.811998,17.9380005 307.595,18.3883293 307.595,18.9669989 C307.595,19.461668 307.786331,19.8349976 308.169,20.0869989 C308.50915,20.311 309.004158,20.5055005 309.654036,20.6705048 L309.905,20.7309989 C310.754338,20.9363332 311.421664,21.1253313 311.907,21.2979989 C312.392336,21.4706664 312.795998,21.7296638 313.118,22.0749989 C313.440002,22.4203339 313.601,22.8823293 313.601,23.4609989 C313.601,24.0210017 313.454001,24.5109968 313.16,24.9309989 C312.865999,25.351001 312.443669,25.675331 311.893,25.9039989 C311.342331,26.1326667 310.698337,26.2469989 309.961,26.2469989 Z M315.463,26.1349989 L315.463,16.2649989 L321.707,16.2649989 L321.707,17.2169989 L316.597,17.2169989 L316.597,20.6469989 L321.427,20.6469989 L321.427,21.5989989 L316.597,21.5989989 L316.597,25.1829989 L321.707,25.1829989 L321.707,26.1349989 L315.463,26.1349989 Z" id="SE" fill="#0F1931" fill-rule="nonzero"></path>
        <path d="M339.328,26.2469989 C337.787992,26.2469989 336.556005,25.8316697 335.632,25.0009989 L336.08,24.1189989 C336.565336,24.5296676 337.062331,24.8236646 337.571,25.0009989 C338.079669,25.1783331 338.669997,25.2669989 339.342,25.2669989 C340.135337,25.2669989 340.746665,25.1130004 341.176,24.8049989 C341.605335,24.4969973 341.82,24.0630017 341.82,23.5029989 C341.82,23.1763306 341.717334,22.9103332 341.512,22.7049989 C341.306666,22.4996645 341.036002,22.3363328 340.7,22.2149989 C340.459999,22.1283318 340.160477,22.0392847 339.80143,21.9478562 L339.342,21.8369989 C338.576663,21.6596646 337.949002,21.4729998 337.459,21.2769989 C336.968998,21.0809979 336.572335,20.8010007 336.269,20.4369989 C335.965665,20.072997 335.814,19.5970018 335.814,19.0089989 C335.814,18.4489961 335.960999,17.952001 336.255,17.5179989 C336.549001,17.0839967 336.968997,16.748 337.515,16.5099989 C338.061003,16.2719977 338.69333,16.1529989 339.412,16.1529989 C340.093337,16.1529989 340.73033,16.2603311 341.323,16.4749989 C341.91567,16.6896666 342.417331,16.9976635 342.828,17.3989989 L342.394,18.2809989 C341.927331,17.8796635 341.453669,17.5879998 340.973,17.4059989 C340.492331,17.2239979 339.972003,17.1329989 339.412,17.1329989 C338.646663,17.1329989 338.047002,17.2939972 337.613,17.6159989 C337.178998,17.9380005 336.962,18.3883293 336.962,18.9669989 C336.962,19.461668 337.153331,19.8349976 337.536,20.0869989 C337.87615,20.311 338.371158,20.5055005 339.021036,20.6705048 L339.272,20.7309989 C340.121338,20.9363332 340.788664,21.1253313 341.274,21.2979989 C341.759336,21.4706664 342.162998,21.7296638 342.485,22.0749989 C342.807002,22.4203339 342.968,22.8823293 342.968,23.4609989 C342.968,24.0210017 342.821001,24.5109968 342.527,24.9309989 C342.232999,25.351001 341.810669,25.675331 341.26,25.9039989 C340.709331,26.1326667 340.065337,26.2469989 339.328,26.2469989 Z M357.43,16.2649989 L358.55,16.2649989 L355.106,26.1349989 L354.126,26.1349989 L351.312,18.0569989 L348.498,26.1349989 L347.532,26.1349989 L344.074,16.2649989 L345.236,16.2649989 L348.036,24.5109989 L350.906,16.2649989 L351.774,16.2789989 L354.602,24.5249989 L357.43,16.2649989 Z" id="SW" fill="#0F1931" fill-rule="nonzero"></path>
        <path d="M364.5,34.5 L330.5,34.5 L330.5,10.5 L364.5,10.5 L364.5,34.5 Z M363.5,11.5 L331.5,11.5 L331.5,33.5 L363.5,33.5 L363.5,11.5 Z" id="Rectangle-Copy-32" fill="#0F1931" fill-rule="nonzero"></path>
        <path d="M141.5,57.5 L87.5,57.5 L87.5,33.5 L141.5,33.5 L141.5,57.5 Z M140.5,34.5 L88.5,34.5 L88.5,56.5 L140.5,56.5 L140.5,34.5 Z" id="Rectangle-Copy-5" fill="#0F1931" fill-rule="nonzero"></path>
        <path d="M265.5,57.5 L231.5,57.5 L231.5,33.5 L265.5,33.5 L265.5,57.5 Z M264.5,34.5 L232.5,34.5 L232.5,56.5 L264.5,56.5 L264.5,34.5 Z" id="Rectangle-Copy-17" fill="#0F1931" fill-rule="nonzero"></path>
        <path d="M298.5,57.5 L264.5,57.5 L264.5,33.5 L298.5,33.5 L298.5,57.5 Z M297.5,34.5 L265.5,34.5 L265.5,56.5 L297.5,56.5 L297.5,34.5 Z" id="Rectangle-Copy-25" fill="#0F1931" fill-rule="nonzero"></path>
        <path d="M281,40.1529989 C282.129339,40.1529989 282.987997,40.5799946 283.576,41.4339989 C284.164003,42.2880031 284.458,43.5409906 284.458,45.1929989 C284.458,46.8450071 284.164003,48.1003279 283.576,48.9589989 C282.987997,49.8176698 282.129339,50.2469989 281,50.2469989 C279.870661,50.2469989 279.012003,49.8176698 278.424,48.9589989 C277.835997,48.1003279 277.542,46.8496737 277.542,45.2069989 C277.542,43.5549906 277.835997,42.2996698 278.424,41.4409989 C279.012003,40.5823279 279.870661,40.1529989 281,40.1529989 Z M281,41.1329989 C280.215996,41.1329989 279.637335,41.4596623 279.264,42.1129989 C278.890665,42.7663355 278.704,43.7929919 278.704,45.1929989 C278.704,46.5930059 278.890665,47.6243289 279.264,48.2869989 C279.637335,48.9496688 280.215996,49.2809989 281,49.2809989 C281.784004,49.2809989 282.362665,48.9496688 282.736,48.2869989 C283.109335,47.6243289 283.296,46.5930059 283.296,45.1929989 C283.296,43.7836585 283.111669,42.7546688 282.743,42.1059989 C282.374331,41.4573289 281.793337,41.1329989 281,41.1329989 Z" id="0" fill="#0F1931" fill-rule="nonzero"></path>
        <path d="M314,40.1529989 C315.129339,40.1529989 315.987997,40.5799946 316.576,41.4339989 C317.164003,42.2880031 317.458,43.5409906 317.458,45.1929989 C317.458,46.8450071 317.164003,48.1003279 316.576,48.9589989 C315.987997,49.8176698 315.129339,50.2469989 314,50.2469989 C312.870661,50.2469989 312.012003,49.8176698 311.424,48.9589989 C310.835997,48.1003279 310.542,46.8496737 310.542,45.2069989 C310.542,43.5549906 310.835997,42.2996698 311.424,41.4409989 C312.012003,40.5823279 312.870661,40.1529989 314,40.1529989 Z M314,41.1329989 C313.215996,41.1329989 312.637335,41.4596623 312.264,42.1129989 C311.890665,42.7663355 311.704,43.7929919 311.704,45.1929989 C311.704,46.5930059 311.890665,47.6243289 312.264,48.2869989 C312.637335,48.9496688 313.215996,49.2809989 314,49.2809989 C314.784004,49.2809989 315.362665,48.9496688 315.736,48.2869989 C316.109335,47.6243289 316.296,46.5930059 316.296,45.1929989 C316.296,43.7836585 316.111669,42.7546688 315.743,42.1059989 C315.374331,41.4573289 314.793337,41.1329989 314,41.1329989 Z" id="0" fill="#0F1931" fill-rule="nonzero"></path>
        <path d="M347,40.1529989 C348.129339,40.1529989 348.987997,40.5799946 349.576,41.4339989 C350.164003,42.2880031 350.458,43.5409906 350.458,45.1929989 C350.458,46.8450071 350.164003,48.1003279 349.576,48.9589989 C348.987997,49.8176698 348.129339,50.2469989 347,50.2469989 C345.870661,50.2469989 345.012003,49.8176698 344.424,48.9589989 C343.835997,48.1003279 343.542,46.8496737 343.542,45.2069989 C343.542,43.5549906 343.835997,42.2996698 344.424,41.4409989 C345.012003,40.5823279 345.870661,40.1529989 347,40.1529989 Z M347,41.1329989 C346.215996,41.1329989 345.637335,41.4596623 345.264,42.1129989 C344.890665,42.7663355 344.704,43.7929919 344.704,45.1929989 C344.704,46.5930059 344.890665,47.6243289 345.264,48.2869989 C345.637335,48.9496688 346.215996,49.2809989 347,49.2809989 C347.784004,49.2809989 348.362665,48.9496688 348.736,48.2869989 C349.109335,47.6243289 349.296,46.5930059 349.296,45.1929989 C349.296,43.7836585 349.111669,42.7546688 348.743,42.1059989 C348.374331,41.4573289 347.793337,41.1329989 347,41.1329989 Z" id="0" fill="#0F1931" fill-rule="nonzero"></path>
        <path d="M331.5,57.5 L297.5,57.5 L297.5,33.5 L331.5,33.5 L331.5,57.5 Z M330.5,34.5 L298.5,34.5 L298.5,56.5 L330.5,56.5 L330.5,34.5 Z" id="Rectangle-Copy-29" fill="#0F1931" fill-rule="nonzero"></path>
        <path d="M364.5,57.5 L330.5,57.5 L330.5,33.5 L364.5,33.5 L364.5,57.5 Z M363.5,34.5 L331.5,34.5 L331.5,56.5 L363.5,56.5 L363.5,34.5 Z" id="Rectangle-Copy-33" fill="#0F1931" fill-rule="nonzero"></path>
        <path d="M99.167,19.1289989 L98.425,19.1989989 C97.7249965,19.2643325 97.2186682,19.4836637 96.906,19.8569989 C96.5933318,20.2303341 96.437,20.6923294 96.437,21.2429989 L96.437,25.1349989 L95.303,25.1349989 L95.303,18.3169989 L96.409,18.3169989 L96.409,19.5069989 C96.7916686,18.7136616 97.5429944,18.2703327 98.663,18.1769989 L99.069,18.1489989 L99.167,19.1289989 Z M105.957,21.9009989 L100.973,21.9009989 C101.010334,22.6943362 101.224998,23.2939968 101.617,23.6999989 C102.009002,24.1060009 102.56433,24.3089989 103.283,24.3089989 C104.076337,24.3089989 104.80433,24.0383349 105.467,23.4969989 L105.845,24.3229989 C105.546332,24.6030003 105.163669,24.8246647 104.697,24.9879989 C104.230331,25.151333 103.754336,25.2329989 103.269,25.2329989 C102.204995,25.2329989 101.367336,24.9203353 100.756,24.2949989 C100.144664,23.6696624 99.839,22.8063377 99.839,21.7049989 C99.839,21.0049954 99.974332,20.3866682 100.245,19.8499989 C100.515668,19.3133295 100.895998,18.895667 101.386,18.5969989 C101.876002,18.2983307 102.433664,18.1489989 103.059,18.1489989 C103.964338,18.1489989 104.673664,18.4453292 105.187,19.0379989 C105.700336,19.6306685 105.957,20.4449937 105.957,21.4809989 L105.957,21.9009989 Z M103.073,19.0309989 C102.475664,19.0309989 101.997335,19.2176637 101.638,19.5909989 C101.278665,19.9643341 101.066334,20.4916621 101.001,21.1729989 L104.963,21.1729989 C104.944333,20.4823287 104.771668,19.9526674 104.445,19.5839989 C104.118332,19.2153303 103.661003,19.0309989 103.073,19.0309989 Z M113.727,18.3169989 L113.727,24.6729989 C113.727,25.6903373 113.465669,26.4579963 112.943,26.9759989 C112.420331,27.4940014 111.645672,27.7529989 110.619,27.7529989 C109.424327,27.7529989 108.421004,27.4450019 107.609,26.8289989 L107.987,25.9889989 C108.444336,26.287667 108.873665,26.5023315 109.275,26.6329989 C109.676335,26.7636662 110.124331,26.8289989 110.619,26.8289989 C111.272337,26.8289989 111.766998,26.6540006 112.103,26.3039989 C112.439002,25.9539971 112.607,25.4430022 112.607,24.7709989 L112.607,23.5669989 C112.410999,24.0056677 112.110002,24.3416644 111.704,24.5749989 C111.297998,24.8083334 110.819669,24.9249989 110.269,24.9249989 C109.671664,24.9249989 109.142002,24.7850003 108.68,24.5049989 C108.217998,24.2249975 107.858668,23.8283348 107.602,23.3149989 C107.345332,22.801663 107.217,22.2090022 107.217,21.5369989 C107.217,20.8649955 107.345332,20.2723348 107.602,19.7589989 C107.858668,19.245663 108.217998,18.8490003 108.68,18.5689989 C109.142002,18.2889975 109.671664,18.1489989 110.269,18.1489989 C110.810336,18.1489989 111.281665,18.2656644 111.683,18.4989989 C112.084335,18.7323334 112.387666,19.0636634 112.593,19.4929989 L112.593,18.3169989 L113.727,18.3169989 Z M110.493,23.9869989 C111.146337,23.9869989 111.659665,23.770001 112.033,23.3359989 C112.406335,22.9019967 112.593,22.302336 112.593,21.5369989 C112.593,20.7809951 112.408669,20.186001 112.04,19.7519989 C111.671331,19.3179967 111.15567,19.1009989 110.493,19.1009989 C109.83033,19.1009989 109.310002,19.3179967 108.932,19.7519989 C108.553998,20.186001 108.365,20.7809951 108.365,21.5369989 C108.365,22.302336 108.553998,22.9019967 108.932,23.3359989 C109.310002,23.770001 109.83033,23.9869989 110.493,23.9869989 Z M115.827,25.1349989 L115.827,18.3169989 L116.961,18.3169989 L116.961,25.1349989 L115.827,25.1349989 Z M115.715,15.3629989 L117.087,15.3629989 L117.087,16.6369989 L115.715,16.6369989 L115.715,15.3629989 Z M121.903,25.2329989 C121.258997,25.2329989 120.692002,25.0883336 120.202,24.7989989 C119.711998,24.5096641 119.334001,24.0966682 119.068,23.5599989 C118.801999,23.0233295 118.669,22.4003357 118.669,21.6909989 C118.669,20.981662 118.801999,20.3586682 119.068,19.8219989 C119.334001,19.2853295 119.711998,18.8723336 120.202,18.5829989 C120.692002,18.2936641 121.258997,18.1489989 121.903,18.1489989 C122.547003,18.1489989 123.116331,18.2936641 123.611,18.5829989 C124.105669,18.8723336 124.485999,19.2853295 124.752,19.8219989 C125.018001,20.3586682 125.151,20.981662 125.151,21.6909989 C125.151,22.4003357 125.018001,23.0233295 124.752,23.5599989 C124.485999,24.0966682 124.105669,24.5096641 123.611,24.7989989 C123.116331,25.0883336 122.547003,25.2329989 121.903,25.2329989 Z M121.903,24.2949989 C122.575003,24.2949989 123.090665,24.0733344 123.45,23.6299989 C123.809335,23.1866633 123.989,22.5403364 123.989,21.6909989 C123.989,20.860328 123.807002,20.2186678 123.443,19.7659989 C123.078998,19.3133299 122.56567,19.0869989 121.903,19.0869989 C121.24033,19.0869989 120.727002,19.3133299 120.363,19.7659989 C119.998998,20.2186678 119.817,20.860328 119.817,21.6909989 C119.817,22.5310031 119.996665,23.1749966 120.356,23.6229989 C120.715335,24.0710011 121.230997,24.2949989 121.903,24.2949989 Z M130.275,18.1489989 C131.908342,18.1489989 132.725,19.0496565 132.725,20.8509989 L132.725,25.1349989 L131.591,25.1349989 L131.591,20.9209989 C131.591,20.286329 131.467335,19.8243336 131.22,19.5349989 C130.972665,19.2456641 130.578336,19.1009989 130.037,19.1009989 C129.411664,19.1009989 128.912335,19.2923303 128.539,19.6749989 C128.165665,20.0576674 127.979,20.5756623 127.979,21.2289989 L127.979,25.1349989 L126.845,25.1349989 L126.845,18.3169989 L127.965,18.3169989 L127.965,19.4369989 C128.189001,19.0169968 128.501665,18.6973333 128.903,18.4779989 C129.304335,18.2586644 129.761664,18.1489989 130.275,18.1489989 Z" id="region" fill="#0F1931" fill-rule="nonzero"></path>
        <path d="M246.803,16.2649989 L247.881,16.2649989 L247.881,26.1349989 L246.999,26.1349989 L241.049,18.1969989 L241.049,26.1349989 L239.971,26.1349989 L239.971,16.2649989 L240.853,16.2649989 L246.803,24.2029989 L246.803,16.2649989 Z M250.317,26.1349989 L250.317,16.2649989 L256.561,16.2649989 L256.561,17.2169989 L251.451,17.2169989 L251.451,20.6469989 L256.281,20.6469989 L256.281,21.5989989 L251.451,21.5989989 L251.451,25.1829989 L256.561,25.1829989 L256.561,26.1349989 L250.317,26.1349989 Z" id="NE" fill="#0F1931" fill-rule="nonzero"></path>
        <path d="M112.803,40.2649989 L113.881,40.2649989 L113.881,50.1349989 L112.999,50.1349989 L107.049,42.1969989 L107.049,50.1349989 L105.971,50.1349989 L105.971,40.2649989 L106.853,40.2649989 L112.803,48.2029989 L112.803,40.2649989 Z M116.317,50.1349989 L116.317,40.2649989 L122.561,40.2649989 L122.561,41.2169989 L117.451,41.2169989 L117.451,44.6469989 L122.281,44.6469989 L122.281,45.5989989 L117.451,45.5989989 L117.451,49.1829989 L122.561,49.1829989 L122.561,50.1349989 L116.317,50.1349989 Z" id="NE" fill="#0F1931" fill-rule="nonzero"></path>
        <polygon id="1" fill="#0F1931" fill-rule="nonzero" points="248.938 49.1689989 251.108 49.1689989 251.108 50.1349989 245.62 50.1349989 245.62 49.1689989 247.79 49.1689989 247.79 41.6929989 246.054 42.7849989 245.522 41.9029989 248.112 40.2649989 248.938 40.2649989"></polygon>
        <path d="M55.5,80.5 L9.5,80.5 L9.5,56.5 L55.5,56.5 L55.5,80.5 Z M54.5,57.5 L10.5,57.5 L10.5,79.5 L54.5,79.5 L54.5,57.5 Z" id="Rectangle-Copy-8" fill="#0F1931" fill-rule="nonzero"></path>
        <path d="M199.5,80.5 L153.5,80.5 L153.5,56.5 L199.5,56.5 L199.5,80.5 Z M198.5,57.5 L154.5,57.5 L154.5,79.5 L198.5,79.5 L198.5,57.5 Z" id="Rectangle-Copy-18" fill="#0F1931" fill-rule="nonzero"></path>
        <path d="M88.5,80.5 L54.5,80.5 L54.5,56.5 L88.5,56.5 L88.5,80.5 Z M87.5,57.5 L55.5,57.5 L55.5,79.5 L87.5,79.5 L87.5,57.5 Z" id="Rectangle-Copy-7" fill="#0F1931" fill-rule="nonzero"></path>
        <path d="M232.5,80.5 L198.5,80.5 L198.5,56.5 L232.5,56.5 L232.5,80.5 Z M231.5,57.5 L199.5,57.5 L199.5,79.5 L231.5,79.5 L231.5,57.5 Z" id="Rectangle-Copy-19" fill="#0F1931" fill-rule="nonzero"></path>
        <path d="M29.158,68.0669989 C29.7366696,68.2349997 30.1799985,68.5219968 30.488,68.9279989 C30.7960015,69.3340009 30.95,69.8449958 30.95,70.4609989 C30.95,71.3196698 30.6583362,71.9963297 30.075,72.4909989 C29.4916638,72.985668 28.7006717,73.2329989 27.702,73.2329989 C27.0673302,73.2329989 26.4560029,73.1256666 25.868,72.9109989 C25.2799971,72.6963311 24.7853353,72.3976674 24.384,72.0149989 L24.818,71.1329989 C25.7140045,71.8890026 26.665995,72.2669989 27.674,72.2669989 C28.3740035,72.2669989 28.9059982,72.1106671 29.27,71.7979989 C29.6340018,71.4853306 29.816,71.0256686 29.816,70.4189989 C29.816,69.2149928 29.0600076,68.6129989 27.548,68.6129989 L26.414,68.6129989 L26.414,67.6469989 L27.324,67.6469989 C28.0520036,67.6469989 28.611998,67.4860005 29.004,67.1639989 C29.396002,66.8419972 29.592,66.3776686 29.592,65.7709989 C29.592,65.2389962 29.4333349,64.8306669 29.116,64.5459989 C28.7986651,64.2613308 28.3460029,64.1189989 27.758,64.1189989 C26.8059952,64.1189989 25.8726712,64.4969951 24.958,65.2529989 L24.524,64.3709989 C24.9253353,63.9883303 25.4153304,63.6896666 25.994,63.4749989 C26.5726696,63.2603311 27.1746635,63.1529989 27.8,63.1529989 C28.6960045,63.1529989 29.407664,63.3793299 29.935,63.8319989 C30.462336,64.2846678 30.726,64.8936617 30.726,65.6589989 C30.726,66.228335 30.5883347,66.7253301 30.313,67.1499989 C30.0376653,67.5746676 29.6526691,67.8803313 29.158,68.0669989 Z M36.62,66.9469989 C37.2453365,66.9469989 37.7889977,67.0776642 38.251,67.3389989 C38.7130023,67.6003335 39.0699987,67.9666632 39.322,68.4379989 C39.5740013,68.9093345 39.7,69.4529958 39.7,70.0689989 C39.7,70.6943353 39.5623347,71.2449965 39.287,71.7209989 C39.0116653,72.1970012 38.6220025,72.5679975 38.118,72.8339989 C37.6139975,73.1000002 37.0260034,73.2329989 36.354,73.2329989 C35.7566637,73.2329989 35.1663363,73.1233333 34.583,72.9039989 C33.9996637,72.6846644 33.5073353,72.3883341 33.106,72.0149989 L33.54,71.1329989 C34.4546712,71.8890026 35.3926619,72.2669989 36.354,72.2669989 C37.0446701,72.2669989 37.585998,72.0710008 37.978,71.6789989 C38.370002,71.2869969 38.566,70.7550022 38.566,70.0829989 C38.566,69.4296623 38.3723353,68.9023342 37.985,68.5009989 C37.5976647,68.0996635 37.0820032,67.8989989 36.438,67.8989989 C35.4953286,67.8989989 34.7440028,68.2816617 34.184,69.0469989 L33.386,69.0469989 L33.386,63.2649989 L39.308,63.2649989 L39.308,64.2169989 L34.52,64.2169989 L34.52,67.7309989 C34.7813346,67.4789976 35.0916649,67.2853329 35.451,67.1499989 C35.8103351,67.0146648 36.1999979,66.9469989 36.62,66.9469989 Z" id="35" fill="#0F1931" fill-rule="nonzero"></path>
        <path d="M173.158,68.0669989 C173.73667,68.2349997 174.179998,68.5219968 174.488,68.9279989 C174.796002,69.3340009 174.95,69.8449958 174.95,70.4609989 C174.95,71.3196698 174.658336,71.9963297 174.075,72.4909989 C173.491664,72.985668 172.700672,73.2329989 171.702,73.2329989 C171.06733,73.2329989 170.456003,73.1256666 169.868,72.9109989 C169.279997,72.6963311 168.785335,72.3976674 168.384,72.0149989 L168.818,71.1329989 C169.714004,71.8890026 170.665995,72.2669989 171.674,72.2669989 C172.374003,72.2669989 172.905998,72.1106671 173.27,71.7979989 C173.634002,71.4853306 173.816,71.0256686 173.816,70.4189989 C173.816,69.2149928 173.060008,68.6129989 171.548,68.6129989 L170.414,68.6129989 L170.414,67.6469989 L171.324,67.6469989 C172.052004,67.6469989 172.611998,67.4860005 173.004,67.1639989 C173.396002,66.8419972 173.592,66.3776686 173.592,65.7709989 C173.592,65.2389962 173.433335,64.8306669 173.116,64.5459989 C172.798665,64.2613308 172.346003,64.1189989 171.758,64.1189989 C170.805995,64.1189989 169.872671,64.4969951 168.958,65.2529989 L168.524,64.3709989 C168.925335,63.9883303 169.41533,63.6896666 169.994,63.4749989 C170.57267,63.2603311 171.174664,63.1529989 171.8,63.1529989 C172.696004,63.1529989 173.407664,63.3793299 173.935,63.8319989 C174.462336,64.2846678 174.726,64.8936617 174.726,65.6589989 C174.726,66.228335 174.588335,66.7253301 174.313,67.1499989 C174.037665,67.5746676 173.652669,67.8803313 173.158,68.0669989 Z M180.62,66.9469989 C181.245336,66.9469989 181.788998,67.0776642 182.251,67.3389989 C182.713002,67.6003335 183.069999,67.9666632 183.322,68.4379989 C183.574001,68.9093345 183.7,69.4529958 183.7,70.0689989 C183.7,70.6943353 183.562335,71.2449965 183.287,71.7209989 C183.011665,72.1970012 182.622003,72.5679975 182.118,72.8339989 C181.613997,73.1000002 181.026003,73.2329989 180.354,73.2329989 C179.756664,73.2329989 179.166336,73.1233333 178.583,72.9039989 C177.999664,72.6846644 177.507335,72.3883341 177.106,72.0149989 L177.54,71.1329989 C178.454671,71.8890026 179.392662,72.2669989 180.354,72.2669989 C181.04467,72.2669989 181.585998,72.0710008 181.978,71.6789989 C182.370002,71.2869969 182.566,70.7550022 182.566,70.0829989 C182.566,69.4296623 182.372335,68.9023342 181.985,68.5009989 C181.597665,68.0996635 181.082003,67.8989989 180.438,67.8989989 C179.495329,67.8989989 178.744003,68.2816617 178.184,69.0469989 L177.386,69.0469989 L177.386,63.2649989 L183.308,63.2649989 L183.308,64.2169989 L178.52,64.2169989 L178.52,67.7309989 C178.781335,67.4789976 179.091665,67.2853329 179.451,67.1499989 C179.810335,67.0146648 180.199998,66.9469989 180.62,66.9469989 Z" id="35" fill="#0F1931" fill-rule="nonzero"></path>
        <path d="M67.073,69.7069989 L68.501,69.7069989 L68.501,71.1349989 L67.073,71.1349989 L67.073,69.7069989 Z M70.279,69.7069989 L71.707,69.7069989 L71.707,71.1349989 L70.279,71.1349989 L70.279,69.7069989 Z M73.485,69.7069989 L74.913,69.7069989 L74.913,71.1349989 L73.485,71.1349989 L73.485,69.7069989 Z" id="…" fill="#0F1931" fill-rule="nonzero"></path>
        <path d="M211.073,69.7069989 L212.501,69.7069989 L212.501,71.1349989 L211.073,71.1349989 L211.073,69.7069989 Z M214.279,69.7069989 L215.707,69.7069989 L215.707,71.1349989 L214.279,71.1349989 L214.279,69.7069989 Z M217.485,69.7069989 L218.913,69.7069989 L218.913,71.1349989 L217.485,71.1349989 L217.485,69.7069989 Z" id="…" fill="#0F1931" fill-rule="nonzero"></path>
        <path d="M141.5,80.5 L87.5,80.5 L87.5,56.5 L141.5,56.5 L141.5,80.5 Z M140.5,57.5 L88.5,57.5 L88.5,79.5 L140.5,79.5 L140.5,57.5 Z" id="Rectangle-Copy-6" fill="#0F1931" fill-rule="nonzero"></path>
        <path d="M265.5,80.5 L231.5,80.5 L231.5,56.5 L265.5,56.5 L265.5,80.5 Z M264.5,57.5 L232.5,57.5 L232.5,79.5 L264.5,79.5 L264.5,57.5 Z" id="Rectangle-Copy-20" fill="#0F1931" fill-rule="nonzero"></path>
        <path d="M298.5,80.5 L264.5,80.5 L264.5,56.5 L298.5,56.5 L298.5,80.5 Z M297.5,57.5 L265.5,57.5 L265.5,79.5 L297.5,79.5 L297.5,57.5 Z" id="Rectangle-Copy-26" fill="#0F1931" fill-rule="nonzero"></path>
        <path d="M331.5,80.5 L297.5,80.5 L297.5,56.5 L331.5,56.5 L331.5,80.5 Z M330.5,57.5 L298.5,57.5 L298.5,79.5 L330.5,79.5 L330.5,57.5 Z" id="Rectangle-Copy-30" fill="#0F1931" fill-rule="nonzero"></path>
        <path d="M364.5,80.5 L330.5,80.5 L330.5,56.5 L364.5,56.5 L364.5,80.5 Z M363.5,57.5 L331.5,57.5 L331.5,79.5 L363.5,79.5 L363.5,57.5 Z" id="Rectangle-Copy-34" fill="#0F1931" fill-rule="nonzero"></path>
        <polygon id="1" fill="#0F1931" fill-rule="nonzero" points="347.938 72.1689989 350.108 72.1689989 350.108 73.1349989 344.62 73.1349989 344.62 72.1689989 346.79 72.1689989 346.79 64.6929989 345.054 65.7849989 344.522 64.9029989 347.112 63.2649989 347.938 63.2649989"></polygon>
        <path d="M106.328,73.2469989 C104.787992,73.2469989 103.556005,72.8316697 102.632,72.0009989 L103.08,71.1189989 C103.565336,71.5296676 104.062331,71.8236646 104.571,72.0009989 C105.079669,72.1783331 105.669997,72.2669989 106.342,72.2669989 C107.135337,72.2669989 107.746665,72.1130004 108.176,71.8049989 C108.605335,71.4969973 108.82,71.0630017 108.82,70.5029989 C108.82,70.1763306 108.717334,69.9103332 108.512,69.7049989 C108.306666,69.4996645 108.036002,69.3363328 107.7,69.2149989 C107.459999,69.1283318 107.160477,69.0392847 106.80143,68.9478562 L106.342,68.8369989 C105.576663,68.6596646 104.949002,68.4729998 104.459,68.2769989 C103.968998,68.0809979 103.572335,67.8010007 103.269,67.4369989 C102.965665,67.072997 102.814,66.5970018 102.814,66.0089989 C102.814,65.4489961 102.960999,64.952001 103.255,64.5179989 C103.549001,64.0839967 103.968997,63.748 104.515,63.5099989 C105.061003,63.2719977 105.69333,63.1529989 106.412,63.1529989 C107.093337,63.1529989 107.73033,63.2603311 108.323,63.4749989 C108.91567,63.6896666 109.417331,63.9976635 109.828,64.3989989 L109.394,65.2809989 C108.927331,64.8796635 108.453669,64.5879998 107.973,64.4059989 C107.492331,64.2239979 106.972003,64.1329989 106.412,64.1329989 C105.646663,64.1329989 105.047002,64.2939972 104.613,64.6159989 C104.178998,64.9380005 103.962,65.3883293 103.962,65.9669989 C103.962,66.461668 104.153331,66.8349976 104.536,67.0869989 C104.87615,67.311 105.371158,67.5055005 106.021036,67.6705048 L106.272,67.7309989 C107.121338,67.9363332 107.788664,68.1253313 108.274,68.2979989 C108.759336,68.4706664 109.162998,68.7296638 109.485,69.0749989 C109.807002,69.4203339 109.968,69.8823293 109.968,70.4609989 C109.968,71.0210017 109.821001,71.5109968 109.527,71.9309989 C109.232999,72.351001 108.810669,72.675331 108.26,72.9039989 C107.709331,73.1326667 107.065337,73.2469989 106.328,73.2469989 Z M124.43,63.2649989 L125.55,63.2649989 L122.106,73.1349989 L121.126,73.1349989 L118.312,65.0569989 L115.498,73.1349989 L114.532,73.1349989 L111.074,63.2649989 L112.236,63.2649989 L115.036,71.5109989 L117.906,63.2649989 L118.774,63.2789989 L121.602,71.5249989 L124.43,63.2649989 Z" id="SW" fill="#0F1931" fill-rule="nonzero"></path>
        <path d="M248,63.1529989 C249.129339,63.1529989 249.987997,63.5799946 250.576,64.4339989 C251.164003,65.2880031 251.458,66.5409906 251.458,68.1929989 C251.458,69.8450071 251.164003,71.1003279 250.576,71.9589989 C249.987997,72.8176698 249.129339,73.2469989 248,73.2469989 C246.870661,73.2469989 246.012003,72.8176698 245.424,71.9589989 C244.835997,71.1003279 244.542,69.8496737 244.542,68.2069989 C244.542,66.5549906 244.835997,65.2996698 245.424,64.4409989 C246.012003,63.5823279 246.870661,63.1529989 248,63.1529989 Z M248,64.1329989 C247.215996,64.1329989 246.637335,64.4596623 246.264,65.1129989 C245.890665,65.7663355 245.704,66.7929919 245.704,68.1929989 C245.704,69.5930059 245.890665,70.6243289 246.264,71.2869989 C246.637335,71.9496688 247.215996,72.2809989 248,72.2809989 C248.784004,72.2809989 249.362665,71.9496688 249.736,71.2869989 C250.109335,70.6243289 250.296,69.5930059 250.296,68.1929989 C250.296,66.7836585 250.111669,65.7546688 249.743,65.1059989 C249.374331,64.4573289 248.793337,64.1329989 248,64.1329989 Z" id="0" fill="#0F1931" fill-rule="nonzero"></path>
        <path d="M281,63.1529989 C282.129339,63.1529989 282.987997,63.5799946 283.576,64.4339989 C284.164003,65.2880031 284.458,66.5409906 284.458,68.1929989 C284.458,69.8450071 284.164003,71.1003279 283.576,71.9589989 C282.987997,72.8176698 282.129339,73.2469989 281,73.2469989 C279.870661,73.2469989 279.012003,72.8176698 278.424,71.9589989 C277.835997,71.1003279 277.542,69.8496737 277.542,68.2069989 C277.542,66.5549906 277.835997,65.2996698 278.424,64.4409989 C279.012003,63.5823279 279.870661,63.1529989 281,63.1529989 Z M281,64.1329989 C280.215996,64.1329989 279.637335,64.4596623 279.264,65.1129989 C278.890665,65.7663355 278.704,66.7929919 278.704,68.1929989 C278.704,69.5930059 278.890665,70.6243289 279.264,71.2869989 C279.637335,71.9496688 280.215996,72.2809989 281,72.2809989 C281.784004,72.2809989 282.362665,71.9496688 282.736,71.2869989 C283.109335,70.6243289 283.296,69.5930059 283.296,68.1929989 C283.296,66.7836585 283.111669,65.7546688 282.743,65.1059989 C282.374331,64.4573289 281.793337,64.1329989 281,64.1329989 Z" id="0" fill="#0F1931" fill-rule="nonzero"></path>
        <path d="M314,63.1529989 C315.129339,63.1529989 315.987997,63.5799946 316.576,64.4339989 C317.164003,65.2880031 317.458,66.5409906 317.458,68.1929989 C317.458,69.8450071 317.164003,71.1003279 316.576,71.9589989 C315.987997,72.8176698 315.129339,73.2469989 314,73.2469989 C312.870661,73.2469989 312.012003,72.8176698 311.424,71.9589989 C310.835997,71.1003279 310.542,69.8496737 310.542,68.2069989 C310.542,66.5549906 310.835997,65.2996698 311.424,64.4409989 C312.012003,63.5823279 312.870661,63.1529989 314,63.1529989 Z M314,64.1329989 C313.215996,64.1329989 312.637335,64.4596623 312.264,65.1129989 C311.890665,65.7663355 311.704,66.7929919 311.704,68.1929989 C311.704,69.5930059 311.890665,70.6243289 312.264,71.2869989 C312.637335,71.9496688 313.215996,72.2809989 314,72.2809989 C314.784004,72.2809989 315.362665,71.9496688 315.736,71.2869989 C316.109335,70.6243289 316.296,69.5930059 316.296,68.1929989 C316.296,66.7836585 316.111669,65.7546688 315.743,65.1059989 C315.374331,64.4573289 314.793337,64.1329989 314,64.1329989 Z" id="0" fill="#0F1931" fill-rule="nonzero"></path>
        <path d="M55.5,103.5 L9.5,103.5 L9.5,79.5 L55.5,79.5 L55.5,103.5 Z M54.5,80.5 L10.5,80.5 L10.5,102.5 L54.5,102.5 L54.5,80.5 Z" id="Rectangle-Copy-11" fill="#0F1931" fill-rule="nonzero"></path>
        <path d="M199.5,103.5 L153.5,103.5 L153.5,79.5 L199.5,79.5 L199.5,103.5 Z M198.5,80.5 L154.5,80.5 L154.5,102.5 L198.5,102.5 L198.5,80.5 Z" id="Rectangle-Copy-21" fill="#0F1931" fill-rule="nonzero"></path>
        <path d="M88.5,103.5 L54.5,103.5 L54.5,79.5 L88.5,79.5 L88.5,103.5 Z M87.5,80.5 L55.5,80.5 L55.5,102.5 L87.5,102.5 L87.5,80.5 Z" id="Rectangle-Copy-10" fill="#0F1931" fill-rule="nonzero"></path>
        <path d="M232.5,103.5 L198.5,103.5 L198.5,79.5 L232.5,79.5 L232.5,103.5 Z M231.5,80.5 L199.5,80.5 L199.5,102.5 L231.5,102.5 L231.5,80.5 Z" id="Rectangle-Copy-22" fill="#0F1931" fill-rule="nonzero"></path>
        <path d="M28.073,92.7069989 L29.501,92.7069989 L29.501,94.1349989 L28.073,94.1349989 L28.073,92.7069989 Z M31.279,92.7069989 L32.707,92.7069989 L32.707,94.1349989 L31.279,94.1349989 L31.279,92.7069989 Z M34.485,92.7069989 L35.913,92.7069989 L35.913,94.1349989 L34.485,94.1349989 L34.485,92.7069989 Z" id="…" fill="#0F1931" fill-rule="nonzero"></path>
        <path d="M172.073,92.7069989 L173.501,92.7069989 L173.501,94.1349989 L172.073,94.1349989 L172.073,92.7069989 Z M175.279,92.7069989 L176.707,92.7069989 L176.707,94.1349989 L175.279,94.1349989 L175.279,92.7069989 Z M178.485,92.7069989 L179.913,92.7069989 L179.913,94.1349989 L178.485,94.1349989 L178.485,92.7069989 Z" id="…" fill="#0F1931" fill-rule="nonzero"></path>
        <path d="M67.073,92.7069989 L68.501,92.7069989 L68.501,94.1349989 L67.073,94.1349989 L67.073,92.7069989 Z M70.279,92.7069989 L71.707,92.7069989 L71.707,94.1349989 L70.279,94.1349989 L70.279,92.7069989 Z M73.485,92.7069989 L74.913,92.7069989 L74.913,94.1349989 L73.485,94.1349989 L73.485,92.7069989 Z" id="…" fill="#0F1931" fill-rule="nonzero"></path>
        <path d="M211.073,92.7069989 L212.501,92.7069989 L212.501,94.1349989 L211.073,94.1349989 L211.073,92.7069989 Z M214.279,92.7069989 L215.707,92.7069989 L215.707,94.1349989 L214.279,94.1349989 L214.279,92.7069989 Z M217.485,92.7069989 L218.913,92.7069989 L218.913,94.1349989 L217.485,94.1349989 L217.485,92.7069989 Z" id="…" fill="#0F1931" fill-rule="nonzero"></path>
        <path d="M141.5,103.5 L87.5,103.5 L87.5,79.5 L141.5,79.5 L141.5,103.5 Z M140.5,80.5 L88.5,80.5 L88.5,102.5 L140.5,102.5 L140.5,80.5 Z" id="Rectangle-Copy-9" fill="#0F1931" fill-rule="nonzero"></path>
        <path d="M265.5,103.5 L231.5,103.5 L231.5,79.5 L265.5,79.5 L265.5,103.5 Z M264.5,80.5 L232.5,80.5 L232.5,102.5 L264.5,102.5 L264.5,80.5 Z" id="Rectangle-Copy-23" fill="#0F1931" fill-rule="nonzero"></path>
        <path d="M298.5,103.5 L264.5,103.5 L264.5,79.5 L298.5,79.5 L298.5,103.5 Z M297.5,80.5 L265.5,80.5 L265.5,102.5 L297.5,102.5 L297.5,80.5 Z" id="Rectangle-Copy-27" fill="#0F1931" fill-rule="nonzero"></path>
        <path d="M331.5,103.5 L297.5,103.5 L297.5,79.5 L331.5,79.5 L331.5,103.5 Z M330.5,80.5 L298.5,80.5 L298.5,102.5 L330.5,102.5 L330.5,80.5 Z" id="Rectangle-Copy-31" fill="#0F1931" fill-rule="nonzero"></path>
        <path d="M364.5,103.5 L330.5,103.5 L330.5,79.5 L364.5,79.5 L364.5,103.5 Z M363.5,80.5 L331.5,80.5 L331.5,102.5 L363.5,102.5 L363.5,80.5 Z" id="Rectangle-Copy-35" fill="#0F1931" fill-rule="nonzero"></path>
        <path d="M110.073,92.7069989 L111.501,92.7069989 L111.501,94.1349989 L110.073,94.1349989 L110.073,92.7069989 Z M113.279,92.7069989 L114.707,92.7069989 L114.707,94.1349989 L113.279,94.1349989 L113.279,92.7069989 Z M116.485,92.7069989 L117.913,92.7069989 L117.913,94.1349989 L116.485,94.1349989 L116.485,92.7069989 Z" id="…" fill="#0F1931" fill-rule="nonzero"></path>
        <path d="M113.985033,120 C113.985033,117.495282 112.387094,116.333655 109.397213,115.985234 C108.65772,115.899059 108.01644,115.870433 106.990704,115.866126 L106.990704,115.866126 L105.929213,115.866973 C105.822791,115.867402 105.720859,115.868906 105.608894,115.871949 L105.608894,115.871949 L105.367284,115.880223 L104.376722,115.929217 C102.937557,115.980622 94.5115312,116.009028 93.7057841,115.945981 L93.7057841,115.945981 L93.5288947,115.930599 C91.2466964,115.711865 89.6417032,114.758131 88.709703,112.688891 C88.3013359,111.782229 88,108.9872 88,107 L88,107 L89.0149669,107 C89.0149669,108.849315 89.3058094,111.547013 89.6374252,112.283271 C90.4258394,114.033719 91.7519141,114.78995 93.7861372,114.94912 C94.5495762,115.008856 103.417776,114.979282 104.358424,114.929114 L104.358424,114.929114 L105.154627,114.888418 C105.348673,114.879545 105.502299,114.873932 105.645062,114.870663 L105.645062,114.870663 L105.854753,114.867402 L106.590116,114.865581 C107.897376,114.864162 108.634144,114.889341 109.51643,114.992156 L109.51643,114.992156 L109.690102,115.013473 C112.041136,115.316893 113.716657,116.146246 114.500409,117.684535 C115.283343,116.146246 116.958864,115.316893 119.309898,115.013473 L119.48357,114.992156 C120.365856,114.889341 121.102624,114.864162 122.409884,114.865581 L123.145247,114.867402 L123.354938,114.870663 C123.497701,114.873932 123.651327,114.879545 123.845373,114.888418 L124.641576,114.929114 C125.582224,114.979282 134.450424,115.008856 135.213863,114.94912 C137.248086,114.78995 138.574161,114.033719 139.362575,112.283271 C139.694191,111.547013 139.985033,108.849315 139.985033,107 L141,107 C141,108.9872 140.698664,111.782229 140.290297,112.688891 C139.358297,114.758131 137.753304,115.711865 135.471105,115.930599 L135.294216,115.945981 C134.488469,116.009028 126.062443,115.980622 124.623278,115.929217 L123.632716,115.880223 L123.391106,115.871949 C123.279141,115.868906 123.177209,115.867402 123.070787,115.866973 L122.009296,115.866126 C120.98356,115.870433 120.34228,115.899059 119.602787,115.985234 C116.612906,116.333655 115.014967,117.495282 115.014967,120 Z" id="Combined-Shape-Copy" fill="#FD4D3F" fill-rule="nonzero" transform="translate(114.500000, 113.500000) rotate(-360.000000) translate(-114.500000, -113.500000) "></path>
        <path d="M296.985033,120 C296.985033,117.495282 295.387094,116.333655 292.397213,115.985234 C291.65772,115.899059 291.01644,115.870433 289.990704,115.866126 L289.990704,115.866126 L288.929213,115.866973 C288.822791,115.867402 288.720859,115.868906 288.608894,115.871949 L288.608894,115.871949 L288.367284,115.880223 L287.376722,115.929217 C285.937557,115.980622 238.511531,116.009028 237.705784,115.945981 L237.705784,115.945981 L237.528895,115.930599 C235.246696,115.711865 233.641703,114.758131 232.709703,112.688891 C232.301336,111.782229 232,108.9872 232,107 L232,107 L233.014967,107 C233.014967,108.849315 233.305809,111.547013 233.637425,112.283271 C234.425839,114.033719 235.751914,114.78995 237.786137,114.94912 C238.549576,115.008856 286.417776,114.979282 287.358424,114.929114 L287.358424,114.929114 L288.154627,114.888418 C288.348673,114.879545 288.502299,114.873932 288.645062,114.870663 L288.645062,114.870663 L288.854753,114.867402 L289.590116,114.865581 C290.897376,114.864162 291.634144,114.889341 292.51643,114.992156 L292.51643,114.992156 L292.690102,115.013473 C295.041136,115.316893 296.716657,116.146246 297.500409,117.684535 C298.283343,116.146246 299.958864,115.316893 302.309898,115.013473 L302.48357,114.992156 C303.365856,114.889341 304.102624,114.864162 305.409884,114.865581 L306.145247,114.867402 L306.354938,114.870663 C306.497701,114.873932 306.651327,114.879545 306.845373,114.888418 L307.641576,114.929114 C308.582224,114.979282 357.450424,115.008856 358.213863,114.94912 C360.248086,114.78995 361.574161,114.033719 362.362575,112.283271 C362.694191,111.547013 362.985033,108.849315 362.985033,107 L364,107 C364,108.9872 363.698664,111.782229 363.290297,112.688891 C362.358297,114.758131 360.753304,115.711865 358.471105,115.930599 L358.294216,115.945981 C357.488469,116.009028 309.062443,115.980622 307.623278,115.929217 L306.632716,115.880223 L306.391106,115.871949 C306.279141,115.868906 306.177209,115.867402 306.070787,115.866973 L305.009296,115.866126 C303.98356,115.870433 303.34228,115.899059 302.602787,115.985234 C299.612906,116.333655 298.014967,117.495282 298.014967,120 Z" id="Combined-Shape-Copy-2" fill="#FD4D3F" fill-rule="nonzero" transform="translate(298.000000, 113.500000) rotate(-360.000000) translate(-298.000000, -113.500000) "></path>
        <path d="M115.309109,122.606997 C135.985086,138.86928 163.10463,148.5 195.79544,148.5 C224.638623,148.5 246.380845,141.435637 270.026138,126.856872 L269.56,127.142 L267.413884,123.778703 L277.421502,122.731046 L272.255057,131.365734 L270.098546,127.986252 C246.479078,142.468332 224.654482,149.5 195.79544,149.5 C162.877514,149.5 135.54096,139.792215 114.690891,123.393003 L114.690891,123.393003 L115.309109,122.606997 Z" id="Path-2" fill="#0F1931" fill-rule="nonzero"></path>
        <path d="M130.288,172.112 C129.551996,172.112 128.904003,171.946668 128.344,171.616 C127.783997,171.285332 127.352002,170.813336 127.048,170.2 C126.743998,169.586664 126.592,168.874671 126.592,168.064 C126.592,167.253329 126.743998,166.541336 127.048,165.928 C127.352002,165.314664 127.783997,164.842668 128.344,164.512 C128.904003,164.181332 129.551996,164.016 130.288,164.016 C131.024004,164.016 131.674664,164.181332 132.24,164.512 C132.805336,164.842668 133.239998,165.314664 133.544,165.928 C133.848002,166.541336 134,167.253329 134,168.064 C134,168.874671 133.848002,169.586664 133.544,170.2 C133.239998,170.813336 132.805336,171.285332 132.24,171.616 C131.674664,171.946668 131.024004,172.112 130.288,172.112 Z M130.288,171.04 C131.056004,171.04 131.645331,170.786669 132.056,170.28 C132.466669,169.773331 132.672,169.034672 132.672,168.064 C132.672,167.114662 132.464002,166.381336 132.048,165.864 C131.631998,165.346664 131.045337,165.088 130.288,165.088 C129.530663,165.088 128.944002,165.346664 128.528,165.864 C128.111998,166.381336 127.904,167.114662 127.904,168.064 C127.904,169.024005 128.109331,169.759997 128.52,170.272 C128.930669,170.784003 129.519996,171.04 130.288,171.04 Z M139.856,164.016 C141.722676,164.016 142.656,165.045323 142.656,167.104 L142.656,172 L141.36,172 L141.36,167.184 C141.36,166.458663 141.218668,165.930668 140.936,165.6 C140.653332,165.269332 140.20267,165.104 139.584,165.104 C138.86933,165.104 138.298669,165.322664 137.872,165.76 C137.445331,166.197336 137.232,166.78933 137.232,167.536 L137.232,172 L135.936,172 L135.936,164.208 L137.216,164.208 L137.216,165.488 C137.472001,165.007998 137.829331,164.642668 138.288,164.392 C138.746669,164.141332 139.26933,164.016 139.856,164.016 Z M151.552,168.304 L145.856,168.304 C145.898667,169.210671 146.143998,169.895998 146.592,170.36 C147.040002,170.824002 147.674663,171.056 148.496,171.056 C149.402671,171.056 150.234663,170.74667 150.992,170.128 L151.424,171.072 C151.082665,171.392002 150.645336,171.645332 150.112,171.832 C149.578664,172.018668 149.034669,172.112 148.48,172.112 C147.263994,172.112 146.30667,171.75467 145.608,171.04 C144.90933,170.32533 144.56,169.338673 144.56,168.08 C144.56,167.279996 144.714665,166.573336 145.024,165.96 C145.333335,165.346664 145.767997,164.869335 146.328,164.528 C146.888003,164.186665 147.52533,164.016 148.24,164.016 C149.274672,164.016 150.08533,164.354663 150.672,165.032 C151.25867,165.709337 151.552,166.639994 151.552,167.824 L151.552,168.304 Z M148.256,165.024 C147.57333,165.024 147.026669,165.237331 146.616,165.664 C146.205331,166.090669 145.962667,166.693329 145.888,167.472 L150.416,167.472 C150.394667,166.682663 150.197335,166.077335 149.824,165.656 C149.450665,165.234665 148.928003,165.024 148.256,165.024 Z M153.408,168.272 L153.408,167.2 L157.888,167.2 L157.888,168.272 L153.408,168.272 Z M164.176,164.016 C166.042676,164.016 166.976,165.045323 166.976,167.104 L166.976,172 L165.68,172 L165.68,167.184 C165.68,166.458663 165.538668,165.930668 165.256,165.6 C164.973332,165.269332 164.52267,165.104 163.904,165.104 C163.18933,165.104 162.618669,165.322664 162.192,165.76 C161.765331,166.197336 161.552,166.78933 161.552,167.536 L161.552,172 L160.256,172 L160.256,160.72 L161.552,160.72 L161.552,165.456 C161.808001,164.986664 162.162664,164.629335 162.616,164.384 C163.069336,164.138665 163.58933,164.016 164.176,164.016 Z M172.576,172.112 C171.839996,172.112 171.192003,171.946668 170.632,171.616 C170.071997,171.285332 169.640002,170.813336 169.336,170.2 C169.031998,169.586664 168.88,168.874671 168.88,168.064 C168.88,167.253329 169.031998,166.541336 169.336,165.928 C169.640002,165.314664 170.071997,164.842668 170.632,164.512 C171.192003,164.181332 171.839996,164.016 172.576,164.016 C173.312004,164.016 173.962664,164.181332 174.528,164.512 C175.093336,164.842668 175.527998,165.314664 175.832,165.928 C176.136002,166.541336 176.288,167.253329 176.288,168.064 C176.288,168.874671 176.136002,169.586664 175.832,170.2 C175.527998,170.813336 175.093336,171.285332 174.528,171.616 C173.962664,171.946668 173.312004,172.112 172.576,172.112 Z M172.576,171.04 C173.344004,171.04 173.933331,170.786669 174.344,170.28 C174.754669,169.773331 174.96,169.034672 174.96,168.064 C174.96,167.114662 174.752002,166.381336 174.336,165.864 C173.919998,165.346664 173.333337,165.088 172.576,165.088 C171.818663,165.088 171.232002,165.346664 170.816,165.864 C170.399998,166.381336 170.192,167.114662 170.192,168.064 C170.192,169.024005 170.397331,169.759997 170.808,170.272 C171.218669,170.784003 171.807996,171.04 172.576,171.04 Z M181.648,171.072 C181.882668,171.072 182.117332,171.056 182.352,171.024 L182.288,172.048 C182.042665,172.090667 181.776001,172.112 181.488,172.112 C180.549329,172.112 179.842669,171.866669 179.368,171.376 C178.893331,170.885331 178.656,170.202671 178.656,169.328 L178.656,165.232 L177.136,165.232 L177.136,164.208 L178.656,164.208 L178.656,161.84 L179.952,161.84 L179.952,164.208 L182.16,164.208 L182.16,165.232 L179.952,165.232 L179.952,169.232 C179.952,170.458673 180.517328,171.072 181.648,171.072 Z M194.32,168.304 L188.624,168.304 C188.666667,169.210671 188.911998,169.895998 189.36,170.36 C189.808002,170.824002 190.442663,171.056 191.264,171.056 C192.170671,171.056 193.002663,170.74667 193.76,170.128 L194.192,171.072 C193.850665,171.392002 193.413336,171.645332 192.88,171.832 C192.346664,172.018668 191.802669,172.112 191.248,172.112 C190.031994,172.112 189.07467,171.75467 188.376,171.04 C187.67733,170.32533 187.328,169.338673 187.328,168.08 C187.328,167.279996 187.482665,166.573336 187.792,165.96 C188.101335,165.346664 188.535997,164.869335 189.096,164.528 C189.656003,164.186665 190.29333,164.016 191.008,164.016 C192.042672,164.016 192.85333,164.354663 193.44,165.032 C194.02667,165.709337 194.32,166.639994 194.32,167.824 L194.32,168.304 Z M191.024,165.024 C190.34133,165.024 189.794669,165.237331 189.384,165.664 C188.973331,166.090669 188.730667,166.693329 188.656,167.472 L193.184,167.472 C193.162667,166.682663 192.965335,166.077335 192.592,165.656 C192.218665,165.234665 191.696003,165.024 191.024,165.024 Z M200.144,164.016 C202.010676,164.016 202.944,165.045323 202.944,167.104 L202.944,172 L201.648,172 L201.648,167.184 C201.648,166.458663 201.506668,165.930668 201.224,165.6 C200.941332,165.269332 200.49067,165.104 199.872,165.104 C199.15733,165.104 198.586669,165.322664 198.16,165.76 C197.733331,166.197336 197.52,166.78933 197.52,167.536 L197.52,172 L196.224,172 L196.224,164.208 L197.504,164.208 L197.504,165.488 C197.760001,165.007998 198.117331,164.642668 198.576,164.392 C199.034669,164.141332 199.55733,164.016 200.144,164.016 Z M208.608,172.112 C207.839996,172.112 207.173336,171.946668 206.608,171.616 C206.042664,171.285332 205.608002,170.81867 205.304,170.216 C204.999998,169.61333 204.848,168.906671 204.848,168.096 C204.848,167.285329 205.005332,166.573336 205.32,165.96 C205.634668,165.346664 206.07733,164.869335 206.648,164.528 C207.21867,164.186665 207.887996,164.016 208.656,164.016 C209.178669,164.016 209.690664,164.109332 210.192,164.296 C210.693336,164.482668 211.098665,164.730665 211.408,165.04 L210.976,166 C210.239996,165.402664 209.493337,165.104 208.736,165.104 C207.935996,165.104 207.312002,165.365331 206.864,165.888 C206.415998,166.410669 206.192,167.146662 206.192,168.096 C206.192,169.034671 206.415998,169.759997 206.864,170.272 C207.312002,170.784003 207.935996,171.04 208.736,171.04 C209.493337,171.04 210.239996,170.741336 210.976,170.144 L211.408,171.104 C211.077332,171.413335 210.661336,171.658666 210.16,171.84 C209.658664,172.021334 209.141336,172.112 208.608,172.112 Z M216.208,172.112 C215.471996,172.112 214.824003,171.946668 214.264,171.616 C213.703997,171.285332 213.272002,170.813336 212.968,170.2 C212.663998,169.586664 212.512,168.874671 212.512,168.064 C212.512,167.253329 212.663998,166.541336 212.968,165.928 C213.272002,165.314664 213.703997,164.842668 214.264,164.512 C214.824003,164.181332 215.471996,164.016 216.208,164.016 C216.944004,164.016 217.594664,164.181332 218.16,164.512 C218.725336,164.842668 219.159998,165.314664 219.464,165.928 C219.768002,166.541336 219.92,167.253329 219.92,168.064 C219.92,168.874671 219.768002,169.586664 219.464,170.2 C219.159998,170.813336 218.725336,171.285332 218.16,171.616 C217.594664,171.946668 216.944004,172.112 216.208,172.112 Z M216.208,171.04 C216.976004,171.04 217.565331,170.786669 217.976,170.28 C218.386669,169.773331 218.592,169.034672 218.592,168.064 C218.592,167.114662 218.384002,166.381336 217.968,165.864 C217.551998,165.346664 216.965337,165.088 216.208,165.088 C215.450663,165.088 214.864002,165.346664 214.448,165.864 C214.031998,166.381336 213.824,167.114662 213.824,168.064 C213.824,169.024005 214.029331,169.759997 214.44,170.272 C214.850669,170.784003 215.439996,171.04 216.208,171.04 Z M228.768,160.72 L228.768,172 L227.472,172 L227.472,170.576 C227.237332,171.066669 226.893336,171.445332 226.44,171.712 C225.986664,171.978668 225.456003,172.112 224.848,172.112 C224.16533,172.112 223.562669,171.941335 223.04,171.6 C222.517331,171.258665 222.112001,170.781336 221.824,170.168 C221.535999,169.554664 221.392,168.842671 221.392,168.032 C221.392,167.231996 221.535999,166.528003 221.824,165.92 C222.112001,165.311997 222.517331,164.842668 223.04,164.512 C223.562669,164.181332 224.16533,164.016 224.848,164.016 C225.456003,164.016 225.986664,164.149332 226.44,164.416 C226.893336,164.682668 227.237332,165.061331 227.472,165.552 L227.472,160.72 L228.768,160.72 Z M225.104,171.04 C225.861337,171.04 226.445331,170.781336 226.856,170.264 C227.266669,169.746664 227.472,169.013338 227.472,168.064 C227.472,167.114662 227.266669,166.384003 226.856,165.872 C226.445331,165.359997 225.861337,165.104 225.104,165.104 C224.346663,165.104 223.757335,165.359997 223.336,165.872 C222.914665,166.384003 222.704,167.104 222.704,168.032 C222.704,168.981338 222.914665,169.719997 223.336,170.248 C223.757335,170.776003 224.346663,171.04 225.104,171.04 Z M231.168,172 L231.168,164.208 L232.464,164.208 L232.464,172 L231.168,172 Z M231.04,160.832 L232.608,160.832 L232.608,162.288 L231.04,162.288 L231.04,160.832 Z M238.8,164.016 C240.666676,164.016 241.6,165.045323 241.6,167.104 L241.6,172 L240.304,172 L240.304,167.184 C240.304,166.458663 240.162668,165.930668 239.88,165.6 C239.597332,165.269332 239.14667,165.104 238.528,165.104 C237.81333,165.104 237.242669,165.322664 236.816,165.76 C236.389331,166.197336 236.176,166.78933 236.176,167.536 L236.176,172 L234.88,172 L234.88,164.208 L236.16,164.208 L236.16,165.488 C236.416001,165.007998 236.773331,164.642668 237.232,164.392 C237.690669,164.141332 238.21333,164.016 238.8,164.016 Z" id="one-hotencoding" fill="#0F1931" fill-rule="nonzero"></path>
        <path d="M246.992,164.016 C247.61067,164.016 248.149331,164.149332 248.608,164.416 C249.066669,164.682668 249.413332,165.061331 249.648,165.552 L249.648,164.208 L250.944,164.208 L250.944,171.472 C250.944,172.634672 250.645336,173.511997 250.048,174.104 C249.450664,174.696003 248.565339,174.992 247.392,174.992 C246.02666,174.992 244.880005,174.640004 243.952,173.936 L244.384,172.976 C244.906669,173.317335 245.397331,173.562666 245.856,173.712 C246.314669,173.861334 246.826664,173.936 247.392,173.936 C248.13867,173.936 248.703998,173.736002 249.088,173.336 C249.472002,172.935998 249.664,172.352004 249.664,171.584 L249.664,170.208 C249.439999,170.709336 249.096002,171.093332 248.632,171.36 C248.167998,171.626668 247.621336,171.76 246.992,171.76 C246.30933,171.76 245.704003,171.600002 245.176,171.28 C244.647997,170.959998 244.237335,170.50667 243.944,169.92 C243.650665,169.33333 243.504,168.656004 243.504,167.888 C243.504,167.119996 243.650665,166.44267 243.944,165.856 C244.237335,165.26933 244.647997,164.816002 245.176,164.496 C245.704003,164.175998 246.30933,164.016 246.992,164.016 Z M247.248,165.104 C246.490663,165.104 245.896002,165.351998 245.464,165.848 C245.031998,166.344002 244.816,167.023996 244.816,167.888 C244.816,168.762671 245.031998,169.447998 245.464,169.944 C245.896002,170.440002 246.490663,170.688 247.248,170.688 C247.99467,170.688 248.581331,170.440002 249.008,169.944 C249.434669,169.447998 249.648,168.762671 249.648,167.888 C249.648,167.023996 249.437335,166.344002 249.016,165.848 C248.594665,165.351998 248.005337,165.104 247.248,165.104 Z" id="Combined-Shape" fill="#0F1931" fill-rule="nonzero"></path>
    </g>
</svg>