<?xml version="1.0" encoding="UTF-8"?><svg xmlns="http://www.w3.org/2000/svg" viewBox="0 0 1000 750"><defs><style>.d{opacity:.56;}.d,.e,.f,.g,.h,.i,.j{stroke-width:0px;}.d,.f{fill:#b6753e;}.e{fill:#f3c738;}.k{stroke:#231f20;stroke-width:3px;}.k,.l,.m{fill:none;stroke-miterlimit:10;}.l{stroke:#bfb9b4;}.h{fill:#fff;}.m{stroke:#000;stroke-width:2px;}.i{fill:#231f20;}.j{fill:#ef8d97;}</style></defs><g id="a"><line class="l" x1="312.89" y1="339.64" x2="500" y2="376.82"/><line class="l" x1="500" y1="153.72" x2="312.89" y2="339.64"/><line class="l" x1="500" y1="228.09" x2="312.89" y2="339.64"/><line class="l" x1="312.89" y1="339.64" x2="500" y2="302.45"/><line class="l" x1="312.89" y1="265.27" x2="500" y2="376.82"/><line class="l" x1="500" y1="153.72" x2="312.89" y2="265.27"/><line class="l" x1="500" y1="228.09" x2="312.89" y2="265.27"/><line class="l" x1="312.89" y1="265.27" x2="500" y2="302.45"/><line class="l" x1="687.11" y1="302.45" x2="500" y2="376.82"/><line class="l" x1="500" y1="302.45" x2="687.11" y2="302.45"/><line class="l" x1="500" y1="228.09" x2="687.11" y2="302.45"/><line class="l" x1="500" y1="153.72" x2="687.11" y2="302.45"/><line class="l" x1="687.11" y1="228.09" x2="500" y2="376.82"/><line class="l" x1="500" y1="302.45" x2="687.11" y2="228.09"/><line class="l" x1="500" y1="228.09" x2="687.11" y2="228.09"/><line class="l" x1="500" y1="153.72" x2="687.11" y2="228.09"/><line class="l" x1="312.89" y1="190.91" x2="500" y2="376.82"/><line class="l" x1="500" y1="153.72" x2="312.89" y2="190.91"/><line class="l" x1="500" y1="228.09" x2="312.89" y2="190.91"/><line class="l" x1="312.89" y1="190.91" x2="500" y2="302.45"/></g><g id="b"><path class="g" d="M341.22,540.61l2.85,10.44,1.96-14.33h3.31l-3.21,19.37h-3.31l-3.13-11.7-3.13,11.7h-3.31l-3.21-19.37h3.35l1.92,14.33,2.85-10.44h3.06Z"/><path class="g" d="M359.27,552.86v13.55h3.16v1.66h-8.91v-1.66h3.84v-10.24h-3.84v-1.32c2.51-.06,3.74-.34,4.51-1.99h1.25Z"/><path class="g" d="M372.69,552.86v13.55h3.16v1.66h-8.91v-1.66h3.84v-10.24h-3.84v-1.32c2.51-.06,3.74-.34,4.51-1.99h1.25Z"/><path class="g" d="M341.22,588.61l2.85,10.44,1.96-14.33h3.31l-3.21,19.37h-3.31l-3.13-11.7-3.13,11.7h-3.31l-3.21-19.37h3.35l1.92,14.33,2.85-10.44h3.06Z"/><path class="g" d="M362.78,604.68c0,3.53-3.36,6.63-7.21,9.74h7.48v1.66h-10.16v-1.66c5.05-3.97,7.85-6.82,7.85-9.48,0-1.57-.89-2.71-2.6-2.71-1.56,0-2.99.96-3.03,3.46h-1.95c-.04-2.89,1.95-5.1,5-5.1,2.64,0,4.61,1.51,4.61,4.09Z"/><path class="g" d="M372.69,600.86v13.55h3.16v1.66h-8.91v-1.66h3.84v-10.24h-3.84v-1.32c2.51-.06,3.74-.34,4.51-1.99h1.25Z"/><path class="g" d="M341.22,636.61l2.85,10.44,1.96-14.33h3.31l-3.21,19.37h-3.31l-3.13-11.7-3.13,11.7h-3.31l-3.21-19.37h3.35l1.92,14.33,2.85-10.44h3.06Z"/><path class="g" d="M361.1,659.81c0-2.14-1.81-2.92-4.11-2.92h-.29v-1.7h.23c2.47,0,3.8-.82,3.8-2.58,0-1.53-1.25-2.39-2.78-2.39-1.91,0-2.95,1.24-3.09,2.94h-1.95c.21-2.69,2.16-4.57,5.11-4.57,2.43,0,4.75,1.07,4.75,3.84,0,1.55-.83,2.9-2.35,3.53,2.12.73,2.72,2.29,2.72,3.84,0,3.02-2.62,4.55-5.27,4.55-3.34,0-4.98-2.33-5.17-4.8h1.93c.21,1.85,1.25,3.15,3.26,3.15,1.91,0,3.22-1.07,3.22-2.87Z"/><path class="g" d="M372.69,648.86v13.55h3.16v1.66h-8.91v-1.66h3.84v-10.24h-3.84v-1.32c2.51-.06,3.74-.34,4.51-1.99h1.25Z"/><path class="g" d="M441.23,540.61l2.85,10.44,1.96-14.33h3.31l-3.21,19.37h-3.31l-3.13-11.7-3.13,11.7h-3.31l-3.21-19.37h3.35l1.92,14.33,2.85-10.44h3.06Z"/><path class="g" d="M459.27,552.86v13.55h3.16v1.66h-8.91v-1.66h3.84v-10.24h-3.84v-1.32c2.51-.06,3.74-.34,4.51-1.99h1.25Z"/><path class="g" d="M476.2,556.68c0,3.53-3.36,6.63-7.21,9.74h7.48v1.66h-10.16v-1.66c5.05-3.97,7.85-6.82,7.85-9.48,0-1.57-.89-2.71-2.6-2.71-1.56,0-2.99.96-3.03,3.46h-1.95c-.04-2.89,1.95-5.1,5-5.1,2.64,0,4.61,1.51,4.61,4.09Z"/><path class="g" d="M441.23,588.61l2.85,10.44,1.96-14.33h3.31l-3.21,19.37h-3.31l-3.13-11.7-3.13,11.7h-3.31l-3.21-19.37h3.35l1.92,14.33,2.85-10.44h3.06Z"/><path class="g" d="M462.78,604.68c0,3.53-3.36,6.63-7.21,9.74h7.48v1.66h-10.16v-1.66c5.05-3.97,7.85-6.82,7.85-9.48,0-1.57-.89-2.71-2.6-2.71-1.56,0-2.99.96-3.03,3.46h-1.95c-.04-2.89,1.95-5.1,5-5.1,2.64,0,4.61,1.51,4.61,4.09Z"/><path class="g" d="M476.2,604.68c0,3.53-3.36,6.63-7.21,9.74h7.48v1.66h-10.16v-1.66c5.05-3.97,7.85-6.82,7.85-9.48,0-1.57-.89-2.71-2.6-2.71-1.56,0-2.99.96-3.03,3.46h-1.95c-.04-2.89,1.95-5.1,5-5.1,2.64,0,4.61,1.51,4.61,4.09Z"/><path class="g" d="M441.23,636.61l2.85,10.44,1.96-14.33h3.31l-3.21,19.37h-3.31l-3.13-11.7-3.13,11.7h-3.31l-3.21-19.37h3.35l1.92,14.33,2.85-10.44h3.06Z"/><path class="g" d="M461.1,659.81c0-2.14-1.81-2.92-4.11-2.92h-.29v-1.7h.23c2.47,0,3.8-.82,3.8-2.58,0-1.53-1.25-2.39-2.78-2.39-1.91,0-2.95,1.24-3.09,2.94h-1.95c.21-2.69,2.16-4.57,5.11-4.57,2.43,0,4.75,1.07,4.75,3.84,0,1.55-.83,2.9-2.35,3.53,2.12.73,2.72,2.29,2.72,3.84,0,3.02-2.62,4.55-5.27,4.55-3.34,0-4.98-2.33-5.17-4.8h1.93c.21,1.85,1.25,3.15,3.26,3.15,1.91,0,3.22-1.07,3.22-2.87Z"/><path class="g" d="M476.2,652.68c0,3.53-3.36,6.63-7.21,9.74h7.48v1.66h-10.16v-1.66c5.05-3.97,7.85-6.82,7.85-9.48,0-1.57-.89-2.71-2.6-2.71-1.56,0-2.99.96-3.03,3.46h-1.95c-.04-2.89,1.95-5.1,5-5.1,2.64,0,4.61,1.51,4.61,4.09Z"/><path class="g" d="M541.22,540.61l2.85,10.44,1.96-14.33h3.31l-3.21,19.37h-3.31l-3.13-11.7-3.13,11.7h-3.31l-3.21-19.37h3.35l1.92,14.33,2.85-10.44h3.06Z"/><path class="g" d="M559.27,552.86v13.55h3.16v1.66h-8.91v-1.66h3.84v-10.24h-3.84v-1.32c2.51-.06,3.74-.34,4.51-1.99h1.25Z"/><path class="g" d="M574.52,563.81c0-2.14-1.81-2.92-4.11-2.92h-.29v-1.7h.23c2.47,0,3.8-.82,3.8-2.58,0-1.53-1.25-2.39-2.78-2.39-1.91,0-2.95,1.24-3.09,2.94h-1.95c.21-2.69,2.16-4.57,5.11-4.57,2.43,0,4.75,1.07,4.75,3.84,0,1.55-.83,2.9-2.35,3.53,2.12.73,2.72,2.29,2.72,3.84,0,3.02-2.62,4.55-5.27,4.55-3.34,0-4.98-2.33-5.17-4.8h1.93c.21,1.85,1.25,3.15,3.26,3.15,1.91,0,3.22-1.07,3.22-2.87Z"/><path class="g" d="M541.22,588.61l2.85,10.44,1.96-14.33h3.31l-3.21,19.37h-3.31l-3.13-11.7-3.13,11.7h-3.31l-3.21-19.37h3.35l1.92,14.33,2.85-10.44h3.06Z"/><path class="g" d="M562.78,604.68c0,3.53-3.36,6.63-7.21,9.74h7.48v1.66h-10.16v-1.66c5.05-3.97,7.85-6.82,7.85-9.48,0-1.57-.89-2.71-2.6-2.71-1.56,0-2.99.96-3.03,3.46h-1.95c-.04-2.89,1.95-5.1,5-5.1,2.64,0,4.61,1.51,4.61,4.09Z"/><path class="g" d="M574.52,611.81c0-2.14-1.81-2.92-4.11-2.92h-.29v-1.7h.23c2.47,0,3.8-.82,3.8-2.58,0-1.53-1.25-2.39-2.78-2.39-1.91,0-2.95,1.24-3.09,2.94h-1.95c.21-2.69,2.16-4.57,5.11-4.57,2.43,0,4.75,1.07,4.75,3.84,0,1.55-.83,2.9-2.35,3.53,2.12.73,2.72,2.29,2.72,3.84,0,3.02-2.62,4.55-5.27,4.55-3.34,0-4.98-2.33-5.17-4.8h1.93c.21,1.85,1.25,3.15,3.26,3.15,1.91,0,3.22-1.07,3.22-2.87Z"/><path class="g" d="M541.22,636.61l2.85,10.44,1.96-14.33h3.31l-3.21,19.37h-3.31l-3.13-11.7-3.13,11.7h-3.31l-3.21-19.37h3.35l1.92,14.33,2.85-10.44h3.06Z"/><path class="g" d="M561.1,659.81c0-2.14-1.81-2.92-4.11-2.92h-.29v-1.7h.23c2.47,0,3.8-.82,3.8-2.58,0-1.53-1.25-2.39-2.78-2.39-1.91,0-2.95,1.24-3.09,2.94h-1.95c.21-2.69,2.16-4.57,5.11-4.57,2.43,0,4.75,1.07,4.75,3.84,0,1.55-.83,2.9-2.35,3.53,2.12.73,2.72,2.29,2.72,3.84,0,3.02-2.62,4.55-5.27,4.55-3.34,0-4.98-2.33-5.17-4.8h1.93c.21,1.85,1.25,3.15,3.26,3.15,1.91,0,3.22-1.07,3.22-2.87Z"/><path class="g" d="M574.52,659.81c0-2.14-1.81-2.92-4.11-2.92h-.29v-1.7h.23c2.47,0,3.8-.82,3.8-2.58,0-1.53-1.25-2.39-2.78-2.39-1.91,0-2.95,1.24-3.09,2.94h-1.95c.21-2.69,2.16-4.57,5.11-4.57,2.43,0,4.75,1.07,4.75,3.84,0,1.55-.83,2.9-2.35,3.53,2.12.73,2.72,2.29,2.72,3.84,0,3.02-2.62,4.55-5.27,4.55-3.34,0-4.98-2.33-5.17-4.8h1.93c.21,1.85,1.25,3.15,3.26,3.15,1.91,0,3.22-1.07,3.22-2.87Z"/><path class="g" d="M641.22,540.61l2.85,10.44,1.96-14.33h3.31l-3.21,19.37h-3.31l-3.13-11.7-3.13,11.7h-3.31l-3.21-19.37h3.35l1.92,14.33,2.85-10.44h3.06Z"/><path class="g" d="M659.27,552.86v13.55h3.16v1.66h-8.91v-1.66h3.84v-10.24h-3.84v-1.32c2.51-.06,3.74-.34,4.51-1.99h1.25Z"/><path class="g" d="M677.07,564.32h-2.51v3.75h-1.91v-3.75h-7.1v-1.8l7.08-9.65h1.93v9.65h2.51v1.8ZM667.54,562.51h5.11v-7.05l-5.11,7.05Z"/><path class="g" d="M641.22,588.61l2.85,10.44,1.96-14.33h3.31l-3.21,19.37h-3.31l-3.13-11.7-3.13,11.7h-3.31l-3.21-19.37h3.35l1.92,14.33,2.85-10.44h3.06Z"/><path class="g" d="M662.78,604.68c0,3.53-3.36,6.63-7.21,9.74h7.48v1.66h-10.16v-1.66c5.05-3.97,7.85-6.82,7.85-9.48,0-1.57-.89-2.71-2.6-2.71-1.56,0-2.99.96-3.03,3.46h-1.95c-.04-2.89,1.95-5.1,5-5.1,2.64,0,4.61,1.51,4.61,4.09Z"/><path class="g" d="M677.07,612.32h-2.51v3.75h-1.91v-3.75h-7.1v-1.8l7.08-9.65h1.93v9.65h2.51v1.8ZM667.54,610.51h5.11v-7.05l-5.11,7.05Z"/><path class="g" d="M641.22,636.61l2.85,10.44,1.96-14.33h3.31l-3.21,19.37h-3.31l-3.13-11.7-3.13,11.7h-3.31l-3.21-19.37h3.35l1.92,14.33,2.85-10.44h3.06Z"/><path class="g" d="M661.1,659.81c0-2.14-1.81-2.92-4.11-2.92h-.29v-1.7h.23c2.47,0,3.8-.82,3.8-2.58,0-1.53-1.25-2.39-2.78-2.39-1.91,0-2.95,1.24-3.09,2.94h-1.95c.21-2.69,2.16-4.57,5.11-4.57,2.43,0,4.75,1.07,4.75,3.84,0,1.55-.83,2.9-2.35,3.53,2.12.73,2.72,2.29,2.72,3.84,0,3.02-2.62,4.55-5.27,4.55-3.34,0-4.98-2.33-5.17-4.8h1.93c.21,1.85,1.25,3.15,3.26,3.15,1.91,0,3.22-1.07,3.22-2.87Z"/><path class="g" d="M677.07,660.32h-2.51v3.75h-1.91v-3.75h-7.1v-1.8l7.08-9.65h1.93v9.65h2.51v1.8ZM667.54,658.51h5.11v-7.05l-5.11,7.05Z"/><circle class="h" cx="312.89" cy="339.64" r="24.95"/><circle class="h" cx="312.89" cy="265.27" r="24.95"/><circle class="h" cx="312.89" cy="190.91" r="24.95"/><circle class="h" cx="500" cy="376.82" r="24.95"/><circle class="h" cx="500" cy="302.45" r="24.95"/><circle class="h" cx="500" cy="228.09" r="24.95"/><circle class="h" cx="500" cy="153.72" r="24.95"/><circle class="h" cx="687.11" cy="302.45" r="24.95"/><circle class="h" cx="687.11" cy="228.09" r="24.95"/><circle class="j" cx="312.89" cy="339.64" r="24.95"/><circle class="j" cx="312.89" cy="265.27" r="24.95"/><circle class="j" cx="312.89" cy="190.91" r="24.95"/><circle class="d" cx="500" cy="376.82" r="24.95"/><circle class="d" cx="500" cy="302.45" r="24.95"/><circle class="d" cx="500" cy="228.09" r="24.95"/><circle class="d" cx="500" cy="153.72" r="24.95"/><circle class="e" cx="687.11" cy="302.45" r="24.95"/><circle class="e" cx="687.11" cy="228.09" r="24.95"/><path class="f" d="M421,68.21h3.5v7.17h7.54v-7.17h3.5v18.86h-3.5v-8.46h-7.54v8.46h-3.5v-18.86Z"/><path class="f" d="M439.73,71.12c-.41-.41-.62-.92-.62-1.54s.21-1.12.62-1.54.92-.62,1.54-.62,1.12.21,1.54.62c.41.41.62.92.62,1.54s-.21,1.12-.62,1.54-.93.62-1.54.62-1.12-.21-1.54-.62ZM439.59,73.49h3.34v13.58h-3.34v-13.58Z"/><path class="f" d="M447.45,85.39c-1.03-1.27-1.55-2.97-1.55-5.11s.52-3.84,1.55-5.11c1.03-1.27,2.49-1.9,4.38-1.9.77,0,1.48.14,2.12.42.64.28,1.12.62,1.44,1.04v-6.74h3.34v19.08h-3.34v-1.4c-.22.41-.64.79-1.28,1.12s-1.4.5-2.28.5c-1.89,0-3.35-.63-4.38-1.9ZM454.8,83.34c.58-.73.88-1.75.88-3.06s-.29-2.33-.88-3.06c-.58-.73-1.33-1.09-2.25-1.09s-1.67.36-2.26,1.09-.89,1.75-.89,3.06.3,2.31.89,3.04,1.35,1.1,2.26,1.1,1.67-.36,2.25-1.09Z"/><path class="f" d="M463.29,85.39c-1.03-1.27-1.55-2.97-1.55-5.11s.52-3.84,1.55-5.11c1.03-1.27,2.49-1.9,4.38-1.9.77,0,1.48.14,2.12.42.64.28,1.12.62,1.44,1.04v-6.74h3.34v19.08h-3.34v-1.4c-.22.41-.64.79-1.28,1.12s-1.4.5-2.28.5c-1.89,0-3.35-.63-4.38-1.9ZM470.65,83.34c.58-.73.88-1.75.88-3.06s-.29-2.33-.88-3.06c-.58-.73-1.33-1.09-2.25-1.09s-1.67.36-2.26,1.09-.89,1.75-.89,3.06.3,2.31.89,3.04,1.35,1.1,2.26,1.1,1.67-.36,2.25-1.09Z"/><path class="f" d="M490.44,81.36h-9.38c.14,1.01.5,1.77,1.06,2.29.57.52,1.29.78,2.17.78.75,0,1.39-.17,1.9-.51.51-.34.97-.87,1.39-1.59l2.69,1c-.56,1.28-1.33,2.25-2.33,2.94-1,.68-2.28,1.02-3.84,1.02-1.47,0-2.7-.35-3.68-1.04-.98-.69-1.7-1.57-2.16-2.64-.46-1.07-.69-2.18-.69-3.33s.23-2.26.69-3.33,1.18-1.95,2.16-2.64c.98-.69,2.2-1.04,3.68-1.04s2.6.34,3.56,1.01c.95.67,1.65,1.52,2.1,2.55.45,1.02.67,2.07.67,3.15v1.37ZM487.01,78.72c-.16-.75-.48-1.37-.96-1.86s-1.13-.73-1.95-.73c-.72,0-1.34.22-1.86.66-.52.44-.89,1.08-1.1,1.93h5.87Z"/><path class="f" d="M496.79,73.49v2.18c.52-.74,1.14-1.32,1.86-1.75.72-.43,1.5-.65,2.34-.65,1.26,0,2.27.35,3.03,1.05.76.7,1.14,1.71,1.14,3.04v9.7h-3.34v-8.7c0-.77-.17-1.34-.53-1.7s-.82-.54-1.41-.54c-.56,0-1.07.22-1.54.65-.47.43-.84,1.06-1.13,1.9-.29.84-.43,1.83-.43,2.98v5.42h-3.34v-13.58h3.34Z"/><path class="f" d="M515.9,68.21h3.5v15.63h8v3.23h-11.51v-18.86Z"/><path class="f" d="M530.55,86.21c-.77-.72-1.16-1.73-1.16-3.04s.51-2.42,1.54-3.23c1.02-.81,2.41-1.21,4.15-1.21h2.37v-.59c0-.66-.23-1.16-.67-1.5-.45-.33-1.02-.5-1.7-.5-1.17,0-1.95.52-2.34,1.56l-2.83-.65c.22-1.13.79-2.04,1.74-2.73.94-.69,2.09-1.04,3.44-1.04,1.81,0,3.22.48,4.22,1.44,1,.96,1.5,2.38,1.5,4.24v8.11h-2.75l-.35-1.72c-1.06,1.29-2.45,1.94-4.18,1.94-1.2,0-2.19-.36-2.96-1.08ZM536.54,83.66c.61-.51.92-1.19.92-2.03v-.27h-2.24c-.74,0-1.31.14-1.71.43-.4.29-.61.73-.61,1.32,0,.4.14.71.42.96.28.24.64.36,1.09.36.81,0,1.52-.26,2.13-.77Z"/><path class="f" d="M551.73,73.49h3.34l-7,19.08h-3.23l2.32-6.41-4.9-12.66h3.37l3.1,8.35,3.02-8.35Z"/><path class="f" d="M568.79,81.36h-9.38c.14,1.01.5,1.77,1.06,2.29.57.52,1.29.78,2.17.78.75,0,1.39-.17,1.9-.51.51-.34.97-.87,1.39-1.59l2.69,1c-.56,1.28-1.33,2.25-2.33,2.94-1,.68-2.28,1.02-3.84,1.02-1.47,0-2.7-.35-3.68-1.04-.98-.69-1.7-1.57-2.16-2.64-.46-1.07-.69-2.18-.69-3.33s.23-2.26.69-3.33,1.18-1.95,2.16-2.64c.98-.69,2.2-1.04,3.68-1.04s2.6.34,3.56,1.01c.95.67,1.65,1.52,2.1,2.55.45,1.02.67,2.07.67,3.15v1.37ZM565.37,78.72c-.16-.75-.48-1.37-.96-1.86s-1.13-.73-1.95-.73c-.72,0-1.34.22-1.86.66-.52.44-.89,1.08-1.1,1.93h5.87Z"/><path class="f" d="M575.15,73.49v2.21c.48-.77,1.08-1.37,1.78-1.79.7-.42,1.45-.63,2.24-.63.5,0,1.05.09,1.64.27l-.62,3.1c-.41-.25-.88-.38-1.4-.38-1.06,0-1.93.48-2.61,1.44s-1.02,2.47-1.02,4.54v4.82h-3.34v-13.58h3.34Z"/><path class="j" d="M208.36,68.21h3.5v18.86h-3.5v-18.86Z"/><path class="j" d="M219.06,73.49v2.18c.52-.74,1.14-1.32,1.86-1.75.72-.43,1.5-.65,2.34-.65,1.26,0,2.27.35,3.03,1.05.76.7,1.14,1.72,1.14,3.04v9.7h-3.34v-8.7c0-.77-.17-1.34-.53-1.7s-.82-.54-1.41-.54c-.56,0-1.07.22-1.54.65-.47.43-.84,1.06-1.13,1.9s-.43,1.83-.43,2.98v5.42h-3.34v-13.58h3.34Z"/><path class="j" d="M234.55,73.49v1.4c.21-.4.62-.76,1.23-1.1s1.29-.51,2.06-.51c1.99,0,3.52.63,4.59,1.9,1.07,1.27,1.6,2.97,1.6,5.11s-.54,3.84-1.6,5.11c-1.07,1.27-2.6,1.9-4.59,1.9-.67,0-1.3-.14-1.91-.43-.61-.29-1.07-.63-1.37-1.02v6.74h-3.34v-19.08h3.34ZM239.64,83.33c.59-.74.89-1.75.89-3.04s-.3-2.33-.89-3.06-1.35-1.09-2.26-1.09-1.67.36-2.25,1.09c-.58.73-.88,1.75-.88,3.06s.29,2.33.88,3.06c.58.73,1.33,1.09,2.25,1.09s1.67-.37,2.26-1.1Z"/><path class="j" d="M248.2,86.24c-.76-.7-1.15-1.71-1.15-3.04v-9.7h3.34v8.7c0,.77.17,1.34.53,1.7.35.36.82.54,1.41.54.56,0,1.07-.22,1.54-.65.47-.43.84-1.06,1.13-1.9.29-.84.43-1.83.43-2.98v-5.42h3.34v13.58h-3.34v-2.18c-.52.74-1.14,1.32-1.86,1.75s-1.5.65-2.34.65c-1.26,0-2.27-.35-3.03-1.05Z"/><path class="j" d="M264.33,86.02c-.88-.84-1.32-2.09-1.32-3.75v-5.93h-2.1v-2.86h2.1v-3.4l3.34-2.1v5.5h3.58v2.86h-3.58v5.87c0,.81.15,1.38.44,1.71.3.33.74.5,1.33.5.45,0,.88-.11,1.29-.32l.78,2.69c-.7.32-1.44.48-2.21.48-1.56,0-2.79-.42-3.67-1.27Z"/><path class="j" d="M279.47,68.21h3.5v15.63h8v3.23h-11.51v-18.86Z"/><path class="j" d="M294.12,86.21c-.77-.72-1.16-1.73-1.16-3.04s.51-2.43,1.54-3.23c1.02-.81,2.41-1.21,4.15-1.21h2.37v-.59c0-.66-.23-1.16-.67-1.5-.45-.33-1.02-.5-1.7-.5-1.17,0-1.95.52-2.34,1.56l-2.83-.65c.22-1.13.79-2.04,1.74-2.73.94-.69,2.09-1.04,3.44-1.04,1.81,0,3.22.48,4.22,1.44,1,.96,1.5,2.38,1.5,4.24v8.11h-2.75l-.35-1.72c-1.06,1.29-2.45,1.94-4.18,1.94-1.2,0-2.19-.36-2.96-1.08ZM300.11,83.66c.61-.51.92-1.19.92-2.03v-.27h-2.24c-.74,0-1.31.14-1.71.43-.4.29-.61.73-.61,1.32,0,.4.14.71.42.96.28.24.64.36,1.09.36.81,0,1.52-.26,2.13-.77Z"/><path class="j" d="M315.3,73.49h3.34l-7,19.08h-3.23l2.32-6.41-4.9-12.66h3.37l3.1,8.35,3.02-8.35Z"/><path class="j" d="M332.36,81.36h-9.38c.14,1.01.5,1.77,1.06,2.29.57.52,1.29.78,2.17.78.75,0,1.39-.17,1.9-.51s.97-.87,1.39-1.59l2.69,1c-.56,1.28-1.33,2.25-2.33,2.94-1,.68-2.28,1.02-3.84,1.02-1.47,0-2.7-.35-3.68-1.04-.98-.69-1.7-1.57-2.16-2.64-.46-1.07-.69-2.18-.69-3.33s.23-2.26.69-3.33c.46-1.07,1.18-1.95,2.16-2.64.98-.69,2.2-1.04,3.68-1.04s2.6.34,3.56,1.01c.95.67,1.65,1.52,2.1,2.55.45,1.02.67,2.07.67,3.15v1.37ZM328.94,78.72c-.16-.75-.48-1.37-.96-1.86s-1.13-.73-1.95-.73c-.72,0-1.34.22-1.86.66-.52.44-.89,1.08-1.1,1.93h5.87Z"/><path class="j" d="M338.72,73.49v2.21c.48-.77,1.08-1.37,1.78-1.79.7-.42,1.45-.63,2.24-.63.5,0,1.05.09,1.64.27l-.62,3.1c-.41-.25-.88-.38-1.4-.38-1.06,0-1.93.48-2.61,1.44-.68.96-1.02,2.48-1.02,4.54v4.82h-3.34v-13.58h3.34Z"/><path class="e" d="M649.63,86.21c-1.35-.72-2.42-1.8-3.22-3.25-.8-1.45-1.2-3.22-1.2-5.32s.4-3.88,1.2-5.32c.8-1.45,1.87-2.53,3.22-3.25,1.35-.72,2.84-1.08,4.47-1.08s3.13.36,4.47,1.08c1.35.72,2.42,1.8,3.22,3.25.8,1.45,1.2,3.22,1.2,5.32s-.4,3.88-1.2,5.32c-.8,1.45-1.87,2.53-3.22,3.25-1.35.72-2.84,1.08-4.47,1.08s-3.12-.36-4.47-1.08ZM656.78,83.37c.8-.46,1.44-1.17,1.93-2.13.49-.96.73-2.16.73-3.6s-.24-2.64-.73-3.6c-.48-.96-1.13-1.67-1.93-2.13-.8-.46-1.69-.69-2.68-.69s-1.88.23-2.68.69c-.8.46-1.44,1.17-1.93,2.13s-.73,2.16-.73,3.6.24,2.64.73,3.6,1.13,1.67,1.93,2.13c.8.46,1.69.69,2.68.69s1.88-.23,2.68-.69Z"/><path class="e" d="M667.27,86.24c-.76-.7-1.15-1.72-1.15-3.04v-9.7h3.34v8.7c0,.77.17,1.34.53,1.7.35.36.82.54,1.41.54.56,0,1.07-.22,1.54-.65.47-.43.84-1.06,1.13-1.9.29-.84.43-1.83.43-2.98v-5.42h3.34v13.58h-3.34v-2.18c-.52.74-1.14,1.32-1.86,1.75-.72.43-1.5.65-2.34.65-1.26,0-2.27-.35-3.03-1.05Z"/><path class="e" d="M683.39,86.02c-.88-.84-1.32-2.09-1.32-3.75v-5.93h-2.1v-2.86h2.1v-3.39l3.34-2.1v5.5h3.58v2.86h-3.58v5.87c0,.81.15,1.38.44,1.71.3.33.74.5,1.33.5.45,0,.88-.11,1.29-.32l.78,2.69c-.7.32-1.44.49-2.21.49-1.56,0-2.79-.42-3.67-1.27Z"/><path class="e" d="M694.92,73.49v1.4c.21-.39.62-.76,1.23-1.1s1.29-.51,2.06-.51c1.99,0,3.52.63,4.59,1.9,1.07,1.27,1.6,2.97,1.6,5.11s-.54,3.84-1.6,5.11c-1.07,1.27-2.6,1.9-4.59,1.9-.67,0-1.3-.14-1.91-.43-.61-.29-1.07-.63-1.37-1.02v6.74h-3.34v-19.08h3.34ZM700.02,83.33c.59-.74.89-1.75.89-3.04s-.3-2.33-.89-3.06-1.35-1.09-2.26-1.09-1.67.36-2.25,1.09c-.58.73-.88,1.75-.88,3.06s.29,2.33.88,3.06c.58.73,1.33,1.09,2.25,1.09s1.67-.37,2.26-1.1Z"/><path class="e" d="M708.57,86.24c-.76-.7-1.15-1.72-1.15-3.04v-9.7h3.34v8.7c0,.77.17,1.34.53,1.7.35.36.82.54,1.41.54.56,0,1.07-.22,1.54-.65.47-.43.84-1.06,1.13-1.9.29-.84.43-1.83.43-2.98v-5.42h3.34v13.58h-3.34v-2.18c-.52.74-1.14,1.32-1.86,1.75-.72.43-1.5.65-2.34.65-1.26,0-2.27-.35-3.03-1.05Z"/><path class="e" d="M724.7,86.02c-.88-.84-1.32-2.09-1.32-3.75v-5.93h-2.1v-2.86h2.1v-3.39l3.34-2.1v5.5h3.58v2.86h-3.58v5.87c0,.81.15,1.38.44,1.71.3.33.74.5,1.33.5.45,0,.88-.11,1.29-.32l.78,2.69c-.7.32-1.44.49-2.21.49-1.56,0-2.79-.42-3.67-1.27Z"/><path class="e" d="M739.84,68.21h3.5v15.63h8v3.23h-11.51v-18.86Z"/><path class="e" d="M754.5,86.21c-.77-.72-1.16-1.73-1.16-3.04s.51-2.42,1.54-3.23c1.02-.81,2.41-1.21,4.15-1.21h2.37v-.59c0-.66-.23-1.16-.67-1.5-.45-.33-1.02-.5-1.7-.5-1.17,0-1.95.52-2.34,1.56l-2.83-.65c.22-1.13.79-2.04,1.74-2.73.94-.69,2.09-1.04,3.44-1.04,1.81,0,3.22.48,4.22,1.44,1,.96,1.5,2.38,1.5,4.24v8.11h-2.75l-.35-1.72c-1.06,1.29-2.45,1.94-4.18,1.94-1.2,0-2.19-.36-2.96-1.08ZM760.48,83.66c.61-.51.92-1.19.92-2.03v-.27h-2.24c-.74,0-1.31.14-1.71.43-.4.29-.61.73-.61,1.32,0,.4.14.71.42.96.28.24.64.36,1.09.36.81,0,1.52-.26,2.13-.77Z"/><path class="e" d="M775.67,73.49h3.34l-7,19.08h-3.23l2.32-6.41-4.9-12.66h3.37l3.1,8.35,3.02-8.35Z"/><path class="e" d="M792.73,81.36h-9.38c.14,1.01.5,1.77,1.06,2.29.57.52,1.29.78,2.17.78.75,0,1.39-.17,1.9-.51.51-.34.97-.87,1.39-1.59l2.69,1c-.56,1.28-1.33,2.25-2.33,2.94-1,.68-2.28,1.02-3.84,1.02-1.47,0-2.7-.35-3.68-1.04-.98-.69-1.7-1.57-2.16-2.64-.46-1.07-.69-2.18-.69-3.33s.23-2.26.69-3.33,1.18-1.95,2.16-2.64c.98-.69,2.2-1.04,3.68-1.04s2.6.34,3.56,1.01c.95.67,1.65,1.52,2.1,2.55.45,1.02.67,2.07.67,3.15v1.37ZM789.31,78.72c-.16-.75-.48-1.37-.96-1.86s-1.13-.73-1.95-.73c-.72,0-1.34.22-1.86.66-.52.44-.89,1.08-1.1,1.93h5.87Z"/><path class="e" d="M799.09,73.49v2.21c.48-.77,1.08-1.37,1.78-1.79.7-.42,1.45-.63,2.24-.63.5,0,1.05.09,1.64.27l-.62,3.1c-.41-.25-.88-.38-1.4-.38-1.06,0-1.93.48-2.61,1.44s-1.02,2.47-1.02,4.54v4.82h-3.34v-13.58h3.34Z"/><path class="g" d="M377.39,164.65l2.7,5.37-.51-8.02,1.8-.36.39,10.9-1.8.37-3-6.03-.42,6.72-1.8.36-3.88-10.2,1.82-.37,2.63,7.59.4-6,1.67-.34Z"/><path class="g" d="M388.57,169.33l1.49,7.38,1.72-.35.18.9-4.85.98-.18-.9,2.09-.42-1.13-5.58-2.09.42-.15-.72c1.36-.31,2-.59,2.23-1.58l.68-.14Z"/><path class="g" d="M395.87,167.85l1.49,7.38,1.72-.35.18.9-4.85.98-.18-.9,2.09-.42-1.13-5.58-2.09.42-.15-.72c1.36-.31,2-.59,2.23-1.58l.68-.14Z"/><path class="g" d="M380.79,191.46l.36,6,2.69-7.57,1.8.38-3.94,10.17-1.8-.38-.38-6.72-3.03,6.01-1.8-.38.46-10.9,1.82.38-.58,8.01,2.73-5.36,1.67.35Z"/><path class="g" d="M389.22,200.17l-1.54,7.37,1.72.36-.19.9-4.84-1.01.19-.9,2.09.44,1.16-5.57-2.09-.44.15-.72c1.37.25,2.07.24,2.68-.57l.68.14Z"/><path class="g" d="M397.99,204.17c-.4,1.92-2.58,3.22-5.02,4.48l4.06.85-.19.9-5.52-1.15.19-.9c3.19-1.58,5.04-2.82,5.34-4.27.18-.86-.18-1.57-1.1-1.77-.85-.18-1.74.19-2.04,1.54l-1.06-.22c.31-1.58,1.64-2.55,3.3-2.21,1.44.3,2.34,1.35,2.04,2.75Z"/><path class="g" d="M380.78,340.63l.42,6,2.62-7.6,1.81.36-3.84,10.21-1.81-.36-.44-6.72-2.98,6.04-1.81-.36.35-10.9,1.82.36-.5,8.02,2.68-5.38,1.67.33Z"/><path class="g" d="M389.1,355.43c.23-1.17-.67-1.78-1.92-2.03l-.16-.03.18-.93.12.02c1.35.27,2.16-.03,2.35-1,.17-.83-.42-1.44-1.26-1.6-1.04-.21-1.74.36-2,1.27l-1.06-.21c.4-1.44,1.67-2.26,3.28-1.94,1.32.26,2.48,1.1,2.18,2.61-.17.85-.77,1.49-1.66,1.67,1.07.63,1.23,1.54,1.07,2.39-.33,1.65-1.92,2.2-3.37,1.91-1.82-.36-2.46-1.81-2.3-3.18l1.05.21c-.09,1.03.34,1.85,1.44,2.07,1.04.21,1.87-.23,2.07-1.22Z"/><path class="g" d="M397.74,357.44l-1.37-.27-.41,2.05-1.04-.21.41-2.05-3.87-.77.2-.98,4.9-4.49,1.05.21-1.05,5.26,1.37.27-.2.98ZM392.74,355.42l2.78.55.76-3.84-3.55,3.29Z"/><path class="g" d="M380.72,266.55l.42,6,2.62-7.6,1.81.36-3.84,10.21-1.81-.36-.44-6.72-2.98,6.04-1.81-.36.35-10.9,1.82.36-.5,8.02,2.68-5.38,1.67.33Z"/><path class="g" d="M390.73,277.64c-.38,1.92-2.55,3.25-4.98,4.53l4.07.81-.18.9-5.53-1.1.18-.9c3.18-1.62,5.01-2.87,5.3-4.32.17-.86-.19-1.57-1.12-1.76-.85-.17-1.73.2-2.03,1.56l-1.06-.21c.29-1.58,1.61-2.57,3.28-2.24,1.44.29,2.35,1.32,2.07,2.73Z"/><path class="g" d="M396.35,282.8c.23-1.17-.67-1.78-1.92-2.03l-.16-.03.18-.93.12.02c1.35.27,2.16-.03,2.35-1,.17-.83-.42-1.44-1.26-1.6-1.04-.21-1.74.35-2,1.27l-1.06-.21c.4-1.44,1.67-2.26,3.28-1.94,1.32.26,2.48,1.1,2.18,2.61-.17.85-.77,1.49-1.66,1.67,1.07.63,1.24,1.54,1.07,2.39-.33,1.65-1.92,2.2-3.37,1.91-1.82-.36-2.46-1.81-2.3-3.18l1.05.21c-.09,1.03.34,1.85,1.44,2.07,1.04.21,1.87-.23,2.07-1.22Z"/><path class="g" d="M314.57,183.05v12.92h3.01v1.58h-8.49v-1.58h3.66v-9.76h-3.66v-1.26c2.4-.06,3.56-.32,4.29-1.9h1.19Z"/><path class="g" d="M317.91,261.24c0,3.36-3.21,6.32-6.87,9.28h7.12v1.58h-9.68v-1.58c4.81-3.78,7.48-6.5,7.48-9.04,0-1.5-.85-2.58-2.47-2.58-1.48,0-2.85.92-2.89,3.3h-1.86c-.04-2.76,1.86-4.86,4.77-4.86,2.51,0,4.39,1.44,4.39,3.9Z"/><path class="g" d="M316.31,341.94c0-2.04-1.72-2.78-3.92-2.78h-.28v-1.62h.22c2.35,0,3.62-.78,3.62-2.46,0-1.46-1.19-2.28-2.65-2.28-1.82,0-2.81,1.18-2.95,2.8h-1.86c.2-2.56,2.06-4.36,4.87-4.36,2.32,0,4.53,1.02,4.53,3.66,0,1.48-.79,2.76-2.24,3.36,2.02.7,2.59,2.18,2.59,3.66,0,2.88-2.49,4.34-5.03,4.34-3.19,0-4.75-2.22-4.93-4.58h1.84c.2,1.76,1.19,3,3.11,3,1.82,0,3.07-1.02,3.07-2.74Z"/><path class="g" d="M501.27,145.84v12.92h3.01v1.58h-8.49v-1.58h3.66v-9.76h-3.66v-1.26c2.4-.06,3.56-.32,4.29-1.9h1.19Z"/><path class="g" d="M504.61,224.04c0,3.36-3.21,6.32-6.87,9.28h7.12v1.58h-9.68v-1.58c4.81-3.78,7.48-6.5,7.48-9.04,0-1.5-.85-2.58-2.47-2.58-1.48,0-2.85.92-2.89,3.3h-1.86c-.04-2.76,1.86-4.86,4.77-4.86,2.51,0,4.39,1.44,4.39,3.9Z"/><path class="g" d="M503.01,304.74c0-2.04-1.72-2.78-3.92-2.78h-.28v-1.62h.22c2.35,0,3.62-.78,3.62-2.46,0-1.46-1.19-2.28-2.65-2.28-1.82,0-2.81,1.18-2.95,2.8h-1.86c.2-2.56,2.06-4.36,4.87-4.36,2.32,0,4.53,1.02,4.53,3.66,0,1.48-.79,2.76-2.24,3.36,2.02.7,2.59,2.18,2.59,3.66,0,2.88-2.49,4.34-5.03,4.34-3.19,0-4.75-2.22-4.93-4.58h1.84c.2,1.76,1.19,3,3.11,3,1.82,0,3.07-1.02,3.07-2.74Z"/><path class="g" d="M505.44,380h-2.4v3.58h-1.82v-3.58h-6.77v-1.72l6.75-9.2h1.84v9.2h2.4v1.72ZM496.36,378.28h4.87v-6.72l-4.87,6.72Z"/><path class="g" d="M113.72,565.13h4.97l4.21,18.54,4.72-15.88h4.03l4.72,15.88,4.21-18.54h4.97l-6.59,25.2h-4.75l-4.57-14.83-4.57,14.83h-4.75l-6.59-25.2Z"/><path class="g" d="M162.86,582.7h-12.53c.19,1.34.67,2.36,1.42,3.06.76.7,1.72,1.04,2.9,1.04,1.01,0,1.85-.23,2.54-.68s1.3-1.16,1.85-2.12l3.6,1.33c-.74,1.7-1.78,3.01-3.11,3.92s-3.04,1.37-5.13,1.37c-1.97,0-3.61-.46-4.91-1.39-1.31-.92-2.27-2.1-2.88-3.53-.61-1.43-.92-2.91-.92-4.45s.31-3.02.92-4.45c.61-1.43,1.57-2.6,2.88-3.53,1.31-.92,2.95-1.39,4.91-1.39s3.48.45,4.75,1.35c1.27.9,2.21,2.03,2.81,3.4.6,1.37.9,2.77.9,4.21v1.84ZM158.29,579.17c-.22-1.01-.64-1.84-1.28-2.48-.64-.65-1.51-.97-2.61-.97-.96,0-1.79.29-2.48.88-.7.59-1.19,1.45-1.48,2.57h7.85Z"/><path class="g" d="M167.07,569.02c-.55-.55-.83-1.24-.83-2.05s.28-1.5.83-2.05,1.24-.83,2.05-.83,1.5.28,2.05.83c.55.55.83,1.24.83,2.05s-.28,1.5-.83,2.05c-.55.55-1.24.83-2.05.83s-1.5-.28-2.05-.83ZM166.89,572.19h4.46v18.14h-4.46v-18.14Z"/><path class="g" d="M177.28,596.42c-1.52-1.03-2.29-2.51-2.29-4.43,0-1.49.49-2.69,1.48-3.6-.62-.74-.94-1.68-.94-2.81,0-.84.2-1.58.59-2.23.4-.65.94-1.17,1.64-1.58-.84-1.03-1.26-2.28-1.26-3.74,0-1.22.29-2.3.88-3.22.59-.92,1.39-1.64,2.41-2.14s2.14-.76,3.37-.76,2.29.26,3.35.79l3.42-1.8,1.76,2.95-2.59,1.3c.48.84.72,1.8.72,2.88,0,1.22-.29,2.3-.88,3.22-.59.92-1.39,1.63-2.41,2.11-1.02.48-2.14.72-3.37.72-.91,0-1.79-.13-2.63-.4-.58.34-.86.79-.86,1.37,0,.43.14.76.43.99s.71.34,1.26.34h3.71c1.94,0,3.49.46,4.64,1.39,1.15.92,1.73,2.24,1.73,3.94,0,1.42-.39,2.59-1.17,3.53-.78.94-1.79,1.62-3.04,2.07-1.25.44-2.59.67-4.03.67-2.42,0-4.4-.52-5.92-1.55ZM185.96,593.68c.68-.36,1.03-.92,1.03-1.69,0-.7-.25-1.18-.76-1.46s-1.22-.41-2.16-.41h-2.45c-.82,0-1.51-.05-2.09-.14-.26.41-.4.96-.4,1.66,0,.84.37,1.48,1.12,1.93.74.44,1.73.67,2.95.67,1.15,0,2.07-.18,2.75-.54ZM184.95,579.78c.47-.46.7-1.04.7-1.76s-.23-1.35-.7-1.82c-.47-.47-1.06-.7-1.78-.7s-1.31.23-1.78.7c-.47.47-.7,1.07-.7,1.82s.23,1.31.7,1.76c.47.46,1.06.68,1.78.68s1.31-.23,1.78-.68Z"/><path class="g" d="M199.18,564.84v10.26c.6-.96,1.4-1.73,2.39-2.32,1-.59,2.12-.88,3.37-.88,1.75,0,3.13.46,4.14,1.39,1.01.92,1.51,2.29,1.51,4.09v12.96h-4.46v-11.38c0-1.1-.22-1.92-.67-2.45-.44-.53-1.12-.79-2.03-.79-.72,0-1.4.25-2.05.76s-1.18,1.27-1.58,2.3c-.41,1.03-.61,2.33-.61,3.89v7.67h-4.46v-25.49h4.46Z"/><path class="g" d="M217.69,588.93c-1.18-1.13-1.76-2.79-1.76-5v-7.92h-2.81v-3.82h2.81v-4.54l4.46-2.81v7.34h4.79v3.82h-4.79v7.85c0,1.08.2,1.84.59,2.29.4.44.99.67,1.78.67.6,0,1.18-.14,1.73-.43l1.04,3.6c-.94.43-1.92.65-2.95.65-2.09,0-3.72-.56-4.9-1.69Z"/><path class="g" d="M116.24,608.33h5.26l5.94,15.73,5.94-15.73h5.26v25.2h-4.68v-15.55l-4.82,13.25h-3.38l-4.82-13.25v15.55h-4.68v-25.2Z"/><path class="g" d="M144.25,632.38c-1.03-.96-1.55-2.32-1.55-4.07s.68-3.24,2.05-4.32c1.37-1.08,3.22-1.62,5.54-1.62h3.17v-.79c0-.89-.3-1.55-.9-2-.6-.44-1.36-.67-2.27-.67-1.56,0-2.6.7-3.13,2.09l-3.78-.86c.29-1.51,1.06-2.73,2.32-3.65,1.26-.92,2.79-1.39,4.59-1.39,2.42,0,4.3.64,5.63,1.93s2,3.17,2,5.67v10.84h-3.67l-.47-2.3c-1.42,1.73-3.28,2.59-5.58,2.59-1.61,0-2.93-.48-3.96-1.44ZM152.24,628.98c.82-.68,1.22-1.59,1.22-2.72v-.36h-2.99c-.98,0-1.75.19-2.29.58-.54.38-.81.97-.81,1.76,0,.53.19.95.56,1.28.37.32.86.49,1.46.49,1.08,0,2.03-.34,2.84-1.03Z"/><path class="g" d="M164.99,632.13c-1.18-1.13-1.76-2.79-1.76-5v-7.92h-2.81v-3.82h2.81v-4.54l4.46-2.81v7.34h4.79v3.82h-4.79v7.85c0,1.08.2,1.84.59,2.29.4.44.99.67,1.78.67.6,0,1.18-.14,1.73-.43l1.04,3.6c-.94.43-1.92.65-2.95.65-2.09,0-3.72-.56-4.9-1.69Z"/><path class="g" d="M180.11,615.39v2.95c.65-1.03,1.44-1.83,2.38-2.39.94-.56,1.93-.85,2.99-.85.67,0,1.4.12,2.2.36l-.83,4.14c-.55-.34-1.18-.5-1.87-.5-1.42,0-2.58.64-3.49,1.93-.91,1.28-1.37,3.31-1.37,6.07v6.44h-4.46v-18.14h4.46Z"/><path class="g" d="M190.83,612.22c-.55-.55-.83-1.24-.83-2.05s.28-1.5.83-2.05,1.24-.83,2.05-.83,1.5.28,2.05.83c.55.55.83,1.24.83,2.05s-.28,1.5-.83,2.05c-.55.55-1.24.83-2.05.83s-1.5-.28-2.05-.83ZM190.65,615.39h4.46v18.14h-4.46v-18.14Z"/><path class="g" d="M203.9,623.85l-5.26-8.46h4.68l2.95,4.72,2.95-4.72h4.68l-5.26,8.46,6.01,9.68h-4.68l-3.71-5.9-3.71,5.9h-4.68l6.01-9.68Z"/><path class="g" d="M217.72,620.28c-.58-.58-.86-1.3-.86-2.16s.29-1.58.86-2.16c.58-.58,1.3-.86,2.16-.86s1.58.29,2.16.86c.58.58.86,1.3.86,2.16s-.29,1.58-.86,2.16-1.3.86-2.16.86-1.58-.29-2.16-.86ZM217.72,632.88c-.58-.58-.86-1.3-.86-2.16s.29-1.58.86-2.16c.58-.58,1.3-.86,2.16-.86s1.58.29,2.16.86.86,1.3.86,2.16-.29,1.58-.86,2.16c-.58.58-1.3.86-2.16.86s-1.58-.29-2.16-.86Z"/><polyline class="m" points="338.49 509.7 298.49 509.7 298.49 692.07 338.49 692.07"/><polyline class="m" points="657.67 692.07 697.67 692.07 697.67 509.7 657.67 509.7"/><path class="g" d="M723.74,691.92c-1.22-.62-2.21-1.49-2.95-2.59-.74-1.1-1.19-2.35-1.33-3.74l4.36-.58c.6,2.45,1.96,3.67,4.07,3.67,1.18,0,2.14-.38,2.88-1.15.74-.77,1.12-1.79,1.12-3.06,0-1.42-.37-2.51-1.1-3.28-.73-.77-1.69-1.15-2.86-1.15-.77,0-1.5.18-2.2.54l-1.8-2.52,4.75-6.52h-8.03v-4.18h14.44v1.58l-5.94,8.03c.43-.05.77-.07,1.01-.07,1.92,0,3.44.69,4.57,2.07,1.13,1.38,1.69,3.19,1.69,5.42,0,1.7-.37,3.2-1.12,4.48-.74,1.28-1.76,2.27-3.04,2.95-1.28.68-2.74,1.03-4.37,1.03-1.54,0-2.92-.31-4.14-.94Z"/><path class="g" d="M744.19,682.88l-5.26-8.46h4.68l2.95,4.72,2.95-4.72h4.68l-5.26,8.46,6.01,9.68h-4.68l-3.71-5.9-3.71,5.9h-4.68l6.01-9.68Z"/><path class="g" d="M767.51,687.88h-10.84v-2.3l10.62-18.22h4.75v16.34h2.81v4.18h-2.81v4.68h-4.54v-4.68ZM767.51,683.71v-9.61l-5.33,9.61h5.33Z"/><line class="k" x1="500" y1="425.59" x2="500" y2="472.3"/><polygon class="i" points="487.73 462.36 489.93 460.31 500 471.15 510.07 460.31 512.27 462.36 500 475.55 487.73 462.36"/></g></svg>